<?xml version="1.0" encoding="utf-8"?>
<!DOCTYPE svg PUBLIC "-//W3C//DTD SVG 1.1//EN" "http://www.w3.org/Graphics/SVG/1.1/DTD/svg11.dtd">
<svg version="1.1" id="Layer_1" xmlns="http://www.w3.org/2000/svg" xmlns:xlink="http://www.w3.org/1999/xlink" x="0px" y="0px"
	 width="226.777px" height="226.777px" viewBox="0 0 226.777 226.777" enable-background="new 0 0 226.777 226.777"
	 xml:space="preserve">
<g>
	<g>
		<path fill="grey" d="M216.57,174.085L132.262,28.019l-0.279-0.42l0,0c-0.7-1.121-1.541-2.241-2.38-3.222
			c-0.842-0.979-1.822-1.82-2.662-2.521c-0.98-0.699-1.96-1.4-3.08-2.1L40.534,164.001h12.604L125.68,38.382l91.029,157.69
			c0.7-1.262,1.4-2.661,1.82-4.062c0.561-1.82,0.981-3.641,0.981-5.461C219.791,182.348,218.951,178.146,216.57,174.085z"/>
		<path fill="grey" d="M125.68,60.229l-6.302,10.922l72.403,125.34H9.584c0.7,1.26,1.68,2.521,2.661,3.641
			c1.261,1.4,2.661,2.521,4.201,3.641c3.361,2.242,7.562,3.642,12.185,3.642c0,0,169.174,0,169.312,0c1.4,0,2.662-0.14,3.922-0.42
			c1.261-0.28,2.381-0.56,3.642-1.12c1.12-0.421,2.241-0.98,3.22-1.54L125.68,60.229z"/>
		<path fill="grey" d="M172.876,185.709l-6.302-10.783H21.628l91.169-157.971c-1.54,0-2.94,0.141-4.481,0.561
			c-1.82,0.419-3.641,0.98-5.321,1.82c-3.642,1.821-7.002,4.761-9.243,8.683L9.444,174.085c-0.14,0.28-0.28,0.56-0.42,0.699
			c-0.561,1.121-1.12,2.382-1.541,3.642c-0.42,1.261-0.7,2.381-0.84,3.642c-0.14,1.26-0.14,2.38-0.14,3.642H172.876z"/>
		<path fill="grey" d="M160.413,164.001l-47.336-81.925l-47.335,81.925H160.413z M113.077,103.923l28.429,49.296H84.508
			L113.077,103.923z"/>
	</g>
</g>
</svg>
