<?xml version="1.0" encoding="utf-8"?>
<!DOCTYPE svg PUBLIC "-//W3C//DTD SVG 1.1//EN" "http://www.w3.org/Graphics/SVG/1.1/DTD/svg11.dtd">
<svg version="1.1" id="Layer_1" xmlns="http://www.w3.org/2000/svg" xmlns:xlink="http://www.w3.org/1999/xlink" x="0px" y="0px"
	 width="226.777px" height="226.777px" viewBox="0 0 226.777 226.777" enable-background="new 0 0 226.777 226.777"
	 xml:space="preserve">
<g transform="translate(0.000000,150.000000) scale(0.100000,-0.100000)">
	<path fill="grey" d="M1052.536,1410.862c0-6.406-42.695-66.187-93.931-132.373c-115.278-151.572-149.443-256.187-134.507-397.08
		c21.357-162.251,93.945-254.067,330.918-409.897c202.812-130.22,358.643-273.267,407.773-367.212
		c123.818-243.349,36.279-587.099-192.129-753.613c-49.141-34.141-98.223-64.043-108.906-64.043
		c-38.418,0-12.793,59.775,49.102,119.541c91.816,85.391,168.662,254.062,168.662,371.484
		c-2.139,190.02-104.619,328.779-358.662,478.213c-215.625,130.22-330.903,232.7-399.229,356.528
		c-53.374,98.203-61.904,138.77-61.904,266.86c2.134,130.234,10.669,170.791,66.177,266.865
		c36.289,66.177,108.877,149.438,168.657,194.272C988.494,1412.991,1052.536,1440.745,1052.536,1410.862z M1377.048,1351.086
		c198.545-151.577,273.271-388.555,200.674-638.345c-36.279-125.952-115.283-217.754-168.662-198.535
		c-55.508,23.481-57.637,64.043,0,204.951c44.834,108.872,51.24,157.979,42.705,258.32
		c-10.674,128.091-76.865,268.989-162.256,345.845c-44.824,42.7-59.766,98.208-25.605,98.208
		C1274.568,1421.531,1325.798,1389.509,1377.048,1351.086z M911.633,151.272c6.411-17.07-8.54-72.598-29.888-125.977
		c-100.342-222.002-74.722-416.299,78.999-602.011c51.235-64.043,81.118-119.57,68.306-125.977
		c-34.16-23.477-217.749,125.977-281.802,228.447c-72.588,117.422-96.064,286.064-57.637,441.934
		C730.168,142.717,871.077,258.01,911.633,151.272z"/>
</g>
</svg>
