<?xml version="1.0" encoding="utf-8"?>
<!DOCTYPE svg PUBLIC "-//W3C//DTD SVG 1.1//EN" "http://www.w3.org/Graphics/SVG/1.1/DTD/svg11.dtd">
<svg version="1.1" id="Layer_1" xmlns="http://www.w3.org/2000/svg" xmlns:xlink="http://www.w3.org/1999/xlink" x="0px" y="0px"
	 width="226.777px" height="226.777px" viewBox="0 0 226.777 226.777" enable-background="new 0 0 226.777 226.777"
	 xml:space="preserve">
<path fill="grey" d="M164.616,28.159c-0.461,0.744-1.434,0.98-2.185,0.53c-15.06-8.848-32.213-13.505-49.68-13.489
	c-16.063,0-31.93,3.947-46,11.429c-0.771,0.418-1.735,0.14-2.166-0.624l-5.366-9.6c-0.437-0.781-0.157-1.769,0.625-2.206
	c0.006-0.003,0.013-0.007,0.019-0.011C76.035,5.555,94.281,1,112.752,1c20.084-0.019,39.805,5.354,57.104,15.557
	c0.769,0.459,1.018,1.455,0.558,2.222c-0.003,0.007-0.007,0.013-0.011,0.02L164.616,28.159z"/>
<path fill="grey" d="M207.568,84.447c-3.646-12.321-9.7-23.797-17.814-33.762c-0.557-0.677-0.462-1.676,0.212-2.234l6.66-5.516
	c0.702-0.576,1.736-0.477,2.314,0.223c9.224,11.345,15.972,24.138,20.083,38.074c0.249,0.858-0.248,1.757-1.107,2.005
	c-0.009,0.002-0.019,0.005-0.027,0.007l-8.351,2.306C208.69,85.781,207.813,85.29,207.568,84.447z"/>
<g>
	<path fill="grey" d="M183.996,196.094l-7.135-8.383c-0.565-0.668-0.484-1.668,0.183-2.236
		c20.83-18.129,32.916-44.045,33.361-71.549c0.011-0.876,0.725-1.583,1.602-1.583h11.041c0.904,0,1.638,0.731,1.639,1.635
		c0,0.002,0,0.004,0,0.006c-0.466,31.646-14.371,61.463-38.372,82.291C185.623,196.863,184.586,196.783,183.996,196.094"/>
	<path fill="grey" d="M112.752,223.685c-25.42,0-50.202-8.666-69.982-24.438c-0.696-0.562-0.806-1.58-0.246-2.277
		c0.006-0.006,0.012-0.014,0.017-0.02l7.038-8.471c0.562-0.672,1.558-0.771,2.24-0.223c17.234,13.695,38.806,21.223,60.932,21.223
		c15.312,0,29.932-3.412,43.491-10.133c0.782-0.396,1.739-0.092,2.147,0.686l5.088,9.754c0.415,0.791,0.11,1.768-0.68,2.184
		c-0.01,0.004-0.019,0.01-0.027,0.014C147.355,219.642,130.099,223.685,112.752,223.685z"/>
</g>
<path fill="grey" d="M21.596,171.998c-0.757,0.496-1.773,0.285-2.27-0.471c0-0.002-0.001-0.002-0.001-0.002
	C7.983,153.851,2,133.426,2,112.343c0-29.567,11.556-57.212,32.577-78.029c0.648-0.633,1.686-0.62,2.319,0.027l6.025,6.195
	c0.611,0.63,0.596,1.635-0.032,2.247C24.182,61.357,13.9,85.995,13.9,112.343c-0.025,18.682,5.318,36.979,15.392,52.715
	c0.479,0.734,0.274,1.717-0.458,2.197L21.596,171.998z"/>
<path fill="grey" d="M112.752,184.834c-40.185,0-72.879-32.518-72.879-72.491c0-39.972,32.695-72.49,72.879-72.49
	c40.186,0,72.885,32.518,72.885,72.49C185.636,152.314,152.941,184.834,112.752,184.834z M112.752,54.054
	c-32.311,0-58.603,26.149-58.603,58.289c0,32.141,26.292,58.292,58.603,58.292c32.312,0,58.6-26.148,58.6-58.292
	C171.351,80.198,145.065,54.054,112.752,54.054z"/>
</svg>
