<?xml version="1.0" encoding="utf-8"?>
<!DOCTYPE svg PUBLIC "-//W3C//DTD SVG 1.1//EN" "http://www.w3.org/Graphics/SVG/1.1/DTD/svg11.dtd">
<svg version="1.1" id="Layer_1" xmlns="http://www.w3.org/2000/svg" xmlns:xlink="http://www.w3.org/1999/xlink" x="0px" y="0px"
	 width="226.777px" height="226.777px" viewBox="0 0 226.777 226.777" enable-background="new 0 0 226.777 226.777"
	 xml:space="preserve">
<g id="g56">
	<path fill="grey" d="M222.135,66.864C180.059,31.269,127.243,13.11,117.115,9.842L113.428,8.7l-3.589,1.128
		C99.66,13.114,46.748,31.306,4.652,66.969l-2.641,2.234l0.64,3.628c0.872,4.734,5.931,29.752,19.999,57.442
		c9.06,17.775,20.14,33.382,32.938,46.391c15.615,15.824,33.849,27.561,54.219,34.892l3.716,1.313l3.677-1.392
		c20.235-7.281,38.467-19.016,54.191-34.878c12.724-12.863,23.807-28.472,32.942-46.395c13.944-27.388,19.33-52.957,20.018-57.643
		l0.016,0.003l0.647-3.648L222.135,66.864z M131.138,68.248c11.264-0.069,21.436,2.594,28.876,7.099c0,0-4.027-1.296-8.123-1.842
		c-2.048,2.115-3.823,3.002-4.369,3.275l-0.136,0.138C135.44,74.392,131.138,68.248,131.138,68.248z M193.451,124.729
		c-5.61,11.001-11.979,21.039-19.014,30.016c-29.564-2.732-27.734-21.031-27.734-21.031c0-0.75,0-1.502,0.136-2.253
		c0,0,1.503-14.881,14.541-14.881c1.708-0.067,3.414,0.273,4.848,1.094c6.825,3.687,2.389,10.58,2.389,10.58
		c8.532-1.365,19.114-10.923,17.408-27.647c-1.707-16.726-21.642-25.328-21.642-25.328c0.615-3.822,0-5.119,0-5.119
		c-29.099-17.6-53.776-20.487-66.357-20.571c-5.719-0.039-8.939,0.501-8.939,0.501l8.191,8.192
		c-0.818-0.068-1.707-0.068-2.526-0.068C60.414,59.442,32.97,88.251,32.97,123.679c0,0.073,0.004,0.142,0.004,0.215
		c-11.074-21.978-16.048-41.725-17.792-49.93C54.5,41.755,103.611,24.621,113.454,21.39c12.072,3.968,59.583,20.865,98.271,52.566
		C210.074,81.546,204.888,102.272,193.451,124.729z"/>
</g>
</svg>
