<?xml version="1.0" encoding="utf-8"?>
<!DOCTYPE svg PUBLIC "-//W3C//DTD SVG 1.1//EN" "http://www.w3.org/Graphics/SVG/1.1/DTD/svg11.dtd">
<svg version="1.1" id="Layer_1" xmlns="http://www.w3.org/2000/svg" xmlns:xlink="http://www.w3.org/1999/xlink" x="0px" y="0px"
	 width="226.777px" height="226.777px" viewBox="0 0 226.777 226.777" enable-background="new 0 0 226.777 226.777"
	 xml:space="preserve">
<g>
	<path fill="grey" d="M97.816,124.555l-3.635,6.793l44.854,0.1c-0.279-2.225-0.564-4.5-0.852-6.803L97.816,124.555z"/>
	<path fill="grey" d="M130.51,63.455l-25.909,48.421l31.991,0.07C133.508,87.332,130.51,63.455,130.51,63.455z"/>
	<path fill="grey" d="M113.389,4.909c-59.36,0-107.48,48.121-107.48,107.48c0,59.359,48.12,107.48,107.48,107.48
		c59.359,0,107.48-48.121,107.48-107.48C220.869,53.03,172.748,4.909,113.389,4.909z M166.781,170.455
		c-3.627,0.453-20.402,0-20.402,0s-2.721-1.361-3.174-5.441c-0.125-1.131-1.158-9.445-2.584-20.869l-53.224-0.117l-12.2,22.799
		c0,0-3.627,4.031-5.894,3.83s-19.949,0.006-19.949,0.006s-0.454-0.207-2.721-3.836l12.404-22.861l-10.832-0.025l0.028-12.693
		l17.683,0.039l3.685-6.793l-21.396-0.047l0.028-12.696l28.248,0.063l39.52-72.842c0,0,4.986-3.174,7.254-3.174s24.029,0,24.029,0
		s5.441-0.454,6.801,7.708c1.361,8.161,16.777,123.321,16.777,123.321S170.408,170,166.781,170.455z"/>
</g>
</svg>
