<?xml version="1.0" encoding="UTF-8" standalone="no"?>
<svg width="165px" height="162px" viewBox="0 0 165 162" version="1.1" xmlns="http://www.w3.org/2000/svg" xmlns:xlink="http://www.w3.org/1999/xlink">
    <!-- Generator: Sketch 3.6.1 (26313) - http://www.bohemiancoding.com/sketch -->
    <title>Group</title>
    <desc>Created with Sketch.</desc>
    <defs></defs>
    <g id="Page-1" stroke="none" stroke-width="1" fill="none" fill-rule="evenodd">
        <g id="Group" transform="translate(-9.000000, 0.000000)" fill="#000000">
            <rect id="Rectangle-1" x="10" y="149" width="163" height="13" rx="3"></rect>
            <rect id="Rectangle-1-Copy" x="16" y="129" width="150" height="13" rx="3"></rect>
            <rect id="Rectangle-3" x="31" y="72" width="13" height="57"></rect>
            <rect id="Rectangle-3-Copy" x="58" y="72" width="13" height="57"></rect>
            <rect id="Rectangle-3-Copy-2" x="85" y="72" width="13" height="57"></rect>
            <rect id="Rectangle-3-Copy-3" x="112" y="72" width="13" height="57"></rect>
            <rect id="Rectangle-3-Copy-4" x="139" y="72" width="13" height="57"></rect>
            <path d="M95.5578615,1.43036709 C93.4428366,-0.339477226 89.9963506,-0.345668933 87.8721368,1.40646025 L13.3188339,62.9007483 C6.50035274,68.5248807 8.13473761,73.0841408 16.9656458,73.0841408 L165.193822,73.0841408 C174.026382,73.0841408 175.6917,68.486042 168.911976,62.8127964 L95.5578615,1.43036709 Z" id="Path-1"></path>
        </g>
    </g>
</svg>