<?xml version="1.0" encoding="utf-8"?>
<!DOCTYPE svg PUBLIC "-//W3C//DTD SVG 1.1//EN" "http://www.w3.org/Graphics/SVG/1.1/DTD/svg11.dtd">
<svg version="1.1" id="Layer_1" xmlns="http://www.w3.org/2000/svg" xmlns:xlink="http://www.w3.org/1999/xlink" x="0px" y="0px"
	 width="226.777px" height="226.777px" viewBox="0 0 226.777 226.777" enable-background="new 0 0 226.777 226.777"
	 xml:space="preserve">
<g transform="translate(0.000000,818.000000) scale(0.100000,-0.100000)">
	<path fill="grey" d="M1335.721,7622.135l-0.625-27.906l-19.59-0.605l-19.824-0.605v-23.242v-23.262l23.848,0.605l23.672,0.605
		l0.605,7.686l0.605,7.48h39.414h39.238v43.477v43.467h-43.457h-43.301L1335.721,7622.135z"/>
	<path fill="grey" d="M933.768,7589.176v-24.264h23.252h23.252v24.264v24.262H957.02h-23.252V7589.176z"/>
	<path fill="grey" d="M1032.234,7612.227c-0.811-0.811-1.416-11.723-1.416-24.463v-23.057l23.857,0.605l23.652,0.611v23.252
		v23.252l-22.451,0.609C1043.758,7613.238,1033.045,7612.832,1032.234,7612.227z"/>
	<path fill="grey" d="M1123.826,7584.121v-21.23h-43.477h-43.477v-28.305v-28.307h-16.172h-16.172v-23.252v-23.246h23.242h23.252
		v7.074v7.07h36.406h36.592l-0.605-20.615l-0.596-20.824l-21.631-0.611c-12.148-0.199-21.855-1.416-21.855-2.426
		c0-1.217-17.988-2.232-43.867-2.432l-44.082-0.602l-0.605-42.865l-0.4-42.857l18.604-0.605l18.799-0.609l0.605-7.486l0.605-7.686
		h11.934h11.924l0.605,7.686l0.615,7.486l12.734,0.609c6.865,0.4,12.529,1.406,12.529,2.422c0,1.211,9.502,2.012,22.236,2.012
		h22.256v-5.043v-5.055h-22.256h-22.236V7295v-39.434h-21.221h-21.24v-44.48v-44.479h21.24h21.426l-0.596-20.629l-0.615-20.83
		h-43.467h-43.477l-0.605,37.611c-0.4,36.191-0.605,37.809-4.648,38.824c-3.037,0.811-4.053,2.422-3.447,5.859
		c0.615,4.451,1.426,4.656,21.445,5.252l20.615,0.611v43.271v43.467h-22.236h-22.246v43.471v43.467h-43.467h-43.467v21.24v21.227
		h-21.24h-21.221v22.24v22.236H807.4h-43.477v-43.467v-43.477h-44.482h-44.473v22.242v22.045l22.637,0.605l22.852,0.605v19.209
		v19.209l7.686,0.602l7.471,0.605v11.928v11.934l-7.471,0.611l-7.686,0.6l-0.4,10.107c-0.205,5.664-0.4,10.709-0.4,11.729
		c-0.205,0.811-19.619,1.211-43.076,1.016l-43.057-0.609l-0.605-26.689l-0.615-26.891h-22.031H588.23l-0.605-16.572l-0.605-16.781
		l-23.662-0.611l-23.857-0.605v-23.047v-23.252h24.268c20.215,0,24.258-0.41,24.258-3.041c0-2.623,6.27-3.033,43.467-3.033h43.477
		v-15.166v-14.951l-6.875-1.42c-3.838-0.611-13.145-0.811-20.82-0.406l-13.75,0.605l-0.605-23.652l-0.615-23.857h65.908h65.713
		v-43.467v-43.271l20.84-0.615l20.615-0.596v-9.1c0-7.891-0.605-9.092-4.453-9.697c-2.617-0.41-4.854-1.621-4.854-2.637
		c-1.006-7.686-0.605-8.896,4.854-9.502c7.09-0.816,7.891-9.307,1.016-11.318c-6.064-1.621-48.926-1.621-52.969,0
		c-2.432,0.805-3.242,4.043-3.242,11.113v9.707l-12.529,0.605l-12.734,0.605v14.154c0,13.139,0.4,14.154,4.648,14.76
		c6.064,1.006,6.66,12.535,0.605,12.535c-5.254,0-6.875,3.031-5.459,9.301c1.201,4.648,2.012,4.854,16.367,4.854h15.176v23.252
		v23.252h-23.252h-23.262v-19.209v-19.209h-10.107c-5.459,0-10.107,1.016-10.107,2.021c0,1.211-2.627,2.021-6.064,2.021
		c-3.232,0-6.064-0.811-6.064-2.021c0-1.01-8.896-2.227-19.619-2.426l-19.805-0.611l-0.605-20.615
		c-0.615-24.266,3.027-22.041-36.191-21.24l-26.904,0.611v16.176v15.973h5.869c4.648,0,6.064,1.01,6.68,4.652
		c0.605,4.043,1.816,4.443,15.352,5.055l14.561,0.609l-0.391,42.852l-0.615,42.871l-42.861,0.605l-42.871,0.41l-0.605-23.662
		L524.334,7295h-21.23h-21.23l-0.605,18.795l-0.605,18.598h5.264c4.238,0,5.049,1.016,5.049,5.869c0,4.648-1.006,6.064-4.443,6.67
		c-4.248,0.605-4.648,1.816-5.264,17.383l-0.605,16.582h-43.271h-43.467v-9.092c0-8.691-0.205-9.102-6.064-9.102
		c-5.459,0-6.064-0.605-6.064-6.064s0.605-6.064,6.064-6.064h6.064v-24.268v-24.262h-23.252H347.42v-24.254v-24.268h23.252h23.252
		v13.951v14.154l6.68,0.596c5.449,0.41,6.67,1.621,7.07,6.275l0.605,5.459h36.396h36.191v-22.242v-22.236l-42.861-0.404
		l-43.066-0.611l-0.605-19.609l-0.615-19.822h-43.271H306.98v-8.076v-8.086h-20.215h-20.225v-23.252v-23.057l19.814-0.605
		l19.619-0.605l0.596-11.523l0.605-11.719h38.223h38.408v-9.102v-9.102h12.129h12.139v10.912c0,10.924,0,11.129-6.475,11.725
		l-6.67,0.605l-0.605,16.787l-0.605,16.582h43.672h43.477v-9.102v-9.098h-9.102h-9.102v-8.086v-8.086h-12.129h-12.129v-25.482
		V7073.4l-9.492,0.605l-9.717,0.605l-0.605,8.691l-0.605,8.496h-12.139h-11.934v-9.102v-9.102h-21.221h-21.24v-40.439v-40.234
		l-11.514-0.596l-11.533-0.615l0.605-12.539l0.41-12.734h-21.23h-21.23l-0.615-18.604c-0.391-10.303-0.391-21.23,0-24.268
		l0.615-5.654h23.252h23.047v13.145v13.145h21.24h21.23v21.221v21.24h20.215h20.215v-21.24v-21.221h23.262h23.047l0.605,23.652
		c0.605,20.01,1.221,23.857,3.838,24.473c2.031,0.4,4.043-1.221,4.854-4.053c1.826-4.639,2.031-8.291,2.637-26.279
		c0.391-6.875,1.201-9.707,3.232-9.707c1.611,0,3.232-1.426,4.043-3.037c0.605-1.826,3.633-3.027,7.275-3.027
		c4.043,0,6.064,1.006,6.064,3.027c0,1.611,1.416,3.037,3.037,3.037c1.611,0,3.037-1.826,3.037-4.043
		c0-3.242,1.406-4.043,6.055-4.043c5.059,0,6.074-0.82,6.074-5.059c0-4.854,0.4-5.059,13.135-5.059s13.145,0.205,13.145,5.059v5.059
		h24.268h24.258v43.457v43.477h-43.467h-43.467v-27.295v-27.295h-6.68c-5.254,0-7.08,1.016-9.297,6.27
		c-2.021,4.648-2.021,6.875-0.41,8.496c1.221,1.211,2.227,7.07,2.227,12.734c0,8.896-0.605,10.918-4.043,11.924
		c-2.227,0.615-4.053,2.637-4.053,4.248c0,1.826-2.217,2.832-6.055,2.832c-4.053,0-6.064-1.006-6.064-3.027
		c0-1.816-1.416-3.643-3.037-4.258c-2.227-0.996-3.037-4.238-3.037-12.129v-10.908h-11.113h-11.123v22.236v22.246h10.107
		c7.695,0,10.117-0.811,10.117-3.047c0-2.422,3.232-3.027,17.178-3.027c13.955,0,17.188,0.605,17.188,3.027
		c0,2.441,3.242,3.047,17.188,3.047h17.188v22.832v22.656h20.82h20.625l0.615,20.82l0.605,20.629h31.133h31.338v21.227v21.234
		h11.924c11.738,0,12.139-0.199,12.744-5.469c0.4-4.438,1.816-5.854,6.27-6.264c4.854-0.605,5.459,0,5.459,5.459
		c0,5.264,0.811,6.273,5.049,6.273h5.059v-21.029c0-11.924-0.811-21.836-2.021-22.441c-1.016-0.611-2.021-6.68-2.021-13.35v-11.934
		h-9.092h-9.102v-9.102v-9.092l-32.754-0.4l-32.959-0.615l-0.615-42.861l-0.4-43.057h43.271h43.467l0.605,20.82l0.605,20.615
		l6.68,0.615l6.465,0.605v-11.328v-11.318l12.734,0.605l12.539,0.615l0.605,10.508l0.596,10.518l22.656,0.605l22.637,0.605
		l0.605,22.852l0.615,22.637l6.475,0.205c18.398,0.811,29.102,0.811,32.344,0.205c3.027-0.811,3.447-3.652,3.447-23.867v-23.047
		H786.16h-20.205v-38.418v-38.408h-5.059c-4.854,0-5.049-0.605-5.049-12.129v-12.139h12.119c12.139,0,12.139,0,12.139,5.869v5.869
		l16.777,1.211c18.398,1.211,27.5,0.801,30.938-1.416c1.416-0.811,2.227-5.459,1.826-11.328c-0.205-5.449,0.195-10.928,1.006-12.129
		c0.811-1.621,8.496-2.227,23.447-1.826l22.051,0.605l0.596,23.867l0.615,23.652h-12.344h-12.129v33.369v33.35h20.215h20.225v43.467
		v43.477h-20.225h-20.215v18.193v17.998l19.805,0.605l19.619,0.605V7203v43.465l-20.615,0.611
		c-19.209,0.404-20.83,0.811-20.83,4.447c0,3.232,1.416,4.043,6.064,4.043c5.459,0,6.064,0.605,6.064,6.064
		c0,5.465-0.605,6.074-6.064,6.074h-5.869l-0.605,15.762l-0.605,15.566L807,7299.639l-43.076,0.406v12.133v12.129h8.086h8.301
		l-0.605,11.729l-0.605,11.523h-7.09h-7.07l-0.605,19.824l-0.605,19.805l20.83-0.596l20.82-0.609l0.605-21.641l0.605-21.832h43.262
		h43.477v-21.23v-21.234h8.086c5.869,0,8.086-0.811,8.086-3.033c0-2.012,2.031-3.027,6.074-3.027s6.064,1.016,6.064,3.027
		c0,2.223,2.217,3.033,8.086,3.033h8.086v-22.242v-22.031l-20.615-0.609l-20.83-0.611l-0.615-43.865
		c-0.4-43.066-0.4-44.078,3.643-44.078c3.848,0,4.053-1.215,4.053-26.289v-26.283h5.039c4.863,0,4.863-0.205,5.469-19.615
		l0.605-19.809l11.123-0.195c10.918-0.205,11.113-0.205,11.719-6.484c0.615-5.664,1.426-6.465,6.68-6.465
		c5.059,0,5.869,0.801,5.869,5.859c0,4.854,1.006,6.074,6.055,7.09l6.074,1.201v19.209v19.209h14.15h14.15v-8.086
		c0-7.285-0.4-8.096-5.254-8.096c-4.443,0-5.059-0.811-4.443-5.449c0.4-4.053,1.807-5.869,5.049-6.27
		c4.248-0.611,4.453-1.621,5.059-24.268l0.596-23.643l44.082-0.615c33.975-0.4,44.082-1.006,43.271-3.037
		c-0.4-1.611-7.275-2.627-21.23-3.027l-20.625-0.605v-43.281v-43.457h43.477h43.477v25.264v25.283h14.15h13.955l0.596-15.576
		l0.605-15.771l23.877-0.605l23.633-0.605v24.473v24.258h-17.168h-17.197v35.395v35.371h-43.467h-43.477v16.172v16.182h9.092h9.102
		v-9.096v-9.098h12.139h12.129v9.098v9.096h22.236h22.246v17.188v17.188h6.064c5.879,0,6.064-0.199,6.064-10.102v-10.117h13.154
		h13.145v10.928v11.113l-7.48,0.6c-7.285,0.611-7.695,1.021-8.301,8.291l-0.586,7.486h30.312h30.527v-6.07
		c0-4.643-0.811-6.059-4.043-6.059c-3.027,0-4.043-1.426-4.043-5.859c0-4.053,1.211-6.074,4.043-6.885
		c3.438-0.811,4.043-2.822,4.043-12.324v-11.328h16.982c9.492,0,17.803-0.811,18.398-2.031c0.801-1.406-11.738-2.012-36.191-2.012
		h-37.393l-0.625-15.576l-0.605-15.762l-11.504-0.605l-11.738-0.615v-23.047v-23.252h12.129h12.129l0.41-43.672l0.605-43.467
		l42.852-0.41l43.086-0.4l0.41,32.344l0.586,32.354l18.203,1.016l18.184,1.016l0.625,23.652l0.586,23.652l-18.789,0.605
		l-18.809,0.605v19.209v19.209l5.469,0.615c4.648,0.605,5.449,1.611,6.055,8.076c0.605,7.48,0.605,7.48,9.102,6.875
		c17.793-1.406,16.973-3.838,16.387,44.678l-0.625,42.871l-41.035,0.605l-41.055,0.41l0.605,20.814l0.625,20.625h19.199h19.219
		l0.605-18.604l0.605-18.793h42.246h42.48v-11.123v-11.123h22.012h22.266l0.605-9.502l0.596-9.707l43.066-0.596l42.861-0.41v44.482
		v44.477l-42.861-0.406l-43.066-0.609l-0.596-10.518l-0.605-10.709h-21.25h-21.016v13.141v13.148h11.113h11.133v12.129v12.139
		h-11.133h-11.113v7.07v7.08h-22.441h-22.246l0.605,7.676l0.605,7.49l43.086,0.596l42.852,0.41v11.719v11.533l22.637-1.016
		l22.852-1.016v-19.199c0.215-32.959-0.801-30.322,13.125-30.322h12.148v6.061v6.273l22.852-0.609l22.637-0.611l0.605-7.484
		l0.605-7.682h12.148h11.914v10.924c0,9.096-0.596,10.922-4.043,11.928c-3.857,1.012-4.043,3.027-4.453,40.234l-0.605,39.023
		l-22.637,0.605l-22.656,0.605l-0.586,19.615l-0.605,19.609l-40.449,1.01l-40.449,1.217l44.102,0.395l43.867,0.406v43.477v43.477
		h-43.477h-43.477v-22.256v-22.232h-44.473h-44.473v23.252v23.252h-43.486h-43.477l0.391-42.871l0.625-43.057l43.066-0.605
		l42.871-0.404v-13.951c0-10.508-0.82-14.154-3.047-15.166c-2.422-0.811-3.027-6.465-3.027-33.559v-32.35h-42.461h-42.461v-23.457
		c0-21.631-0.195-23.457-4.043-24.473c-5.859-1.611-5.664-12.734,0.195-12.734c3.652,0,4.062-1.016,3.438-8.486
		c-0.605-8.086-0.996-8.695-7.07-9.307c-6.074-0.605-6.68-0.195-6.68,4.648c0,4.854-0.586,5.264-6.465,4.654
		c-5.039-0.41-6.875-1.621-7.266-5.059c-0.625-3.639-2.031-4.648-6.465-4.648c-4.473,0-5.879,1.01-6.484,4.648
		c-0.41,3.438-2.012,4.447-6.68,4.447c-4.629,0-6.25-1.01-6.66-4.447c-0.605-4.248-1.621-4.648-14.766-4.648h-13.945v21.234v21.227
		h9.102c7.676,0,9.092-0.602,9.092-4.043c0-3.037,1.416-4.053,5.85-4.053c4.062,0,6.084,1.215,6.904,4.053
		c0.801,3.027,2.803,4.043,7.285,4.043h6.055l0.605,20.82l0.596,20.629l41.055,0.611l40.85,0.4v7.07c0,6.264,0.596,6.875,6.66,7.48
		c6.475,0.6,6.475,0.811,7.09,12.344l0.596,11.514h-7.285h-7.061v24.268v24.258h-41.445h-41.465v11.934
		c0,10.922,0.41,12.129,4.668,12.734c3.223,0.41,4.629,2.221,5.039,6.273c0.596,4.648,0,5.455-4.443,5.455h-5.264v22.246v22.236
		h9.102h9.102v24.268v24.258h-23.242h-23.262v-21.23v-21.221h-29.326h-29.307v21.221v21.23h23.242h23.242v24.262v24.264h-23.242
		h-23.242v-21.236H1123.826z M1206.736,7406.191v-21.221h-20.234h-20.215v21.221v21.23h20.215h20.234V7406.191z M1165.271,7224.229
		v-22.234l-20.625-0.615l-20.82-0.602v23.451v23.457l20.82-0.605l20.625-0.615V7224.229z M545.564,7193.908
		c0-12.549-0.195-13.154-4.854-13.154c-3.848,0-5.059-1.211-5.664-5.449l-0.605-5.664l-22.031-0.605
		c-32.764-1.016-31.543-1.822-31.543,19.809v18.189h32.354h32.344V7193.908L545.564,7193.908z"/>
	<path fill="grey" d="M1127.264,7230.098c-0.811-0.814-1.416-6.273-1.416-12.344v-10.721h13.135h13.359l-0.605,11.736
		l-0.605,11.523l-11.133,0.602C1133.738,7231.299,1128.074,7230.898,1127.264,7230.098z"/>
	<path fill="grey" d="M790.613,7541.26l0.605-23.857h22.236h22.236l0.615,23.857l0.605,23.652h-23.447h-23.457L790.613,7541.26z"
		/>
	<path fill="grey" d="M1522.127,7510.322v-44.482h40.449h40.43v-19.209v-19.209h24.277h24.258v23.262v23.242h-21.25h-21.211
		v40.449v40.43h-43.477h-43.477V7510.322L1522.127,7510.322z"/>
	<path fill="grey" d="M1376.15,7540.25c-0.41-2.633-0.41-13.551,0-24.264l0.605-19.814h23.242h23.066v24.258v24.268h-23.066
		C1377.576,7544.697,1376.756,7544.492,1376.15,7540.25z"/>
	<path fill="grey" d="M927.703,7524.473c0-3.637-1.416-4.043-17.188-4.043h-17.188v-44.477v-44.479h17.188h17.188v-11.123
		v-11.127h12.129h12.129v11.127v11.123h14.16h14.15v44.479v44.477h-14.15c-12.734,0-14.16,0.406-14.16,4.043
		c0,3.643-1.406,4.043-12.129,4.043C929.119,7528.516,927.703,7528.111,927.703,7524.473z"/>
	<path fill="grey" d="M1740.486,7435.518v-24.268h23.262h23.242v24.268v24.268h-23.242h-23.262V7435.518z"/>
	<path fill="grey" d="M1538.299,7423.389v-12.139h13.164h13.125v-37.402v-37.412h22.246h22.246v-39.424v-39.424h43.477h43.457
		v-18.193v-18.193h-10.117h-10.098v-12.137v-12.129h10.098h10.117v-38.418v-38.408h-47.52h-47.52v22.236v22.236h-43.457h-43.262
		l-0.605-24.668l-0.625-24.863h-22.246h-22.227l-0.605,12.529l-0.605,12.539l6.66,0.605c5.684,0.4,6.699,1.416,6.699,5.664
		c0,4.043-1.23,5.254-5.684,5.654c-3.223,0.4-6.25,2.021-6.875,3.643c-0.801,2.23-8.691,2.832-44.277,2.832h-43.262v-13.145v-13.141
		h-12.129h-12.344l0.605-11.518l0.605-11.734l11.738-0.609l11.523-0.605v-12.939v-13.145h-20.215h-20.215l0.391-42.861l0.605-43.066
		l23.867-0.596c21.641-0.41,23.652-0.82,23.652-4.258c0-2.227-1.016-4.238-2.422-4.648c-1.426-0.605-2.441-4.434-2.637-8.887v-7.891
		l-13.125-1.016l-13.164-1.016v-23.242v-23.262l23.867-0.605c23.867-0.596,32.559-3.633,13.145-4.854l-10.723-0.596v-10.527
		c0.195-5.859,0.605-10.908,1.211-11.523c0.41-0.605,5.664-1.602,11.543-2.422c9.082-1.211,10.508-0.801,11.719,2.422
		c0.586,2.236,2.012,5.469,3.027,7.285c2.832,5.469,2.227,9.922-1.621,12.939c-3.223,2.422-3.027,2.627,2.031,2.832
		c3.242,0,5.469,1.006,5.469,2.832c0,1.611,1.387,3.232,2.812,3.838c2.422,1.006,3.242-1.006,3.652-9.297l0.605-10.518l24.648-0.605
		l24.668-0.596l0.596-15.576l0.605-15.576h23.262h23.242v23.262v23.242l-5.449,0.615c-5.469,0.605-5.664,1.006-5.664,13.75v12.939
		h21.23h21.23v-23.262v-23.242h24.258h24.258v23.242v23.262h16.191h16.172v-12.139v-12.129h12.129h12.129v12.129
		c0,11.523,0.195,12.139,5.059,12.139c4.844,0,5.059-0.615,5.059-11.133v-11.113h23.047h23.242l0.605,10.713l0.625,10.518
		l22.246,1.016l22.227,1.016v23.242v23.262l-23.652,0.605l-23.857,0.605v-11.328v-11.113h-12.109h-12.148v30.332v30.312h15.977
		h16.191l0.586-7.48l0.605-7.676l11.738-0.605l11.523-0.605v11.934c0,8.887-0.82,12.324-3.057,13.34
		c-2.422,0.801-3.018,5.258-3.018,21.43c0,11.123,0.596,20.215,1.621,20.42c2.227,0.205,15.176,0.406,18.184,0
		c1.621-0.205,2.441-5.254,2.441-18.398v-18.193h23.232h23.271v18.193c0,13.145,0.596,18.193,2.637,18.398
		c4.844,0.205,51.133,0.406,56.602,0l5.664-0.205l-0.605-24.668l-0.605-24.867l-43.477-1.016
		c-23.867-0.605-43.262-1.602-42.852-2.422c0.176-1.016,0.391-20.215,0.391-43.066v-41.445h16.191
		c12.93,0,16.172-0.605,16.172-3.047c0-2.012,2.012-3.018,6.055-3.018s6.074,1.016,6.074,3.018c0,2.441,2.812,3.047,14.141,3.047
		h13.945l0.605-11.523l0.605-11.738h23.262h23.242l0.596,23.867l0.625,23.652H1889.1h-17.168v13.145v13.145h43.457h43.457v21.23
		v21.24h25.293c23.848,0,25.273-0.205,25.273-4.053s1.426-4.043,23.242-4.043c27.305,0,25.488-2.021,24.688,28.305l-0.41,19.209
		l-22.656,0.605l-22.832,0.605v23.053v23.252h-43.496h-43.262l-0.605-20.631l-0.605-20.82l-25.684-0.605l-25.859-0.609v13.35v13.145
		h11.113h11.113v12.129v12.129h-11.113h-11.113v18.203v18.193h-42.266c-44.492,0-48.125,0.811-46.289,9.502
		c0.586,3.232,3.418,3.643,24.453,4.248l23.652,0.605v24.053v24.057l-23.652,0.609l-23.867,0.611l-0.586,12.734l-0.605,12.539
		h-43.281h-43.477v43.467v43.467h-22.227h-22.246l-0.41,40.039l-0.605,39.834h-44.082h-43.867v5.664
		c0,5.254-0.195,5.459-12.129,5.459h-12.148V7423.389L1538.299,7423.389z M1566.619,7054.387l0.996-22.236l16.797-0.605
		l16.797-0.605l-0.625-7.48l-0.605-7.48l-10.508-0.605l-10.723-0.605v-10.918v-10.918l10.723-0.605l10.508-0.605l0.605-23.652
		l0.625-23.867l-22.871,0.41c-16.172,0.195-19.805,0.605-12.734,1.406l10.098,1.211v11.133v11.113l-9.492,0.596l-9.707,0.615v53.574
		v53.584l4.648-0.602C1565.389,7076.633,1565.604,7075.617,1566.619,7054.387z M1468.553,7030.119v-40.43l-22.656-0.605
		l-22.832-0.605v-21.035v-21.221h-6.055c-8.105,0-9.922,4.844-8.496,24.863c0.801,14.971,0.801,15.576-3.438,15.576
		c-2.852,0-4.258,1.201-4.258,4.043c0,3.438,1.621,3.838,13.75,4.443l13.535,0.605l0.605,38.008l0.41,38.018l19.824-0.605
		l19.609-0.615V7030.119L1468.553,7030.119z"/>
	<path fill="grey" d="M1653.553,7398.111v-23.258h24.258h24.258v23.258v23.252h-24.258h-24.258V7398.111z"/>
	<path fill="grey" d="M725.916,7401.748l0.605-11.729h12.139h12.129l0.605,11.729l0.605,11.529h-13.35h-13.34L725.916,7401.748z"
		/>
	<path fill="grey" d="M1716.229,7376.885c0-1.016,0-18.809,0-39.434s0-39.219,0-41.449c0-3.844,1.426-4.043,43.477-4.043
		c42.07,0,43.457,0.199,43.457,4.043c0,3.842,1.426,4.043,23.262,4.043h23.242v24.062v23.861l-9.902-1.016
		c-5.645-0.404-15.957-0.205-23.242,0.605l-13.359,1.422v14.955v14.961h-43.457
		C1732.01,7378.896,1716.229,7378.086,1716.229,7376.885z"/>
	<path fill="grey" d="M1052.049,7295.596c-0.4-1.406-0.605-6.67-0.4-11.719l0.4-9.102l12.744-0.605l12.529-0.605v12.334v12.129
		h-12.139C1057.098,7298.027,1052.654,7297.217,1052.049,7295.596z"/>
	<path fill="grey" d="M1837.557,7248.496v-43.475h43.457h43.477v10.105v10.107h10.117h10.098v12.135v12.129h-10.098h-10.117
		v21.234v21.227h-43.477h-43.457V7248.496z"/>
	<path fill="grey" d="M232.176,7263.652v-12.334l12.734,0.611l12.539,0.609l0.596,11.719l0.615,11.533h-13.35h-13.145v-12.139
		H232.176z"/>
	<path fill="grey" d="M1565.994,7254.355c-0.801-0.814-1.406-20.83-1.406-44.686v-43.057h40.449h40.43v-10.117v-10.104h13.145
		h13.359l-0.625,11.529l-0.605,11.723l-7.07,0.201c-3.848,0-8.281,0.199-9.492,0.391c-1.836,0.41-2.637,11.123-3.047,42.459
		l-0.605,41.855l-41.641,0.611C1586.033,7255.361,1566.814,7254.961,1565.994,7254.355z"/>
	<path fill="grey" d="M159.383,7229.283v-14.156h-7.07h-7.08V7203v-12.135h7.08h7.07v-17.182v-17.188h43.477h43.467v24.258
		v24.268h6.064c5.469,0,6.064,0.605,6.064,6.064c0,5.453-0.596,6.062-6.064,6.062h-6.064v13.145v13.135h-43.467h-43.477V7229.283z"
		/>
	<path fill="grey" d="M1916.404,7175.705v-23.262h24.258h24.473l-0.605,22.861l-0.605,22.637l-23.652,0.605l-23.867,0.605
		V7175.705L1916.404,7175.705z"/>
	<path fill="grey" d="M2057.342,7144.357c-0.82-3.434-2.852-4.039-12.344-4.039h-11.328v-12.129v-12.139h12.129h12.148v-7.07
		v-7.074h23.242h23.262v23.242v23.262h-23.066C2060.154,7148.41,2058.338,7148.209,2057.342,7144.357z"/>
	<path fill="grey" d="M591.463,7118.889c-0.811-0.811-1.416-6.27-1.416-12.334v-10.713h9.912c5.664,0,10.713-0.811,11.318-2.031
		c0.615-0.996,3.848-2.012,7.275-2.012c5.264,0,5.859,0.605,5.859,6.055c0,4.668-1.006,6.074-3.838,6.074
		c-3.242,0-4.053,1.621-4.639,7.689l-0.615,7.477l-11.123,0.605C597.928,7120.109,592.273,7119.699,591.463,7118.889z"/>
	<path fill="grey" d="M246.326,7073.801c0-22.041,0.605-44.277,1.211-49.541c1.221-8.496,1.816-9.297,7.09-9.297
		c4.639,0,5.654,1.006,6.26,5.664l0.605,5.449l35.986,0.615l35.791,0.4v29.326v29.307h5.049c4.248,0,5.059,1.016,5.059,6.074
		c0,5.043-0.811,6.055-5.059,6.055c-4.443,0-5.049,0.811-5.049,8.096v8.086h-43.477h-43.477v-40.234H246.326z"/>
	<path fill="grey" d="M111.268,7045.9l0.596-23.857h23.252h23.252v23.252v23.252l-23.848,0.596l-23.857,0.605L111.268,7045.9z"/>
	<path fill="grey" d="M2182.693,7052.16c-0.82-0.811-1.426-6.465-1.426-12.334v-10.908l12.754,0.605l12.52,0.596v11.133v11.113
		l-11.113,0.605C2189.158,7053.381,2183.494,7052.971,2182.693,7052.16z"/>
	<path fill="grey" d="M962.078,7040.236v-5.059h-29.326h-29.307v-43.467c0-23.857,0.596-43.467,1.621-43.467
		c0.801,0,20.215-0.205,43.467-0.615l41.846-0.4v16.787v16.572h10.918h10.918l0.615,8.691c1.211,14.561,0.811,15.371-10.928,15.977
		l-10.518,0.605l-0.605,14.766l-0.596,14.551h-7.9c-7.266,0-8.086,0.605-8.086,5.059c0,4.248-1.016,5.059-6.055,5.059
		C963.084,7045.295,962.078,7044.484,962.078,7040.236z"/>
	<path fill="grey" d="M729.559,7008.898c0-10.723,0.41-12.139,4.043-12.139c2.217,0,4.043-1.406,4.043-3.027
		c0-2.021,2.021-3.027,5.664-3.027c6.875,0,10.508,7.07,10.508,20.625v9.697h-12.129h-12.129V7008.898z"/>
	<path fill="grey" d="M2081.6,7019.621c-0.82-0.615-1.426-7.9-1.426-16.182v-14.766h-34.375h-34.355l0.391-42.852l0.625-43.076
		h43.457h43.457l0.625,20.82l0.605,20.635h11.934h12.109v12.129v12.129h-12.109c-9.512,0-12.148,0.605-12.148,3.027
		c0,2.441,2.852,3.047,14.16,3.047h14.16v23.242v23.252h-22.871C2093.123,7021.027,2082.205,7020.432,2081.6,7019.621z"/>
	<path fill="grey" d="M1969.783,7016.379c-0.605-1.611-0.82-6.875-0.41-11.729l0.605-8.896l12.754-0.605l12.715-0.605
		l-0.586,11.729l-0.605,11.729l-11.738,0.605C1973.826,7019.006,1970.584,7018.4,1969.783,7016.379z"/>
	<path fill="grey" d="M96.707,6990.705v-12.139h9.707c5.264,0,14.355,0.605,20.215,1.416c10.107,1.211,10.723,1.416,10.107,6.475
		c-0.605,4.443-1.621,5.254-7.08,5.254c-5.859,0-6.67,0.615-6.67,5.459c0,5.664-0.195,5.664-13.135,5.664H96.707V6990.705
		L96.707,6990.705z"/>
	<path fill="grey" d="M714.598,6991.711c-0.811-2.627-7.285-3.037-39.424-3.037h-38.418l-0.605-8.486l-0.615-8.701l-11.514-0.605
		l-11.738-0.605v-11.914v-12.129h12.129h12.139v-22.246v-22.246h29.326h29.307v-6.074c0-5.449,0.605-6.055,6.064-6.055
		c5.469,0,6.064,0.605,6.064,5.859c0,5.449,0.605,6.074,7.686,6.67c7.48,0.605,7.48,0.811,8.701,10.713
		c0.605,5.664,1.416,8.496,1.416,6.67c0.205-2.012,1.406-3.633,2.422-3.633c1.211,0,2.021-6.67,2.021-16.172
		c0-12.949,0.605-16.182,3.027-16.182c1.621,0,3.037-1.406,3.037-3.027c0-2.031,2.227-3.037,7.08-3.037s7.07,1.006,7.07,3.037
		c0,1.621,1.016,3.027,2.031,3.027c1.211,0,2.012,5.459,2.012,12.129c0,11.934,0,12.139-5.859,12.139
		c-7.48,0-8.896,4.443-8.291,23.857c0.4,12.129-0.195,14.561-2.832,14.561c-1.826,0-3.232,1.611-3.232,4.033
		c0,3.037-1.416,4.062-5.049,4.062c-3.643,0-5.059,1.016-5.059,4.043c0,3.633,1.416,4.043,12.129,4.043h12.139v12.129v12.129
		h-10.117c-8.691,0-10.107,0.605-10.107,4.043c0,3.027-1.416,4.043-5.859,4.043C718.436,6994.748,715.408,6993.527,714.598,6991.711
		z"/>
	<path fill="grey" d="M158.982,6979.172l-0.615-9.707l-11.514-0.605c-10.928-0.596-11.738-1.006-11.738-5.459
		c0-4.033-0.996-5.049-5.049-5.049c-4.238,0-5.049-1.016-5.049-5.869c0-4.648,1.006-6.055,4.639-6.66
		c3.848-0.615,4.658-2.031,5.459-12.754l1.016-12.129l11.729-0.605l11.523-0.596v-8.906v-9.092h30.332h30.332v-16.172v-16.182
		h23.252h23.252v24.268v24.258h-10.117h-10.107v35.381v35.381h-43.262h-43.477L158.982,6979.172z"/>
	<path fill="grey" d="M1919.236,6973.723c-0.605-1.416-0.801-6.68-0.41-11.533c0.605-8.691,0.82-8.896,8.086-9.502l7.48-0.605
		l0.605-15.557l0.605-15.586h23.242h23.262l0.625,23.867l0.605,23.652h-19.414c-17.793,0-19.219,0.195-19.219,4.043
		c0,3.652-1.406,4.043-12.129,4.043C1924.08,6976.545,1920.057,6975.734,1919.236,6973.723z"/>
	<path fill="grey" d="M1226.932,6932.062v-12.324l12.754,0.596l12.539,0.605v11.123v11.123l-12.539,0.605l-12.754,0.605V6932.062
		z"/>
	<path fill="grey" d="M1795.076,6936.115c0-4.648,0.82-6.074,4.062-6.074c2.637,0,4.023-1.416,4.023-4.043
		c0-3.037-1.387-4.043-5.039-4.043c-4.258,0-5.059-1.016-5.059-6.064c0-4.854,0.801-6.064,4.648-6.26
		c8.691-0.205,16.582-2.031,17.793-4.053c1.426-2.422,13.145-1.611,12.539,0.811c-0.391,0.801-0.605,6.875-0.605,13.545v12.129
		h-10.098c-9.512,0-10.117,0.4-10.117,5.059c0,4.238-1.016,5.049-6.055,5.049C1795.701,6942.17,1795.076,6941.564,1795.076,6936.115
		z"/>
	<path fill="grey" d="M2128.709,6930.041v-12.324l12.734,0.605l12.52,0.605v11.113v11.113l-12.52,0.605l-12.734,0.615V6930.041z"
		/>
	<path fill="grey" d="M1137.781,6936.721c-0.205-1.016,0-3.652,0.195-6.27c0.195-3.232-1.016-5.059-3.857-5.869
		c-5.049-1.221-6.25-12.734-1.396-12.734c3.232,0,5.859-5.459,4.033-8.291c-0.596-1.016-2.227-1.816-3.838-1.816
		c-2.227,0-3.037-4.043-3.438-17.598l-0.605-17.793l-24.658-0.605l-24.873-0.605v18.398v18.203h-22.246h-22.236v12.119v12.354
		l-12.529-0.605c-14.16-0.625-12.744,1.211-13.545-18.203c-0.205-5.254-0.811-5.664-9.307-5.664h-9.102v-43.477v-43.457h16.172
		h16.182v-6.074c0-5.449,0.605-6.055,5.859-6.055c5.059,0,6.064,0.996,6.68,5.449c0.4,2.832,1.611,5.664,3.027,6.055
		c1.826,0.625,2.637-4.238,3.037-17.988l0.596-18.809l18.818-0.605c14.756-0.41,18.594-1.211,18.594-3.438
		c0-2.422,2.832-3.027,12.139-3.027c9.492,0,12.129,0.605,12.129,3.027c0,2.227,2.422,3.027,10.107,3.027h10.107v-14.141v-14.141
		l19.805-0.215c11.123-0.195,16.992-0.801,13.555-1.621c-4.658-1.016-6.27-2.422-6.66-6.875c-0.615-5.039-0.215-5.449,6.465-5.449
		c8.477,0,9.902-3.438,1.816-4.453c-4.453-0.41-5.879-1.816-6.279-6.074c-0.596-4.648,0.205-5.449,5.068-6.055
		c5.645-0.605,5.645-0.801,6.25-15.156l0.615-14.766h43.271h43.477v43.457v43.477h-20.215h-20.234v20.215v20.234h-12.129h-12.129
		v6.055c0,5.469-0.605,6.074-6.074,6.074c-5.449,0-6.055-0.605-6.055-6.074c0-5.859-0.41-6.055-9.102-6.055h-9.102v13.145v13.125
		h-13.145c-7.285,0-13.145,0.605-13.35,1.621c0,0.82-0.605,4.043-1.006,7.285c-0.605,3.438-0.605,8.086,0.195,10.703
		c1.016,4.453,2.031,4.668,19.219,4.668c17.998,0,18.203,0,18.203,5.039c0,4.453,0.801,4.863,11.729,5.469
		c11.309,0.605,11.514,0.605,12.119,7.275c0.605,6.475,0.811,6.475,11.738,6.475h10.918v18.203v18.184h-17.998H1176.6l-0.811-6.465
		c-0.4-3.633-1.016-1.016-1.016,6.074l-0.4,12.52h-18.203C1146.268,6938.127,1137.977,6937.531,1137.781,6936.721z"/>
	<path fill="grey" d="M1261.326,6919.934c0-4.658,0.781-6.074,4.023-6.074c2.637,0,4.062-1.406,4.062-4.033
		c0-3.037-1.426-4.043-5.078-4.043c-4.238,0-5.039-1.016-5.039-6.064v-6.064h17.188h17.188v10.918v11.113l-9.512,0.605
		c-8.281,0.605-9.707,1.221-10.312,5.264c-0.605,3.428-2.031,4.443-6.66,4.443
		C1261.932,6925.998,1261.326,6925.393,1261.326,6919.934z"/>
	<path fill="grey" d="M467.928,6905.578c-3.438-17.588,0.605-32.139,8.896-32.139c2.217,0,3.027-2.031,3.027-7.09
		c0-3.838-0.605-7.08-1.406-7.08c-1.016,0-1.621-2.627-1.621-6.055c0-5.459,0.605-6.064,6.064-6.064
		c4.648,0,6.064,1.006,6.064,3.828c0,2.031,0.605,7.891,1.211,13.154c1.221,8.496,1.016,9.307-3.027,9.307
		c-2.432,0-4.248,1.201-4.248,3.027c0,1.611,1.816,3.027,4.043,3.027c3.643,0,4.043,1.416,4.043,12.139
		c0,10.908-0.4,12.129-4.238,12.129c-2.432,0-4.658,1.611-5.264,4.043c-0.811,2.832-2.832,4.043-6.68,4.043
		C470.145,6911.848,468.943,6910.832,467.928,6905.578z"/>
	<path fill="grey" d="M1969.783,6906.994c-0.605-1.416-0.82-6.67-0.41-11.523l0.605-8.906h12.129h12.148l0.605,11.738
		l0.586,11.523h-12.324C1974.646,6909.826,1970.584,6909.016,1969.783,6906.994z"/>
	<path fill="grey" d="M1801.17,6898.703c0-1.826-1.426-3.633-3.047-4.248c-2.227-1.006-3.047-4.443-3.047-13.135
		c0-11.328,0.215-11.934,5.078-11.934c3.223,0,5.039-1.211,5.039-3.037c0-1.602,0.605-3.027,1.621-3.027
		c0.82,0,1.211-7.285,0.82-16.172c-0.625-15.176-0.41-16.172,3.438-16.172c2.402,0,4.238-1.221,4.238-3.037
		c0-2.227,2.227-3.037,7.266-3.037c3.848,0,6.699,0.811,5.879,1.826c-0.605,1.211,0.41,2.822,2.012,3.838
		c2.422,1.211,3.027,4.248,2.637,12.734c-0.605,10.117-1.016,10.918-5.254,10.312c-3.438-0.195-5.059,0.811-5.879,3.643
		c-0.605,2.217-1.797,4.043-2.617,4.043c-1.016,0-1.211,7.275-0.605,16.172c1.016,14.16,0.82,16.182-2.227,16.182
		c-1.816,0-3.242,1.602-3.242,4.043c0,3.223-1.406,4.043-6.055,4.043C1803.162,6901.74,1801.17,6900.734,1801.17,6898.703z"/>
	<path fill="grey" d="M672.947,6887.58c0-4.854,0.811-6.055,4.238-6.055c5.664,0,4.248-6.885-1.816-7.686
		c-3.438-0.605-4.453-2.021-4.453-6.67v-5.869h17.188h17.188v12.139v12.129h-10.107c-8.691,0-10.107,0.596-10.107,4.043
		c0,3.223-1.416,4.043-6.064,4.043C673.553,6893.654,672.947,6893.039,672.947,6887.58z"/>
	<path fill="grey" d="M1588.865,6881.525v-12.139h-7.07h-7.09v-12.129v-12.129h12.129h12.129v12.129v12.129h7.09h7.07v12.139
		v12.129h-12.148h-12.109V6881.525L1588.865,6881.525z"/>
	<path fill="grey" d="M1267.381,6882.531c0-1.416-1.426-3.643-3.242-4.658c-2.207-1.211-2.812-4.434-2.422-12.734
		c0.391-8.896,1.211-10.918,4.648-11.719c6.875-1.221,8.887-6.475,9.102-22.852c0-12.334,0.605-15.771,3.027-15.771
		c1.426,0,3.633-1.221,4.453-2.832c2.832-4.854,12.734-5.049,12.734-0.205c0,1.621,1.016,3.037,2.031,3.037
		c1.211,0,2.012,5.459,2.012,12.139c0,11.924-0.215,12.129-5.449,12.129c-6.465,0-10.938,7.07-8.496,13.34
		c0.801,2.021,1.621,8.691,1.621,14.561c0.195,9.297-0.195,10.508-3.848,10.508c-2.637,0-4.043,1.416-4.043,4.053
		c0,3.223-1.406,4.043-6.074,4.043C1269.412,6885.568,1267.381,6884.553,1267.381,6882.531z"/>
	<path fill="grey" d="M1392.518,6882.531c-0.195-0.605-0.391-1.826-0.605-2.832c0-1.016-0.801-2.637-1.602-3.438
		c-1.016-0.811-1.621-6.27-1.621-12.334c0-7.686,0.82-11.123,3.027-11.934c1.621-0.811,3.047-2.422,3.047-3.838
		s1.816-3.027,4.043-3.633c4.238-1.016,5.664-9.912,2.207-15.371c-3.223-5.059-0.195-10.303,6.289-10.303
		c5.645,0,6.055,0.391,5.254,6.055c-0.625,3.438-0.215,6.074,0.801,6.074c0.801,0,1.621,2.822,1.621,6.064
		c0,4.639-0.82,6.064-4.043,6.064c-5.469,0-5.469,7.266,0.195,8.691c3.652,1.006,4.043,2.422,3.438,11.934
		c-0.605,9.102-1.211,10.703-4.863,11.318c-2.402,0.4-4.844,2.422-5.449,4.648c-0.605,2.627-2.832,3.838-6.25,3.838
		C1395.154,6883.537,1392.518,6883.127,1392.518,6882.531z"/>
	<path fill="grey" d="M679.012,6850.783c0-2.021-1.416-3.633-3.037-3.633c-2.422,0-3.027-2.627-3.027-12.129
		c0-11.328,0.4-12.148,4.648-12.148c4.854,0,9.912-8.281,9.297-15.352c-0.195-2.031-0.195-8.691-0.195-14.355
		c0.4-8.086,1.211-10.723,3.428-10.723c1.826,0,3.652-1.406,4.248-3.027c0.811-1.826,3.838-3.047,7.08-3.047
		c3.838,0,5.859,1.016,5.859,3.047c0,1.621,1.016,3.027,2.021,3.027c1.221,0,2.031,5.459,2.031,12.129
		c0,11.934,0,12.139-5.869,12.139c-7.48,0-8.896,4.248-8.281,24.863c0.4,12.744-0.205,15.576-2.637,15.576
		c-1.816,0-3.438,1.611-3.838,3.428C689.725,6855.646,679.012,6855.842,679.012,6850.783z"/>
	<path fill="grey" d="M722.684,6838.654c-2.021-7.49-1.406-27.9,0.811-27.9c1.211,0,2.012-1.416,2.012-3.037
		c0-1.816,1.826-3.037,4.258-3.037c4.043,0,4.248-0.605,2.822-13.135l-1.406-13.145h6.26c4.854,0,6.27,0.811,6.27,3.848
		c0,2.021,0.605,7.881,1.211,13.135c1.221,8.486,1.016,9.297-3.027,9.297c-5.459,0-5.664,5.264-0.205,6.68
		c3.438,0.811,4.043,2.822,4.043,12.334c0,10.107-0.4,11.328-4.248,11.328c-2.422,0-4.648,1.621-5.254,4.043
		C734.607,6845.129,724.305,6844.729,722.684,6838.654z"/>
	<path fill="grey" d="M1802.381,6784.27c-1.836-9.912-1.426-26.094,0.781-26.094c1.23,0,2.031-1.406,2.031-3.027
		c0-1.816,1.816-3.027,4.258-3.027c4.023,0,4.238-0.615,2.812-13.145l-1.387-13.135h6.055c5.449,0,6.055,0.605,7.266,9.297
		c1.836,13.535,1.621,14.346-2.832,15.566c-2.207,0.605-4.023,2.422-4.023,4.043s1.816,3.428,4.023,4.043
		c3.438,0.801,4.043,2.832,4.043,12.334c0,10.723-0.195,11.318-5.039,11.318c-3.652,0-5.059,1.016-5.059,4.043
		c0,3.037-1.426,4.053-5.859,4.053C1804.588,6790.539,1803.572,6789.523,1802.381,6784.27z"/>
	<path fill="grey" d="M1268.592,6768.088c-1.816-9.912-1.406-26.084,0.82-26.084c1.211,0,1.992-1.416,1.992-3.027
		c0-2.021,2.227-3.027,7.09-3.027c4.844,0,7.09,1.006,7.09,3.027c0,1.611,1.406,3.027,3.027,3.027c2.422,0,3.027,2.637,3.027,12.139
		c0,11.523-0.215,12.129-5.059,12.129c-3.633,0-5.059,1.006-5.059,4.043c0,3.027-1.406,4.043-5.859,4.043
		C1270.818,6774.357,1269.803,6773.342,1268.592,6768.088z"/>
	<path fill="grey" d="M680.223,6737.561c-1.816-7.08-1.416-25.879,0.605-25.879c1.016,0,2.227-1.826,2.832-4.043
		c0.615-2.227,2.627-4.053,4.453-4.053c3.027,0,3.438-1.611,2.012-13.135l-1.406-13.145h6.26c4.854,0,6.27,0.811,6.27,3.848
		c0,2.012,0.615,7.881,1.221,13.135c1.201,8.486,1.016,9.297-3.037,9.297c-5.449,0-5.654,6.064-0.205,7.49
		c3.447,1.016,4.043,2.822,4.043,11.924c0,9.707-0.4,10.918-4.248,10.918c-2.422,0-4.648,1.621-5.244,4.043
		C692.156,6744.035,681.844,6743.625,680.223,6737.561z"/>
	<path fill="grey" d="M1036.883,6701.574v-22.246h-7.08h-7.07v-12.139v-12.129h7.07c7.08,0,7.08,0,7.08-9.092v-8.896
		l-22.637-0.605l-22.861-0.605l-0.596-23.662l-0.605-23.857h-21.035h-21.23v-21.23v-21.23h-43.467h-43.467v-10.508v-10.703
		l-13.154,0.605l-13.135,0.801v-12.344v-12.324h13.135h13.154v-18.203v-18.398l-23.662,0.605l-23.857,0.605l-0.596,18.809
		l-0.615,18.594h-23.047h-23.252v-19.199c0-11.523-0.811-19.219-2.031-19.219c-1.006,0-2.021,4.062-2.021,9.102v9.297l-12.52-0.586
		l-12.754-0.605l-0.605-8.496l-0.605-8.711h-15.156c-14.16,0-14.971,0.215-15.166,4.668c0,2.422-0.205,10.312-0.41,17.578
		l-0.4,13.145l-23.662,0.605l-23.848,0.605v-18.398v-18.203h-10.928h-11.123l-0.596,7.695c-0.605,7.07-1.016,7.48-8.496,8.086
		c-10.107,0.801-17.588-1.016-17.188-4.238c0.205-1.426,0.205-4.453,0-7.09l-0.205-4.453l-183.994,0.41
		c-167.402,0.605-183.984,0.82-186.416,3.848c-1.416,1.816-4.033,3.848-5.654,4.453c-2.227,0.801-2.021,1.406,1.211,2.422
		c5.059,1.621,7.676,12.734,5.664,23.047c-1.221,5.469-0.811,6.27,3.027,6.27c2.227,0,4.248-0.801,4.248-2.021
		c0-1.025,5.254-2.021,11.719-2.422c8.701-0.4,11.533-1.416,11.533-3.633c0-2.236,3.027-3.242,12.734-3.652l12.539-0.605v12.344
		c0,6.66-0.801,12.129-2.021,12.129c-1.016,0-2.021,2.822-2.021,6.064c0,5.654-0.605,6.064-7.275,6.064
		c-7.08,0-7.285-0.205-6.475-6.064c0.811-4.854,0.195-6.064-2.832-6.064c-2.217,0-3.633,1.416-3.633,4.043
		c0,2.227-1.221,4.043-2.637,4.043c-3.232,0-9.502,6.465-9.502,9.707c0,1.416,2.637,2.422,5.869,2.422s6.27,1.211,7.08,3.037
		c0.605,1.621,2.422,2.432,4.238,1.826c2.021-0.82,3.037,0,3.037,3.027c0,2.822-1.221,4.238-4.043,4.238
		c-3.232,0-4.043,1.426-4.043,6.074v6.064h-12.139h-12.129v-9.092c0-7.695-0.605-9.111-4.043-9.111c-4.248,0-5.664,4.854-2.021,7.07
		c3.037,2.031,2.422,7.07-1.006,7.07c-2.031,0-3.037,2.227-3.037,7.09c0,3.848-0.605,7.07-1.416,7.266
		c-1.006,0-6.475,0.215-12.139,0.41l-10.703,0.41v-11.523c0-11.523,0-11.729,5.859-11.729c4.033,0,6.064-1.211,6.875-4.043
		c0.596-2.217,2.422-4.043,4.248-4.043c1.807,0,3.223-1.621,3.223-4.043c0-4.443-5.254-5.664-6.465-1.621
		c-0.605,1.621-5.264,2.422-12.949,2.627c-11.514,0-11.924-0.205-12.529-5.449c-0.4-3.848-1.816-5.664-4.443-5.664
		s-3.447,1.016-2.627,4.043c0.811,2.842,0,4.043-2.441,4.043c-2.422,0-3.223-1.201-2.422-4.043c0.82-3.438,0-4.043-5.859-4.043
		c-5.459,0-6.865-0.82-6.865-4.043c0-3.242-1.416-4.043-6.279-4.043c-5.459,0-6.064-0.605-5.459-5.459
		c0.4-4.453,1.826-5.869,6.064-6.279c3.232-0.41,5.664-1.602,5.664-2.617s3.037-1.836,6.67-1.836c3.643,0,7.686-1.016,9.102-2.422
		c3.232-3.223,8.086,1.211,8.896,8.086c0.605,5.068,1.416,5.479,10.312,6.074c8.691,0.605,9.707,0.195,11.514-4.639
		c2.842-7.695,2.637-9.111-2.012-9.111c-2.432,0-4.043-1.416-4.043-3.223c0-2.637,1.416-3.037,6.055-2.021
		c4.258,0.801,6.074,0.4,6.074-1.426c0-5.059-5.059-13.34-8.496-14.355c-2.422-0.605-3.633-2.832-3.633-6.875
		c0-3.633-1.211-6.465-3.242-7.275c-1.816-0.615-39.014-1.221-82.891-1.221H49.998l0.615-7.48l0.596-7.676h1077.666h1077.666
		l0.605,7.48l0.605,7.676l-178.125,0.41c-167.207,0.605-178.34,0.811-180.156,4.248c-1.191,1.816-3.633,3.438-5.449,3.643
		c-2.637,0-2.441,0.4,0.801,1.816c4.844,1.816,8.086,15.977,5.664,25.068c-1.016,4.453-0.605,5.264,3.027,5.264
		c2.441,0,4.238-0.811,4.238-2.031c0-1.211,5.469-2.021,12.148-2.021c10.723,0,12.129-0.4,12.129-4.033
		c0-3.652,1.426-4.053,12.129-4.053h12.129v12.139c0,6.66-0.801,12.129-2.031,12.129c-0.996,0-1.992,2.822-1.992,6.064
		c0,5.459-0.605,6.064-6.094,6.064c-5.449,0-6.055-0.605-6.055-6.064c0-4.043-1.016-6.064-3.027-6.064
		c-1.621,0-3.027,1.416-3.027,3.027c0,1.826-1.621,3.848-3.438,4.453c-9.316,3.643-11.934,12.734-3.652,12.734
		c2.637,0,5.664,1.211,6.484,2.422c0.801,1.426,3.008,2.637,4.629,2.637s3.047,1.406,3.047,3.027s-1.621,2.832-3.438,2.832
		c-2.832-0.205-3.633,1.211-3.633,6.475v6.875h-13.145h-13.164v-9.092c0-7.695-0.586-9.102-4.023-9.102
		c-2.227,0-4.062,1.406-4.062,3.027c0,1.611,1.016,3.027,2.031,3.027c1.211,0,2.031,1.826,2.031,4.043
		c0,2.227-0.82,4.043-1.816,4.043c-1.23,0-2.246,3.447-2.637,7.49l-0.605,7.48h-12.129h-12.129l-0.605-11.523l-0.625-11.533h6.289
		c4.648,0,6.66-1.006,7.48-4.043c0.605-2.217,2.812-4.043,4.844-4.043c2.422,0,3.848-1.416,3.848-4.043
		c0-4.854-7.07-5.664-8.906-0.801c-0.801,2.217-3.633,2.822-11.719,2.422c-9.922-0.615-10.723-1.025-11.328-6.064
		c-0.41-3.848-1.816-5.664-4.434-5.664c-2.637,0-3.457,1.016-2.637,4.043c0.801,2.842,0,4.043-2.227,4.043
		c-1.836,0-3.223-1.611-3.223-4.043c0-3.232-1.426-4.043-7.09-4.043s-7.09-0.811-7.09-4.043c0-3.037-1.406-4.043-5.039-4.043
		c-4.258,0-5.059-1.006-5.059-6.064s0.801-6.074,5.059-6.074c2.812,0,5.039-0.801,5.039-2.012c0-1.016-1.406-2.031-3.027-2.031
		c-1.602,0-3.027-1.416-3.027-3.027c0-3.838,5.859-3.838,7.285,0c1.406,3.438,14.941,4.248,14.941,1.006
		c0-4.639,9.922,2.832,10.527,7.891c0.605,4.648,1.621,5.264,10.312,5.869s9.707,0.195,11.523-4.648
		c2.832-7.695,2.637-9.111-2.031-9.111c-2.422,0-4.023-1.416-4.023-3.223c0-2.432,1.191-3.037,5.254-2.021
		c5.234,1.406,5.234,1.211,4.043-5.059c-0.605-3.438-1.211-7.09-1.211-7.891s-1.816-2.021-4.062-2.627
		c-2.832-0.811-4.023-2.832-4.023-7.08c0-4.443-1.211-6.27-4.453-7.275c-2.637-0.615-46.719-1.221-98.066-1.221h-93.613v6.074v6.064
		h-12.129h-12.129v-6.26v-6.074l-10.508,0.605l-10.723,0.605l-0.605,17.793l-0.605,17.588h-23.047h-23.262v-18.193v-18.203h-13.125
		c-11.738,0-13.164,0.41-13.164,4.053c0,3.027-1.406,4.043-5.859,4.043c-4.043,0-6.074,1.201-6.875,4.043
		c-0.801,3.232-2.832,4.043-10.293,4.043h-9.336v8.896v9.102l-9.473,0.605c-11.328,0.811-14.766,5.664-3.848,5.664h7.266v10.107
		c0,7.881-0.605,10.107-3.223,10.107c-2.422,0-3.027,1.211-2.031,4.639c0.625,2.441,1.23,6.484,1.23,9.111
		c0,3.037,1.211,4.453,4.023,4.453c2.637,0,4.062-1.416,4.062-4.053c0-3.652,1.406-4.043,15.156-4.043h15.156v15.156v15.156H1499.1
		c-9.922,0-11.133,0.41-11.738,4.668c-0.41,3.223-2.227,4.648-6.27,5.039c-4.863,0.605-5.664,1.426-5.059,6.074
		c0.41,3.848,2.031,5.664,5.273,6.074c4.238,0.605,4.629,1.602,4.023,10.098l-0.605,9.512h-10.117h-10.098l-0.605-8.496
		c-0.605-8.086-0.996-8.691-6.465-8.691c-3.223,0-6.465,1.016-7.09,2.012c-0.605,1.211-8.477,2.031-17.383,2.031
		c-17.793,0-22.031,3.438-5.254,4.453c9.707,0.605,10.508,0.996,11.113,6.27c0.605,5.254,1.211,5.449,11.738,5.449h10.918v13.145
		v12.93l-12.539,0.625c-12.148,0.605-12.754,0.801-13.34,6.055c-0.801,6.055-4.453,7.891-13.555,6.875
		c-5.645-0.605-6.055-1.211-6.66-9.902l-0.605-9.316l9.707-0.605c8.887-0.605,9.707-0.996,9.707-5.645
		c0-4.453-1.016-5.059-7.285-5.664c-5.469-0.41-7.695-1.836-8.516-4.648c-0.781-2.637-2.812-3.848-7.07-3.848
		c-5.645,0-6.25,0.605-6.855,7.676c-0.625,7.5-0.82,7.5-10.117,8.086c-8.691,0.605-9.707,0.215-10.918-4.229
		c-2.227-9.521-0.215-14.355,6.27-15.566c7.48-1.211,8.691-8.691,1.602-9.707c-6.25-1.016-6.66-10.518-0.41-10.518
		c2.246,0,5.488,1.221,7.109,2.842c4.023,4.043,9.492,2.617,11.094-3.047c2.227-7.471,2.031-23.643,0-25.068
		c-0.996-0.605-2.207,1.816-2.617,5.449l-0.605,6.689l-12.539,0.596c-11.328,0.605-12.734,0.996-12.734,4.648
		c0,6.27-11.113,4.648-11.328-1.816c-0.195-2.422,0.625-5.059,1.426-5.664c3.633-2.012,1.602-4.854-3.242-4.854
		c-2.832,0-5.039-0.811-5.039-2.021c0-1.016-3.652-2.012-8.105-2.012h-8.086v-9.092v-9.111h10.117
		c9.902,0,10.098,0.195,10.098,6.064c0,4.043,1.016,6.074,3.047,6.074s3.008-2.236,3.008-7.08v-7.08h10.938
		c8.096,0,11.113-0.801,12.139-3.242c0.596-1.807,3.047-2.822,5.654-2.422c3.643,0.41,4.863,2.227,5.264,7.285
		c0.596,5.254,1.426,6.465,5.654,6.465c2.646,0,4.863,1.016,4.863,2.021c0,3.848,5.654,2.021,6.66-2.021
		c0.605-2.422,2.832-4.043,5.449-4.043c2.637,0,4.863,1.621,5.469,4.043c1.23,4.854,9.512,5.469,13.945,1.221
		c1.621-1.621,2.832-6.68,2.832-11.123c0-6.27,0.82-8.291,3.242-8.291s3.027-1.221,2.012-4.443
		c-0.605-2.627-1.211-8.086-1.211-12.129c0-6.885-0.41-7.49-6.465-8.086c-6.27-0.605-6.68-1.221-7.285-9.307
		c-0.605-7.48,0-8.896,3.457-9.902c7.676-2.031,4.844-6.68-3.848-6.68h-8.086v11.113v11.123h-20.84
		c-11.934,0-21.836,1.016-23.047,2.227c-0.996,1.016-6.875,1.816-12.93,1.426l-10.938-0.605l-0.605-11.533l-0.605-11.533
		l10.723-0.596l10.723-0.605l0.605-8.496l0.605-8.701h-21.23h-21.445v40.449v40.234l-22.637,0.605l-22.852,0.596l-0.586,22.861
		c-0.605,22.637-0.605,22.637-5.469,22.637c-4.043,0-5.059,1.006-5.059,5.059c0,4.248-1.016,5.049-6.074,5.049
		c-5.039,0-6.055-0.801-6.055-5.049v-5.059h-32.344h-32.363v22.246v22.236h-22.246h-22.227v22.227v22.266h-21.24h-21.221v21.221
		v21.221h-43.477h-43.467V6701.574z M1123.826,6572.17v-22.246h-22.246h-22.236v-42.461v-42.461h-19.199h-19.209v21.24
		c0,12.734-0.811,21.221-2.031,21.221c-1.016,0-2.021,5.059-2.021,11.133c0,8.486,0.605,11.113,3.037,11.113
		c2.012,0,3.027,2.021,3.027,6.064s-1.016,6.064-3.027,6.064c-1.621,0-3.037,1.826-3.037,4.043c0,3.848,1.416,4.043,21.23,4.043
		h21.23v22.246v22.236h22.236h22.246V6572.17L1123.826,6572.17z M1210.76,6538.801c0-10.508-0.195-11.113-5.039-11.113h-5.078
		v-23.252v-23.252h23.262c17.188,0,23.242,0.605,23.457,2.627c0,1.211,0.195,6.27,0.195,11.123c0,7.676,0.605,8.486,5.078,8.486
		c4.844,0,4.844,0,4.219-18.594l-0.605-18.809l-44.883-0.605l-45.078-0.41v42.461v42.461h22.227h22.246V6538.801L1210.76,6538.801z
		 M994.422,6483.205v-18.203h-10.107c-9.912,0-10.107,0.205-10.107,6.074c0,5.859-0.205,5.859-12.539,6.465l-12.734,0.615
		l-0.605,11.719l-0.605,11.523h23.447h23.252V6483.205L994.422,6483.205z"/>
	<path fill="grey" d="M1475.018,6641.525c-0.801-0.615-1.406-3.848-1.406-7.08c0-3.037-0.801-5.664-2.012-5.664
		c-1.016,0-2.031-2.217-2.031-5.049c0-4.043,1.016-5.059,5.039-5.059c2.852,0,5.078,1.016,5.078,2.012
		c0,1.221,2.812,2.031,6.055,2.031c4.863,0,6.66-1.221,8.086-5.254c3.242-8.496,2.422-15.166-2.031-16.377
		c-3.223-0.811-4.023-2.832-4.023-9.912c0-8.691,0-8.896,7.07-8.896c3.633,0,7.676-1.201,8.496-2.822
		c0.801-1.621,3.438-3.047,5.664-3.447c3.223-0.605,4.238-2.627,4.648-10.508c0.605-7.891,1.211-9.502,4.648-9.502
		c2.012,0,3.828-1.416,3.828-3.027c0-2.031,2.031-3.047,6.074-3.047s6.074,1.016,6.074,3.047c0,1.816,1.816,3.027,5.039,3.027
		c2.832,0,5.059-0.811,5.059-2.031c0-2.217,11.309-2.617,22.852-0.801c6.27,1.211,7.48,2.227,7.48,6.064
		c0,3.428-1.211,4.854-4.043,4.854c-2.227,0-4.668,1.416-5.273,3.027c-0.801,2.227-4.238,3.037-11.309,3.037
		c-9.297,0-9.902,0.41-9.297,4.639c0.605,3.857,2.012,4.463,10.898,5.068l10.312,0.596l-0.391,8.506
		c-0.41,4.639-0.605,9.092-0.82,10.107c0,0.801-4.238,1.406-9.102,1.406c-8.691,0-9.082-0.195-9.688-6.465l-0.605-6.66
		l-17.578-0.625c-14.98-0.391-17.812,0-17.812,2.637c0,2.031,2.031,3.027,6.074,3.027c3.633,0,6.055,1.016,6.055,2.637
		c0,1.816,2.031,2.422,6.27,1.816c5.879-0.811,6.074-0.605,5.469,4.863c-0.605,5.059-1.426,5.859-6.055,5.254
		c-5.078-0.41-5.684,0-5.684,5.645c0,5.879-0.391,6.074-9.102,6.074c-7.676,0-9.082,0.605-9.082,4.043
		c0,3.047-1.426,4.043-5.059,4.043c-4.453,0-5.059,0.82-5.059,8.105v8.066h-8.691
		C1480.291,6642.932,1475.623,6642.326,1475.018,6641.525z"/>
</g>
</svg>
