<?xml version="1.0" encoding="utf-8"?>
<!-- Generator: Adobe Illustrator 16.0.0, SVG Export Plug-In . SVG Version: 6.00 Build 0)  -->
<!DOCTYPE svg PUBLIC "-//W3C//DTD SVG 1.1//EN" "http://www.w3.org/Graphics/SVG/1.1/DTD/svg11.dtd">
<svg version="1.1" id="Layer_1" xmlns="http://www.w3.org/2000/svg" xmlns:xlink="http://www.w3.org/1999/xlink" x="0px" y="0px"
	 width="226.777px" height="226.777px" viewBox="0 0 226.777 226.777" enable-background="new 0 0 226.777 226.777"
	 xml:space="preserve">
<path fill="grey" id="BTC_alt_4_" d="M109.405,108.737c-4.047-2.902-9.74-3.967-9.74-3.967s4.728-2.891,6.621-5.713
	c1.898-2.823,2.778-7.147,2.887-9.385c0.112-2.239,0.276-11.611-7.149-16.831c-5.747-4.038-12.25-5.543-20.951-5.879l-0.443-18.899
	l-11.653,0.271l0.438,18.678c-2.599,0.06-5.64,0.132-8.876,0.209l-0.438-18.678l-11.655,0.271l0.439,18.676
	c-11.897,0.281-22.928,0.539-22.928,0.539l0.284,12.104c0,0,4.9-0.116,6.739-0.157c1.839-0.043,5.11,0.081,6.536,1.604
	c1.427,1.521,1.689,2.329,1.758,5.35c0.071,3.023,1.106,47.079,1.131,48.224c0.029,1.143-0.156,2.566-1.117,3.515
	c-0.957,0.947-1.931,1.186-4.271,1.241c-2.347,0.055-6.97,0.165-6.97,0.165l-2.067,14.052c0,0,11.391-0.267,22.927-0.538
	l0.434,18.625l11.652-0.275l-0.435-18.623c3.58-0.085,6.699-0.155,8.874-0.208l0.44,18.624l11.653-0.271l-0.443-18.935
	c3.008-0.248,5.812-0.539,7.445-0.791c3.312-0.514,10.804-1.562,17.718-6.629c6.908-5.065,8.303-12.78,8.29-20.518
	C116.517,116.852,113.447,111.637,109.405,108.737z M60.846,80.398c0,0,3.696-0.412,7.342-0.443c3.653-0.033,6.868,0,11.696,1.358
	c4.826,1.357,7.741,4.888,7.949,9.135c0.208,4.245-1.577,7.118-4.801,8.992c-3.227,1.875-7.721,2.958-11.966,3.219
	c-4.241,0.265-9.692,0.23-9.692,0.23L60.846,80.398L60.846,80.398z M88.234,135.496c-2.631,1.534-7.936,2.966-13.101,3.464
	c-5.167,0.508-12.903,0.527-12.903,0.527l-0.587-25.001c0,0,7.4-0.553,13.183-0.307c5.779,0.244,10.662,1.6,12.863,2.645
	c2.2,1.032,6.073,3.343,6.205,9.059C94.031,131.601,90.868,133.963,88.234,135.496z"/>
<path fill="grey" d="M199.408,3H27.534C14.172,3,3.337,13.832,3.337,27.196v171.874c0,13.363,10.834,24.195,24.197,24.195h171.874
	c13.362,0,24.196-10.832,24.196-24.195V27.196C223.604,13.832,212.77,3,199.408,3z M211.507,199.069
	c0,6.671-5.427,12.098-12.099,12.098H27.534c-6.671,0-12.098-5.427-12.098-12.098V27.196c0-6.67,5.427-12.098,12.098-12.098h171.874
	c6.672,0,12.099,5.427,12.099,12.098V199.069z"/>
<g fill="grey">
	<path d="M170.153,159.243c-14.682,0-25.866-4.082-33.556-12.248c-7.688-8.165-11.533-19.765-11.533-34.794
		c0-7.471,1.174-14.14,3.521-20.004c2.343-5.864,5.557-10.816,9.641-14.855c4.084-4.04,8.947-7.102,14.598-9.188
		c5.645-2.085,11.77-3.128,18.372-3.128c3.821,0,7.299,0.283,10.426,0.849c3.128,0.565,5.864,1.216,8.209,1.953
		c2.348,0.738,4.302,1.499,5.864,2.28c1.564,0.783,2.692,1.392,3.389,1.826l-5.863,16.419c-2.782-1.477-6.019-2.737-9.71-3.779
		c-3.692-1.042-7.884-1.565-12.574-1.565c-3.127,0-6.191,0.524-9.188,1.565c-2.996,1.042-5.646,2.715-7.948,5.015
		c-2.304,2.304-4.149,5.28-5.539,8.928c-1.391,3.648-2.084,8.079-2.084,13.291c0,4.171,0.455,8.06,1.367,11.663
		c0.91,3.607,2.388,6.712,4.432,9.317c2.04,2.606,4.71,4.671,8.015,6.19c3.3,1.521,7.298,2.28,11.989,2.28
		c2.952,0,5.602-0.173,7.948-0.52c2.346-0.347,4.432-0.76,6.255-1.238c1.825-0.477,3.43-1.021,4.822-1.631
		c1.389-0.606,2.648-1.17,3.778-1.693l5.604,16.29c-2.867,1.739-6.907,3.304-12.119,4.689
		C183.054,158.548,177.015,159.243,170.153,159.243z"/>
</g>
</svg>
