<?xml version="1.0" encoding="utf-8"?>
<!-- Generator: Adobe Illustrator 16.0.0, SVG Export Plug-In . SVG Version: 6.00 Build 0)  -->
<!DOCTYPE svg PUBLIC "-//W3C//DTD SVG 1.1//EN" "http://www.w3.org/Graphics/SVG/1.1/DTD/svg11.dtd">
<svg version="1.1" id="Layer_1" xmlns="http://www.w3.org/2000/svg" xmlns:xlink="http://www.w3.org/1999/xlink" x="0px" y="0px"
	 width="226.777px" height="226.777px" viewBox="0 0 226.777 226.777" enable-background="new 0 0 226.777 226.777"
	 xml:space="preserve">
<g fill="grey">
	<path d="M85.522,116.634c-2.197-1.042-7.069-2.396-12.837-2.64c-5.772-0.246-13.156,0.307-13.156,0.307l0.585,24.949
		c0,0,7.721-0.02,12.877-0.526c5.154-0.497,10.447-1.927,13.072-3.456c2.629-1.531,5.786-3.887,5.65-9.594
		C91.582,119.969,87.717,117.663,85.522,116.634z"/>
	<path d="M68.934,102.499c4.236-0.261,8.72-1.342,11.941-3.212c3.217-1.871,4.999-4.737,4.791-8.974
		c-0.208-4.238-3.117-7.761-7.933-9.116c-4.818-1.355-8.027-1.389-11.672-1.355c-3.64,0.031-7.328,0.441-7.328,0.441l0.529,22.446
		C59.262,102.729,64.701,102.762,68.934,102.499z"/>
	<path d="M199.021,3.046H27.503c-13.334,0-24.146,10.81-24.146,24.146v171.516c0,13.337,10.812,24.146,24.146,24.146h171.519
		c13.334,0,24.146-10.809,24.146-24.146V27.192C223.167,13.855,212.355,3.046,199.021,3.046z M106.033,144.858
		c-6.899,5.056-14.376,6.102-17.682,6.613c-1.629,0.252-4.426,0.543-7.429,0.791l0.442,18.896l-11.628,0.27l-0.439-18.586
		c-2.171,0.053-5.283,0.124-8.856,0.208l0.434,18.585l-11.628,0.274l-0.433-18.586c-11.513,0.271-22.879,0.536-22.879,0.536
		l2.062-14.022c0,0,4.614-0.109,6.957-0.165c2.334-0.055,3.307-0.293,4.262-1.237c0.959-0.947,1.144-2.368,1.114-3.508
		c-0.024-1.144-1.058-45.107-1.128-48.124c-0.068-3.014-0.33-3.822-1.754-5.338c-1.422-1.521-4.687-1.645-6.522-1.602
		c-1.834,0.041-6.726,0.157-6.726,0.157l-0.283-12.079c0,0,11.008-0.258,22.88-0.538l-0.438-18.638l11.63-0.271l0.437,18.64
		c3.23-0.078,6.265-0.15,8.858-0.209l-0.436-18.64l11.629-0.271l0.442,18.859c8.684,0.337,15.174,1.838,20.907,5.868
		c7.41,5.21,7.247,14.563,7.136,16.797c-0.108,2.232-0.987,6.547-2.881,9.365c-1.888,2.815-6.606,5.7-6.606,5.7
		s5.68,1.064,9.719,3.96c4.034,2.894,7.098,8.099,7.113,15.82C114.318,132.103,112.926,139.802,106.033,144.858z M189.915,156.884
		c-5.2,1.387-11.228,2.081-18.075,2.081c-14.653,0-25.814-4.073-33.487-12.223c-7.671-8.148-11.508-19.724-11.508-34.723
		c0-7.455,1.171-14.11,3.513-19.961c2.338-5.853,5.545-10.794,9.62-14.824c4.076-4.032,8.929-7.087,14.565-9.168
		c5.635-2.081,11.749-3.123,18.337-3.123c3.813,0,7.284,0.283,10.404,0.847s5.852,1.215,8.191,1.949
		c2.343,0.737,4.292,1.496,5.853,2.275c1.562,0.782,2.688,1.389,3.381,1.822l-5.851,16.386c-2.776-1.473-6.005-2.731-9.69-3.771
		c-3.684-1.04-7.867-1.562-12.547-1.562c-3.123,0-6.179,0.523-9.171,1.562c-2.989,1.039-5.634,2.709-7.932,5.004
		c-2.298,2.299-4.14,5.269-5.526,8.909c-1.389,3.641-2.08,8.062-2.08,13.263c0,4.162,0.454,8.043,1.364,11.64
		c0.909,3.6,2.383,6.698,4.423,9.298c2.035,2.601,4.699,4.66,7.998,6.178c3.293,1.518,7.281,2.275,11.965,2.275
		c2.944,0,5.59-0.174,7.93-0.519c2.343-0.346,4.424-0.758,6.243-1.236c1.821-0.476,3.423-1.018,4.812-1.627
		c1.386-0.604,2.643-1.168,3.771-1.69l5.592,16.258C199.148,153.938,195.117,155.501,189.915,156.884z"/>
</g>
</svg>
