<?xml version="1.0" encoding="utf-8"?>
<!-- Generator: Adobe Illustrator 16.0.0, SVG Export Plug-In . SVG Version: 6.00 Build 0)  -->
<!DOCTYPE svg PUBLIC "-//W3C//DTD SVG 1.1//EN" "http://www.w3.org/Graphics/SVG/1.1/DTD/svg11.dtd">
<svg version="1.1" id="Layer_1" xmlns="http://www.w3.org/2000/svg" xmlns:xlink="http://www.w3.org/1999/xlink" x="0px" y="0px"
	 width="226.777px" height="226.777px" viewBox="0 0 226.777 226.777" enable-background="new 0 0 226.777 226.777"
	 xml:space="preserve">
<path fill="grey" id="BCH" d="M109.467,109.161c-4.976-3.568-11.977-4.877-11.977-4.877s5.814-3.556,8.142-7.025
	c2.334-3.471,3.417-8.788,3.55-11.541c0.139-2.752,0.34-14.276-8.79-20.696c-7.066-4.964-15.062-6.816-25.762-7.229l-0.545-23.238
	l-14.328,0.333l0.538,22.968c-3.195,0.074-6.934,0.162-10.914,0.257l-0.538-22.968L34.51,35.479l0.539,22.964
	c-14.628,0.346-28.192,0.663-28.192,0.663l0.349,14.883c0,0,6.026-0.142,8.287-0.192c2.261-0.053,6.282,0.1,8.037,1.971
	c1.754,1.871,2.077,2.864,2.162,6.579c0.088,3.717,1.359,57.889,1.391,59.297c0.036,1.405-0.192,3.155-1.374,4.322
	c-1.176,1.164-2.374,1.459-5.251,1.525c-2.887,0.067-8.571,0.203-8.571,0.203l-2.541,17.278c0,0,14.006-0.328,28.191-0.661
	l0.533,22.901l14.328-0.338l-0.534-22.898c4.402-0.105,8.236-0.191,10.912-0.257l0.541,22.9l14.329-0.333l-0.545-23.282
	c3.699-0.305,7.147-0.662,9.155-0.973c4.072-0.632,13.285-1.922,21.787-8.151c8.494-6.228,10.209-15.715,10.193-25.229
	C118.212,119.14,114.437,112.728,109.467,109.161z M49.758,74.316c0,0,4.543-0.507,9.028-0.545c4.491-0.041,8.445,0,14.381,1.671
	c5.934,1.667,9.519,6.01,9.774,11.232c0.255,5.22-1.939,8.752-5.903,11.057c-3.968,2.306-9.494,3.637-14.713,3.958
	c-5.215,0.326-11.917,0.283-11.917,0.283L49.758,74.316L49.758,74.316z M83.434,142.064c-3.235,1.887-9.759,3.647-16.11,4.26
	c-6.353,0.626-15.865,0.648-15.865,0.648l-0.721-30.742c0,0,9.098-0.679,16.209-0.377c7.106,0.3,13.11,1.967,15.817,3.252
	c2.705,1.27,7.468,4.11,7.63,11.139C90.562,137.275,86.673,140.179,83.434,142.064z"/>
<g fill="grey">
	<path d="M195.055,59.014l23.255-0.063l0.282,103.299l-23.255,0.064l-0.119-43.824l-39.053,0.106l0.119,43.824l-23.254,0.063
		l-0.282-103.3l23.253-0.062l0.108,39.501l39.054-0.107L195.055,59.014z"/>
</g>
</svg>
