<?xml version="1.0" encoding="utf-8"?>
<!DOCTYPE svg PUBLIC "-//W3C//DTD SVG 1.1//EN" "http://www.w3.org/Graphics/SVG/1.1/DTD/svg11.dtd">
<svg version="1.1" id="Layer_1" xmlns="http://www.w3.org/2000/svg" xmlns:xlink="http://www.w3.org/1999/xlink" x="0px" y="0px"
	 width="226.777px" height="226.777px" viewBox="0 0 226.777 226.777" enable-background="new 0 0 226.777 226.777"
	 xml:space="preserve">
<path fill="grey" d="M137.467,109.161c-4.976-3.568-11.977-4.877-11.977-4.877s5.814-3.556,8.142-7.025
	c2.334-3.471,3.417-8.787,3.551-11.541c0.139-2.752,0.34-14.275-8.79-20.695c-7.066-4.964-15.062-6.816-25.763-7.229l-0.545-23.237
	l-14.328,0.333l0.538,22.968c-3.194,0.074-6.934,0.162-10.914,0.257l-0.538-22.968L62.51,35.479l0.539,22.964
	c-14.628,0.346-28.191,0.663-28.191,0.663l0.349,14.883c0,0,6.026-0.142,8.287-0.192c2.261-0.053,6.282,0.101,8.037,1.972
	c1.754,1.871,2.077,2.863,2.162,6.579c0.088,3.717,1.358,57.889,1.391,59.297c0.036,1.404-0.191,3.154-1.374,4.321
	c-1.176,1.164-2.374,1.459-5.251,1.525c-2.887,0.067-8.57,0.203-8.57,0.203l-2.541,17.278c0,0,14.006-0.328,28.19-0.661l0.533,22.9
	l14.328-0.338l-0.534-22.897c4.402-0.105,8.236-0.191,10.912-0.258l0.541,22.9l14.329-0.333l-0.545-23.282
	c3.698-0.305,7.146-0.662,9.154-0.973c4.072-0.632,13.285-1.922,21.787-8.151c8.494-6.228,10.209-15.715,10.193-25.229
	C146.212,119.14,142.437,112.728,137.467,109.161z M77.758,74.316c0,0,4.543-0.507,9.028-0.545c4.491-0.041,8.445,0,14.381,1.671
	c5.935,1.667,9.52,6.01,9.774,11.231c0.255,5.221-1.939,8.752-5.903,11.058c-3.968,2.306-9.494,3.637-14.713,3.958
	c-5.215,0.326-11.917,0.283-11.917,0.283L77.758,74.316L77.758,74.316z M111.434,142.064c-3.235,1.887-9.76,3.646-16.11,4.26
	c-6.353,0.626-15.865,0.648-15.865,0.648l-0.721-30.742c0,0,9.098-0.68,16.209-0.377c7.106,0.3,13.11,1.967,15.817,3.252
	c2.705,1.27,7.468,4.109,7.63,11.139C118.562,137.275,114.673,140.179,111.434,142.064z"/>
<g>
	<path fill="grey" d="M184.284,162.42l-23.254,0.063l-0.282-103.3l23.253-0.062L184.284,162.42z"/>
</g>
</svg>
