<?xml version="1.0" encoding="utf-8"?>
<!-- Generator: Adobe Illustrator 16.0.0, SVG Export Plug-In . SVG Version: 6.00 Build 0)  -->
<!DOCTYPE svg PUBLIC "-//W3C//DTD SVG 1.1//EN" "http://www.w3.org/Graphics/SVG/1.1/DTD/svg11.dtd">
<svg version="1.1" id="Layer_1" xmlns="http://www.w3.org/2000/svg" xmlns:xlink="http://www.w3.org/1999/xlink" x="0px" y="0px"
	 width="226.777px" height="226.777px" viewBox="0 0 226.777 226.777" enable-background="new 0 0 226.777 226.777"
	 xml:space="preserve">
<path fill="grey" d="M199.408,3H27.534C14.172,3,3.337,13.832,3.337,27.196V199.07c0,13.363,10.834,24.195,24.197,24.195h171.874
	c13.362,0,24.196-10.832,24.196-24.195V27.196C223.604,13.832,212.77,3,199.408,3z M211.507,199.069
	c0,6.671-5.427,12.098-12.099,12.098H27.534c-6.671,0-12.098-5.427-12.098-12.098V27.196c0-6.67,5.427-12.098,12.098-12.098h171.874
	c6.672,0,12.099,5.427,12.099,12.098V199.069L211.507,199.069z"/>
<path fill="grey" id="BTC_alt_5_" d="M110.151,108.439c-4.094-2.938-9.854-4.015-9.854-4.015s4.784-2.925,6.699-5.78
	c1.921-2.858,2.811-7.233,2.921-9.497c0.114-2.266,0.279-11.75-7.235-17.032c-5.814-4.087-12.395-5.609-21.201-5.95l-0.448-19.125
	l-11.792,0.275l0.442,18.901c-2.63,0.06-5.707,0.133-8.982,0.211l-0.442-18.901l-11.794,0.275l0.444,18.899
	c-12.039,0.285-23.201,0.546-23.201,0.546l0.287,12.248c0,0,4.959-0.118,6.82-0.159c1.861-0.044,5.17,0.082,6.613,1.624
	c1.445,1.538,1.709,2.357,1.779,5.414c0.072,3.058,1.12,47.64,1.144,48.799c0.03,1.156-0.157,2.598-1.13,3.557
	c-0.969,0.959-1.954,1.2-4.321,1.256c-2.375,0.056-7.054,0.168-7.054,0.168l-2.092,14.219c0,0,11.527-0.27,23.201-0.545
	l0.438,18.848l11.792-0.279l-0.44-18.845c3.623-0.087,6.779-0.158,8.98-0.211l0.444,18.847l11.792-0.274l-0.449-19.16
	c3.045-0.251,5.882-0.546,7.534-0.801c3.352-0.521,10.933-1.581,17.929-6.707c6.99-5.128,8.403-12.935,8.389-20.763
	C117.348,116.652,114.242,111.374,110.151,108.439z M61.014,79.762c0,0,3.74-0.417,7.43-0.449c3.696-0.034,6.95,0,11.836,1.375
	c4.883,1.373,7.833,4.945,8.044,9.244c0.211,4.296-1.597,7.203-4.858,9.1c-3.266,1.896-7.813,2.993-12.109,3.257
	c-4.292,0.268-9.807,0.233-9.807,0.233L61.014,79.762L61.014,79.762z M88.728,135.517c-2.662,1.553-8.03,3.002-13.256,3.506
	c-5.228,0.514-13.058,0.533-13.058,0.533l-0.593-25.299c0,0,7.488-0.56,13.34-0.312c5.849,0.247,10.79,1.62,13.018,2.677
	c2.226,1.044,6.145,3.383,6.279,9.167C94.594,131.576,91.394,133.965,88.728,135.517z"/>
<g fill="grey">
	<path d="M201.203,154.158c-4.049,1.04-9.31,2.111-15.78,3.209c-6.476,1.095-13.584,1.647-21.327,1.647
		c-7.282,0-13.382-1.041-18.293-3.124c-4.914-2.078-8.846-4.968-11.792-8.669c-2.947-3.698-5.058-8.118-6.329-13.266
		c-1.272-5.139-1.906-10.776-1.906-16.903V66.247h20.982v47.51c0,9.709,1.414,16.646,4.245,20.806
		c2.831,4.164,7.773,6.242,14.827,6.242c2.54,0,5.228-0.113,8.062-0.347c2.83-0.229,4.942-0.52,6.329-0.866V66.247h20.981V154.158z"
		/>
</g>
</svg>
