<?xml version="1.0" encoding="utf-8"?>
<!-- Generator: Adobe Illustrator 16.0.0, SVG Export Plug-In . SVG Version: 6.00 Build 0)  -->
<!DOCTYPE svg PUBLIC "-//W3C//DTD SVG 1.1//EN" "http://www.w3.org/Graphics/SVG/1.1/DTD/svg11.dtd">
<svg version="1.1" id="Layer_1" xmlns="http://www.w3.org/2000/svg" xmlns:xlink="http://www.w3.org/1999/xlink" x="0px" y="0px"
	 width="226.777px" height="226.777px" viewBox="0 0 226.777 226.777" enable-background="new 0 0 226.777 226.777"
	 xml:space="preserve">
<g fill="grey">
	<path d="M85.894,116.459c-2.189-1.037-7.044-2.386-12.788-2.629c-5.75-0.245-13.104,0.306-13.104,0.306l0.583,24.853
		c0,0,7.691-0.019,12.827-0.523c5.135-0.496,10.408-1.919,13.022-3.444c2.619-1.525,5.763-3.871,5.627-9.557
		C91.929,119.783,88.08,117.486,85.894,116.459z"/>
	<path d="M198.954,3.31H28.098c-13.283,0-24.053,10.768-24.053,24.053v170.854c0,13.283,10.771,24.052,24.053,24.052h170.856
		c13.283,0,24.053-10.769,24.053-24.052V27.363C223.007,14.078,212.237,3.31,198.954,3.31z M106.324,144.576
		c-6.872,5.035-14.319,6.077-17.613,6.587c-1.622,0.251-4.41,0.541-7.4,0.789l0.441,18.822l-11.585,0.27l-0.436-18.516
		c-2.164,0.053-5.265,0.124-8.822,0.206l0.433,18.515l-11.584,0.274l-0.431-18.517c-11.468,0.272-22.792,0.535-22.792,0.535
		l2.055-13.967c0,0,4.596-0.11,6.929-0.166c2.326-0.055,3.294-0.29,4.246-1.232c0.956-0.944,1.14-2.359,1.109-3.495
		c-0.022-1.137-1.052-44.933-1.122-47.937c-0.069-3.003-0.33-3.808-1.749-5.319c-1.417-1.515-4.669-1.638-6.497-1.595
		c-1.828,0.041-6.7,0.157-6.7,0.157l-0.281-12.033c0,0,10.965-0.256,22.792-0.536l-0.436-18.565l11.585-0.271l0.435,18.568
		c3.218-0.076,6.241-0.148,8.824-0.208L67.29,48.376l11.584-0.271l0.44,18.787c8.649,0.334,15.116,1.83,20.827,5.845
		c7.381,5.189,7.218,14.506,7.106,16.731c-0.107,2.225-0.983,6.522-2.869,9.33c-1.881,2.804-6.581,5.678-6.581,5.678
		s5.659,1.059,9.681,3.944c4.019,2.883,7.07,8.069,7.086,15.758C114.579,131.87,113.191,139.539,106.324,144.576z M200.932,153.332
		c-3.978,1.023-9.145,2.075-15.503,3.153c-6.361,1.075-13.342,1.616-20.949,1.616c-7.153,0-13.145-1.021-17.97-3.067
		c-4.828-2.043-8.688-4.88-11.584-8.516c-2.896-3.632-4.968-7.977-6.218-13.033c-1.251-5.046-1.873-10.584-1.873-16.604V66.972
		h20.61v46.672c0,9.539,1.393,16.353,4.173,20.438c2.78,4.092,7.636,6.133,14.565,6.133c2.495,0,5.135-0.111,7.921-0.34
		c2.779-0.227,4.854-0.512,6.218-0.854v-72.05h20.609V153.332z"/>
	<path d="M69.369,102.381c4.221-0.261,8.687-1.338,11.895-3.202c3.204-1.863,4.98-4.718,4.773-8.938
		c-0.208-4.223-3.105-7.732-7.902-9.081c-4.801-1.35-7.997-1.384-11.628-1.35c-3.625,0.031-7.298,0.44-7.298,0.44l0.525,22.359
		C59.734,102.608,65.153,102.641,69.369,102.381z"/>
</g>
</svg>
