<?xml version="1.0" encoding="utf-8"?>
<!DOCTYPE svg PUBLIC "-//W3C//DTD SVG 1.1//EN" "http://www.w3.org/Graphics/SVG/1.1/DTD/svg11.dtd">
<svg version="1.1" id="Layer_1" xmlns="http://www.w3.org/2000/svg" xmlns:xlink="http://www.w3.org/1999/xlink" x="0px" y="0px"
	 width="226.777px" height="226.777px" viewBox="0 0 226.777 226.777" enable-background="new 0 0 226.777 226.777"
	 xml:space="preserve">
<g transform="translate(0.000000,400.000000) scale(0.100000,-0.100000)">
	<path fill="grey" d="M1029.07,3962.907c-428.76-40.078-800.972-334.331-936.572-741.128c-76.304-228.384-77.402-466.641-2.192-693.916
		c107.051-325.547,366.172-587.412,687.876-694.463c199.834-66.426,389.229-76.865,591.26-32.393
		c373.301,82.344,682.382,362.334,801.513,726.855c75.762,230.576,75.762,455.649,0,686.226
		C2012.849,3697.199,1535.232,4010.114,1029.07,3962.907z M1309.05,3870.129c215.752-41.729,387.578-131.758,538.555-282.178
		c125.166-125.718,215.195-279.434,262.412-447.974c25.254-92.227,32.939-154.268,32.939-269.009
		c0-114.736-7.686-176.768-32.939-268.994c-47.217-169.092-136.699-321.699-262.412-447.969
		c-107.598-107.051-229.473-185.557-363.984-234.424c-131.748-47.754-209.15-60.928-352.988-60.928
		c-94.434,0-122.422,2.197-175.679,12.627c-220.693,43.369-389.78,131.748-541.304,282.725
		c-181.709,182.266-284.917,415.029-296.45,671.406c-13.169,284.922,93.33,558.862,297.007,762.539
		c166.343,166.338,379.346,268.452,612.119,293.701C1095.495,3888.791,1241.521,3882.751,1309.05,3870.129z"/>
	<path fill="grey" d="M1026.326,3814.68c-318.413-36.235-601.138-233.867-743.877-519.888c-134.502-269.551-134.502-577.534-0.552-847.075
		c212.456-426.025,708.745-629.15,1158.354-473.232c348.057,120.225,594.004,429.863,634.082,798.769
		c32.93,298.647-86.738,606.079-314.57,807.007C1558.835,3758.137,1288.728,3844.323,1026.326,3814.68z M1673.015,3295.886
		c9.893-6.582,12.09-13.174,12.09-34.033c0-38.979-8.779-47.212-47.217-47.764h-31.846l-4.395-19.209
		c-2.197-10.435-3.838-183.911-2.734-385.386c0.537-200.928-0.547-367.265-2.197-369.463c-5.498-4.951-103.75-4.951-109.248,0.537
		c-5.488,5.498-7.686,78.515-6.592,191.601c1.65,136.152-3.838,579.175-7.139,584.668c-1.641,2.744-17.559,5.488-35.127,5.488
		c-17.012,0-34.043,2.744-37.881,6.587c-8.242,8.237-8.242,35.688-0.557,58.188l6.045,17.021l77.402,1.646
		C1597.263,3307.966,1658.201,3304.67,1673.015,3295.886z M810.022,3298.635c1.641-2.749,8.784-4.941,16.47-4.941
		c16.47,0,46.113-14.272,46.113-22.51c0-3.296,4.937-13.174,10.981-21.406c9.878-14.277,11.528-27.451,14.824-122.974
		c4.39-134.507-1.099-166.343-32.393-197.09l-21.958-20.854l14.824-11.533c28.545-21.963,40.62-39.531,43.916-62.031
		c2.197-12.09,2.744-87.295,1.646-167.451c-1.646-136.689-2.197-146.572-13.726-167.431
		c-29.644-55.439-52.695-63.135-194.341-63.135c-80.698,0-109.795,1.641-113.086,7.139c-2.202,3.301-4.395,193.232-4.946,421.074
		c0,354.092,1.099,416.123,7.69,427.104c8.232,12.075,9.336,12.627,114.741,11.528
		C758.962,3303.576,808.376,3300.827,810.022,3298.635z M1298.074,3260.754v-41.172l-57.646-2.744l-57.646-2.749v-127.363v-127.915
		h41.172c64.238,0,66.426-1.641,65.332-35.684c-0.557-15.376,0.557-30.747,2.197-34.033c1.641-2.754-0.557-10.43-4.941-17.021
		c-7.686-10.977-13.184-12.07-57.646-12.07h-49.414l1.104-198.74c1.104-148.223,0-202.568-5.488-211.357
		c-6.035-11.523-9.883-12.627-58.193-12.627c-35.137,0-52.705,2.197-55.996,7.139c-6.592,9.883-5.488,854.219,1.104,856.963
		c3.291,1.65,57.637,2.197,120.771,1.65l115.293-1.104V3260.754z"/>
	<path fill="grey" d="M706.814,3220.681c4.941-5.493,6.035-43.921,4.39-139.995l-2.192-132.305l17.563-1.65
		c45.571-4.39,52.153,17.017,49.404,153.721c-2.192,107.598-3.833,115.288-20.308,118.579
		C711.203,3228.366,700.222,3228.913,706.814,3220.681z"/>
	<path fill="grey" d="M708.459,2861.643c3.296-3.848,4.941-69.17,4.39-166.885l-1.094-161.396l26.348,1.084
		c14.824,0.547,28.55,4.395,30.742,8.232c2.749,3.857,4.941,72.48,4.941,152.617c0,169.092,0.552,167.998-43.369,171.289
		C710.105,2867.688,704.617,2866.584,708.459,2861.643z"/>
</g>
</svg>
