<?xml version="1.0" encoding="UTF-8" standalone="no"?>
<svg width="279px" height="279px" viewBox="0 0 279 279" version="1.1" xmlns="http://www.w3.org/2000/svg" xmlns:xlink="http://www.w3.org/1999/xlink">
    <!-- Generator: Sketch 3.8.3 (29802) - http://www.bohemiancoding.com/sketch -->
    <title>Combined Shape</title>
    <desc>Created with Sketch.</desc>
    <defs></defs>
    <g id="Page-2" stroke="none" stroke-width="1" fill="none" fill-rule="evenodd">
        <g id="Artboard-5-Copy-19" transform="translate(-46.000000, -46.000000)" fill="grey">
            <path d="M76.3373946,226.806685 L76.4339819,226.444367 C77.1153977,225.83808 77.8096929,225.224917 78.5167616,224.605201 C92.2530837,212.565889 107.951122,200.52407 125.343269,189.286169 C148.847019,174.099268 173.013179,161.755074 198.092905,152.973537 C193.122869,157.996733 188.266561,162.732217 183.531354,167.195923 C181.041745,168.234962 178.518928,169.344711 175.964004,170.5235 C159.394744,178.168215 141.851302,188.532078 123.814636,200.939566 C109.688052,210.657294 96.0651681,221.065549 83.4470364,231.474013 C82.1789655,232.520022 80.947187,233.544637 79.7531888,234.545817 L79.3309028,234.464681 C78.2172439,231.929375 77.2235174,229.369239 76.3373946,226.806685 Z M72.5713137,213.283886 C73.9301771,211.997615 75.3606931,210.674501 76.8626859,209.318267 C89.5659435,197.847781 104.714613,186.371708 122.27219,175.658326 C149.384609,159.114715 179.617897,145.990776 212.919925,137.475464 C209.928759,140.705421 206.973062,143.834443 204.054249,146.865591 C176.055569,155.880717 148.983939,169.248433 123.172422,185.926493 C105.607248,197.276195 89.7562118,209.435378 75.8802598,221.597069 C75.5826421,221.857918 75.287247,222.117634 74.9940821,222.376192 L74.8945339,222.32572 C73.9850428,219.284152 73.2175468,216.257644 72.5713137,213.283886 Z M70.5426893,201.439287 C109.241684,150.364024 184.197996,137.411114 208.541831,134.484632 C176.175426,143.113792 146.707869,156.06217 120.188691,172.243793 C102.409839,183.092195 87.0634746,194.718033 74.1819816,206.349458 C73.3159192,207.131475 72.4729972,207.902888 71.6532442,208.663018 C71.207781,206.195247 70.8418184,203.779661 70.5426893,201.439287 Z M91.9428341,254.933439 C91.6178727,254.496291 91.2959026,254.056787 90.9769541,253.614958 C103.957851,248.957081 175.81828,219.570445 256.047334,115.284332 C256.047334,115.284332 151.612929,100.871121 69.6143273,173.462688 C75.6383211,114.777253 125.223235,69 185.5,69 C249.841173,69 302,121.158827 302,185.5 C302,242.258443 261.41077,289.536764 207.67515,299.892122 C277.337339,230.734662 256.071958,115.285278 256.07196,115.285278 C206.938086,221.834783 126.823984,271.337615 114.96477,278.228 C107.227382,272.333376 100.249895,265.492402 94.2049439,257.877717 C93.5219824,256.957726 92.7693148,255.977347 91.9428341,254.933439 Z M149.355957,296.296301 L149.448574,296.185671 C149.557643,296.115447 149.667974,296.044221 149.779559,295.971991 C153.010079,293.880852 156.636899,291.375843 160.579105,288.457166 C171.830195,280.127239 183.368769,270.146334 194.546716,258.514824 C206.94259,245.615969 222.476262,227.13553 234.876275,208.960878 C233.608247,214.654732 231.902634,221.039421 229.610647,227.797172 C219.644485,242.594143 208.042251,256.619914 195.127489,269.838214 C185.157763,280.04226 165.598119,296.571918 162.42212,299.243687 C157.680581,298.428136 153.329144,297.420886 149.355957,296.296301 Z M174.579837,300.796838 C199.134381,285.488591 214.276701,263.675464 223.606673,243.045583 C215.803972,253.312566 207.226161,263.178903 197.988576,272.6336 C188.757219,282.081923 170.613875,297.667104 167.814578,300.062297 C169.995211,300.350332 172.249976,300.597198 174.579837,300.796838 Z M132.898266,290.187495 C136.571977,288.102066 182.968692,260.847826 238.507855,184.142639 C238.507854,184.142639 238.311724,189.736591 236.860784,198.663507 C224.008495,219.05688 205.73825,241.096414 191.662616,255.743188 C180.648175,267.204557 169.277784,277.039984 158.198972,285.242362 C154.325712,288.109993 150.767696,290.56748 147.605966,292.614091 C146.502831,293.328158 145.529093,293.939289 144.694884,294.4474 C144.611798,294.498007 144.533208,294.545711 144.45916,294.590512 L144.126566,294.682041 C139.87941,293.258125 136.142979,291.720198 132.898266,290.187495 Z M174.22978,175.761023 C130.948348,214.668041 98.9669371,230.155913 84.5458942,235.756609 C85.0225646,235.360916 85.5047458,234.961902 85.9923508,234.559686 C98.526184,224.220757 112.058606,213.881618 126.081654,204.235113 C142.70747,192.798154 158.892882,183.124672 174.22978,175.761023 Z M46,185.5 C46,108.456277 108.456277,46 185.5,46 C262.543723,46 325,108.456277 325,185.5 C325,262.543723 262.543723,325 185.5,325 C108.456277,325 46,262.543723 46,185.5 Z" id="Combined-Shape"></path>
        </g>
    </g>
</svg>