<?xml version="1.0" encoding="utf-8"?>
<!DOCTYPE svg PUBLIC "-//W3C//DTD SVG 1.1//EN" "http://www.w3.org/Graphics/SVG/1.1/DTD/svg11.dtd">
<svg version="1.1"
	 id="svg2" xmlns:svg="http://www.w3.org/2000/svg" xmlns:dc="http://purl.org/dc/elements/1.1/" xmlns:cc="http://creativecommons.org/ns#" xmlns:rdf="http://www.w3.org/1999/02/22-rdf-syntax-ns#"
	 xmlns="http://www.w3.org/2000/svg" xmlns:xlink="http://www.w3.org/1999/xlink" x="0px" y="0px" width="560px" height="560px"
	 viewBox="0 0 560 560" enable-background="new 0 0 560 560" xml:space="preserve">
<g>
	<g>
		<path fill="#9ECD52" d="M444.648,57.862c0,0-1.072-0.933-1.271-0.933c-13.944,50.154-65.109,122.38-97.941,158.764
			c-86.985,96.374-166.597,121.539-223.973,126.192c25.324,38.636,94.361,55.142,150.148,48.179
			c43.296-5.435,77.256-25.041,102.124-51.527c14.392-15.301,32.476-41.88,46.054-71.948c14.214-31.293,23.773-66.326,27.621-96.128
			C455.884,104.237,444.648,57.862,444.648,57.862z"/>
		<g>
			<path fill="#A7A9AC" d="M225.359,259.136C345.927,202.462,419.299,90.433,439.131,57.074
				c-28.25,1.14-181.526,10.313-253.233,74.764c-71.447,64.165-73.891,148.234-73.935,158.388
				C136.575,288.553,177.033,281.906,225.359,259.136z"/>
			<path fill="#789B3E" d="M225.359,259.136C345.927,202.462,419.299,90.433,439.131,57.074
				c-28.25,1.14-181.526,10.313-253.233,74.764c-71.447,64.165-73.891,148.234-73.935,158.388
				C136.575,288.553,177.033,281.906,225.359,259.136z"/>
		</g>
	</g>
	<g id="g74_2_" transform="translate(299.6787,45.4482)">
		<path id="path76_2_" fill="#111111" d="M167.264,389.751H155.3l-15.268,14.072l-15.154-14.069h-12.136l21.309,19.712
			l-22.106,20.279h11.965l16.007-14.755l15.954,14.755h12.193L145.9,409.407L167.264,389.751z M62.276,389.751v39.994H106.6v-6.723
			H71.334v-10.997h21.138v-6.21H71.334v-9.172H106.6v-6.893H62.276z M9.76,399.495l30.023,30.25H50.04v-39.994h-8.946v28.829
			l-28.826-28.826H0.758v39.993H9.76V399.495z M-20.539,429.745h9.059v-39.994h-9.059V429.745z M-71.458,389.751v39.994h9.056
			v-15.609h21.252v-6.553h-21.252v-10.939h34.525v-6.893H-71.458z M-99.139,397.327h19.941v-7.576h-48.938v7.576h19.939v32.418
			h9.057V397.327z M-144.929,429.745h9.059v-39.994h-9.059V429.745z M-168.849,408.782c8.832-0.286,12.024-4.675,12.024-9.457
			c0-5.243-4.161-9.571-14.299-9.571h-32.419v39.993h33.385c8.32,0,14.529-3.475,14.529-10.937
			C-155.63,413.508-159.107,409.009-168.849,408.782 M-174.203,405.933h-20.279v-9.4h20.279c5.528,0,7.691,1.938,7.691,4.615
			C-166.512,403.596-169.018,405.933-174.203,405.933 M-173.519,423.079h-20.963v-11.164h20.963c5.244,0,7.919,2.506,7.919,5.752
			C-165.6,420.801-168.22,423.079-173.519,423.079"/>
	</g>
</g>
</svg>
