<?xml version="1.0" encoding="utf-8"?>
<!DOCTYPE svg PUBLIC "-//W3C//DTD SVG 1.1//EN" "http://www.w3.org/Graphics/SVG/1.1/DTD/svg11.dtd">
<svg version="1.1" id="Layer_1" xmlns="http://www.w3.org/2000/svg" xmlns:xlink="http://www.w3.org/1999/xlink" x="0px" y="0px"
	 width="226.777px" height="226.777px" viewBox="0 0 226.777 226.777" enable-background="new 0 0 226.777 226.777"
	 xml:space="preserve">
<g>
	<path fill="grey" d="M107.958,110.781l29.788,30.299c7.958,8.104,18.471,12.559,29.715,12.559
		c11.243,0,21.757-4.454,29.715-12.559c16.427-16.719,16.427-43.951,0-60.67c-7.958-8.104-18.544-12.559-29.715-12.559
		c-11.244,0-21.829,4.454-29.715,12.559L107.958,110.781z M167.461,168.677c-15.186,0-29.495-6.06-40.229-16.938l-40.228-40.886
		l40.228-40.885c10.732-10.952,25.043-16.938,40.229-16.938s29.496,5.986,40.302,16.938c22.194,22.56,22.194,59.283,0,81.771
		C196.957,162.69,182.719,168.677,167.461,168.677"/>
	<path fill="grey" d="M57.947,168.677c-15.186,0-29.496-6.06-40.301-16.938c-22.194-22.561-22.194-59.284,0-81.771
		c10.733-10.952,25.043-16.938,40.301-16.938c15.186,0,29.497,5.986,40.302,16.938l1.898,1.897L89.633,82.454l-1.898-1.898
		c-7.958-8.104-18.544-12.558-29.714-12.558c-11.244,0-21.83,4.453-29.715,12.558c-16.427,16.719-16.427,43.951,0,60.671
		c7.958,8.104,18.544,12.558,29.715,12.558c11.243,0,21.756-4.453,29.714-12.558l1.898-1.972l10.514,10.586l-1.898,1.973
		C87.443,162.69,73.205,168.677,57.947,168.677"/>
</g>
</svg>
