<?xml version="1.0" encoding="utf-8"?>
<!DOCTYPE svg PUBLIC "-//W3C//DTD SVG 1.1//EN" "http://www.w3.org/Graphics/SVG/1.1/DTD/svg11.dtd">
<svg version="1.1" id="Layer_1" xmlns="http://www.w3.org/2000/svg" xmlns:xlink="http://www.w3.org/1999/xlink" x="0px" y="0px"
	 width="226.777px" height="226.777px" viewBox="0 0 226.777 226.777" enable-background="new 0 0 226.777 226.777"
	 xml:space="preserve">
<path fill="grey" d="M197.14,191.103c0-0.073-0.013-0.143-0.041-0.206l-8.635-34.882c0-0.065-0.033-0.131-0.082-0.196
	c-0.033-0.067-0.078-0.137-0.134-0.191c-0.065-0.032-0.137-0.08-0.221-0.106l-16.438-6.686c-0.027-0.023-0.05-0.047-0.083-0.069
	c-0.087-0.028-0.174-0.036-0.262-0.039c-0.028-0.002-0.057-0.004-0.085-0.004c-0.006,0-0.012,0.001-0.017,0.001
	c-0.009,0-0.018-0.001-0.026-0.001c-0.001,0.001-0.003,0.001-0.004,0.002c-0.07,0.001-0.141,0.006-0.211,0.041l-0.173,0.172
	c-0.06,0.061-0.092,0.121-0.11,0.181l-7.944,9.396l-23.101,5.808l-33.43-5.451l-0.009-0.008c-0.04-0.02-0.069-0.038-0.099-0.054
	l-10.549-12.494l3.701-12.35v-0.258c0-0.087-0.043-0.173-0.086-0.26l-13.97-22.526l-1.862-3.024l13.2-16.563
	c0.061-0.06,0.092-0.144,0.11-0.231c0.005-0.009,0.015-0.018,0.02-0.027c0.043-0.086,0.043-0.173,0.043-0.302
	c-0.011-0.022-0.022-0.051-0.033-0.077l1.414-28.143l18.848-11.077l0.181-0.055c0.039-0.02,0.079-0.05,0.119-0.084l12.811-5.268
	l0.016,0.002h0.043l0.061-0.041l17.461,3.227l5.773,14.813c0.005,0.024,0.019,0.046,0.027,0.069l0.021,0.054
	c0.003,0.005,0.008,0.01,0.011,0.016c0.013,0.023,0.018,0.048,0.033,0.071c0.046,0.069,0.104,0.124,0.169,0.168
	c0.001,0.001,0.002,0.003,0.004,0.004c0.005,0.002,0.012,0.004,0.017,0.006c0.05,0.033,0.103,0.062,0.155,0.081h0.173
	c0.045,0,0.078-0.009,0.117-0.014l0.056,0.014l28.22-6.646l0.259-0.129c0.086-0.086,0.129-0.13,0.173-0.216
	c0.007-0.015,0.008-0.029,0.013-0.043l4.475-6.903c0.054-0.082,0.08-0.177,0.09-0.271l6.138-10.915
	c0.081-0.045,0.161-0.124,0.202-0.206c0.043-0.086,0.043-0.172,0.043-0.302c0-0.002-0.001-0.006-0.001-0.008
	c0.024-0.06,0.044-0.123,0.044-0.207c0-0.087-0.043-0.216-0.086-0.302l-10.788-18.167c-0.044-0.043-0.087-0.13-0.173-0.173
	l-13.808-9.794c-0.079-0.039-0.125-0.075-0.196-0.082c-0.033-0.017-0.064-0.034-0.105-0.048c-0.08-0.026-0.146-0.031-0.214-0.024
	L140.31,3.785c-0.014,0-0.022,0.001-0.035,0.001l-0.008-0.001h-0.216c-0.087,0.044-0.174,0.044-0.217,0.086l-17.302,9.972
	L94.971,8.84c-0.104-0.057-0.208-0.092-0.313-0.092c-0.129,0-0.259,0.043-0.388,0.129c-0.072,0.024-0.14,0.077-0.197,0.14
	L55.781,36.19c-0.03,0.03-0.051,0.052-0.072,0.075c-0.005,0.005-0.01,0.006-0.015,0.011c-0.01,0.01-0.015,0.021-0.023,0.031
	c-0.007,0.004-0.013,0.007-0.02,0.012c-0.012,0.008-0.018,0.022-0.03,0.031c-0.001,0.001-0.002,0.002-0.003,0.004
	c-0.107,0.085-0.183,0.2-0.183,0.354l-2.794,30.083l-0.14,1.458l-15.965,6.818c-0.048,0.048-0.106,0.086-0.159,0.129
	c-0.048,0.045-0.096,0.101-0.144,0.172c-0.066,0.1-0.078,0.199-0.082,0.299c0,0.026-0.007,0.048-0.004,0.074
	c0,0.005-0.001,0.01-0.001,0.015c0,0.007,0.003,0.013,0.003,0.02s-0.003,0.016-0.003,0.023l1.264,19.643l0.592,9.565l-11.133,9.108
	c-0.086,0.044-0.173,0.173-0.216,0.303c-0.043,0.129-0.043,0.259,0,0.389l11.438,33.282c0.004,0.053,0.013,0.105,0.04,0.158
	l1.597,3.234c0,0.001,0,0.001,0,0.002c0,0.086,0.043,0.216,0.086,0.302c0.009,0.009,0.018,0.017,0.027,0.025l5.882,16.742
	l6.087,17.407c0,0.086,0.086,0.172,0.129,0.215c0.006,0.006,0.018,0.012,0.025,0.018c0.007,0.009,0.01,0.018,0.018,0.025
	c0.007,0.008,0.015,0.011,0.022,0.018c0.008,0.009,0.012,0.018,0.021,0.026c0.019,0.01,0.038,0.023,0.057,0.035
	c0.053,0.037,0.106,0.067,0.159,0.094l24.434,8.854c0.047,0.045,0.094,0.079,0.141,0.106l18.229,18.958
	c0.012,0.008,0.024,0.014,0.036,0.021c0.061,0.067,0.137,0.122,0.224,0.15l21.1,7.638h0.216h0.174l9.535-2.805
	c0.01-0.003,0.015-0.01,0.023-0.013l10.197-1.213l4.753-0.543c0.03-0.01,0.059-0.022,0.088-0.033l0.084-0.01l22.308-6.603
	l24.202-14.028l8.808-5.087c0.007-0.002,0.011-0.01,0.018-0.013c0.022-0.011,0.047-0.02,0.068-0.03
	c0.086-0.043,0.173-0.13,0.216-0.216c0.027-0.081,0.045-0.177,0.051-0.271C197.155,191.206,197.149,191.154,197.14,191.103z
	 M138.248,12.652l-12.932,1.045l14.908-8.617l24.163,5.438L138.248,12.652z M94.091,58.481l17.43-5.358l-14.058,8.267L94.091,58.481
	z M141.217,216.165l-2.998-1.544l-12.142-6.48h24.68l-8.287,6.975L141.217,216.165z M53.267,70.991l2.876,7.868l-17.32-3.404
	l13.895-5.955L53.267,70.991z M58.239,39.341l5.896,4.898l-6.166,8.377l-0.074,0.099l-1.122-14.583L58.239,39.341z M57.569,37.188
	l9.322-1.112l14.336-1.697l-1.578,0.885l-14.591,8.132l-4.576-3.788L57.569,37.188z M131.114,41.286l1.864-15.241l5.59,3.865
	l17.652,12.226l-8.433,5.906l-17.1-3.18L131.114,41.286z M170.946,153.038l0.733-2.848l11.305,4.574L170.946,153.038z
	 M152.115,206.888H126.89l36.896-13.018L152.115,206.888z M41.756,151.466l11.206-6.559l27.615,8.144l-8.399,14.271L41.79,151.483
	L41.756,151.466z M65.446,44.647l5.161-2.886l5.845-3.235L61.046,50.544l2.301-3.099L65.446,44.647z M102.037,42.145l-9.062,14.628
	l-1.852-5.745l-3.178-9.986l10.499-9.085l2.305,6.523L102.037,42.145z M170.948,171.014l22.479,18.423l-33.941-11.211
	L170.948,171.014z M157.758,179.132l6.779,12.245l-29.975-9.706L157.758,179.132z M130.126,181.587l-22.46,14.918l-20.964-8.458
	l12.573-17.619L130.126,181.587z M130.376,182.962l-7.46,23.424l-13.982-9.229L130.376,182.962z M98.227,169.681l-3.354,4.733
	l-8.809,12.356l-3.714-32.527l10.027,9.731L98.227,169.681z M84.742,185.909L73.17,168.206l8.012-13.578l1.561,13.602
	L84.742,185.909z M81.103,151.858l-24.848-7.277l26.365-1.938L81.103,151.858z M53.625,142.242l2.545-19.904l12.906,2.309
	L53.625,142.242z M83.795,142.814l9.362,3.724l-10.772,5.022L83.795,142.814z M82.749,124.088v17.26l-28.493,2.109L70.661,124.8
	l4.257-0.268L82.749,124.088z M54.926,82.527l-4.901,9.314l3.076-7.698L54.926,82.527z M57.921,83.721l6.223,17.023l-18.115,1.291
	l10.96-20.841L57.921,83.721z M70.486,67.864l-5.927,25.004l-3.325-26.862h9.692L70.486,67.864z M78.313,62.506l-6.006,2.034
	l-0.516-15.369l19.257,8.976L78.313,62.506z M72.272,65.859l18.525-6.287L65.59,94.058L72.272,65.859z M71.076,64.712h-9.313
	l8.845-14.361L71.076,64.712z M70.952,96.83l16.436-14.671l-2.233,9l-16.461,7.701L70.952,96.83z M65.447,100.05l-0.399-3.229
	l26.559-35.986l-3.677,19.089L65.447,100.05z M72.566,48.186l14.325-6.473l4.875,15.405L72.566,48.186z M88.299,39.052l6.187-26.681
	l3.362,18.253L88.299,39.052z M84.016,34.351l2.443,6.284l-9.89,4.453L61.783,51.66L84.016,34.351z M66.59,101.229l13.811-6.515
	l4.417-2.075l-2.75,14.27L66.59,101.229z M120.845,18.472l-2.311,8.084l-18.99,3.413l2.902-8.814l19.261-5.718L120.845,18.472z
	 M101.291,20.784l-2.554,7.791l-1.107-5.943l-1.797-10.179l4.104,6.25L101.291,20.784z M60.171,67.185L63.5,95.48l-5.753-15.71
	c0.006-0.068,0.002-0.134-0.024-0.215c-0.032-0.095-0.069-0.165-0.118-0.23c-0.001-0.002-0.003-0.004-0.005-0.006
	c-0.012-0.015-0.021-0.031-0.035-0.046l-3.706-10.119l6.216-2.748L60.171,67.185z M52.484,82.888l-11.339-5.715l14.56,2.863
	L52.484,82.888z M45.02,103.415l19.937-1.418l16.508,6.069l-11.229,15.306l-30.149-17.983L45.02,103.415z M71.921,169.328
	l3.699,20.561l-7.796-17.422L71.921,169.328z M73.515,170.988l11.264,17.218c0,0.015-0.002,0.028-0.002,0.042l-7.189,5.372
	L73.515,170.988z M131.932,182.141l8.771,2.842l23.151,7.562l-39.672,13.962L131.932,182.141z M171.627,169.936l-0.768-15.622
	l16.577,2.381l8.104,32.891L171.627,169.936z M170.368,169.92l-11.417,7.238l4.53-17.647l6.143-4.725L170.368,169.92z
	 M128.511,179.546l-28.391-10.28l2.481-3.834l3.355-4.99l20.683,17.517L128.511,179.546z M82.705,122.908l-11.064,0.625
	l10.369-14.112l0.259,4.969L82.705,122.908z M94.83,90.349l-8.36,0.597l2.286-9.178l2.271,3.16L94.83,90.349z M102.886,43.028
	l5.054,3.061l7.245,4.427l-20.953,6.481L102.886,43.028z M103.185,41.632l-3.683-10.335l19.19-3.435l10.13,16.767L103.185,41.632z
	 M129.627,43.424l-9.963-16.46l3.205-11.237l8.944,9.453l-1.161,9.827L129.627,43.424z M167.969,21.131l0.938-8.777l4.825,5.724
	L167.969,21.131z M177.574,19.79l3.986,1.255l-4.779,14.077l-0.743,2.178l-0.647-18.166L177.574,19.79z M166.224,22.981
	l-0.787,1.584l-8.279,16.63l-22.757-15.764l4.383-0.343L166.224,22.981z M157.938,42.314l9.771-19.587l5.706-3.023l-18.143,39.785
	l1.549-10.042L157.938,42.314z M156.059,60.742l12.977-28.513l5.189-11.381l0.396,10.507l0.329,8.955l-15.539,16.813L156.059,60.742
	z M185.635,50.145l-3.355,5.662l-5.237-13.155L185.635,50.145z M177.205,41.125l14.628-1.434l-5.547,9.358L177.205,41.125z
	 M179.393,31.165l3.108-9.105l9.546,16.253l-15.602,1.543L179.393,31.165z M166.718,21.649l-22.696,1.783l-11.279,0.866
	l-8.828-9.251l43.839-3.581L166.718,21.649z M87.155,38.847l-2.201-5.456l7.471-17.422L87.155,38.847z M57.895,54.787l0.079-0.107
	l5.118-2.264l6.523-2.867l-9.476,15.334l-6.061,2.638l3.779-12.695C57.87,54.813,57.886,54.805,57.895,54.787z M51.797,83.947
	l-3.285,8.244l-3.48,8.709l-7.278-24.032L51.797,83.947z M43.133,108.712l23.934,14.276l-2.878-0.509l-8.214-1.474l-11.802-11.295
	L43.133,108.712z M54.58,125.482l-2.333,18.245l-12.216,3.184l14.714-22.739L54.58,125.482z M47.777,156.025l23.451,12.288
	l-4.156,3.171l-20.963-16.33L47.777,156.025z M106.626,197.46l-4.461,4.428l-12.96-11.273L106.626,197.46z M102.318,203.716
	l6.668,6.173l2.004,1.878l-14.302,1.331L102.318,203.716z M108.177,207.514l10.86,7.141l-6.299-2.935l-2.94-2.694L108.177,207.514z
	 M103.228,202.633l4.642-4.641l14.773,9.876c0.048,0.067,0.106,0.129,0.191,0.186l0.001,0.001l2.306,9.117l-1.677-1.108
	L103.228,202.633z M152.599,208.225l8.443,2.135l-17.004,5.016L152.599,208.225z M153.645,207.151l11.302-12.605l-1.979,14.962
	L153.645,207.151z M159.472,179.642l33.549,11.07l-26.822,1.116l-3.357-6.06L159.472,179.642z M161.97,160.546l-2.279,8.874
	l-2.175,8.398l-12.01,1.347l-11.505,1.259l18.105-12.894L161.97,160.546z M133.432,179.252l6.608-13.72l19.84-4.996l-0.67,0.479
	L133.432,179.252z M131.499,180.386l-23.444-19.896l30.654,5.01L131.499,180.386z M104.72,159.877l-5.765,8.778l-15.139-14.729
	l7.534,2.143L104.72,159.877z M93.493,145.314l-9.579-3.797h0.043v-15.396l6.286,12.619L93.493,145.314z M83.947,123.158
	l-0.678-13.022l13.244,21.587L83.947,123.158z M83.675,105.283L86.229,92.2l2.156-0.161l6.273-0.446l-8.342,10.413L83.675,105.283z
	 M89.849,81.18l-0.714-1.021l4.013-20.927l3.667,3.192L95.487,89.04L89.849,81.18z M105.585,43.222l21.781,2.542l-10.516,4.302
	L105.585,43.222z M156.528,43.516l-2.83,18.053l-4.974-12.649L156.528,43.516z M155.828,62.839l19.527-21.086l3.656,9.129
	l2.333,5.934l-21.264,5.02L155.828,62.839z M178.778,18.821l-3.661-1.124l-3.066-3.638l4.918,3.475L178.778,18.821z M119.902,14.671
	l-17.719,5.291l-6.326-9.654l8.959,1.619L119.902,14.671z M93.095,11.224L83.94,32.704l-0.069,0.035l-0.135,0.105l-2.653,0.316
	l-22.669,2.685l6.414-4.557L93.095,11.224z M47.101,114.225l7.811,7.495l-16.085,24.883l-10.834-31.795l10.62-8.711L47.101,114.225z
	 M48.323,146.058l-7.67,4.485l-1.1-2.146L48.323,146.058z M52.753,184.636l-11.038-31.367l24.422,19.057L52.753,184.636z
	 M59.794,179.781l7.056-6.455l1.583,3.516l7.513,16.759l-22.335-8.1L59.794,179.781z M78.201,194.857l5.136-3.893l2.345-1.735
	l0.148,0.059l15.572,13.562l-6.02,9.981l-3.184-3.31L78.201,194.857z M115.187,214.244l9.145,4.256l-7.443,2.162l-3.244-7.128
	L115.187,214.244z M169.958,151.824l-0.344,1.405l-2.453,1.87L169.958,151.824z M103.976,158.344l-1.69-0.479l-18.933-5.387
	l11.217-5.264l1.46,1.725L103.976,158.344z M94.615,144.84l-9.678-19.525l12.901,8.796l-0.983,3.294L94.615,144.84z M56.773,54.183
	l-2.527,8.383l1.762-18.716L56.773,54.183z M37.705,80.861l4.072,13.43l2.41,8.019l-4.98,2.027l-1.156-18.036L37.705,80.861z
	 M112.047,213.015l3.23,7.033l0.115,0.252l-17.039-6.08L112.047,213.015z M126.675,217.934l-2.326-9.097l14.727,7.625l-10.931,1.301
	L126.675,217.934z M166.416,193.081l27.599-1.161l-29.751,17.22L166.416,193.081z"/>
</svg>
