<?xml version="1.0" encoding="utf-8"?>
<!DOCTYPE svg PUBLIC "-//W3C//DTD SVG 1.1//EN" "http://www.w3.org/Graphics/SVG/1.1/DTD/svg11.dtd">
<svg version="1.1" id="Layer_1" xmlns="http://www.w3.org/2000/svg" xmlns:xlink="http://www.w3.org/1999/xlink" x="0px" y="0px"
	 width="226.777px" height="226.777px" viewBox="0 0 226.777 226.777" enable-background="new 0 0 226.777 226.777"
	 xml:space="preserve">
<g>
	<path fill="grey" d="M144.32,125.572c7.859,0,14.231-6.368,14.231-14.228c0-7.856-6.372-14.229-14.231-14.229l0,0H63.336
		c-7.862,0-14.23,6.373-14.23,14.229c0,7.859,6.368,14.228,14.23,14.228H144.32z"/>
	<path fill="grey" d="M153.193,40.804h-43.451c-7.859,0-14.228,6.371-14.228,14.23c0,7.857,6.368,14.229,14.228,14.229h42.906
		c23.23,0,42.063,18.832,42.063,42.063c0,23.229-18.833,42.062-42.063,42.062l0,0h-42.906c-7.859-0.005-14.233,6.363-14.239,14.223
		c-0.002,7.855,6.366,14.232,14.221,14.236c0.006,0,0.012,0,0.018,0h43.414c38.951-0.499,70.117-32.48,69.615-71.429
		C222.283,72.193,191.424,41.316,153.193,40.804z M58.219,69.263c7.856,0,14.228-6.371,14.228-14.229
		c0-7.86-6.371-14.23-14.228-14.23H17.312c-7.856,0-14.228,6.371-14.228,14.23c0,7.857,6.371,14.229,14.228,14.229H58.219z"/>
</g>
</svg>
