<?xml version="1.0" encoding="utf-8"?>
<!DOCTYPE svg PUBLIC "-//W3C//DTD SVG 1.1//EN" "http://www.w3.org/Graphics/SVG/1.1/DTD/svg11.dtd">
<svg version="1.1" id="Layer_1" xmlns="http://www.w3.org/2000/svg" xmlns:xlink="http://www.w3.org/1999/xlink" x="0px" y="0px"
	 width="226.777px" height="226.777px" viewBox="0 0 226.777 226.777" enable-background="new 0 0 226.777 226.777"
	 xml:space="preserve">
<g>
	<path fill="grey" d="M115.171,222.494c-60.28,0-109.321-49.042-109.321-109.322S54.891,3.85,115.171,3.85
		c60.28,0,109.322,49.042,109.322,109.322S175.451,222.494,115.171,222.494z M115.171,14.15c-54.6,0-99.021,44.421-99.021,99.022
		c0,54.601,44.421,99.021,99.021,99.021c54.601,0,99.021-44.421,99.021-99.021C214.192,58.571,169.771,14.15,115.171,14.15z"/>
</g>
<g>
	<polyline fill="grey" points="35.373,111.44 115.172,191.239 194.945,111.465 115.171,137.479 36.306,111.436 	"/>
	<polygon fill="grey" points="194.945,111.465 195.035,111.436 116.171,31.637 115.67,32.138 194.97,111.44 	"/>
</g>
<path opacity="0.8" fill="grey" d="M115.67,32.138l-79.363,79.298l78.864,26.043l79.774-26.014l0.025-0.025L115.67,32.138z
	 M133.533,106.227l-17.362-17.362l-15.625,17.362h-36.46l52.085-58.161l53.821,58.161H133.533z"/>
<path opacity="0.42" fill="grey" enable-background="new    " d="M116.171,191.233V31.637l79.798,79.798L116.171,191.233z"/>
</svg>
