<?xml version="1.0" encoding="utf-8"?>
<!-- Generator: Adobe Illustrator 16.0.0, SVG Export Plug-In . SVG Version: 6.00 Build 0)  -->
<!DOCTYPE svg PUBLIC "-//W3C//DTD SVG 1.1//EN" "http://www.w3.org/Graphics/SVG/1.1/DTD/svg11.dtd">
<svg version="1.1" id="Layer_1" xmlns="http://www.w3.org/2000/svg" xmlns:xlink="http://www.w3.org/1999/xlink" x="0px" y="0px"
	 width="841.889px" height="595.281px" viewBox="0 0 841.889 595.281" enable-background="new 0 0 841.889 595.281"
	 xml:space="preserve">
<path fill="gray" d="M657.311,119.083l46.936-46.933c11.083-11.089,8.811-31.343-5.071-45.232c-13.883-13.888-34.147-16.155-45.232-5.066
	l-88.093,88.092l-3.006,3.006c-0.001,0.001-0.001,0.002-0.002,0.002l-76.744,76.744c-51.646-37.777-124.726-33.356-171.343,13.266
	c-46.622,46.622-51.042,119.699-13.265,171.344l-58.592,58.595c-14.229-18.967-26.124-41.284-34.722-67.539
	c-19.668-60.018-14.379-125.777,17.5-179.955c49.757-84.543,138.767-121.296,223.088-110.524
	c18.11,2.312,34.404-10.836,35.507-29.046c1.24-20.433-13.903-38.364-34.286-40.468c-84.733-8.762-172.318,19.118-237.011,83.81
	c-107.16,107.16-113.452,277.165-19.254,392.905l-53.763,53.766c-10.607,10.599-7.944,30.466,5.939,44.35
	c13.889,13.883,33.75,16.541,44.359,5.942l57.855-57.858c0.009-0.009,0.02-0.016,0.029-0.024l41.812-41.809
	c0.032-0.032,0.059-0.068,0.09-0.102l67.822-67.825c47.83,19.625,104.925,10.05,143.714-28.739
	c38.788-38.788,48.358-95.879,28.735-143.709l76.94-76.937c56.39,85.667,45.191,204.251-32.411,281.854
	c-49.418,49.421-115.47,71.877-179.045,67.114c-15.243-1.151-28.74,10.855-30.079,26.169l-0.819,9.426
	c-1.514,17.497,11.496,32.293,28.958,33.275c81.412,4.604,165.376-24.908,228.719-88.251
	C727.616,393.675,739.762,231.85,657.311,119.083z M452.841,341.051c-24.63,24.63-64.721,24.63-89.352,0
	c-24.631-24.631-24.631-64.717,0-89.352c24.631-24.63,64.722-24.63,89.352,0C477.472,276.334,477.472,316.42,452.841,341.051z"/>
</svg>
