<svg version="1.1" id="Layer_1" xmlns="http://www.w3.org/2000/svg" xmlns:xlink="http://www.w3.org/1999/xlink" x="0px" y="0px"
	 width="226.777px" height="226.777px" viewBox="0 0 226.777 226.777" enable-background="new 0 0 226.777 226.777"
	 xml:space="preserve">
<path fill="grey" d="M113.441,0C50.789,0,0,50.79,0,113.443c0,62.654,50.789,113.44,113.441,113.44c62.654,0,113.442-50.786,113.442-113.44
	C226.885,50.79,176.096,0,113.441,0z M47.338,103.438h55.266l-7.187,21.784H40L47.338,103.438z M192.568,88.684
	c-0.385,2.433-5.162,17.705-9.766,31.423c-3.548,10.587-6.932,20.244-8.492,22.365c-3.66,4.973-10.785,14.317-25.77,16.841H43.516
	l7.261-22.396h93.484l14.981-45.328H65.989l7.033-22.473h106.401C179.423,69.116,195.092,72.785,192.568,88.684z"/>
</svg>
