<?xml version="1.0" encoding="utf-8"?>
<!DOCTYPE svg PUBLIC "-//W3C//DTD SVG 1.1//EN" "http://www.w3.org/Graphics/SVG/1.1/DTD/svg11.dtd">
<svg version="1.1" id="Layer_1" xmlns="http://www.w3.org/2000/svg" xmlns:xlink="http://www.w3.org/1999/xlink" x="0px" y="0px"
	 width="226.777px" height="226.777px" viewBox="0 0 226.777 226.777" enable-background="new 0 0 226.777 226.777"
	 xml:space="preserve">
<g id="Desktop-HD" transform="translate(-80.000000, -200.000000)">
	<g id="intro">
		<g id="logo.DATA" transform="translate(80.000000, 200.000000)">
			<g id="Clip-2">
			</g>
			<defs>
				<filter id="Adobe_OpacityMaskFilter" filterUnits="userSpaceOnUse" x="51.48" y="5" width="157.895" height="128.482">
					<feColorMatrix  type="matrix" values="1 0 0 0 0  0 1 0 0 0  0 0 1 0 0  0 0 0 1 0"/>
				</filter>
			</defs>
			<mask maskUnits="userSpaceOnUse" x="51.48" y="5" width="157.895" height="128.482" id="mask-2_1_">
				<g filter="url(#Adobe_OpacityMaskFilter)">
					<polygon id="path-1_1_" fill="#FFFFFF" points="51.48,5 209.375,5 209.375,133.482 51.48,133.482 					"/>
				</g>
			</mask>
			<path id="Fill-1" mask="url(#mask-2_1_)" fill="grey" d="M185.563,86.369l-10.093,5.745L59.433,25.355l25.789-14.682
				l116.042,66.76L185.563,86.369z M209.217,77.434v-0.001c-0.009-0.938-0.506-1.8-1.325-2.273L86.551,5.354
				c-0.811-0.471-1.815-0.472-2.631-0.006L52.812,23.058c-0.819,0.47-1.328,1.338-1.332,2.284c-0.003,0.941,0.503,1.813,1.321,2.287
				l29.388,16.903l5.304,3.226l85.336,48.923l0.138,29.605L87.625,77.362l-0.091,6.029l86.773,49.742
				c0.411,0.232,0.865,0.349,1.32,0.349c0.451,0,0.905-0.116,1.309-0.349h0.008l0.011-0.008l31.09-17.7l1.331-2.299L209.217,77.434z
				"/>
			<g id="Clip-5">
			</g>
			<defs>
				<filter id="Adobe_OpacityMaskFilter_1_" filterUnits="userSpaceOnUse" x="20.375" y="22.434" width="67.176" height="180.859">
					<feColorMatrix  type="matrix" values="1 0 0 0 0  0 1 0 0 0  0 0 1 0 0  0 0 0 1 0"/>
				</filter>
			</defs>
			<mask maskUnits="userSpaceOnUse" x="20.375" y="22.434" width="67.176" height="180.859" id="mask-4_1_">
				<g filter="url(#Adobe_OpacityMaskFilter_1_)">
					<polygon id="path-3_1_" fill="#FFFFFF" points="20.375,22.434 87.551,22.434 87.551,203.293 20.375,203.293 					"/>
				</g>
			</mask>
			<path id="Fill-4" mask="url(#mask-4_1_)" fill="grey" d="M51.32,196.068l-25.659-14.912V47.641l12.226,7.109l13.433,7.805
				V165.82V196.068z M87.461,42.366c-0.019-0.057-0.052-0.108-0.076-0.168c-0.054-0.156-0.105-0.315-0.191-0.457
				c-0.037-0.07-0.095-0.123-0.135-0.186c-0.091-0.125-0.169-0.247-0.274-0.357c-0.074-0.07-0.166-0.121-0.239-0.183
				c-0.099-0.082-0.19-0.168-0.308-0.233L55.293,22.793c-0.823-0.479-1.839-0.479-2.667,0L21.688,40.782
				c-0.11,0.058-0.197,0.148-0.292,0.221c-0.083,0.067-0.177,0.12-0.254,0.195c-0.083,0.092-0.147,0.195-0.222,0.291
				c-0.063,0.087-0.138,0.161-0.191,0.252c-0.073,0.125-0.121,0.267-0.171,0.406c-0.026,0.072-0.071,0.146-0.091,0.219
				c-0.058,0.223-0.09,0.455-0.09,0.688V182.67c0,0.935,0.496,1.805,1.313,2.274l30.939,17.989c0.415,0.234,0.873,0.359,1.333,0.359
				c0.455,0,0.908-0.117,1.318-0.356c0.819-0.468,1.329-1.339,1.329-2.281V165.82V62.555l11.69-6.792l13.966-8.121v100.195h5.287
				V43.054C87.551,42.821,87.519,42.589,87.461,42.366z"/>
			<path id="Fill-7" fill="grey" d="M209.217,113.408l-0.158,35.16c-0.011,0.941-0.514,1.799-1.326,2.274L86.387,220.648
				C85.981,220.884,85.523,221,85.07,221c-0.227,0-0.456-0.029-0.68-0.084c-0.08-0.023-0.153-0.07-0.234-0.096
				c-0.135-0.054-0.272-0.094-0.401-0.168l-31.105-17.709c-0.828-0.475-1.335-1.35-1.329-2.299l0.158-35.697
				c0-0.131,0.033-0.258,0.052-0.391c0.017-0.095,0.017-0.193,0.042-0.289c0.038-0.133,0.101-0.252,0.155-0.379
				c0.037-0.084,0.062-0.169,0.105-0.244c0.075-0.127,0.171-0.231,0.262-0.347c0.054-0.063,0.094-0.138,0.156-0.198
				c0.162-0.16,0.345-0.305,0.553-0.422c0-0.002,0.003-0.002,0.003-0.002l86.33-49.707l0.115,0.062l5.116,3.007l-84.938,48.909
				l19.392,11.039l6.402,3.642l84.913-48.889l4.173,2.395c0.411,0.232,0.865,0.35,1.318,0.35c0.169,0,0.336-0.032,0.495-0.064
				l-88.256,50.774l-0.134,29.599l116.044-66.758l0.13-29.249l4.142-2.359L209.217,113.408z"/>
		</g>
	</g>
</g>
</svg>
