<?xml version="1.0" encoding="utf-8"?>
<!DOCTYPE svg PUBLIC "-//W3C//DTD SVG 1.1//EN" "http://www.w3.org/Graphics/SVG/1.1/DTD/svg11.dtd">
<svg version="1.1" id="Layer_1" xmlns="http://www.w3.org/2000/svg" xmlns:xlink="http://www.w3.org/1999/xlink" x="0px" y="0px"
	 width="226.777px" height="226.777px" viewBox="0 0 226.777 226.777" enable-background="new 0 0 226.777 226.777"
	 xml:space="preserve">
<g>
	<g>
		<path fill="grey" d="M115.067,118.924c-16.497,0-29.921-13.427-29.921-29.923c0-16.496,13.425-29.922,29.921-29.922
			c16.496,0,29.922,13.426,29.922,29.922C144.989,105.497,131.563,118.924,115.067,118.924z M115.067,63.114
			C100.785,63.114,89.18,74.719,89.18,89c0,14.283,11.604,25.886,25.887,25.886S140.955,103.283,140.955,89
			C140.955,74.719,129.349,63.114,115.067,63.114z"/>
	</g>
</g>
<g>
	<path fill="grey" d="M31.157,84.502c-4.535,0-8.212,3.677-8.212,8.211c0,4.536,3.677,8.213,8.212,8.213c4.535,0,8.212-3.677,8.212-8.213
		C39.37,88.179,35.693,84.502,31.157,84.502z"/>
	<path fill="grey" d="M207.832,92.679c0-4.536-3.678-8.213-8.213-8.213c-4.534,0-8.213,3.677-8.213,8.213c0,2.82,1.43,5.32,3.607,6.784
		c1.25,0.857,2.75,1.321,4.356,1.393c0.071,0,0.179,0.035,0.249,0.035C204.189,100.89,207.832,97.213,207.832,92.679z"/>
	<path fill="grey" d="M122.922,147.844c0-4.533-3.676-8.211-8.211-8.211s-8.213,3.678-8.213,8.211c0,4.535,3.678,8.213,8.213,8.213
		S122.922,152.379,122.922,147.844z"/>
	<path fill="grey" d="M122.922,216.113c0-4.533-3.676-8.211-8.211-8.211s-8.213,3.678-8.213,8.211c0,4.535,3.678,8.215,8.213,8.215
		S122.922,220.648,122.922,216.113z"/>
</g>
<path fill="grey" d="M114.711,166.09c-0.715,0-1.393-0.035-2.072-0.143v32.029c0.679-0.072,1.393-0.143,2.072-0.143
	c0.643,0,1.285,0.035,1.928,0.107v-31.994C116.031,166.054,115.388,166.09,114.711,166.09z"/>
<path fill="grey" d="M44.941,104.64c-0.928,1.071-1.964,2-3.107,2.821l56.202,33.029c0.535-1.252,1.213-2.395,2.035-3.465L44.941,104.64z"/>
<path fill="grey" d="M39.37,108.961c-1.214,0.606-2.534,1.107-3.892,1.428l66.342,92.801c0.965-0.965,2-1.785,3.142-2.498L39.37,108.961z"/>
<path fill="grey" d="M199.655,74.432c0.215,0,0.464,0.036,0.679,0.036c-6.855-41.169-43.026-72.019-84.945-72.019
	c-41.955,0-78.125,30.849-84.944,72.019c0.249,0,0.464-0.036,0.713-0.036c1.142,0,2.214,0.108,3.285,0.322
	c6.677-39.062,41.097-68.27,80.946-68.27c39.848,0,74.27,29.244,80.91,68.306C197.37,74.575,198.512,74.432,199.655,74.432z"/>
<path fill="grey" d="M185.373,103.997l-56.023,32.958c0.785,1.07,1.5,2.213,2.035,3.463l56.916-33.457
	C187.193,106.069,186.23,105.104,185.373,103.997z"/>
<path fill="grey" d="M190.336,108.354l-65.949,92.3c1.143,0.715,2.213,1.535,3.178,2.5l66.521-93.123
	C192.763,109.639,191.514,109.031,190.336,108.354z"/>
</svg>
