<?xml version="1.0" encoding="utf-8"?>
<!DOCTYPE svg PUBLIC "-//W3C//DTD SVG 1.1//EN" "http://www.w3.org/Graphics/SVG/1.1/DTD/svg11.dtd">
<svg version="1.1" id="Layer_1" xmlns="http://www.w3.org/2000/svg" xmlns:xlink="http://www.w3.org/1999/xlink" x="0px" y="0px"
	 width="226.777px" height="226.777px" viewBox="0 0 226.777 226.777" enable-background="new 0 0 226.777 226.777"
	 xml:space="preserve">
<g transform="translate(0.000000,7000.000000) scale(0.100000,-0.100000)">
	<path fill="gray" d="M1169.47,69959.453c-43.169-5.133-81.836-21.164-114.551-47.375c-15.767-12.648-33.823-32.539-45.83-50.492
		c-7.417-11-18.965-34.094-23.55-46.836c-4.302-12.102-9.253-31.977-11.362-45.727c-2.007-13.562-2.285-46.828-0.449-60.023
		c7.056-51.141,28.491-94.945,63.687-130.406c31.431-31.617,70.469-52.141,116.021-60.758c15.117-2.938,46.641-4.031,62.402-2.297
		c50.4,5.773,94.854,27.219,131.045,63.328c42.529,42.43,65.156,97.234,65.244,158.078c0,21.992-1.729,36.289-6.68,55.906
		c-9.717,38.852-28.047,71.664-55.908,100.617c-34.814,36.203-79.355,58.648-129.492,65.25
		C1210.251,69960.008,1177.712,69960.461,1169.47,69959.453z"/>
	<path fill="gray" d="M359.822,69737.312c-82.114-3.938-159.644-39.492-219.023-100.344c-54.165-55.625-85.962-123.898-93.931-201.977
		c-2.388-22.445-1.558-62.5,1.646-83.398c11.548-75.688,45.181-141.492,99.062-194.086c50.039-48.664,112.08-79.547,180.806-90
		c34.556-5.219,73.413-4.672,107.495,1.469c35.835,6.414,73.496,20.25,105.029,38.492c5.034,2.836,10.347,5.953,11.816,6.781
		c1.562,0.914,8.34,5.039,15.122,9.352c61.948,38.852,121.519,61.578,180.991,69.094c15.669,2.016,50.864,2.195,66.44,0.453
		c22.905-2.57,51.133-8.789,64.971-14.383c40.967-16.5,88.711-61.766,128.94-122.25c4.58-6.781,9.81-15.125,11.646-18.422
		c4.941-8.977,14.839-21.352,24.092-30.156c17.505-16.578,39.497-28.125,63.599-33.438c10.723-2.391,36.943-2.945,48.76-1.016
		c48.936,8.07,89.346,42.711,105.205,90.086c5.4,16.125,6.777,25.383,6.777,44.266c0,17.68-1.191,25.93-6.055,41.234
		c-6.504,20.438-17.129,37.477-33.711,54.164c-26.396,26.477-57.373,39.586-93.486,39.586c-20.249,0-31.885-2.383-54.976-11.266
		c-25.942-10-45.918-13.75-76.25-14.391c-23.179-0.555-39.863,0.453-62.129,3.484c-26.118,3.656-59.385,11.086-73.223,16.398
		c-25.298,9.805-53.062,34.914-79.634,72.031c-16.494,23.094-32.441,50.398-48.662,83.297
		c-18.789,37.945-35.835,78.266-46.372,109.977c-9.624,28.867-16.768,45.633-28.413,65.977
		c-47.563,83.766-127.285,142.688-219.57,162.203c-15.762,3.305-33.999,5.773-47.554,6.414c-6.333,0.281-14.58,0.641-18.335,0.828
		C377.136,69737.867,367.61,69737.773,359.822,69737.312z"/>
	<path fill="gray" d="M1749.558,69332.719c-134.258-6.32-257.148-71.57-338.154-179.523c-53.34-71.117-84.219-155.055-90.361-246.055
		c-1.924-28.867-0.088-70.836,4.307-98.969c11.172-71.859,38.486-139.023,79.727-196.758c23.926-33.453,55.078-66.352,86.602-91.547
		c65.342-52.148,143.604-84.305,229.473-94.305c27.764-3.203,74.678-2.742,104.463,1.008
		c134.902,17.234,256.045,96.773,326.611,214.352c37.305,62.133,58.564,129.305,64.336,203.164
		c1.465,18.43,0.635,68.641-1.377,85.047c-11.914,97.414-49.121,181.266-112.07,252.93
		c-70.654,80.273-170.732,133.703-275.938,147.086C1803.718,69332.078,1770.183,69333.641,1749.558,69332.719z"/>
	<path fill="gray" d="M1118.606,68804.5c-31.89-3.117-59.106-15.852-81.104-37.945c-12.915-13.008-19.062-22.164-30.513-45.445
		c-16.953-34.461-33.633-55.898-65.254-83.672c-26.206-23-70.469-52.961-91.548-61.945c-16.309-6.969-35.562-9.719-61.03-8.984
		c-45,1.375-99.062,14.945-166.787,41.609c-30.884,12.188-55.806,23.547-92.1,42.141c-41.519,21.172-87.056,32.453-136.543,33.914
		c-53.794,1.469-103.833-9.078-150.938-31.797c-36.377-17.594-64.424-37.477-92.832-65.977
		c-54.155-54.164-87.236-124.453-95.854-203.633c-2.104-18.789-2.104-53.242,0-72.031c8.433-77.25,40.322-145.156,94.482-200.789
		c53.794-55.25,124.722-89.617,201.704-97.672c15.85-1.664,49.116-1.938,64.609-0.469c74.961,6.961,144.883,39.125,199.131,91.641
		c28.774,27.859,49.482,56.453,67.451,93.016c13.564,27.492,17.866,40.133,32.529,94.844
		c20.161,75.602,50.034,134.352,92.099,180.992c21.816,24.102,51.68,47.656,80.918,63.703c14.478,7.883,34.736,13.914,57.188,17.031
		c14.111,2.023,55.161,2.297,71.753,0.555c26.396-2.852,59.751-8.711,76.06-13.375c14.941-4.305,23.374-5.508,39.414-5.508
		c10.801,0,17.588,0.469,23.818,1.648c26.035,5.047,49.307,17.055,68.184,35.383c24.189,23.367,37.939,52.422,41.055,86.5
		c1.924,21.547-1.65,44.82-10.078,64.883c-17.695,42.438-56.084,73.039-100.537,80.016
		C1142.79,68804.859,1128.044,68805.414,1118.606,68804.5z"/>
	<path fill="gray" d="M1166.257,68232.57c-24.014-2.938-50.679-10.992-72.3-21.812c-32.9-16.586-63.784-44.18-84.868-75.695
		c-7.417-11.18-19.053-34.266-23.55-46.836c-4.302-12.086-9.253-31.969-11.362-45.734c-2.007-13.555-2.285-46.812-0.449-60.016
		c7.056-50.945,28.589-95.117,63.501-130.219c31.895-32.078,71.665-52.789,117.944-61.492c14.199-2.656,49.58-3.289,64.697-1.281
		c69.102,9.531,127.285,48.297,162.109,108.039c30.244,51.789,38.301,115.109,22.09,174.297
		c-7.422,26.953-19.434,51.328-36.562,74.242c-33.906,45.086-82.393,74.867-138.008,84.766c-9.355,1.742-15.586,2.109-33.916,2.383
		C1183.22,68233.305,1170.027,68233.031,1166.257,68232.57z"/>
</g>
</svg>
