<svg version="1.1" id="Layer_1" xmlns="http://www.w3.org/2000/svg" xmlns:xlink="http://www.w3.org/1999/xlink" x="0px" y="0px"
	 width="279px" height="279px" viewBox="0 0 279 279" enable-background="new 0 0 279 279" xml:space="preserve">
<g fill="grey">
	<polygon points="155.547,218.212 181.173,137.718 139.354,65.129 98.152,136.649 123.556,218.212 	"/>
	<polygon points="160.139,218.212 227.545,218.212 184.129,142.85 	"/>
	<polygon points="142.083,5.114 141.548,60.173 182.969,132.073 198.055,84.688 	"/>
	<polygon points="154.155,222.585 124.918,222.585 139.377,269.007 	"/>
	<polygon points="223.519,222.585 158.745,222.585 143.209,271.384 	"/>
	<polygon points="120.338,222.585 55.191,222.585 135.546,271.413 	"/>
	<polygon points="51.165,218.212 118.975,218.212 95.179,141.811 	"/>
	<polygon points="185.926,137.205 225.992,206.753 200.114,92.641 	"/>
	<polygon points="96.381,130.961 137.174,60.153 137.707,5.244 81.745,83.973 	"/>
	<polygon points="52.878,206.473 93.407,136.122 79.636,91.911 	"/>
</g>
</svg>
