<?xml version="1.0" encoding="utf-8"?>
<!DOCTYPE svg PUBLIC "-//W3C//DTD SVG 1.1//EN" "http://www.w3.org/Graphics/SVG/1.1/DTD/svg11.dtd">
<svg version="1.1" id="Layer_1" xmlns="http://www.w3.org/2000/svg" xmlns:xlink="http://www.w3.org/1999/xlink" x="0px" y="0px"
	 width="279px" height="279px" viewBox="0 0 279 279" enable-background="new 0 0 279 279" xml:space="preserve">
<title>Combined Shape</title>
<path fill="grey" d="M139.819,277.707l-89.184-53.916l-0.153-2.185L81.162,90.251l-0.139-0.451c0,0,59.517-85.586,60.838-85.586
	c1.409,0,60.704,86.303,60.704,86.303l-0.146,0.451l29.632,130.662l-0.083,0.689l0.528,0.085l-0.619,0.655l-0.004,0.037l-0.07,0.042
	l-0.947,1.005l-88.151,53.565l-1.456,0.29L139.819,277.707z M137.589,271.413l-14.675-47.117H60.05L137.589,271.413z
	 M144.983,271.385l77.494-47.089h-62.503L144.983,271.385z M141.285,269.091l14.261-44.795h-28.213L141.285,269.091z
	 M226.363,220.076l-41.895-72.721l-23.149,72.721H226.363z M156.889,220.076l24.728-77.672l-40.353-70.045l-39.759,69.013
	l24.514,78.704H156.889z M121.599,220.076l-22.962-73.724l-42.471,73.724H121.599z M224.864,209.02L199.894,98.906l-13.691,43.003
	L224.864,209.02z M57.818,208.749l39.108-67.886L83.638,98.202L57.818,208.749z M183.35,136.957l14.557-45.724l-54.01-76.785
	l-0.517,53.129L183.35,136.957z M99.796,135.884l39.363-68.326l0.515-52.984l-54,75.969L99.796,135.884z"/>
<path fill="grey" d="M231.072,222.889l-0.166-0.026l0.309-0.188l0.124-1.008L201.691,90.938l0.097-0.301L141.857,7.48l-60.06,82.444l0.093,0.3
	L51.191,221.663l0.122,1.714l88.765,53.666l1.171,0.239l1.195-0.238l87.964-53.452L231.072,222.889z M126.377,223.592h30.13
	l-15.23,47.839L126.377,223.592z M125.501,220.778l-24.759-79.491l40.521-70.337l41.117,71.372l-24.978,78.457H125.501z
	 M122.554,220.778H54.948l43.881-76.171L122.554,220.778z M184.283,145.623l43.297,75.155h-67.224L184.283,145.623z
	 M185.438,141.992l14.568-45.763l26.574,117.181L185.438,141.992z M183.536,138.69l-40.862-70.928l0.541-55.507l55.467,78.858
	L183.536,138.69z M140.399,12.339l-0.54,55.41l-40.257,69.88l-14.704-47.21L140.399,12.339z M83.541,95.525L97.69,140.95
	L56.05,213.229L83.541,95.525z M57.537,223.592h65.893l15.384,49.39L57.537,223.592z M143.744,272.964l15.717-49.372h65.528
	L143.744,272.964z"/>
</svg>
