<?xml version="1.0" encoding="utf-8"?>
<!DOCTYPE svg PUBLIC "-//W3C//DTD SVG 1.1//EN" "http://www.w3.org/Graphics/SVG/1.1/DTD/svg11.dtd">
<svg version="1.1" id="Layer_1" xmlns="http://www.w3.org/2000/svg" xmlns:xlink="http://www.w3.org/1999/xlink" x="0px" y="0px"
	 width="226.777px" height="226.777px" viewBox="0 0 226.777 226.777" enable-background="new 0 0 226.777 226.777"
	 xml:space="preserve">
<g id="website" transform="translate(-134.000000, -35.000000)">
	<g id="Group-39" transform="translate(-1.000000, 20.000000)">
		<g id="Logo" transform="translate(135.000000, 13.000000)">
			<path id="Shape" fill="grey" d="M117.775,7.035c-45.146,0-85.609,27.559-101.707,69.273
				c-16.102,41.708-4.498,88.923,29.165,118.669c33.659,29.756,82.399,35.877,122.508,15.384l51.295-24.219v-24.682l-0.835-1.747
				l-2.022,0.985c0,0,0,0,0-0.161l-60.132,28.336c-39.726,20.121-88.427,6.068-110.982-32.026l28.291-13.343
				c14.932,22.162,44.269,29.782,68.284,17.727l57.523-25.994l19.979-9.119V75.337C202.774,34.12,162.551,7.017,117.775,7.035z
				 M137.579,124.805l-14.746,6.494l-32.958-23.035l67.211-29.166c-16.288-17.881-42.778-22.539-64.306-11.311
				c-21.522,11.227-32.594,35.477-26.877,58.871l-28.45,13.424C23.835,98.004,45.77,52.724,87.463,36.852
				c41.696-15.872,88.67,3.181,107.087,43.431v19.296L137.579,124.805z"/>
		</g>
	</g>
</g>
</svg>
