<svg width="109px" height="187px" viewBox="0 0 109 187" version="1.1" xmlns="http://www.w3.org/2000/svg" xmlns:xlink="http://www.w3.org/1999/xlink">
    <g id="Page-1" stroke="none" stroke-width="1" fill="none" fill-rule="evenodd">
        <g id="ETC-logo-outlines">
            <g id="center-rect" transform="translate(10.000000, 50.000000)">
                <polygon id="Rectangle-14" fill="grey" transform="translate(44.547727, 44.547727) rotate(45.000000) translate(-44.547727, -44.547727) " points="76.0477272 13.0477272 65.6619258 66.4365291 13.0477272 76.0477272"></polygon>
                <polygon id="Rectangle-14-Copy" fill="#999" transform="translate(57.567761, 42.753830) rotate(45.000000) translate(-57.567761, -42.753830) " points="44.736035 53.2316743 34.0058381 38.3796186 81.1296837 21.728861 59.4050184 63.7787989"></polygon>
                <polygon id="Rectangle-14-Copy-2" fill="#999" transform="translate(30.979966, 42.753830) rotate(45.000000) translate(-30.979966, -42.753830) " points="26.2184533 19.5792087 51.6176336 44.978389 10.342299 65.9284511"></polygon>
            </g>
            <g id="triangle" fill="grey">
                <path d="M52.8844333,7.80600614 L51.2205084,8.75090121 L56.8228235,8.65196691 L55.0941337,7.71645782 L101.45516,81.4884894 L101.402569,79.4488108 L99.9338281,82.07759 L102.559042,81.2567253 L57.0788224,58.9960031 L54.4491155,61.5931744 L52.8844335,61.0704808 L50.9718191,58.9842227 L6.91725898,80.8143312 L9.31733067,81.2973161 L7.15848031,78.8036869 L7.34565211,81.1675462 L52.8844333,7.80600614 Z M3.17073612,80.3087787 L5.14639668,81.2571548 L6.489327,82.8454879 L7.30633302,85.0856939 L8.69326898,84.3984334 L53.012027,62.4374084 L54.5628691,62.2179861 L100.800548,84.8494536 L102.501873,85.6821832 L102.619985,83.3647368 L104.027654,81.42182 L105.473016,80.3643761 L104.841912,79.3601312 L58.4808861,5.58809958 L57.8804568,4.63266593 L55.5725763,6.94183426 L52.2834871,7.12449365 L50.0605536,4.7707618 L49.4859563,5.69641985 L3.94717514,79.0579599 L3.17073612,80.3087787 Z" id="Rectangle-12"></path>
                <polygon id="Line" points="56 56.3407432 56 5 54.7237139 6.47914135 52.7400786 6.00702143 52 5 52 56.5675426 53.391309 56.340744 55.0309191 56.567543"></polygon>
                <path d="M4,86 L4,86 C5.1045695,86 6,85.1045695 6,84 C6,82.8954305 5.1045695,82 4,82 C2.8954305,82 2,82.8954305 2,84 C2,85.1045695 2.8954305,86 4,86 L4,86 Z M4,88 L4,88 C1.790861,88 0,86.209139 0,84 C0,81.790861 1.790861,80 4,80 C6.209139,80 8,81.790861 8,84 C8,86.209139 6.209139,88 4,88 L4,88 Z" id="Oval-4"></path>
                <path d="M105,86 L105,86 C106.104569,86 107,85.1045695 107,84 C107,82.8954305 106.104569,82 105,82 C103.895431,82 103,82.8954305 103,84 C103,85.1045695 103.895431,86 105,86 L105,86 Z M105,88 L105,88 C102.790861,88 101,86.209139 101,84 C101,81.790861 102.790861,80 105,80 C107.209139,80 109,81.790861 109,84 C109,86.209139 107.209139,88 105,88 L105,88 Z" id="Oval-4-Copy"></path>
                <path d="M54,6 L54,6 C55.1045695,6 56,5.1045695 56,4 C56,2.8954305 55.1045695,2 54,2 C52.8954305,2 52,2.8954305 52,4 C52,5.1045695 52.8954305,6 54,6 L54,6 Z M54,8 L54,8 C51.790861,8 50,6.209139 50,4 C50,1.790861 51.790861,0 54,0 C56.209139,0 58,1.790861 58,4 C58,6.209139 56.209139,8 54,8 L54,8 Z" id="Oval-4-Copy-2"></path>
                <path d="M54,61 L54,61 C55.1045695,61 56,60.1045695 56,59 C56,57.8954305 55.1045695,57 54,57 C52.8954305,57 52,57.8954305 52,59 C52,60.1045695 52.8954305,61 54,61 L54,61 Z M54,63 L54,63 C51.790861,63 50,61.209139 50,59 C50,56.790861 51.790861,55 54,55 C56.209139,55 58,56.790861 58,59 C58,61.209139 56.209139,63 54,63 L54,63 Z" id="Oval-4-Copy-3"></path>
            </g>
            <g id="triangle-copy" transform="translate(54.500000, 143.000000) scale(1, -1) translate(-54.500000, -143.000000) translate(0.000000, 99.000000)" fill="grey">
                <path d="M56,7 L56,5.7162109 L54,6.72676313 L52,5.7162109 L52,7 L52,43 L52,44.0813293 C52,44.0813293 53.3758415,43 54,43 C54.7091748,43 56,44.0813293 56,44.0813293 L56,43 L56,7 Z" id="Line"></path>
                <path d="M52.7524162,8.0186815 L51.1512384,8.96148294 L56.9039295,8.67908689 L55.1124926,7.74567143 L101.45516,81.4884894 L101.402569,79.4488108 L99.9338281,82.07759 L102.91358,81.4789946 L57.3421201,45.7598113 L56.1746348,47.4561893 L53.8954561,48.6042644 C53.8954561,48.6042644 52.3311436,47.930783 51.8383005,47.4561893 C51.3454575,46.9815957 50.8314367,45.6537021 50.8314367,45.6537021 L6.55650885,81.0441369 L9.31733067,81.2973161 L7.15848031,78.8036869 L7.34565211,81.1675462 L52.7524162,8.0186815 Z M3.17073612,80.3087787 L5.45617681,81.7173425 L6.19567876,82.6461755 L7.55188986,85.3693299 L9.05401911,84.1686276 L53.1901189,48.8891628 L54.6617692,48.741222 L100.44601,84.6271843 L102.28568,86.0691287 L102.677694,82.7282683 L103.969396,81.4218184 L105.473016,80.3643761 L104.841912,79.3601312 L58.499245,5.61731319 L57.8765962,4.62652265 L55.4697702,6.44769439 L52.6464441,5.90909525 L50.1852587,4.50401696 L49.3539392,5.90909522 L3.94717514,79.0579599 L3.17073612,80.3087787 Z" id="Rectangle-12"></path>
                <path d="M4,86 L4,86 C5.1045695,86 6,85.1045695 6,84 C6,82.8954305 5.1045695,82 4,82 C2.8954305,82 2,82.8954305 2,84 C2,85.1045695 2.8954305,86 4,86 L4,86 Z M4,88 L4,88 C1.790861,88 0,86.209139 0,84 C0,81.790861 1.790861,80 4,80 C6.209139,80 8,81.790861 8,84 C8,86.209139 6.209139,88 4,88 L4,88 Z" id="Oval-4"></path>
                <path d="M105,86 L105,86 C106.104569,86 107,85.1045695 107,84 C107,82.8954305 106.104569,82 105,82 C103.895431,82 103,82.8954305 103,84 C103,85.1045695 103.895431,86 105,86 L105,86 Z M105,88 L105,88 C102.790861,88 101,86.209139 101,84 C101,81.790861 102.790861,80 105,80 C107.209139,80 109,81.790861 109,84 C109,86.209139 107.209139,88 105,88 L105,88 Z" id="Oval-4-Copy"></path>
                <path d="M54,6 L54,6 C55.1045695,6 56,5.1045695 56,4 C56,2.8954305 55.1045695,2 54,2 C52.8954305,2 52,2.8954305 52,4 C52,5.1045695 52.8954305,6 54,6 L54,6 Z M54,8 L54,8 C51.790861,8 50,6.209139 50,4 C50,1.790861 51.790861,0 54,0 C56.209139,0 58,1.790861 58,4 C58,6.209139 56.209139,8 54,8 L54,8 Z" id="Oval-4-Copy-2"></path>
                <path d="M54,48 L54,48 C55.1045695,48 56,47.1045695 56,46 C56,44.8954305 55.1045695,44 54,44 C52.8954305,44 52,44.8954305 52,46 C52,47.1045695 52.8954305,48 54,48 L54,48 Z M54,50 L54,50 C51.790861,50 50,48.209139 50,46 C50,43.790861 51.790861,42 54,42 C56.209139,42 58,43.790861 58,46 C58,48.209139 56.209139,50 54,50 L54,50 Z" id="Oval-4-Copy-3"></path>
            </g>
        </g>
    </g>
</svg>