<?xml version="1.0" encoding="utf-8"?>
<!DOCTYPE svg PUBLIC "-//W3C//DTD SVG 1.1//EN" "http://www.w3.org/Graphics/SVG/1.1/DTD/svg11.dtd">
<svg version="1.1" id="Layer_1" xmlns="http://www.w3.org/2000/svg" xmlns:xlink="http://www.w3.org/1999/xlink" x="0px" y="0px"
	 viewBox="0 0 841.889 595.281" enable-background="new 0 0 841.889 595.281"
	 xml:space="preserve">
<path fill="gray" d="M308.426,124.85c0,29.857-24.204,54.062-54.06,54.062c-29.861,0-54.066-24.205-54.066-54.062
	c0-29.859,24.205-54.063,54.066-54.063C284.222,70.787,308.426,94.991,308.426,124.85z"/>
<path fill="gray" d="M478.955,60.677c0,29.181-23.655,52.855-52.847,52.855c-29.2,0-52.867-23.675-52.867-52.855
	c0-29.191,23.667-52.862,52.867-52.862C455.3,7.816,478.955,31.486,478.955,60.677z"/>
<path fill="gray" d="M630.296,122.374c0,29.009-23.525,52.539-52.547,52.539c-29.005,0-52.53-23.529-52.53-52.539
	c0-29.013,23.525-52.533,52.53-52.533C606.771,69.842,630.296,93.361,630.296,122.374z"/>
<path fill="gray" d="M713.852,230.827c0,28.672-23.244,51.92-51.909,51.92c-28.689,0-51.931-23.248-51.931-51.92
	s23.241-51.915,51.931-51.915C690.608,178.912,713.852,202.155,713.852,230.827z"/>
<path fill="gray" d="M713.852,376.544c0,28.087-22.766,50.872-50.852,50.872c-28.107,0-50.874-22.785-50.874-50.872
	c0-28.086,22.767-50.853,50.874-50.853C691.086,325.691,713.852,348.458,713.852,376.544z"/>
<path fill="gray" d="M641.871,489.946c0,23.854-19.329,43.193-43.182,43.193c-23.872,0-43.201-19.339-43.201-43.193
	c0-23.854,19.329-43.201,43.201-43.201C622.542,446.745,641.871,466.093,641.871,489.946z"/>
<path fill="gray" d="M513.645,542.093c0,22.269-18.037,40.315-40.309,40.315c-22.277,0-40.317-18.047-40.317-40.315
	c0-22.271,18.04-40.319,40.317-40.319C495.608,501.773,513.645,519.821,513.645,542.093z"/>
<path fill="gray" d="M394.782,541.052c0,22.156-17.962,40.129-40.116,40.129c-22.162,0-40.124-17.973-40.124-40.129
	c0-22.148,17.962-40.121,40.124-40.121C376.82,500.931,394.782,518.904,394.782,541.052z"/>
<path fill="gray" d="M290.46,485.14c0,18.471-14.966,33.435-33.416,33.435c-18.467,0-33.428-14.964-33.428-33.435
	c0-18.457,14.961-33.425,33.428-33.425C275.494,451.716,290.46,466.683,290.46,485.14z"/>
<g>
	<g>
		<path fill="gray" d="M146.921,239.18l54.996,89.31l45.407-89.31h28.765v168.221h-22.181v-65.51l2.079-70.704l-45.637,88.265
			h-16.982l-55.115-87.918l2.196,70.358v65.51h-22.18V239.18H146.921z"/>
		<polygon fill="gray" points="369.496,409.321 305.803,237.261 334.072,237.261 380.542,372.068 427.232,237.261 
			455.618,237.261 391.809,409.321 		"/>
	</g>
</g>
<g>
	<path fill="gray" d="M483.075,388.812c11.501,2.48,24.754,3.999,33.8,3.999c4.795,0,9.609-0.554,14.3-1.64
		c4.459-1.04,8.468-2.659,11.895-4.822c3.295-2.09,5.882-4.664,7.904-7.904c1.909-3.042,2.839-6.695,2.839-11.174
		c0-7.022-1.649-12.397-5.049-16.443c-3.794-4.497-8.645-8.449-14.413-11.727c-6.115-3.481-12.84-6.666-19.967-9.478
		c-7.707-3.042-14.975-6.667-21.614-10.776c-7.007-4.328-12.934-9.789-17.607-16.194c-4.964-6.819-7.481-15.691-7.481-26.378
		c0-7.543,1.507-14.256,4.476-19.96c2.96-5.668,7.062-10.438,12.185-14.188c5.001-3.652,10.872-6.359,17.438-8.035
		c6.331-1.617,13.129-2.437,20.209-2.437c6.472,0,13.262,0.37,20.164,1.102c7.08,0.748,13.871,2.144,20.172,4.149l1.424,0.448
		l3.757,1.363l-2.465,18.909c0,0-17.316-3.073-24.152-3.743c-2.321-0.23-4.775-1.043-7.51-1.409
		c-2.716-0.354-6.462-0.539-11.127-0.539c-4.655,0-9.149,0.508-13.383,1.503c-3.923,0.929-7.313,2.408-10.105,4.408
		c-2.723,1.96-4.849,4.358-6.489,7.341c-1.563,2.833-2.359,6.405-2.359,10.614c0,6.881,1.648,12.182,5.039,16.199
		c3.783,4.49,8.614,8.396,14.375,11.589c6.143,3.428,12.857,6.537,19.967,9.253c7.707,2.968,14.993,6.556,21.66,10.666
		c7.005,4.338,12.935,9.834,17.626,16.353c4.955,6.901,7.464,15.886,7.464,26.7c0,8.259-1.716,15.471-5.085,21.447
		c-3.324,5.88-7.886,10.805-13.552,14.617c-5.506,3.688-11.865,6.397-18.898,8.045c-6.762,1.602-13.964,2.407-21.372,2.407
		c-7.286,0-14.861-0.451-22.521-1.34c-7.812-0.916-15.294-2.558-22.245-4.88l-1.169-0.393l-4.541-2.069v-19.48"/>
</g>
</svg>
