<svg version="1.1" id="Layer_1" xmlns="http://www.w3.org/2000/svg" xmlns:xlink="http://www.w3.org/1999/xlink" x="0px" y="0px"
	 width="226.777px" height="226.777px" viewBox="0 0 226.777 226.777" enable-background="new 0 0 226.777 226.777"
	 xml:space="preserve">
<g fill="grey">
	<path d="M148.379,27.576c-16.232,0-29.859,3.914-40.875,11.742c-6.572,4.638-12.515,11.211-17.829,19.713
		c-5.413,8.794-8.602,17.154-9.566,25.077h98.856l-3.912,19.425H77.789c-0.098,2.029-0.144,3.963-0.144,5.797
		c0,7.444,0.046,11.887,0.144,13.336h93.35l-4.059,19.424H80.833c4.058,22.129,13.818,37.832,29.28,47.109
		c11.111,6.668,23.142,10,36.093,10c18.068,0,32.178-4.732,42.326-14.203v29.859c-12.08,5.604-25.418,8.408-40.008,8.408
		c-43.68,0-73.201-18.168-88.566-54.504c-3.092-7.342-5.75-16.232-7.971-26.67H29.81l4.058-19.424h15.221
		c-0.291-4.059-0.435-8.455-0.435-13.191c0-1.933,0.048-3.913,0.144-5.942H29.81l4.058-19.425h16.814
		c5.991-31.501,21.599-54.115,46.82-67.837c15.557-8.503,32.708-12.756,51.458-12.756c17.973,0,33.098,3.914,45.369,11.741
		l-5.797,26.961C176.742,32.457,163.357,27.576,148.379,27.576z"/>
</g>
</svg>
