<?xml version="1.0" encoding="utf-8"?>
<!DOCTYPE svg PUBLIC "-//W3C//DTD SVG 1.1//EN" "http://www.w3.org/Graphics/SVG/1.1/DTD/svg11.dtd">
<svg version="1.1" id="Layer_1" xmlns="http://www.w3.org/2000/svg" xmlns:xlink="http://www.w3.org/1999/xlink" x="0px" y="0px"
	 width="226.777px" height="226.777px" viewBox="0 0 226.777 226.777" enable-background="new 0 0 226.777 226.777"
	 xml:space="preserve">
<g>
	<path fill="grey" d="M116.656,31.272c-15.428,0-28.379,3.72-38.85,11.161C71.56,46.841,65.911,53.088,60.86,61.169
		c-5.144,8.358-8.175,16.304-9.091,23.834h93.958l-3.718,18.462H49.563c-0.093,1.929-0.136,3.767-0.136,5.51
		c0,7.075,0.043,11.298,0.136,12.675h88.726l-3.858,18.462H52.457c3.857,21.033,13.133,35.957,27.829,44.774
		c10.561,6.338,21.995,9.505,34.305,9.505c17.173,0,30.583-4.498,40.229-13.499v28.38c-11.481,5.325-24.158,7.991-38.025,7.991
		c-41.515,0-69.574-17.268-84.178-51.804c-2.938-6.979-5.465-15.428-7.576-25.349H3.962l3.857-18.462h14.466
		c-0.277-3.857-0.413-8.036-0.413-12.536c0-1.838,0.045-3.72,0.136-5.648H3.962l3.857-18.462H23.8
		c5.693-29.94,20.528-51.434,44.5-64.476c14.787-8.082,31.087-12.124,48.908-12.124c17.083,0,31.459,3.72,43.121,11.159
		l-5.51,25.625C143.613,35.911,130.892,31.272,116.656,31.272z"/>
</g>
<g>
	<path fill="grey" d="M193.654,35.585l12.393-22.787h15.659l-19.245,32.772l19.745,33.317h-15.841l-12.711-23.149l-12.709,23.149
		h-15.842l19.745-33.317l-19.245-32.772h15.66L193.654,35.585z"/>
</g>
</svg>
