<?xml version="1.0" encoding="utf-8"?>
<!DOCTYPE svg PUBLIC "-//W3C//DTD SVG 1.1//EN" "http://www.w3.org/Graphics/SVG/1.1/DTD/svg11.dtd">
<svg version="1.1" id="Layer_1" xmlns="http://www.w3.org/2000/svg" xmlns:xlink="http://www.w3.org/1999/xlink" x="0px" y="0px"
	 width="226.777px" height="226.777px" viewBox="0 0 226.777 226.777" enable-background="new 0 0 226.777 226.777"
	 xml:space="preserve">
<g>
	<path fill="grey" d="M112.388,218.92c-58.191,0-105.532-47.341-105.532-105.531c0-58.191,47.341-105.532,105.532-105.532
		c58.19,0,105.531,47.341,105.531,105.532C217.92,171.579,170.579,218.92,112.388,218.92z M112.388,12.856
		c-55.434,0-100.532,45.099-100.532,100.532S56.955,213.92,112.388,213.92S212.92,168.822,212.92,113.388
		S167.822,12.856,112.388,12.856z M93.375,160.887h-4.209c-0.594,0-1.169-0.212-1.622-0.598l-50.144-42.731
		c-0.956-0.814-1.159-2.213-0.474-3.266l27.319-41.985c0.44-0.677,1.18-1.1,1.987-1.134c0.816-0.03,1.581,0.322,2.078,0.958
		l15.815,20.238c0.677,0.867,0.708,2.074,0.077,2.975l-14.565,20.769l25.85,40.939c0.486,0.771,0.515,1.744,0.076,2.542
		C95.124,160.392,94.285,160.887,93.375,160.887z M42.316,115.178l45.07,38.406l-22.863-36.209
		c-0.539-0.853-0.512-1.945,0.067-2.771L79.047,93.99l-12.52-16.021L42.316,115.178z M136.478,160.886h-4.209
		c-0.878,0-1.691-0.46-2.143-1.213c-0.452-0.752-0.477-1.687-0.064-2.461l21.809-40.993l-14.64-20.876
		c-0.632-0.901-0.601-2.108,0.077-2.975l15.819-20.238c0.497-0.636,1.268-0.995,2.078-0.958c0.807,0.035,1.547,0.458,1.987,1.134
		l27.318,41.985c0.662,1.019,0.497,2.366-0.393,3.193l-45.938,42.731C137.719,160.647,137.11,160.886,136.478,160.886z
		 M142.388,93.989l14.457,20.616c0.54,0.771,0.603,1.779,0.16,2.609l-19.657,36.949l41.825-38.906l-24.263-37.289L142.388,93.989z
		 M125.013,160.885H100.24c-0.906,0-1.741-0.49-2.183-1.28L74.4,117.26c-0.477-0.854-0.412-1.908,0.167-2.697l34.862-47.561
		c0.471-0.643,1.22-1.022,2.016-1.022l0,0c0.797,0,1.545,0.38,2.017,1.022l34.859,47.564c0.555,0.757,0.639,1.762,0.217,2.601
		l-21.291,42.343C126.822,160.352,125.959,160.885,125.013,160.885z M79.549,116.222l22.158,39.664l21.766-0.001l19.911-39.599
		l-31.938-43.579L79.549,116.222z"/>
</g>
</svg>
