<?xml version="1.0" encoding="utf-8"?>
<!DOCTYPE svg PUBLIC "-//W3C//DTD SVG 1.1//EN" "http://www.w3.org/Graphics/SVG/1.1/DTD/svg11.dtd">
<svg version="1.1" id="Layer_1" xmlns="http://www.w3.org/2000/svg" xmlns:xlink="http://www.w3.org/1999/xlink" x="0px" y="0px"
	 width="226.777px" height="226.777px" viewBox="0 0 226.777 226.777" enable-background="new 0 0 226.777 226.777"
	 xml:space="preserve">
<path fill="grey" d="M113.389,14.388c-54.677,0-99.001,44.324-99.001,99c0,28.364,11.931,53.939,31.045,71.989
	c0-0.009,4.602-63.616,27.424-111.815c-44.055,4.315-50.522,20.752-55.745,22.576c-1.18,0.412,0.212-2.272,0.623-2.886
	c10.645-15.901,34.552-31.83,64.894-37.405c14.349-22.188,34.039-37.531,60.957-35.101c12.637,1.141,18.803,10.642,18.803,10.642
	s-25.524-7.944-51.662,21.5c-0.279,0.314-0.554,0.635-0.831,0.952c15.661,0.539,32.308,3.995,49.242,11.438
	c15.417,6.776,20.385,25.942,20.385,25.942s-20.932-16.222-69.135-18.356c-5.224-0.231-10.129-0.335-14.751-0.333
	c-27.704,41.299-41.032,92.456-47.829,111.896c-0.438,1.255-0.818,1.859-1.139,2.101c17.599,16.063,41.015,25.861,66.72,25.861
	c54.676,0,99-44.324,99-99C212.388,58.712,168.065,14.388,113.389,14.388z M128.138,159.888c-11.736,0-21.25-9.514-21.25-21.25
	s9.514-21.25,21.25-21.25s21.25,9.514,21.25,21.25S139.875,159.888,128.138,159.888z"/>
</svg>
