<?xml version="1.0" encoding="utf-8"?>
<!-- Generator: Adobe Illustrator 16.0.0, SVG Export Plug-In . SVG Version: 6.00 Build 0)  -->
<!DOCTYPE svg PUBLIC "-//W3C//DTD SVG 1.1//EN" "http://www.w3.org/Graphics/SVG/1.1/DTD/svg11.dtd">
<svg version="1.1" id="Layer_1" xmlns="http://www.w3.org/2000/svg" xmlns:xlink="http://www.w3.org/1999/xlink" x="0px" y="0px"
	 width="226.777px" height="226.777px" viewBox="0 0 226.777 226.777" enable-background="new 0 0 226.777 226.777"
	 xml:space="preserve">
<path fill="gray" d="M23.384,112.992c0.004,5.588,0.52,11.162,1.541,16.654l-11.362,2.121c1.155,6.193,2.884,12.265,5.166,18.136
	l10.773-4.188c2.024,5.203,4.525,10.207,7.471,14.95l-9.817,6.101c3.324,5.347,7.133,10.377,11.38,15.024l8.534-7.793
	c3.768,4.125,7.906,7.896,12.363,11.264l-6.966,9.223c5.025,3.797,10.39,7.122,16.027,9.931l5.153-10.347
	c4.999,2.487,10.217,4.506,15.588,6.028l-3.146,11.133c6.059,1.715,12.265,2.862,18.536,3.43l1.047-11.51
	c2.748,0.251,5.549,0.377,8.324,0.377c2.804,0,5.633-0.129,8.408-0.384l1.059,11.509c6.271-0.574,12.477-1.729,18.534-3.45
	l-3.162-11.12c5.368-1.528,10.584-3.552,15.579-6.044l5.163,10.342c5.633-2.814,10.995-6.143,16.016-9.943l-6.974-9.216
	c4.454-3.373,8.59-7.147,12.355-11.275l8.541,7.788c4.243-4.653,8.048-9.687,11.368-15.038l-9.821-6.093
	c2.942-4.746,5.438-9.754,7.458-14.961l10.777,4.176c2.276-5.874,4-11.947,5.149-18.141l-11.341-2.109
	c1.022-5.493,1.54-11.067,1.546-16.654v-0.165l11.538-0.02c-0.012-6.295-0.602-12.576-1.764-18.763l-11.364,2.13
	c-1.032-5.486-2.57-10.865-4.598-16.066l10.769-4.197c-2.286-5.868-5.112-11.512-8.442-16.858l-9.809,6.109
	c-2.954-4.741-6.338-9.201-10.109-13.323l8.527-7.802c-4.251-4.645-8.919-8.89-13.945-12.681l-6.958,9.228
	c-4.462-3.362-9.224-6.306-14.227-8.794l5.145-10.352c-5.644-2.804-11.535-5.076-17.6-6.786l-3.142,11.124
	c-5.373-1.515-10.876-2.529-16.436-3.03l1.04-11.512c-3.057-0.272-6.15-0.411-9.28-0.417c-3.224,0-6.409,0.147-9.558,0.443
	l1.068,11.508c-5.559,0.516-11.058,1.546-16.428,3.076l-3.171-11.116c-6.057,1.729-11.94,4.018-17.573,6.838l5.171,10.337
	c-4.993,2.5-9.745,5.456-14.196,8.829l-6.981-9.21c-5.018,3.804-9.674,8.061-13.913,12.717l8.548,7.781
	c-3.76,4.132-7.132,8.602-10.074,13.351l-9.827-6.083c-3.317,5.355-6.129,11.007-8.401,16.883l10.781,4.167
	c-2.011,5.207-3.533,10.589-4.549,16.079L13.53,94.241c-1.136,6.158-1.707,12.407-1.705,18.67c0,0.031,0,0.061,0,0.092
	L23.384,112.992z M124.33,184.567l-0.612-4.304c6.421-0.916,12.676-2.753,18.573-5.453l1.81,3.953
	c-6.278,2.872-12.938,4.824-19.773,5.798L124.33,184.567z M186.387,112.906c0.006,6.903-0.976,13.771-2.912,20.396l-4.171-1.226
	c1.82-6.227,2.742-12.682,2.737-19.168v-0.112l4.347-0.011v0.118L186.387,112.906z M174.842,73.679
	c3.748,5.796,6.644,12.102,8.597,18.722l-4.168,1.226c-1.836-6.222-4.557-12.147-8.079-17.595L174.842,73.679z M171.253,149.688
	l3.655,2.35c-3.736,5.803-8.28,11.045-13.493,15.567l-2.844-3.28C163.471,160.072,167.741,155.144,171.253,149.688L171.253,149.688z
	 M143.985,47.004c6.28,2.864,12.119,6.611,17.339,11.128l-2.844,3.288c-4.906-4.246-10.395-7.768-16.299-10.459L143.985,47.004z
	 M133.028,95.058h10.126l13.169,19.423V95.058h10.32v35.148h-10.271l-13.127-19.317v19.317h-10.218V95.058z M113.998,40.524
	c3.414,0,6.824,0.239,10.206,0.715l-0.608,4.303c-6.425-0.904-12.946-0.896-19.369,0.024l-0.618-4.303
	C107.05,40.771,110.521,40.524,113.998,40.524z M93.079,95.058h10.83v21.415c0,1.915,0.541,3.41,1.602,4.486
	c1.062,1.077,2.54,1.615,4.423,1.615c1.868,0,3.354-0.529,4.417-1.591c1.062-1.061,1.614-2.564,1.614-4.51V95.058h10.83v20.917
	c0.005,2-0.331,3.986-0.993,5.874c-0.638,1.823-1.682,3.476-3.053,4.834c-1.381,1.38-2.832,2.35-4.353,2.908
	c-2.107,0.781-4.639,1.172-7.594,1.173c-1.87-0.01-3.737-0.13-5.593-0.358c-2.02-0.24-3.708-0.715-5.066-1.425
	s-2.599-1.719-3.724-3.027c-1.125-1.308-1.909-2.656-2.325-4.044c-0.67-2.233-1.021-4.211-1.021-5.934V95.058H93.079z
	 M104.344,180.27l-0.613,4.304c-6.836-0.97-13.497-2.919-19.776-5.787l1.805-3.955C91.661,177.528,97.92,179.359,104.344,180.27z
	 M83.845,47.084l1.812,3.951c-5.896,2.707-11.375,6.242-16.271,10.5l-2.851-3.281C71.743,53.724,77.573,49.963,83.845,47.084z
	 M61.405,95.058h26.77v7.561H72.337v6.13h13.589v7.051H72.337v14.406H61.405V95.058z M69.477,164.362l-2.845,3.284
	c-5.218-4.518-9.765-9.756-13.506-15.556l3.653-2.355C60.296,155.189,64.572,160.114,69.477,164.362z M53.06,73.837l3.657,2.35
	c-3.508,5.457-6.214,11.389-8.034,17.616l-4.177-1.224c1.937-6.626,4.816-12.939,8.55-18.747L53.06,73.837z M45.962,112.969
	c0,6.488,0.927,12.941,2.752,19.167l-4.169,1.227c-1.942-6.622-2.929-13.488-2.929-20.389L45.962,112.969z"/>
</svg>
