<?xml version="1.0" encoding="utf-8"?>
<!DOCTYPE svg PUBLIC "-//W3C//DTD SVG 1.1//EN" "http://www.w3.org/Graphics/SVG/1.1/DTD/svg11.dtd">
<svg version="1.1" id="Layer_1" xmlns="http://www.w3.org/2000/svg" xmlns:xlink="http://www.w3.org/1999/xlink" x="0px" y="0px"
	 width="226.777px" height="226.777px" viewBox="0 0 226.777 226.777" enable-background="new 0 0 226.777 226.777"
	 xml:space="preserve">
<g>
	<path fill="gray" d="M39.041,222.486v-16.754c22.45-11.393,38.199-33.508,38.199-58.639c0-8.041-0.335-14.744-1.676-23.455H41.052v-21.11
		h31.163c-1.676-10.052-3.687-23.12-3.687-36.188C68.528,26.801,95.669,1,132.863,1c17.423,0,29.487,4.021,36.523,8.377
		l-6.701,22.115c-6.031-3.351-15.749-6.702-29.822-6.702c-26.136,0-36.858,18.094-36.858,41.884c0,14.409,2.01,25.131,4.021,35.854
		h48.25v21.11h-45.569c1.005,12.732,1.676,25.465-1.34,37.529c-3.686,14.406-11.728,26.469-23.12,36.188v0.67h99.852v24.461H39.041z
		"/>
</g>
</svg>
