<?xml version="1.0" encoding="utf-8"?>
<!DOCTYPE svg PUBLIC "-//W3C//DTD SVG 1.1//EN" "http://www.w3.org/Graphics/SVG/1.1/DTD/svg11.dtd">
<svg version="1.1" id="Layer_1" xmlns="http://www.w3.org/2000/svg" xmlns:xlink="http://www.w3.org/1999/xlink" x="0px" y="0px"
	 width="226.777px" height="226.777px" viewBox="0 0 226.777 226.777" enable-background="new 0 0 226.777 226.777"
	 xml:space="preserve">
<g>
	<path fill="gray" d="M113.58,56.319v-1.498l-0.034,1.498c-5.737,0-11.052,2.2-14.967,6.194c-3.96,3.952-6.222,9.41-6.216,14.986
		c0,5.578,2.208,10.901,6.216,14.989c3.92,3.934,9.364,6.195,14.928,6.195c5.791,0,11.106-2.199,15.002-6.192
		c3.964-3.951,6.225-9.408,6.218-14.988c0-5.736-2.2-11.051-6.194-14.969C124.591,58.58,119.144,56.319,113.58,56.319z"/>
	<path fill="gray" d="M98.579,138.205c-3.965,3.951-6.226,9.408-6.216,14.984c0,5.58,2.208,10.901,6.215,14.989
		c3.919,3.935,9.365,6.196,14.932,6.196c5.767,0,11.082-2.201,15.001-6.197c3.962-3.945,6.223-9.402,6.216-14.983
		c0-5.578-2.207-10.9-6.216-14.989c-3.896-3.974-9.214-6.174-14.973-6.194C107.805,132.011,102.492,134.212,98.579,138.205z"/>
	<path fill="gray" d="M113.29,6.538C54.477,6.538,6.802,54.213,6.802,113.025c0,58.81,47.676,106.486,106.488,106.486
		c58.811,0,106.487-47.677,106.487-106.486C219.777,54.213,172.1,6.538,113.29,6.538z M142.794,77.415
		c0,7.833-3.037,15.183-8.553,20.697c-4.446,4.56-10.309,7.486-16.618,8.317v17.775c6.214,0.845,12.07,3.765,16.618,8.312
		c5.516,5.514,8.553,12.864,8.553,20.696c0,7.831-3.037,15.181-8.553,20.697c-5.42,5.435-12.935,8.553-20.612,8.553c0,0,0,0,0,0
		h-0.089c-7.826,0-15.175-3.037-20.691-8.553c-11.377-11.413-11.377-29.98-0.002-41.392c4.452-4.559,10.313-7.484,16.621-8.318
		v-17.777c-6.215-0.845-12.072-3.765-16.619-8.312c-5.513-5.523-8.55-12.859-8.554-20.657c-0.005-7.818,3.034-15.171,8.558-20.703
		s12.873-8.582,20.69-8.586c6.414,0,12.466,2.051,17.587,5.945l16.241-16.243l5.75,5.583L136.85,59.725
		C140.692,64.799,142.794,71.028,142.794,77.415z"/>
</g>
</svg>
