<?xml version="1.0" encoding="utf-8"?>
<!DOCTYPE svg PUBLIC "-//W3C//DTD SVG 1.1//EN" "http://www.w3.org/Graphics/SVG/1.1/DTD/svg11.dtd">
<svg version="1.1" id="Layer_1" xmlns="http://www.w3.org/2000/svg" xmlns:xlink="http://www.w3.org/1999/xlink" x="0px" y="0px"
	 width="226.777px" height="226.777px" viewBox="0 0 226.777 226.777" enable-background="new 0 0 226.777 226.777"
	 xml:space="preserve">
<g transform="translate(0.000000,2000.000000) scale(0.100000,-0.100000)">
	<path fill="grey" d="M453.797,19944.008c-1.724-0.215-8.516-0.967-15.093-1.621c-102.441-10.244-202.944-62.002-273.247-140.615
		c-60.82-67.93-96.729-147.939-108.159-240.996c-2.046-16.719-2.046-1373.256,0-1389.975c3.774-30.508,9.922-58.77,18.657-85.82
		c29.546-91.23,88.423-169.629,168.11-223.965c56.719-38.613,121.421-62.871,190.322-71.387
		c11.216-1.406,98.994-1.621,699.834-1.621c600.845,0,688.618,0.215,699.839,1.621c68.906,8.516,133.604,32.773,190.322,71.387
		c103.408,70.508,170.596,180.508,186.006,304.941c1.406,11.211,1.621,98.984,1.621,699.828c0,600.85-0.215,688.623-1.621,699.834
		c-16.816,135.869-95.322,254.062-214.043,322.422c-48.955,28.252-98.555,44.863-161.963,54.238
		c-11.221,1.621-63.73,1.729-694.775,1.943C764.251,19944.223,455.633,19944.223,453.797,19944.008z M445.066,19349.418
		c11.323-2.91,18.223-6.797,26.636-15.098c7.007-6.904,11.968-14.883,15.093-24.268c1.187-3.447,1.621-23.496,2.051-95.215
		l0.537-90.898l8.628,6.797c104.492,82.275,247.583,108.799,376.768,69.98c90.474-27.285,169.189-84.434,223.535-162.715
		c28.252-40.654,49.175-86.055,61.353-133.711c8.955-35.156,12.188-59.955,13.916-106.967c0.537-16.289,1.299-31.055,1.514-32.891
		c0.312-1.738,1.396-8.301,2.363-14.57c7.227-47.539,27.5-95.215,57.051-134.141c50.566-66.953,123.467-108.789,206.504-118.828
		c17.568-2.051,52.51-2.051,70.195,0c43.242,5.176,83.35,19.082,121.416,41.953c36.67,21.992,74.512,58.867,97.588,95.098
		c64.053,100.605,64.16,228.393,0,328.783c-10.781,17.041-23.936,32.998-41.191,50.254c-25.117,25.117-46.367,40.645-76.777,56.172
		c-40.117,20.391-77.1,29.873-125.41,32.246c-22.207,1.191-28.359,2.373-38.818,7.871c-19.404,10.244-32.568,34.941-30.088,56.289
		c2.91,25.771,20.703,46.045,45.4,51.875c13.047,3.125,54.893,0.645,86.27-4.961c86.807-15.742,163.369-56.621,225.693-120.342
		c66.855-68.477,106.973-154.092,117.754-251.137c2.051-19.102,1.719-72.695-0.547-90.586c-4.307-32.246-9.59-56.172-19.082-84.648
		c-48.311-146.113-172.637-254.277-323.496-281.328c-27.607-4.961-39.141-5.938-72.793-5.938
		c-20.273-0.117-36.768,0.43-44.209,1.289c-54.883,6.582-99.424,19.746-146.113,43.457
		c-112.793,57.148-193.989,162.402-220.41,285.645c-6.035,28.145-8.623,51.66-9.81,91.133c-0.757,24.688-1.943,36.328-5.503,55.312
		c-20.703,110.307-102.544,201-210.703,233.451c-61.68,18.555-130.151,16.289-191.616-6.25
		c-16.934-6.25-43.892-20.059-59.956-30.732c-39.038-25.879-73.003-61.572-95.972-101.143l-3.989-6.797v-242.846
		c0-213.711-0.215-243.691-1.616-249.297c-5.176-20.488-21.245-36.875-40.977-42.051c-8.198-2.051-21.997-2.051-30.088,0
		c-18.545,4.844-34.077,18.867-40.869,36.66l-2.373,6.465l-0.322,424.32c-0.215,373.643,0,424.971,1.401,430.469
		C382.2,19339.604,412.82,19357.719,445.066,19349.418z M962.122,18547.676c9.707-2.578,17.471-7.109,25.449-15.078
		c18.979-18.77,23.076-44.434,10.996-68.379c-4.097-8.398-14.126-18.867-22.534-23.613c-7.334-4.199-20.596-7.754-28.901-7.754
		c-3.34,0-9.917,0.957-14.448,2.148c-30.84,7.871-49.497,38.828-42.163,69.98c4.639,19.512,21.782,37.422,41.191,42.695
		C938.724,18549.629,955.008,18549.629,962.122,18547.676z"/>
</g>
</svg>
