<?xml version="1.0" encoding="utf-8"?>
<!-- Generator: Adobe Illustrator 16.0.0, SVG Export Plug-In . SVG Version: 6.00 Build 0)  -->
<!DOCTYPE svg PUBLIC "-//W3C//DTD SVG 1.1//EN" "http://www.w3.org/Graphics/SVG/1.1/DTD/svg11.dtd">
<svg version="1.1" id="Layer_1" xmlns="http://www.w3.org/2000/svg" xmlns:xlink="http://www.w3.org/1999/xlink" x="0px" y="0px"
	 width="512px" height="512px" viewBox="0 0 512 512" enable-background="new 0 0 512 512" xml:space="preserve">
<g>
	<path fill="#3887BA" d="M273.4,300.5l-0.301,58c48.9-8.2,86.301-51,86.301-102.5c0-15.9-3.601-31-10-44.5
		c-2.801-5.8-6-11.3-9.801-16.5l47.101-43.5c1.1,1.3,2.1,2.7,3.1,4c20.9,28,33.2,62.8,33.2,100.5c0,1.2,0,2.5,0,3.7
		c-1.5,71.5-47.6,132-111.4,154.6c-12.299,4.3-25.199,7.3-38.5,8.7l-0.1,57l-76.2-67l-26.2-23l44.4-38.7L273.4,300.5z"/>
	<path fill="#3887BA" d="M89,252.3c1.6-72.1,48.3-133,112.9-155.2c11.7-4,24-6.8,36.8-8.1l0.1-57L314.9,98.9L341.1,122l-44.3,38.6
		l-58.4,50.9l0.2-57.9c-48.8,8.3-86,51.1-86,102.4c0,16,3.6,31.1,10.1,44.7c2.7,5.8,6,11.2,9.7,16.3l-47,43.6
		c-1.3-1.6-2.6-3.3-3.8-5C101.1,327.7,89,293.3,89,256C89,254.8,89,253.5,89,252.3z"/>
</g>
</svg>
