<svg version="1.1" id="Layer_1" xmlns="http://www.w3.org/2000/svg" xmlns:xlink="http://www.w3.org/1999/xlink" x="0px" y="0px"
	 width="279px" height="279px" viewBox="0 0 279 279" enable-background="new 0 0 279 279" xml:space="preserve">
<path fill="grey" d="M139.5,0C62.456,0,0,62.457,0,139.5C0,216.544,62.456,279,139.5,279S279,216.544,279,139.5C279,62.457,216.544,0,139.5,0z
	 M24.542,155.439c38.699-51.077,113.655-64.028,138-66.956c-32.367,8.629-61.834,21.577-88.354,37.759
	c-17.779,10.849-33.125,22.476-46.006,34.106c-0.866,0.78-1.709,1.553-2.529,2.312C25.208,160.195,24.842,157.779,24.542,155.439z
	 M28.994,176.376l-0.1-0.05c-0.91-3.042-1.677-6.068-2.323-9.043c1.359-1.285,2.79-2.609,4.292-3.965
	c12.703-11.471,27.852-22.947,45.409-33.66c27.113-16.543,57.346-29.667,90.648-38.183c-2.99,3.23-5.947,6.359-8.865,9.39
	c-27.999,9.015-55.071,22.383-80.882,39.062c-17.565,11.349-33.416,23.509-47.292,35.671
	C29.583,175.857,29.287,176.117,28.994,176.376z M33.753,188.546l-0.422-0.081c-1.114-2.535-2.107-5.096-2.994-7.658l0.097-0.361
	c0.681-0.606,1.375-1.221,2.083-1.84c13.736-12.039,29.435-24.082,46.827-35.318c23.504-15.187,47.67-27.531,72.75-36.312
	c-4.97,5.023-9.826,9.759-14.562,14.222c-2.49,1.039-5.012,2.149-7.567,3.328c-16.569,7.645-34.113,18.009-52.149,30.417
	c-14.126,9.718-27.75,20.125-40.367,30.535C36.179,186.52,34.947,187.545,33.753,188.546z M38.546,189.756
	c0.477-0.395,0.959-0.794,1.446-1.195c12.534-10.34,26.066-20.679,40.089-30.326c16.626-11.436,32.812-21.109,48.148-28.472
	C84.948,168.668,52.967,184.156,38.546,189.756z M98.695,248.447c-0.083,0.051-0.162,0.099-0.236,0.143l-0.333,0.092
	c-4.247-1.424-7.983-2.961-11.228-4.494c3.673-2.086,50.07-29.34,105.609-106.044c0,0-0.196,5.593-1.646,14.521
	c-12.854,20.393-31.123,42.432-45.199,57.079c-11.014,11.462-22.384,21.297-33.463,29.499c-3.873,2.867-7.431,5.324-10.593,7.371
	C100.503,247.328,99.529,247.939,98.695,248.447z M103.356,250.297l0.093-0.111c0.109-0.069,0.219-0.141,0.331-0.213
	c3.23-2.092,6.857-4.597,10.799-7.516c11.251-8.33,22.79-18.311,33.968-29.941c12.396-12.899,27.93-31.379,40.33-49.555
	c-1.27,5.693-2.975,12.078-5.266,18.836c-9.967,14.797-21.568,28.823-34.484,42.041c-9.969,10.205-29.529,26.734-32.705,29.406
	C111.681,252.428,107.329,251.421,103.356,250.297z M128.58,254.797c-2.33-0.199-4.584-0.447-6.765-0.734
	c2.799-2.396,20.943-17.979,30.173-27.429c9.238-9.454,17.816-19.321,25.619-29.589C168.277,217.676,153.135,239.488,128.58,254.797
	z M161.676,253.893c69.662-69.158,48.396-184.606,48.396-184.606C160.938,175.835,80.824,225.338,68.965,232.229
	c-7.737-5.895-14.715-12.735-20.76-20.351c-0.683-0.921-1.436-1.899-2.262-2.944c-0.325-0.438-0.647-0.877-0.966-1.317
	c12.981-4.658,84.841-34.046,165.07-138.331c0,0-104.434-14.413-186.433,58.179C29.638,68.777,79.223,23,139.5,23
	C203.842,23,256,75.159,256,139.5C256,196.258,215.41,243.537,161.676,253.893z"/>
</svg>
