<?xml version="1.0" encoding="utf-8"?>
<!-- Generator: Adobe Illustrator 16.0.0, SVG Export Plug-In . SVG Version: 6.00 Build 0)  -->
<!DOCTYPE svg PUBLIC "-//W3C//DTD SVG 1.1//EN" "http://www.w3.org/Graphics/SVG/1.1/DTD/svg11.dtd">
<svg version="1.1" id="Layer_1" xmlns="http://www.w3.org/2000/svg" xmlns:xlink="http://www.w3.org/1999/xlink" x="0px" y="0px"
	 width="279px" height="279px" viewBox="0 0 279 279" enable-background="new 0 0 279 279" xml:space="preserve">
<title>Combined Shape</title>
<desc>Created with Sketch.</desc>
<g fill="grey">
	<path d="M109.359,259.637c-4.619,3.42-8.869,6.354-12.653,8.804c-0.13,0.085-0.26,0.169-0.387,0.251l-0.11,0.129
		c4.656,1.319,9.754,2.498,15.309,3.455c3.721-3.131,26.639-22.497,38.318-34.454c15.133-15.486,28.725-31.92,40.403-49.257
		c2.684-7.918,4.683-15.398,6.17-22.068c-14.529,21.294-32.729,42.945-47.253,58.06
		C136.062,238.183,122.542,249.876,109.359,259.637z"/>
	<path d="M183.204,206.43c-9.141,12.029-19.191,23.59-30.015,34.668c-10.814,11.07-32.073,29.328-35.353,32.136
		c2.555,0.335,5.196,0.626,7.927,0.86C154.532,256.158,172.274,230.602,183.204,206.43z"/>
	<path d="M138.558,2.514C67.935,2.514,9.841,56.147,2.782,124.905c96.072-85.05,218.431-68.164,218.431-68.164
		C127.215,178.927,43.021,213.356,27.811,218.814c0.375,0.517,0.751,1.031,1.133,1.544c0.968,1.224,1.849,2.372,2.65,3.45
		c7.083,8.921,15.258,16.938,24.323,23.844c13.895-8.074,107.757-66.073,165.325-190.91c0,0,24.916,135.264-56.702,216.292
		c62.956-12.133,110.513-67.526,110.513-134.025C275.053,63.624,213.943,2.514,138.558,2.514z"/>
	<path d="M301.788,130.598c0.141,2.786,0.212,5.59,0.212,8.411C302,136.188,301.929,133.384,301.788,130.598z"/>
	<path d="M170.684,82.741c-39.018,9.977-74.439,25.354-106.207,44.736c-20.569,12.551-38.318,26-53.202,39.437
		c-1.76,1.589-3.437,3.14-5.028,4.646c0.758,3.486,1.656,7.031,2.722,10.596l0.117,0.059c0.343-0.303,0.688-0.607,1.039-0.913
		c16.256-14.249,34.829-28.495,55.408-41.794c30.243-19.539,61.96-35.201,94.765-45.764
		C163.716,90.191,167.179,86.526,170.684,82.741z"/>
	<path d="M200.663,137.418c-65.071,89.87-119.431,121.801-123.735,124.246c3.801,1.795,8.178,3.598,13.156,5.266l0.389-0.108
		c0.086-0.052,0.178-0.107,0.276-0.167c0.978-0.595,2.118-1.312,3.41-2.148c3.705-2.396,7.874-5.277,12.412-8.637
		c12.979-9.609,26.302-21.132,39.205-34.562c16.493-17.16,37.897-42.982,52.957-66.874
		C200.434,143.972,200.663,137.418,200.663,137.418z"/>
	<path d="M10.772,186.98l-0.112,0.424c1.038,3.002,2.202,6.003,3.507,8.973l0.495,0.096c1.399-1.174,2.842-2.374,4.328-3.599
		c14.782-12.195,30.744-24.391,47.295-35.775c21.133-14.537,41.687-26.68,61.1-35.637c2.994-1.381,5.948-2.682,8.866-3.899
		c5.548-5.229,11.238-10.778,17.062-16.663c-29.384,10.288-57.698,24.751-85.236,42.544c-20.377,13.165-38.77,27.276-54.864,41.381
		C12.384,185.552,11.571,186.269,10.772,186.98z"/>
	<path d="M3.871,157.684c0.35,2.741,0.779,5.572,1.301,8.464c0.96-0.892,1.949-1.796,2.962-2.711
		c15.093-13.627,33.073-27.249,53.903-39.959c31.071-18.959,65.597-34.129,103.517-44.239
		C137.031,82.666,49.212,97.842,3.871,157.684z"/>
	<path d="M68.942,160.959c-16.43,11.303-32.285,23.416-46.971,35.529c-0.57,0.472-1.136,0.939-1.694,1.402
		c16.896-6.561,54.366-24.709,105.077-70.292C107.384,136.226,88.42,147.561,68.942,160.959z"/>
</g>
</svg>
