<?xml version="1.0" encoding="utf-8"?>
<!DOCTYPE svg PUBLIC "-//W3C//DTD SVG 1.1//EN" "http://www.w3.org/Graphics/SVG/1.1/DTD/svg11.dtd">
<svg version="1.1" id="Layer_1" xmlns="http://www.w3.org/2000/svg" xmlns:xlink="http://www.w3.org/1999/xlink" x="0px" y="0px"
	 width="226.777px" height="226.777px" viewBox="0 0 226.777 226.777" enable-background="new 0 0 226.777 226.777"
	 xml:space="preserve">
<path fill="grey" d="M113.016,1.999l-96.6,55.792v111.541l96.6,55.75l96.601-55.75V57.791L113.016,1.999z M115.004,182.659
	l-74.168-42.3l0.29-20.527l73.837,42.216l35.593-20.528l-23.868-13.773l-8.911,5.164l-16.803-9.602l8.99-5.214l-11.712-6.76
	l-7.086,4.11l-16.762-9.644l7.115-4.123L43.692,79.85l71.271-41.14l67.255,38.325l-18.046,10.471l-49.168-28.227L79.409,79.85
	l19.928,11.5l10.203-5.913l16.804,9.602l-10.28,5.963l11.713,6.759l8.376-4.858l16.762,9.644l-8.405,4.871l41.765,24.102
	L115.004,182.659z"/>
</svg>
