<?xml version="1.0" encoding="utf-8"?>
<!DOCTYPE svg PUBLIC "-//W3C//DTD SVG 1.1//EN" "http://www.w3.org/Graphics/SVG/1.1/DTD/svg11.dtd">
<svg version="1.1" id="Layer_1" xmlns="http://www.w3.org/2000/svg" xmlns:xlink="http://www.w3.org/1999/xlink" x="0px" y="0px"
	 width="226.777px" height="226.777px" viewBox="0 0 226.777 226.777" enable-background="new 0 0 226.777 226.777"
	 xml:space="preserve">
<g fill="grey">
	<g>
		<circle cx="66.82" cy="124.52" r="3.898"/>
		<circle cx="64.552" cy="135.654" r="4.723"/>
		<circle cx="64.862" cy="149.157" r="5.444"/>
		<circle cx="68.469" cy="164.311" r="6.578"/>
		<circle cx="77.561" cy="180.748" r="7.667"/>
		<circle cx="91.271" cy="197.755" r="9.007"/>
		<circle cx="81.817" cy="122.002" r="4.574"/>
		<circle cx="82.087" cy="135.331" r="5.541"/>
		<circle cx="85.919" cy="150.71" r="6.388"/>
		<circle cx="93.951" cy="167.128" r="7.718"/>
		<circle cx="108.178" cy="183.601" r="8.996"/>
		<circle cx="128.666" cy="199.541" r="10.569"/>
		<circle cx="97.52" cy="114.855" r="5.443"/>
		<circle cx="101.262" cy="130.273" r="6.594"/>
		<circle cx="110.08" cy="147.158" r="7.603"/>
		<circle cx="123.635" cy="164.172" r="9.186"/>
		<circle cx="144.469" cy="179.551" r="10.706"/>
		<circle cx="172.305" cy="192.087" r="12.578"/>
	</g>
	<g>
		<circle cx="154.181" cy="155.888" r="3.898"/>
		<path d="M162.58,148.18c2.257-1.309,5.146-0.539,6.457,1.718c1.307,2.256,0.538,5.145-1.719,6.452
			c-2.255,1.31-5.146,0.542-6.453-1.715C159.556,152.379,160.325,149.488,162.58,148.18z"/>
		<circle cx="176.476" cy="145.224" r="5.445"/>
		<path d="M184.476,128.811c3.144-1.822,7.168-0.752,8.991,2.39c1.821,3.146,0.75,7.169-2.391,8.993
			c-3.144,1.82-7.17,0.751-8.991-2.393C180.262,134.659,181.334,130.633,184.476,128.811z"/>
		<circle cx="197.433" cy="118.393" r="7.667"/>
		<circle cx="205.271" cy="98" r="9.007"/>
		<circle cx="144.481" cy="144.178" r="4.574"/>
		<circle cx="155.875" cy="137.258" r="5.542"/>
		<circle cx="167.256" cy="126.23" r="6.388"/>
		<circle cx="177.43" cy="111.045" r="7.718"/>
		<circle cx="184.545" cy="90.474" r="8.996"/>
		<circle cx="188.057" cy="64.755" r="10.569"/>
		<circle cx="130.42" cy="134.178" r="5.444"/>
		<circle cx="141.881" cy="123.209" r="6.595"/>
		<circle cx="152.065" cy="107.109" r="7.602"/>
		<circle cx="159.983" cy="86.849" r="9.186"/>
		<circle cx="162.837" cy="61.112" r="10.707"/>
		<circle cx="159.718" cy="30.742" r="12.578"/>
	</g>
	<g>
		<circle cx="138.043" cy="64.643" r="3.898"/>
		<circle cx="129.562" cy="57.082" r="4.723"/>
		<circle cx="117.736" cy="50.555" r="5.444"/>
		<circle cx="102.825" cy="46.048" r="6.579"/>
		<circle cx="84.048" cy="45.636" r="7.667"/>
		<circle cx="62.451" cy="48.927" r="9.007"/>
		<circle cx="132.674" cy="78.87" r="4.575"/>
		<circle cx="121.018" cy="72.398" r="5.542"/>
		<circle cx="105.8" cy="67.971" r="6.388"/>
		<circle cx="87.571" cy="66.653" r="7.718"/>
		<circle cx="66.176" cy="70.659" r="8.997"/>
		<circle cx="42.093" cy="80.344" r="10.568"/>
		<circle cx="130.949" cy="96.037" r="5.442"/>
		<circle cx="115.743" cy="91.513" r="6.594"/>
		<circle cx="96.713" cy="90.638" r="7.603"/>
		<circle cx="75.19" cy="93.793" r="9.186"/>
		<circle cx="51.417" cy="104.059" r="10.707"/>
		<circle cx="26.578" cy="121.809" r="12.577"/>
	</g>
</g>
</svg>
