<?xml version="1.0" encoding="utf-8"?>
<!DOCTYPE svg PUBLIC "-//W3C//DTD SVG 1.1//EN" "http://www.w3.org/Graphics/SVG/1.1/DTD/svg11.dtd">
<svg version="1.1" id="Layer_1" xmlns="http://www.w3.org/2000/svg" xmlns:xlink="http://www.w3.org/1999/xlink" x="0px" y="0px"
	 width="226.777px" height="226.777px" viewBox="0 0 226.777 226.777" enable-background="new 0 0 226.777 226.777"
	 xml:space="preserve">
<g id="g6" transform="matrix(0.02356008,0,0,-0.0239169,-8.1675258,89.187633)">
	<path id="path10" fill="grey" d="M4226.918,3479.516
		c-1161.242-262.672-2209.184-981.562-2867.285-1963.133C1027.824,1024.227,828.762,556.867,693.242-48.578
		c-93.949-403.742-124.395-1114.289-69.121-1551.18c141.016-1141.891,710.621-2156.711,1631.391-2925.32
		c481.113-400.961,1023.027-696.742,1023.027-558.492c0,19.312-58.07,88.398-127.207,157.531
		c-472.781,456.289-721.645,1255.312-622.082,1999.102c132.742,989.914,539.18,1650.602,1332.719,2164.953
		C4011.273-665.211,4146.754-585,4163.332-585c58.074,0,22.137,116.148-121.656,392.617
		c-276.492,522.578-376.012,882.031-376.012,1357.594c0,729.969,309.672,1509.695,785.25,1982.492
		c138.215,135.469,154.816,163.156,154.816,270.984c0,107.781-5.516,116.094-74.652,113.391
		C4486.871,3532.078,4351.371,3507.156,4226.918,3479.516z"/>
	<path id="path12" fill="grey" d="M7038.93,3189.203c0-22.156,41.449-99.531,94.047-171.469
		c246.047-348.375,376.078-724.391,395.309-1155.734c24.996-522.555-116.016-976.109-375.949-1205.5
		c-190.836-168.695-356.719-174.227-594.477-24.93c-168.703,107.852-187.977,185.234-74.609,329.016
		c190.668,240.562,306.812,616.641,306.812,1003.734c0,400.883-77.43,624.805-287.582,818.43
		c-226.648,207.297-456.199,268.219-763.051,196.297c-312.41-69.156-605.566-403.688-763.199-870.953
		c-80.145-240.625-149.262-655.328-149.262-895.797c2.734-453.555,138.258-987.125,334.523-1313.445
		c110.586-185.234,384.324-489.344,547.555-608.328c60.723-44.219,113.324-91.211,113.324-99.523c0-11-58.156-38.688-130.031-66.328
		c-530.848-196.32-1064.477-785.273-1302.254-1435.062c-152.059-414.68-207.395-752.031-187.996-1139.148
		c22.09-475.648,107.809-699.523,378.809-992.609c212.867-232.328,616.488-337.352,1100.457-290.273
		c558.539,57.945,987.094,257.039,1354.797,635.867c160.41,168.672,193.613,188.031,224.078,152.055
		c27.605-33.156,22.008-60.797-35.98-160.305c-365.09-619.406-1045.203-1150.258-1675.699-1305.047
		c-138.195-33.195-196.266-60.883-196.266-91.258c0-99.547,859.965,38.75,1379.828,221.18
		c1329.926,464.461,2424.871,1567.719,2867.223,2883.836c182.422,544.734,212.887,760.445,215.664,1437.797
		c2.738,528.086-5.551,649.789-60.805,918.008C9485.973,1292.359,8626.09,2428.859,7368.043,3114.5
		C7146.824,3236.219,7038.93,3261.047,7038.93,3189.203z"/>
</g>
</svg>
