<?xml version="1.0" encoding="UTF-8" standalone="no"?>
<svg width="51px" height="65px" viewBox="0 0 51 65" version="1.1" xmlns="http://www.w3.org/2000/svg" xmlns:xlink="http://www.w3.org/1999/xlink" xmlns:sketch="http://www.bohemiancoding.com/sketch/ns">
    <!-- Generator: Sketch 3.3.3 (12081) - http://www.bohemiancoding.com/sketch -->
    <title>Group</title>
    <desc>Created with Sketch.</desc>
    <defs></defs>
    <g id="Page-1" stroke="none" stroke-width="1" fill="none" fill-rule="evenodd" sketch:type="MSPage">
        <g id="Group" sketch:type="MSLayerGroup" transform="translate(0.000000, 3.000000)">
            <path d="M41,15.5 C41,6.93958638 34.0604136,0 25.5,0 C16.9395864,0 10,6.93958638 10,15.5" id="Oval-1" stroke="#438DB6" stroke-width="5" sketch:type="MSShapeGroup"></path>
            <rect id="Rectangle-2" fill="#438DB6" sketch:type="MSShapeGroup" x="7.5" y="15.2999878" width="5" height="8"></rect>
            <path d="M25.5,46.5 C30.4705627,46.5 34.5,42.4705627 34.5,37.5 C34.5,32.5294373 30.4705627,28.5 25.5,28.5 C20.5294373,28.5 16.5,32.5294373 16.5,37.5 C16.5,42.4705627 20.5294373,46.5 25.5,46.5 L25.5,46.5 Z M25.5,41.5 C23.290861,41.5 21.5,39.709139 21.5,37.5 C21.5,35.290861 23.290861,33.5 25.5,33.5 C27.709139,33.5 29.5,35.290861 29.5,37.5 C29.5,39.709139 27.709139,41.5 25.5,41.5 L25.5,41.5 Z" id="Shape" fill="#A0C6DA" sketch:type="MSShapeGroup"></path>
            <path d="M23,44.5 L23,50.5 L23,53 L28,53 L28,50.5 L28,44.5 L28,42 L23,42 L23,44.5 L23,44.5 Z" id="Shape" fill="#A0C6DA" sketch:type="MSShapeGroup"></path>
            <path d="M48.5,23.5 L48.5,59.5" id="Line" stroke="#438DB6" stroke-width="5" stroke-linecap="square" sketch:type="MSShapeGroup"></path>
            <path d="M2.5,23.5 L2.5,59.5" id="Line-Copy" stroke="#438DB6" stroke-width="5" stroke-linecap="square" sketch:type="MSShapeGroup"></path>
            <path d="M2.5,59.5 L48.5,59.5" id="Line" stroke="#438DB6" stroke-width="5" stroke-linecap="square" sketch:type="MSShapeGroup"></path>
            <path d="M2.5,23.5 L48.5,23.5" id="Line-Copy-2" stroke="#438DB6" stroke-width="5" stroke-linecap="square" sketch:type="MSShapeGroup"></path>
        </g>
    </g>
</svg>