<?xml version="1.0" encoding="UTF-8" standalone="no"?>
<svg width="893px" height="103px" viewBox="0 0 893 103" version="1.1" xmlns="http://www.w3.org/2000/svg" xmlns:xlink="http://www.w3.org/1999/xlink">
    <!-- Generator: Sketch 3.6.1 (26313) - http://www.bohemiancoding.com/sketch -->
    <title>logo</title>
    <desc>Created with Sketch.</desc>
    <defs></defs>
    <g id="Page-1" stroke="none" stroke-width="1" fill="none" fill-rule="evenodd">
        <g id="logo" transform="translate(-129.395811, -936.000000)">
            <g id="logo-w-bg-on-dark" transform="translate(0.000000, 849.000000)">
                <g id="logo" transform="translate(130.000000, 87.000000)">
                    <path d="M791.935937,88.4135243 C796.731331,93.4918278 823.070774,117.831527 864.413656,89.5834029 C894.308801,66.302031 893.561944,15.8269686 890.690031,0.584439406 C889.689549,2.80273764 854.965427,78.8437859 791.935937,88.4135243 Z M890.686008,0.571537937 C890.319828,0.420271027 851.858339,-4.82344439 813.836016,19.6658705 C790.225422,34.8729172 787.104395,57.1300836 788.181651,71.9609768 C843.454747,65.7756204 889.43219,2.3153692 890.686008,0.571537937 Z" id="Path-1-Copy-9" fill="#97C554"></path>
                    <path d="M890.686008,0.571537937 C890.319828,0.420271027 851.858339,-4.82344439 813.836016,19.6658705 C790.225422,34.8729172 787.104395,57.1300836 788.181651,71.9609768 C843.454747,65.7756204 889.43219,2.3153692 890.686008,0.571537937 Z" id="Path-1-Copy-8" fill="#709B30"></path>
                    <path d="M61.659,85.445 L18.603,85.445 L18.603,62.513 L61.659,62.513 C72.423,62.513 77.922,67.661 77.922,74.33 C77.922,80.765 72.54,85.445 61.659,85.445 L61.659,85.445 Z M60.255,50.228 L18.603,50.228 L18.603,30.923 L60.255,30.923 C71.604,30.923 76.05,34.901 76.05,40.4 C76.05,45.431 70.902,50.228 60.255,50.228 L60.255,50.228 Z M71.253,56.078 C89.388,55.493 95.94,46.484 95.94,36.656 C95.94,25.892 87.399,17 66.573,17 L0,17 L0,99.134 L68.562,99.134 C85.644,99.134 98.397,91.997 98.397,76.67 C98.397,65.789 91.26,56.546 71.253,56.078 L71.253,56.078 Z M120.369,17 L120.369,99.134 L138.972,99.134 L138.972,17 L120.369,17 Z M214.412999,32.561 L255.362999,32.561 L255.362999,17 L154.859999,17 L154.859999,32.561 L195.809999,32.561 L195.809999,99.134 L214.412999,99.134 L214.412999,32.561 Z M271.250999,17 L271.250999,99.134 L289.853999,99.134 L289.853999,67.076 L333.494999,67.076 L333.494999,53.621 L289.853999,53.621 L289.853999,31.157 L360.755999,31.157 L360.755999,17 L271.250999,17 Z M375.824998,17 L375.824998,99.134 L394.427998,99.134 L394.427998,17 L375.824998,17 Z M438.044998,37.007 L499.703998,99.134 L520.763998,99.134 L520.763998,17 L502.394998,17 L502.394998,76.202 L443.192998,17 L419.558998,17 L419.558998,99.134 L438.044998,99.134 L438.044998,37.007 Z M545.894998,17 L545.894998,99.134 L636.920998,99.134 L636.920998,85.328 L564.497998,85.328 L564.497998,62.747 L607.904998,62.747 L607.904998,49.994 L564.497998,49.994 L564.497998,31.157 L636.920998,31.157 L636.920998,17 L545.894998,17 Z M761.501997,17 L736.931997,17 L705.575997,45.899 L674.453997,17 L649.532997,17 L693.290997,57.482 L647.894997,99.134 L672.464997,99.134 L705.341997,68.831 L738.101997,99.134 L763.139997,99.134 L717.626997,57.365 L761.501997,17 Z" id="BITFINEX-Copy-3" fill="#DDDDDD"></path>
                </g>
            </g>
        </g>
    </g>
</svg>