<?xml version="1.0" encoding="UTF-8" standalone="no"?>
<svg width="125px" height="15px" viewBox="0 0 125 15" version="1.1" xmlns="http://www.w3.org/2000/svg" xmlns:xlink="http://www.w3.org/1999/xlink" xmlns:sketch="http://www.bohemiancoding.com/sketch/ns">
    <!-- Generator: Sketch 3.4 (15588) - http://www.bohemiancoding.com/sketch -->
    <title>logo</title>
    <desc>Created with Sketch.</desc>
    <defs></defs>
    <g id="Page-1" stroke="none" stroke-width="1" fill="none" fill-rule="evenodd" sketch:type="MSPage">
        <g id="Artboard-1-Copy" sketch:type="MSArtboardGroup" transform="translate(-145.000000, -17.000000)">
            <g id="Navbar" sketch:type="MSLayerGroup" transform="translate(145.000000, 17.000000)">
                <g id="logo" sketch:type="MSShapeGroup">
                    <path d="M110.856314,12.4795628 C111.534085,13.1963307 115.257075,16.631963 121.100776,12.6447074 C125.327308,9.35778611 125.220726,2.23071315 124.814562,0.0810154954 C124.816371,0.0802058282 124.788605,0.0752871246 124.733459,0.0682389978 C124.539888,0.502055021 119.710567,11.1362115 110.856314,12.4795628 Z M124.730116,0.0678133911 C124.020525,-0.0221779924 118.959229,-0.444844463 113.951821,2.77583982 C110.614561,4.92231203 110.173411,8.06390559 110.325675,10.1572878 C118.070952,9.29106347 124.452715,0.456609785 124.730116,0.0678133911 Z" id="Path-1" fill="#A3BF00"></path>
                    <path d="M8.84438,12.1604631 L2.81654,12.1604631 L2.81654,8.94998308 L8.84438,8.94998308 C10.35134,8.94998308 11.1212,9.67070308 11.1212,10.6043631 C11.1212,11.5052631 10.36772,12.1604631 8.84438,12.1604631 L8.84438,12.1604631 Z M8.64782,7.23008308 L2.81654,7.23008308 L2.81654,4.52738308 L8.64782,4.52738308 C10.23668,4.52738308 10.85912,5.08430308 10.85912,5.85416308 C10.85912,6.55850308 10.1384,7.23008308 8.64782,7.23008308 L8.64782,7.23008308 Z M10.18754,8.04908308 C12.72644,7.96718308 13.64372,6.70592308 13.64372,5.33000308 C13.64372,3.82304308 12.44798,2.57816308 9.53234,2.57816308 L0.21212,2.57816308 L0.21212,14.0769231 L9.8108,14.0769231 C12.20228,14.0769231 13.9877,13.0777431 13.9877,10.9319631 C13.9877,9.40862308 12.98852,8.11460308 10.18754,8.04908308 L10.18754,8.04908308 Z M17.06378,2.57816308 L17.06378,14.0769231 L19.6682,14.0769231 L19.6682,2.57816308 L17.06378,2.57816308 Z M30.2299399,4.75670308 L35.9629399,4.75670308 L35.9629399,2.57816308 L21.8925199,2.57816308 L21.8925199,4.75670308 L27.6255199,4.75670308 L27.6255199,14.0769231 L30.2299399,14.0769231 L30.2299399,4.75670308 Z M38.1872599,2.57816308 L38.1872599,14.0769231 L40.7916799,14.0769231 L40.7916799,9.58880308 L46.9014199,9.58880308 L46.9014199,7.70510308 L40.7916799,7.70510308 L40.7916799,4.56014308 L50.7179599,4.56014308 L50.7179599,2.57816308 L38.1872599,2.57816308 Z M52.8276199,2.57816308 L52.8276199,14.0769231 L55.4320399,14.0769231 L55.4320399,2.57816308 L52.8276199,2.57816308 Z M61.5384198,5.37914308 L70.1706798,14.0769231 L73.1190798,14.0769231 L73.1190798,2.57816308 L70.5474198,2.57816308 L70.5474198,10.8664431 L62.2591398,2.57816308 L58.9503798,2.57816308 L58.9503798,14.0769231 L61.5384198,14.0769231 L61.5384198,5.37914308 Z M76.6374198,2.57816308 L76.6374198,14.0769231 L89.3810598,14.0769231 L89.3810598,12.1440831 L79.2418398,12.1440831 L79.2418398,8.98274308 L85.3188198,8.98274308 L85.3188198,7.19732308 L79.2418398,7.19732308 L79.2418398,4.56014308 L89.3810598,4.56014308 L89.3810598,2.57816308 L76.6374198,2.57816308 Z M106.8224,2.57816308 L103.3826,2.57816308 L98.9927597,6.62402308 L94.6356797,2.57816308 L91.1467397,2.57816308 L97.2728597,8.24564308 L90.9174197,14.0769231 L94.3572197,14.0769231 L98.9599997,9.83450308 L103.5464,14.0769231 L107.05172,14.0769231 L100.6799,8.22926308 L106.8224,2.57816308 Z" id="BITFINEX" fill="#FFFFFF"></path>
                </g>
            </g>
        </g>
    </g>
</svg>