<?xml version="1.0" encoding="utf-8"?>
<!DOCTYPE svg PUBLIC "-//W3C//DTD SVG 1.1//EN" "http://www.w3.org/Graphics/SVG/1.1/DTD/svg11.dtd">
<svg version="1.1" id="Layer_1" xmlns="http://www.w3.org/2000/svg" xmlns:xlink="http://www.w3.org/1999/xlink" x="0px" y="0px"
	 width="226.777px" height="226.777px" viewBox="0 0 226.777 226.777" enable-background="new 0 0 226.777 226.777"
	 xml:space="preserve">
<path fill="grey" d="M114.898,4.525c33.282,45.511,66.257,91.275,99.539,136.804c-33.191,26.972-66.335,53.998-99.432,81.077
	c-33.643-26.99-67.14-54.123-100.802-81.077C47.882,95.818,81.447,50.216,114.898,4.525 M55.797,136.016
	c14.676,11.692,29.171,23.584,43.884,35.224c0.036-31.639,0.144-63.295-0.055-94.951C85.185,96.323,70.329,116.051,55.797,136.016
	 M130.151,76.794c-0.073,31.441-0.073,62.894,0,94.356c14.207-11.875,28.702-23.387,42.963-35.189
	c-14.352-19.712-28.739-39.381-42.963-59.169V76.794z"/>
</svg>
