<?xml version="1.0" encoding="utf-8"?>
<!DOCTYPE svg PUBLIC "-//W3C//DTD SVG 1.1//EN" "http://www.w3.org/Graphics/SVG/1.1/DTD/svg11.dtd">
<svg version="1.1" id="Layer_1" xmlns="http://www.w3.org/2000/svg" xmlns:xlink="http://www.w3.org/1999/xlink" x="0px" y="0px"
	 width="226.777px" height="226.777px" viewBox="0 0 226.777 226.777" enable-background="new 0 0 226.777 226.777"
	 xml:space="preserve">
<g id="Layer_x0020_1">
	<g id="_2519465217856">
		<g>
			<circle fill="grey" opacity="0.4" cx="113.544" cy="112.233" r="87.237"/>
			<path fill="grey" opacity="0.8" d="M113.544,5.804c-58.779,0-106.429,47.65-106.429,106.428c0,58.779,47.65,106.429,106.429,106.429
				c58.778,0,106.429-47.65,106.429-106.429C219.972,53.454,172.322,5.804,113.544,5.804z M113.544,199.47
				c-48.18,0-87.237-39.058-87.237-87.238c0-48.179,39.057-87.237,87.237-87.237s87.237,39.058,87.237,87.237
				C200.781,160.413,161.723,199.47,113.544,199.47z"/>
		</g>
		<g>
			<path fill="grey" opacity="0.6" d="M126.108,145.432c-4.771,0-1.578,0-6.35,0c-4.773,0-8.447,0-13.218,0c-2.198,0-4.772-1.338-5.768-3.057
				c-4.189-7.243-8.309-14.522-12.428-21.73c-4.12-7.176-16.17-27.397-20.119-34.641c-1.75-3.228-0.378-6.97,4.807-6.97
				c4.738,0,3.57,0,8.309,0c4.703,0,8.205,0,12.908,0c2.198,0,4.772,1.167,5.837,2.987c4.085,7.176,18.334,31.414,22.521,38.624
				c4.188,7.208,7.244,12.702,11.569,19.912C135.687,143.063,128.375,145.432,126.108,145.432z"/>
			<path fill="grey" d="M104.136,145.432c4.772,0,7.897,0,12.634,0c4.772,0,8.48,0,13.254,0c2.194,0,4.77-1.338,5.768-3.057
				c4.152-7.243,8.307-14.522,12.427-21.73c4.12-7.176,6.936-11.743,10.849-18.985c1.785-3.228-1.339-5.459-5.596-5.529
				c-4.703-0.034-3.571,0-8.273,0c-4.704,0-8.24,0-12.942,0c-2.164,0-4.773,1.168-5.803,2.987
				c-4.12,7.176-8.343,14.317-12.498,21.527c-4.188,7.208-7.244,12.702-11.569,19.912
				C100.875,143.063,101.87,145.432,104.136,145.432z"/>
		</g>
	</g>
</g>
</svg>
