<?xml version="1.0" encoding="utf-8"?>
<!DOCTYPE svg PUBLIC "-//W3C//DTD SVG 1.1//EN" "http://www.w3.org/Graphics/SVG/1.1/DTD/svg11.dtd">
<svg version="1.1" id="Layer_1" xmlns="http://www.w3.org/2000/svg" xmlns:xlink="http://www.w3.org/1999/xlink" x="0px" y="0px"
	 width="226.777px" height="226.777px" viewBox="0 0 226.777 226.777" enable-background="new 0 0 226.777 226.777"
	 xml:space="preserve">
<g>
	<path fill="grey" d="M127.623,110.014l22.809-22.187c0,0,4.046-8.184,0-12.15c-4.544-4.455-11.398-1.822-11.398-1.822
		l-24.515,24.087L36.961,23.888c0,0-5.518-2.063-7.428-1.394c-5.94,2.077-5.94,5.445-5.94,5.445l0.002,124.794l0.062-0.007
		c-9.349,3.639-15.985,12.704-15.985,23.34c0,13.841,11.22,25.06,25.059,25.06c13.84,0,25.059-11.219,25.059-25.06
		c0-12.345-8.934-22.582-20.684-24.653l4.153,3.594V51.984l59.47,58.5c-9.663,8.791-21.486,20.209-25.652,26.99
		c-3.223,5.248-4.53,11.921-4.53,17.633c0,25.415,18.781,46.019,44.196,46.019c25.416,0,42.373-20.604,42.373-46.019
		c0-5.6-1.192-12.099-4.2-17.282C148.886,130.885,137.058,118.979,127.623,110.014z M41.258,176.066
		c0,4.701-3.825,8.527-8.528,8.527c-4.702,0-8.527-3.826-8.527-8.527c0-4.702,3.825-8.526,8.527-8.526
		C37.433,167.54,41.258,171.364,41.258,176.066z M114.743,183.045c-14.889,0-26.114-12.01-26.114-27.938
		c0-3.08,0.745-6.364,1.854-8.168c2.69-4.381,12.99-14.59,23.975-24.519c10.512,9.967,20.305,20.148,22.821,24.482
		c1.065,1.837,1.754,5.058,1.754,8.204C139.033,168.563,131.432,183.045,114.743,183.045z"/>
	<path fill="grey" d="M194.831,22.361c-13.841,0-25.06,11.22-25.06,25.06c0,10.332,6.255,19.199,15.185,23.031l-0.31,124.605
		c0,0,2.908,8.556,9.625,8.556c4.852,0,8.322-6.807,8.322-6.807l0.165-125.628c9.948-3.321,17.13-12.693,17.13-23.758
		C219.888,33.581,208.669,22.361,194.831,22.361z M194.831,55.947c-4.703,0-8.53-3.825-8.53-8.526c0-4.702,3.827-8.527,8.53-8.527
		c4.701,0,8.525,3.825,8.525,8.527C203.356,52.123,199.532,55.947,194.831,55.947z"/>
</g>
</svg>
