<?xml version="1.0" encoding="utf-8"?>
<!DOCTYPE svg PUBLIC "-//W3C//DTD SVG 1.1//EN" "http://www.w3.org/Graphics/SVG/1.1/DTD/svg11.dtd">
<svg version="1.1" id="Layer_1" xmlns="http://www.w3.org/2000/svg" xmlns:xlink="http://www.w3.org/1999/xlink" x="0px" y="0px"
	 width="226.777px" height="226.777px" viewBox="0 0 226.777 226.777" enable-background="new 0 0 226.777 226.777"
	 xml:space="preserve">
<path fill="grey" d="M223.599,167.699l-29.456-44.186l-42.041-74.473c-0.844-1.496-2.443-2.399-4.167-2.342
	c-1.717,0.056-3.262,1.062-4.007,2.609l-29.478,61.215L86.033,71.079c-0.878-1.218-2.296-1.941-3.796-1.916
	c-1.502,0.017-2.901,0.765-3.751,2.003l-41.923,61.089L3.509,167.299c-1.264,1.339-1.61,3.303-0.88,4.993
	c0.73,1.691,2.395,2.786,4.236,2.786h213.034c0.003,0,0.005,0,0.008,0c2.548,0,4.613-2.065,4.613-4.613
	C224.52,169.426,224.177,168.469,223.599,167.699z M149.274,165.85c-0.159-0.138-0.335-0.261-0.534-0.357l-30.203-14.758
	l27.884-32.353l33.462,47.468H149.274z M56.855,165.85l-12.328-28.895l3.485-5.077c0.189,0.045,0.383,0.071,0.579,0.071
	c0.411,0,0.828-0.106,1.208-0.327l27.979-16.266l9.434,10.697L57.365,165.85H56.855z M90.535,129.648l21.021,22.006L99.274,165.25
	h-35.44L90.535,129.648z M115.413,154.566l23.094,11.284h-33.289L115.413,154.566z M144.996,68.698l-1.299,45.47l-25.762,29.89
	l-0.376-20.565c0.784-0.457,1.435-1.133,1.841-1.977l24.389-50.65L144.996,68.698z M186.164,131.528l-2.283,31.64l-31.822-45.144
	l31.572,7.167L186.164,131.528z M181.425,119.753l-32.858-7.458l1.381-48.3L181.425,119.753z M111.499,122.21
	c0.342,0.475,0.768,0.866,1.245,1.174l0.419,22.982l-21.075-22.062l-11.298-12.812l3.105-27.596L111.499,122.21z M78.679,87.191
	l-2.658,23.619l-22.547,13.108L78.679,87.191z M41.011,140.984l10.61,24.866H17.559L41.011,140.984z M188.514,165.85l2.224-30.81
	l20.54,30.81H188.514z"/>
</svg>
