<?xml version="1.0" encoding="utf-8"?>
<!DOCTYPE svg PUBLIC "-//W3C//DTD SVG 1.1//EN" "http://www.w3.org/Graphics/SVG/1.1/DTD/svg11.dtd">
<svg version="1.1" id="Layer_1" xmlns="http://www.w3.org/2000/svg" xmlns:xlink="http://www.w3.org/1999/xlink" x="0px" y="0px"
	 width="226.777px" height="226.777px" viewBox="0 0 226.777 226.777" enable-background="new 0 0 226.777 226.777"
	 xml:space="preserve">
<g id="Page-1_2_">
	<g id="Artboard">
		<g id="Page-1" transform="translate(1.000000, 1.000000)">
			<g id="Group">
				<g id="Stroke-1">
					<path fill="grey" d="M99.495,180.388c-2.485,0-4.5-2.015-4.5-4.5v-73.688L16.516,42.733v133.155c0,2.485-2.015,4.5-4.5,4.5
						s-4.5-2.015-4.5-4.5V33.677c0-1.708,0.967-3.27,2.498-4.03c1.531-0.762,3.358-0.589,4.72,0.443l87.479,66.287
						c1.123,0.851,1.782,2.178,1.782,3.586v75.924C103.995,178.374,101.98,180.388,99.495,180.388z"/>
				</g>
				<g id="Stroke-3">
					<path fill="grey" d="M213.888,180.388c-2.485,0-4.5-2.015-4.5-4.5V42.733l-78.479,59.468v73.688c0,2.485-2.015,4.5-4.5,4.5
						s-4.5-2.015-4.5-4.5V99.965c0-1.409,0.659-2.736,1.782-3.586l87.479-66.287c1.361-1.032,3.189-1.204,4.721-0.443
						c1.529,0.76,2.497,2.321,2.497,4.03v142.211C218.388,178.374,216.374,180.388,213.888,180.388z"/>
				</g>
			</g>
		</g>
		<g id="Page-1_1_" transform="translate(1.000000, 1.000000)">
			<g id="Group_1_">
				<g id="Stroke-1_1_">
					<path fill="grey" d="M99.495,180.388c-2.485,0-4.5-2.015-4.5-4.5v-73.688L16.516,42.733v133.155c0,2.485-2.015,4.5-4.5,4.5
						s-4.5-2.015-4.5-4.5V33.677c0-1.708,0.967-3.27,2.498-4.03c1.531-0.762,3.358-0.589,4.72,0.443l87.479,66.287
						c1.123,0.851,1.782,2.178,1.782,3.586v75.924C103.995,178.374,101.98,180.388,99.495,180.388z"/>
				</g>
				<g id="Stroke-3_1_">
					<path fill="grey" d="M213.888,180.388c-2.485,0-4.5-2.015-4.5-4.5V42.733l-78.479,59.468v73.688c0,2.485-2.015,4.5-4.5,4.5
						s-4.5-2.015-4.5-4.5V99.965c0-1.409,0.659-2.736,1.782-3.586l87.479-66.287c1.361-1.032,3.189-1.204,4.721-0.443
						c1.529,0.76,2.497,2.321,2.497,4.03v142.211C218.388,178.374,216.374,180.388,213.888,180.388z"/>
				</g>
			</g>
		</g>
	</g>
</g>
</svg>
