<?xml version="1.0" encoding="utf-8"?>
<!-- Generator: Adobe Illustrator 16.0.0, SVG Export Plug-In . SVG Version: 6.00 Build 0)  -->
<!DOCTYPE svg PUBLIC "-//W3C//DTD SVG 1.1//EN" "http://www.w3.org/Graphics/SVG/1.1/DTD/svg11.dtd">
<svg version="1.1" id="Layer_1" xmlns="http://www.w3.org/2000/svg" xmlns:xlink="http://www.w3.org/1999/xlink" x="0px" y="0px"
	 width="226.777px" height="226.777px" viewBox="0 0 226.777 226.777" enable-background="new 0 0 226.777 226.777"
	 xml:space="preserve">
<g>
	<path fill="none" d="M72.256,40.648c-8.953,0-16.236,7.283-16.236,16.236c0,8.952,7.283,16.235,16.236,16.235
		c8.952,0,16.235-7.283,16.235-16.235C88.491,47.931,81.208,40.648,72.256,40.648z"/>
	<path fill="gray" d="M72.256,31.989c-13.749,0-24.895,11.146-24.895,24.895c0,13.748,11.146,24.895,24.895,24.895
		s24.895-11.146,24.895-24.895C97.151,43.135,86.005,31.989,72.256,31.989z M72.256,73.119c-8.953,0-16.236-7.283-16.236-16.235
		c0-8.953,7.283-16.236,16.236-16.236c8.952,0,16.235,7.283,16.235,16.236C88.491,65.836,81.208,73.119,72.256,73.119z"/>
</g>
<g>
	<path fill="none" d="M139.363,39.565c-15.518,0-28.142,12.624-28.142,28.142c0,13.984,10.253,25.613,23.637,27.776l21.281-21.282
		l7.021,8.499c2.746-4.344,4.345-9.484,4.345-14.993C167.506,52.189,154.881,39.565,139.363,39.565z"/>
	<path fill="none" d="M146.774,94.851c3.759-1.027,7.206-2.816,10.166-5.19l-1.883-2.471L146.774,94.851z"/>
	<path fill="gray" d="M171.393,85.82l-4.972,0.829l-3.261-3.949c-1.677,2.651-3.782,5.004-6.221,6.961l5.254,6.896
		C165.911,93.613,169.042,89.969,171.393,85.82z"/>
</g>
<g>
	<path fill="gray" d="M112.574,4.929c-59.33,0-107.425,48.096-107.425,107.425c0,2.644,0.1,5.265,0.288,7.862v0.001
		c4.027,55.658,50.453,99.562,107.138,99.562c59.33,0,107.425-48.096,107.425-107.425S171.904,4.929,112.574,4.929z
		 M112.574,211.121c-42.31,0-78.486-26.744-92.524-64.214c1.319,0.065,2.935,0.145,4.767,0.232c2.064,1.845,5.325,2.079,8.567,2.079
		c2.724,0,5.462-0.165,7.493-1.31c-0.003,0.055-0.007,0.115-0.007,0.165c0,7.422,5.403,8.028,10.734,8.028
		c5.169,0,10.392-0.589,10.703-7.395c13.969,0.906,33.465,4.678,34.125,9.738c0.542,4.147-8.385,8.436-12.087,11.364
		c-3.968,3.141-18.76,17.679,0.765,21.309c20.243,3.763,51.732,11.398,61.753,13.86
		C136.177,208.948,124.625,211.121,112.574,211.121z M31.544,139.428c0.325-1.671,0.97-4.061,1.838-6.899
		c0.892,2.913,1.548,5.355,1.864,7.033C33.973,139.511,32.736,139.468,31.544,139.428z M49.584,147.386
		c0.182-1.455,0.802-3.907,1.708-6.941c0.212,0.017,0.424,0.032,0.636,0.047c0.896,3.01,1.511,5.442,1.693,6.895
		c-0.493,0.033-1.148,0.057-2.018,0.057C50.733,147.443,50.077,147.42,49.584,147.386z M198.893,101.802l-9.741,1.624l-12.988-18.4
		l-4.771,0.795c-2.352,4.149-5.482,7.793-9.199,10.738l1.522,1.997l7.576-5.412l13.529,19.212l10.283-2.165l14.944,18.093
		c-5.035,30.925-24.48,57.071-51.198,71.303c-15.968-7.084-74.604-13.674-73.784-18.592c0.896-5.379,20.204-12.987,20.204-23.991
		c0-9.047-21.889-13.513-44.144-15.718c-2.804-10.76-9.524-27.729-9.524-27.729s-4.996,12.616-8.171,22.989
		c-2.362-10.464-10.049-29.873-10.049-29.873s-9.187,23.194-10.558,32.538c-2.166-0.037-3.969-0.055-5.323-0.062
		c-1.72-6.096-2.868-12.43-3.382-18.938l8.347-0.008l16.776-29.224l11.906-0.542l9.741,31.931l22.73-5.412l5.953,2.706
		l-11.906,14.07l7.035,5.412l24.354-29.765l15.153,6.342l12.257-11.337l10.308-9.532l8.283-7.662l1.883,2.471
		c2.438-1.957,4.544-4.31,6.221-6.961l-7.021-8.499l-21.281,21.282c-13.384-2.163-23.637-13.792-23.637-27.776
		c0-15.518,12.624-28.142,28.142-28.142s28.143,12.624,28.143,28.142c0,5.509-1.599,10.649-4.345,14.993l3.261,3.949l4.972-0.829
		c3.032-5.348,4.771-11.526,4.771-18.113c0-20.324-16.477-36.801-36.801-36.801c-20.323,0-36.8,16.477-36.8,36.801
		c0,16.254,10.543,30.039,25.161,34.911l-4.055,4.055l-17.318-8.523l-11.906,15.289l-9.2-5.142l-18.4,4.059l-9.2-29.495h-22.73
		l-16.235,28.135h-4.854c0.731-53.835,44.744-97.406,98.749-97.406c54.46,0,98.766,44.306,98.766,98.766
		c0,1.521-0.04,3.033-0.108,4.537v-0.002L198.893,101.802z"/>
	<path fill="gray" d="M181.37,121.938c-2.438-0.386-3.917-1.761-4.873-3.213c-0.376-5.254-6.193-16.763-16.773-18.435
		c-5.742-0.908-6.193-7.29-6.923-7.29c-1.255,0-0.411,6.041-5.676,7.306c-13.89,3.338-18.039,13.666-18.039,18.941
		c0,6.124,5.426,9.648,13.434,10.409c3.622,0.344,4.52,11.391,5.218,22.326c-2.389-2.024-5.287-3.57-8.675-4.105
		c-5.742-0.908-6.193-7.29-6.923-7.29c-1.254,0-0.411,6.04-5.676,7.306c-13.889,3.338-18.039,13.666-18.039,18.94
		c0,8.521,10.618,11.096,23.715,11.096c8.687,0,16.277-1.135,20.409-4.382c5.212-1.108,4.291-12.938,4.268-24.069
		c2.053,0.942,4.537,1.558,7.351,1.825c7.227,0.688,3.608,22.403,9.199,22.335c9.021-0.111-1.973-21.647,12.498-22.525
		c7.44-0.451,12.302-4.39,12.302-10.219C198.166,135.926,192.315,123.668,181.37,121.938z M137.295,118.139
		c0-3.999,6.965-10.488,15.557-10.488c8.591,0,15.557,6.489,15.557,10.488c0,4-6.966,2.912-15.557,2.912
		C144.26,121.052,137.295,122.139,137.295,118.139z M132.19,168.638c-8.592,0-15.557,1.087-15.557-2.912
		c0-4,6.965-10.488,15.557-10.488s15.556,6.488,15.556,10.488C147.746,169.725,140.782,168.638,132.19,168.638z M174.499,142.699
		c-8.593,0-15.557,1.088-15.557-2.912c0-3.999,6.964-10.488,15.557-10.488c8.592,0,15.557,6.489,15.557,10.488
		C190.055,143.787,183.091,142.699,174.499,142.699z"/>
</g>
</svg>
