<?xml version="1.0" encoding="UTF-8" standalone="no"?>
<svg width="138px" height="30px" viewBox="0 0 138 30" version="1.1" xmlns="http://www.w3.org/2000/svg" xmlns:xlink="http://www.w3.org/1999/xlink" xmlns:sketch="http://www.bohemiancoding.com/sketch/ns">
    <!-- Generator: Sketch 3.5.2 (25235) - http://www.bohemiancoding.com/sketch -->
    <title>logo</title>
    <desc>Created with Sketch.</desc>
    <defs></defs>
    <g id="Page-1" stroke="none" stroke-width="1" fill="none" fill-rule="evenodd" sketch:type="MSPage">
        <g id="New" sketch:type="MSLayerGroup" transform="translate(-33.000000, -156.000000)">
            <g id="logo" transform="translate(33.000000, 156.000000)" sketch:type="MSShapeGroup">
                <path d="M108.833345,25.7515119 C110.231106,27.2306295 117.908522,34.3198623 129.959137,26.0922533 C138.672969,19.3112712 138.455275,4.60979669 137.618171,0.17022507 C137.32655,0.816331351 127.205169,22.9642095 108.833345,25.7515119 Z M137.616998,0.16646736 C137.510264,0.122409037 126.299516,-1.40488672 115.216776,5.72792344 C108.334764,10.1571603 107.425048,16.6398302 107.739046,20.9595078 C123.850038,19.1579477 137.251535,0.674379379 137.616998,0.16646736 Z" id="Path-1-Copy-7" fill="#97C554"></path>
                <path d="M137.616998,0.16646736 C137.510264,0.122409037 126.299516,-1.40488672 115.216776,5.72792344 C108.334764,10.1571603 107.425048,16.6398302 107.739046,20.9595078 C123.850038,19.1579477 137.251535,0.674379379 137.616998,0.16646736 Z" id="Path-1-Copy-6" fill="#709B30"></path>
                <path d="M17.9723543,24.8868932 L5.4223991,24.8868932 L5.4223991,18.2076699 L17.9723543,18.2076699 C21.109843,18.2076699 22.7126906,19.7070874 22.7126906,21.6495146 C22.7126906,23.5237864 21.1439462,24.8868932 17.9723543,24.8868932 L17.9723543,24.8868932 Z M17.5631166,14.6295146 L5.4223991,14.6295146 L5.4223991,9.00669903 L17.5631166,9.00669903 C20.8711211,9.00669903 22.1670404,10.1653398 22.1670404,11.7669903 C22.1670404,13.2323301 20.6665022,14.6295146 17.5631166,14.6295146 L17.5631166,14.6295146 Z M20.7688117,16.3333981 C26.0547982,16.1630097 27.964574,13.5390291 27.964574,10.6765049 C27.964574,7.54135922 25.4750448,4.95145631 19.4046861,4.95145631 L0,4.95145631 L0,28.8739806 L19.9844395,28.8739806 C24.9634978,28.8739806 28.6807399,26.7952427 28.6807399,22.331068 C28.6807399,19.1618447 26.6004484,16.4697087 20.7688117,16.3333981 L20.7688117,16.3333981 Z M36.0641925,4.95145631 L36.0641925,28.8739806 L41.4865916,28.8739806 L41.4865916,19.536699 L54.2070624,19.536699 L54.2070624,15.617767 L41.4865916,15.617767 L41.4865916,9.07485437 L62.1530938,9.07485437 L62.1530938,4.95145631 L36.0641925,4.95145631 Z M97.9624656,4.95145631 L90.8008064,4.95145631 L81.6611651,13.3686408 L72.5897302,4.95145631 L65.3257616,4.95145631 L78.0803355,16.7423301 L64.8483176,28.8739806 L72.0099768,28.8739806 L81.5929589,20.0478641 L91.1418378,28.8739806 L98.4399095,28.8739806 L85.1737885,16.7082524 L97.9624656,4.95145631 Z" id="BITFINEX-Copy-2" fill="#FFFFFF"></path>
            </g>
        </g>
    </g>
</svg>