<?xml version="1.0" encoding="utf-8"?>
<!DOCTYPE svg PUBLIC "-//W3C//DTD SVG 1.1//EN" "http://www.w3.org/Graphics/SVG/1.1/DTD/svg11.dtd">
<svg version="1.1" id="Layer_1" xmlns="http://www.w3.org/2000/svg" xmlns:xlink="http://www.w3.org/1999/xlink" x="0px" y="0px"
	 width="226.777px" height="226.777px" viewBox="0 0 226.777 226.777" enable-background="new 0 0 226.777 226.777"
	 xml:space="preserve">
<g>
	<path opacity="0.8" fill="grey" d="M220.631,113.171c0-0.097-0.008-0.191-0.01-0.288c-0.005-0.396-0.016-0.791-0.038-1.183
		c-0.016-0.261-0.041-0.52-0.063-0.779c-0.021-0.237-0.043-0.474-0.071-0.709c-0.033-0.284-0.073-0.566-0.116-0.848
		c-0.032-0.212-0.068-0.423-0.106-0.634c-0.052-0.286-0.105-0.572-0.167-0.856c-0.045-0.208-0.098-0.414-0.147-0.621
		c-0.068-0.28-0.134-0.561-0.213-0.839c-0.07-0.249-0.152-0.495-0.23-0.743c-0.13-0.41-0.27-0.818-0.422-1.223
		c-0.102-0.272-0.202-0.545-0.313-0.815c-0.088-0.214-0.186-0.426-0.28-0.639c-0.119-0.268-0.241-0.536-0.37-0.801
		c-0.1-0.205-0.203-0.409-0.309-0.612c-0.144-0.276-0.293-0.551-0.447-0.825c-0.105-0.189-0.211-0.377-0.322-0.565
		c-0.179-0.301-0.368-0.6-0.56-0.897c-0.102-0.158-0.198-0.317-0.304-0.474c-0.295-0.44-0.603-0.877-0.927-1.31
		c-0.102-0.135-0.213-0.268-0.316-0.402c-0.233-0.3-0.468-0.601-0.715-0.897c-0.175-0.21-0.358-0.418-0.54-0.626
		c-0.169-0.193-0.336-0.387-0.511-0.578c-0.022-0.026-0.048-0.051-0.071-0.077c-0.146-0.16-0.292-0.32-0.442-0.479
		c-0.055-0.059-0.108-0.119-0.165-0.178c-0.117-0.122-0.229-0.25-0.35-0.368c-0.266-0.274-0.535-0.547-0.813-0.817
		c-0.046-0.05-0.087-0.104-0.134-0.153l-0.127-0.129l0.017,0.051c-1.313-1.258-2.756-2.479-4.334-3.659
		c-4.318-3.159-9.28-5.929-14.372-8.442c-0.014,0.037-0.027,0.072-0.041,0.109c-0.029-0.015-0.057-0.03-0.087-0.045l-0.001,0.003
		c-2.917-1.424-5.889-2.785-8.828-4.128c-2.702-1.236-5.423-2.486-8.009-3.749c0.006-0.018,0.012-0.035,0.018-0.053
		c-5.348-2.643-10.182-5.285-12.952-8.056c-4.06-4.124-7.99-12.63-11.793-20.943c-0.872-1.96-1.79-3.919-2.714-5.878
		c-0.062-0.13-0.123-0.261-0.185-0.392c-0.108-0.23-0.216-0.46-0.324-0.69l-0.004,0.007c-2.793-5.866-5.798-11.586-9.404-16.441
		c-6.766-9.214-14.822-13.854-23.908-13.854c-7.54,0-14.371,3.222-20.364,9.602c0.086-0.028,0.138-0.041,0.179-0.049
		c-0.119,0.108-0.922,0.868-2.29,2.613c-0.483,0.587-0.962,1.189-1.433,1.819c-3.158,4.317-5.929,9.279-8.442,14.371
		c0.009,0.003,0.019,0.007,0.028,0.01c-0.009,0.019-0.019,0.036-0.028,0.055l0.01,0.003c-1.449,2.952-2.833,5.965-4.198,8.954
		c-1.229,2.667-2.465,5.365-3.714,7.935c-0.007-0.002-0.015-0.005-0.023-0.008c-2.643,5.348-5.285,10.182-8.056,12.952
		c-2.778,2.735-7.548,5.411-12.904,8.029c-2.604,1.266-5.337,2.519-8.04,3.764c-1.958,0.87-3.915,1.788-5.872,2.711
		c-0.132,0.062-0.264,0.124-0.396,0.186c-0.231,0.109-0.461,0.216-0.692,0.325l0.008,0.004c-5.866,2.793-11.586,5.799-16.441,9.404
		c-9.215,6.767-13.855,14.757-13.855,23.845c0,0.522,0.019,1.041,0.05,1.556c0.011,0.184,0.03,0.365,0.045,0.547
		c0.026,0.326,0.056,0.65,0.095,0.973c0.027,0.229,0.06,0.457,0.094,0.684c0.04,0.266,0.083,0.529,0.131,0.792
		c0.047,0.26,0.096,0.519,0.151,0.776c0.044,0.205,0.094,0.409,0.144,0.613c0.073,0.304,0.146,0.608,0.23,0.909
		c0.005,0.019,0.012,0.037,0.017,0.056c1.788,6.301,6.09,12.005,12.897,17.002c2.699,2.005,5.669,3.819,8.778,5.521
		c1.87,1.037,3.786,2.03,5.721,2.986c0.004-0.01,0.007-0.02,0.011-0.03c2.934,1.434,5.924,2.804,8.882,4.154
		c8.313,3.802,16.82,7.733,20.944,11.793c4.06,4.06,7.991,12.631,11.793,20.879c1.885,4.095,3.804,8.271,5.887,12.273
		c2.065,3.986,4.291,7.796,6.808,11.185c6.767,9.15,14.821,13.854,23.844,13.854c6.659,0,12.763-2.517,18.228-7.499
		c2.027-1.814,3.968-3.957,5.81-6.421c3.157-4.317,5.929-9.279,8.442-14.371c-0.055-0.021-0.107-0.04-0.163-0.061
		c0.012-0.022,0.023-0.044,0.035-0.067l-0.011-0.004c1.449-2.952,2.833-5.965,4.198-8.954c1.221-2.647,2.447-5.325,3.688-7.88
		c0.017,0.006,0.034,0.012,0.051,0.018c2.642-5.349,5.284-10.182,8.055-12.952c4.124-4.06,12.631-7.991,20.943-11.793
		c1.931-0.858,3.86-1.764,5.791-2.674c0.167-0.078,0.335-0.156,0.502-0.235c0.223-0.105,0.444-0.208,0.667-0.313l-0.008-0.004
		c5.866-2.793,11.586-5.798,16.441-9.404c4.579-3.386,8.044-7.095,10.364-11.086c0.822-1.411,1.492-2.86,2.024-4.345
		c0.031-0.086,0.068-0.17,0.099-0.256c0.085-0.247,0.153-0.497,0.23-0.745c0.09-0.288,0.188-0.574,0.267-0.864
		c0.011-0.04,0.018-0.081,0.028-0.121c0.557-2.082,0.842-4.226,0.842-6.427c0-0.012-0.001-0.023-0.001-0.035
		C220.63,113.19,220.631,113.181,220.631,113.171z M42.396,127.967c-0.008-0.004-0.015-0.008-0.023-0.012l0.01-0.027
		c0,0-6.15-3.015-10.676-6.493c-2.35-1.874-4.076-3.823-4.847-5.862c-0.338-1.012-0.492-2.004-0.421-2.997
		c0.031-0.324,0.077-0.641,0.155-0.951l-0.021,0.01c0.24-1.095,0.779-2.204,1.664-3.353c0.418-0.283,0.83-0.573,1.257-0.847
		c1.611-1.095,3.222-2.062,4.833-3.028l1.224-0.709l1.29-0.774c0.773-0.515,1.611-0.966,2.449-1.418
		c1.15-0.654,2.32-1.27,3.499-1.875c1.728,5.204,3.009,10.017,3.009,13.604C45.798,117.12,44.32,122.369,42.396,127.967z
		 M108.187,28.264c0.016-0.014,0.031-0.028,0.046-0.042c0.279-0.257,0.56-0.496,0.842-0.721c0.039-0.031,0.078-0.064,0.117-0.095
		c0.289-0.226,0.58-0.433,0.873-0.622c0.058-0.037,0.116-0.069,0.174-0.105c0.235-0.145,0.471-0.277,0.709-0.398
		c0.079-0.041,0.159-0.082,0.238-0.12c0.25-0.117,0.501-0.217,0.753-0.306c0.125-0.038,0.25-0.083,0.374-0.115
		c0.042-0.012,0.084-0.02,0.126-0.031c0.802-0.198,1.591-0.27,2.38-0.203c1.475,0.172,2.907,0.875,4.3,1.979
		c0.24,0.358,0.489,0.708,0.723,1.073c1.096,1.611,2.062,3.222,3.029,4.833l0.709,1.225l0.772,1.288
		c0.516,0.774,0.967,1.611,1.418,2.45c0.654,1.15,1.271,2.32,1.875,3.499c-5.204,1.728-10.017,3.01-13.604,3.01
		c-3.873,0-9.1-1.469-14.676-3.383C102.135,36.063,105.055,31.177,108.187,28.264z M126.136,189.896
		c-0.668,1.133-1.425,2.353-2.235,3.547c-2.406,3.499-4.938,6.1-7.613,7.043c-0.118,0.036-0.237,0.079-0.354,0.11
		c-0.031,0.009-0.062,0.018-0.092,0.025c-0.828,0.212-1.646,0.286-2.467,0.211c-1.46-0.173-2.875-0.856-4.248-1.929
		c-0.251-0.374-0.511-0.74-0.754-1.121c-1.096-1.609-2.062-3.222-3.029-4.832l-0.709-1.226l-0.774-1.287
		c-0.515-0.773-0.966-1.612-1.418-2.45c-0.654-1.149-1.27-2.32-1.874-3.499c5.204-1.729,10.017-3.01,13.603-3.01
		c3.877,0,9.109,1.472,14.691,3.388C127.973,186.617,127.064,188.307,126.136,189.896z M168.561,134.922
		c-0.063,0.032-0.13,0.062-0.193,0.095c-1.676,0.838-3.417,1.74-5.09,2.707c-1.678,0.967-3.353,1.934-4.963,3.029
		c-1.611,1.03-3.224,2.189-4.704,3.416c-1.483,1.223-2.9,2.512-4.188,3.994c0.15-0.13,0.311-0.246,0.463-0.374
		c-0.176,0.168-0.357,0.332-0.528,0.503c-0.012,0.012-0.023,0.024-0.035,0.036c-0.01,0.01-0.02,0.019-0.029,0.028
		c-0.024,0.024-0.047,0.052-0.071,0.077c-0.568,0.569-1.117,1.168-1.655,1.785c-0.059,0.067-0.118,0.134-0.177,0.202
		c-1.157,1.347-2.248,2.797-3.286,4.337c-0.004,0.005-0.007,0.01-0.01,0.014c-0.523,0.777-1.035,1.574-1.535,2.393
		c-0.025,0.041-0.049,0.083-0.074,0.123c-0.457,0.753-0.906,1.521-1.348,2.305c-0.05,0.088-0.101,0.175-0.15,0.264
		c-0.413,0.738-0.818,1.491-1.22,2.254c-0.158,0.299-0.314,0.602-0.471,0.904c-0.238,0.462-0.475,0.927-0.71,1.396
		c-0.349,0.694-0.695,1.397-1.039,2.107c-0.13,0.267-0.26,0.533-0.389,0.803c-0.106,0.222-0.214,0.438-0.32,0.66
		c-7.954-2.852-15.595-5.061-22.666-5.124c-6.873,0-14.167,2.091-21.817,4.769c-0.032-0.063-0.062-0.129-0.094-0.192
		c-0.837-1.677-1.74-3.417-2.706-5.091c-0.967-1.676-1.933-3.352-3.028-4.962c-1.031-1.612-2.191-3.222-3.416-4.704
		c-1.225-1.483-2.513-2.9-3.996-4.189c0.012,0.015,0.023,0.029,0.036,0.044c-0.056-0.057-0.109-0.117-0.165-0.173
		c-5.017-5.019-11.962-8.815-19.678-12.481c2.846-7.945,5.05-15.577,5.114-22.64c0-6.873-2.09-14.167-4.769-21.816
		c0.063-0.032,0.129-0.062,0.192-0.094c1.675-0.838,3.416-1.74,5.091-2.707c1.676-0.966,3.351-1.934,4.962-3.028
		c1.611-1.032,3.223-2.191,4.705-3.416c1.482-1.224,2.9-2.513,4.188-3.996c-0.013,0.011-0.027,0.021-0.04,0.033
		c0.055-0.054,0.114-0.106,0.168-0.161c5.017-5.017,8.815-11.963,12.482-19.678c7.946,2.847,15.576,5.05,22.639,5.113
		c6.874,0,14.168-2.089,21.816-4.768c0.032,0.063,0.062,0.129,0.094,0.192c0.838,1.676,1.74,3.416,2.708,5.092
		c0.966,1.675,1.932,3.351,3.028,4.961c1.03,1.61,2.189,3.223,3.416,4.705c1.223,1.481,2.512,2.899,3.994,4.188
		c-0.139-0.16-0.262-0.331-0.398-0.493c0.197,0.207,0.391,0.42,0.592,0.622c0.007,0.007,0.016,0.014,0.022,0.021
		c0.015,0.014,0.027,0.03,0.042,0.044c0.578,0.579,1.191,1.135,1.82,1.683c0.061,0.052,0.121,0.105,0.182,0.157
		c1.335,1.147,2.775,2.23,4.305,3.263c0.024,0.017,0.048,0.033,0.072,0.05c0.769,0.517,1.556,1.023,2.366,1.518
		c0.049,0.03,0.1,0.059,0.149,0.089c0.681,0.413,1.377,0.819,2.084,1.219c0.208,0.118,0.415,0.237,0.625,0.354
		c0.636,0.353,1.28,0.702,1.935,1.047c0.539,0.285,1.088,0.567,1.639,0.849c0.026,0.013,0.053,0.027,0.079,0.04
		c1.404,0.715,2.835,1.422,4.303,2.121c-2.852,7.956-5.061,15.594-5.124,22.667C163.792,119.978,165.883,127.273,168.561,134.922z
		 M200.006,118.041c-0.428,0.289-0.849,0.586-1.286,0.866c-1.609,1.095-3.222,2.061-4.832,3.028l-1.225,0.709l-1.288,0.772
		c-0.773,0.517-1.612,0.967-2.45,1.417c-1.149,0.654-2.32,1.271-3.499,1.875c-1.727-5.203-3.009-10.015-3.009-13.603
		c0-3.889,1.48-9.143,3.406-14.747c0.008,0.004,0.016,0.008,0.024,0.012l-0.016,0.042c1.061,0.542,2.1,1.09,3.108,1.644
		c2.074,1.152,4.844,2.803,7.23,4.595c2.24,1.728,3.966,3.52,4.906,5.387C202.194,112.773,202.115,115.29,200.006,118.041z"/>
	<g>
		<path fill="grey" d="M80.725,189.07l-3.097-6.621c-0.02-0.045-0.041-0.088-0.061-0.132c-1.224-2.707-2.449-5.412-3.737-7.989
			c-0.918,0.3-1.827,0.582-2.729,0.852c-2.275,0.668-5.647,1.558-8.834,2.032c-3.149,0.417-5.897,0.315-8.003-0.555
			c-2.448-1.195-3.975-3.074-4.35-6.409c0.088-0.467,0.168-0.933,0.265-1.398c0.387-1.869,0.774-3.738,1.29-5.544l0.387-1.352
			l0.387-1.419c0.257-0.901,0.515-1.804,0.772-2.706c1.031-3.609,2.32-7.217,3.609-10.825c1.289-3.608,2.642-7.219,3.801-10.892
			c0.581-1.869,1.161-3.672,1.675-5.542c0.517-1.869,0.968-3.802,1.354-5.672c0.322-1.868,0.645-3.802,0.837-5.734
			c0.194-1.934,0.257-3.867,0.129-5.8c-0.001,0.01-0.002,0.02-0.003,0.03c0-0.053,0.004-0.106,0.004-0.159h-0.001
			c0-0.021,0.001-0.042,0.001-0.063c0-7.154-2.256-14.758-5.092-22.749c-2.19,1.031-4.446,2.062-6.766,3.093
			c-3.351,1.546-6.896,3.158-10.182,4.833c1.933,5.672,3.415,10.955,3.415,14.823c0,5.8-3.287,14.628-6.444,23.135
			c-3.158,8.44-6.379,17.142-7.668,25.454c-1.676,11.278,0.708,20.234,7.088,26.68c0.013,0.013,0.026,0.024,0.039,0.037
			c0.009,0.009,0.017,0.019,0.026,0.027c4.951,4.95,11.395,7.466,19.276,7.61c0.08,0.001,0.16,0.009,0.24,0.008
			c0.555,0.007,1.116,0.003,1.686-0.014c-0.159-0.053-0.217-0.06-0.237-0.062c0.8-0.022,1.616-0.073,2.443-0.145
			c0.27-0.021,0.542-0.046,0.814-0.071c0.296-0.031,0.597-0.068,0.896-0.105c0.562-0.064,1.116-0.114,1.69-0.199
			c5.284-0.771,10.698-2.384,16.11-4.252l-0.026-0.055c0.009-0.003,0.017-0.006,0.026-0.009
			C81.411,190.506,81.07,189.784,80.725,189.07z"/>
		<path fill="grey" d="M150.582,43.895c1.225,2.771,2.513,5.542,3.803,8.184c8.625-2.815,16.687-4.51,20.887-1.631
			c0.054,0.039,0.112,0.072,0.164,0.112c0.12,0.087,0.226,0.19,0.338,0.286c0.244,0.208,0.473,0.433,0.685,0.672
			c0.255,0.302,0.487,0.62,0.674,0.946l0.012-0.034c0.625,1.01,1.028,2.261,1.191,3.818c-0.08,0.415-0.15,0.829-0.236,1.243
			c-0.388,1.869-0.773,3.737-1.289,5.542l-0.387,1.354l-0.386,1.418c-0.258,0.903-0.517,1.804-0.774,2.707
			c-1.03,3.608-2.319,7.218-3.608,10.826c-1.288,3.608-2.642,7.218-3.802,10.891c-0.58,1.869-1.16,3.673-1.676,5.542
			c-0.517,1.869-0.967,3.802-1.354,5.67c-0.322,1.87-0.644,3.802-0.838,5.736c-0.193,1.934-0.257,3.867-0.129,5.8
			c0.002-0.018,0.005-0.036,0.006-0.054c0,0.082-0.006,0.165-0.006,0.247c0,7.152,2.257,14.756,5.092,22.749
			c2.191-1.031,4.445-2.063,6.767-3.094c3.351-1.548,6.895-3.159,10.18-4.833c-1.932-5.672-3.412-10.956-3.412-14.822
			c0-5.801,3.286-14.629,6.442-23.136c3.159-8.441,6.38-17.141,7.668-25.454c1.677-11.278-0.708-20.236-7.086-26.68
			c-4.696-4.696-10.732-7.225-18.022-7.61c-0.145-0.015-0.289-0.016-0.435-0.026c-0.103-0.004-0.204-0.01-0.307-0.014
			c-0.402-0.019-0.803-0.026-1.204-0.012c-0.28,0-0.56-0.003-0.844,0.002c-0.045-0.001-0.089-0.008-0.134-0.009h-0.258l0.066,0.022
			c-1.783,0.05-3.628,0.208-5.546,0.493c-5.348,0.838-10.824,2.45-16.302,4.319l0.017,0.036c-0.026,0.009-0.054,0.018-0.08,0.027
			C147.875,37.966,149.229,40.931,150.582,43.895z"/>
		<path fill="grey" d="M102.378,62.518c1.87,0.323,3.802,0.645,5.736,0.838c1.933,0.192,3.866,0.257,5.799,0.128
			c-0.018-0.001-0.036-0.005-0.054-0.006c0.082,0.001,0.165,0.006,0.247,0.006V63.42c0.021,0,0.043,0.001,0.064,0.001
			c7.089,0,14.692-2.256,22.619-5.091c-1.032-2.127-2.062-4.383-3.093-6.574c-1.548-3.415-3.221-6.958-4.897-10.31
			c-5.607,1.933-10.828,3.416-14.693,3.416c-5.8,0-14.628-3.288-23.135-6.444c-8.442-3.093-17.142-6.379-25.455-7.605
			c-11.278-1.675-20.235,0.709-26.679,7.089c-4.569,4.569-7.062,10.412-7.533,17.479c-0.14,0.971-0.167,1.95-0.102,2.921
			c0.005-0.092,0.013-0.185,0.02-0.277c0,0.254,0.001,0.508,0.007,0.766c-0.016-0.162-0.016-0.326-0.027-0.489
			c-0.009,0.16-0.028,0.319-0.034,0.479v0.258l0.061-0.186c0.002,0.084,0,0.166,0.002,0.25c0-0.194,0.064-0.258,0.064-0.258
			c-0.003-0.079,0.004-0.149,0.002-0.228c0,0.007,0,0.015,0,0.022c0.002,0.071-0.006,0.133-0.002,0.205c0,0-0.063,1.142,0.234,3.601
			c0.076,0.745,0.167,1.498,0.281,2.264c0.616,4.202,1.764,8.486,3.147,12.787c0.322,1.063,0.662,2.159,1.042,3.324l0.056-0.026
			c0.003,0.009,0.006,0.017,0.009,0.026c0.715-0.357,1.457-0.702,2.186-1.052l6.029-2.82c0.184-0.083,0.365-0.168,0.548-0.252
			c2.771-1.224,5.542-2.513,8.184-3.802c-2.738-8.39-4.407-16.239-1.849-20.527c0.488-0.761,1.074-1.406,1.786-1.928
			c0.149-0.102,0.298-0.206,0.45-0.293l-0.016-0.005c0.004-0.002,0.007-0.005,0.011-0.008c0.103-0.06,0.206-0.119,0.312-0.174
			c0.08-0.043,0.163-0.083,0.245-0.124c0.917-0.437,1.971-0.708,3.136-0.845c0.446,0.085,0.892,0.161,1.338,0.254
			c1.87,0.386,3.737,0.773,5.542,1.289l1.353,0.386l1.418,0.386c0.903,0.259,1.804,0.517,2.707,0.774
			c3.608,1.031,7.217,2.319,10.826,3.609c3.609,1.289,7.218,2.642,10.891,3.802c1.868,0.58,3.673,1.16,5.542,1.675
			S100.51,62.133,102.378,62.518z M31.314,57.207c-0.009,0.412-0.017,0.825-0.012,1.245C31.294,58.027,31.288,57.604,31.314,57.207z
			"/>
		<path fill="grey" d="M196.249,176.052c1.011-4.261,1.133-9.048,0.344-14.356c-0.772-5.285-2.383-10.697-4.253-16.11
			c-0.031,0.014-0.061,0.027-0.092,0.041c-0.012-0.035-0.023-0.07-0.036-0.106c-2.899,1.418-5.864,2.771-8.765,4.124
			c-2.771,1.225-5.541,2.514-8.185,3.804c0.006,0.019,0.012,0.037,0.018,0.056l-0.018,0.008c0,0,2.124,6.229,2.918,11.795
			c0.388,3.145,0.248,5.88-0.689,7.948c-0.635,1.222-1.457,2.204-2.57,2.913c-0.015,0.008-0.029,0.02-0.044,0.028l0.002,0.001
			c-0.036,0.021-0.066,0.048-0.103,0.069c-0.039,0.022-0.078,0.045-0.118,0.066c-0.129,0.073-0.269,0.138-0.405,0.205
			c-0.969,0.448-2.086,0.72-3.324,0.841c-0.381-0.073-0.762-0.138-1.143-0.217c-1.869-0.387-3.737-0.773-5.544-1.289l-1.352-0.386
			l-1.418-0.387c-0.901-0.258-1.805-0.517-2.707-0.772c-3.607-1.032-7.216-2.321-10.825-3.61c-3.61-1.288-7.219-2.642-10.892-3.802
			c-1.868-0.58-3.672-1.161-5.543-1.675c-1.867-0.518-3.801-0.968-5.671-1.354c-1.868-0.322-3.801-0.644-5.735-0.837
			c-1.934-0.194-3.864-0.259-5.799-0.13c0.012,0.001,0.023,0.003,0.036,0.004c-0.055,0-0.11-0.004-0.165-0.004v0.002
			c-0.021,0-0.043-0.002-0.064-0.002c-7.088,0-14.693,2.257-22.619,5.092c1.031,2.127,2.062,4.381,3.093,6.572
			c1.546,3.416,3.222,6.96,4.898,10.312c5.605-1.934,10.826-3.416,14.692-3.416c5.8,0,14.629,3.287,23.135,6.444
			c8.441,3.158,17.143,6.38,25.455,7.668c11.278,1.677,20.234-0.709,26.68-7.087c3.188-3.189,5.36-7.001,6.547-11.413
			c0.042-0.148,0.083-0.297,0.121-0.447C196.159,176.449,196.204,176.251,196.249,176.052z"/>
	</g>
</g>
</svg>
