<?xml version="1.0" encoding="utf-8"?>
<!-- Generator: Adobe Illustrator 16.0.0, SVG Export Plug-In . SVG Version: 6.00 Build 0)  -->
<!DOCTYPE svg PUBLIC "-//W3C//DTD SVG 1.1//EN" "http://www.w3.org/Graphics/SVG/1.1/DTD/svg11.dtd">
<svg version="1.1" id="Layer_1" xmlns="http://www.w3.org/2000/svg" xmlns:xlink="http://www.w3.org/1999/xlink" x="0px" y="0px"
	 width="226.777px" height="226.777px" viewBox="0 0 226.777 226.777" enable-background="new 0 0 226.777 226.777"
	 xml:space="preserve">
<g>
	<g>
		<g>
			<path fill="gray" d="M174.506,51.943c-16.344-16.344-38.073-25.345-61.186-25.345s-44.843,9.001-61.186,25.344
				c-33.738,33.738-33.738,88.633,0,122.372c16.343,16.344,38.073,25.344,61.186,25.344s44.842-9,61.186-25.344
				C208.242,140.576,208.242,85.681,174.506,51.943z M170.076,169.885c-15.16,15.158-35.316,23.51-56.756,23.51
				s-41.596-8.352-56.756-23.51c-31.295-31.297-31.295-82.217,0-113.512c15.16-15.16,35.316-23.509,56.756-23.509
				s41.596,8.349,56.756,23.509c15.16,15.159,23.51,35.316,23.51,56.756S185.236,154.724,170.076,169.885z"/>
		</g>
	</g>
</g>
<g>
	<g>
		<g>
			<path fill="gray" d="M113.32,12.481c-1.73,0-3.132,1.402-3.132,3.132v5.027c0,1.73,1.402,3.132,3.132,3.132c1.729,0,3.133-1.402,3.133-3.132
				v-5.027C116.453,13.883,115.05,12.481,113.32,12.481z"/>
		</g>
	</g>
</g>
<g>
	<g>
		<g>
			<path fill="gray" d="M113.32,202.484c-1.73,0-3.132,1.402-3.132,3.133v5.027c0,1.729,1.402,3.131,3.132,3.131
				c1.729,0,3.133-1.402,3.133-3.131v-5.027C116.453,203.886,115.05,202.484,113.32,202.484z"/>
		</g>
	</g>
</g>
<g>
	<g>
		<g>
			<path fill="gray" d="M210.836,109.996h-5.027c-1.729,0-3.133,1.403-3.133,3.132c0,1.73,1.403,3.132,3.133,3.132h5.027
				c1.73,0,3.132-1.402,3.132-3.132C213.968,111.399,212.566,109.996,210.836,109.996z"/>
		</g>
	</g>
</g>
<g>
	<g>
		<g>
			<path fill="gray" d="M20.832,109.996h-5.028c-1.73,0-3.132,1.403-3.132,3.132c0,1.73,1.402,3.132,3.132,3.132h5.028
				c1.729,0,3.132-1.402,3.132-3.132C23.964,111.399,22.562,109.996,20.832,109.996z"/>
		</g>
	</g>
</g>
<g>
	<g>
		<g>
			<path fill="gray" d="M184.489,41.959c-1.225-1.223-3.207-1.223-4.43,0l-3.556,3.555c-1.223,1.224-1.223,3.207,0,4.431
				c0.612,0.611,1.414,0.917,2.216,0.917s1.604-0.306,2.215-0.917l3.555-3.555C185.712,45.166,185.712,43.183,184.489,41.959z"/>
		</g>
	</g>
</g>
<g>
	<g>
		<g>
			<path fill="gray" d="M50.135,176.312c-1.223-1.223-3.207-1.223-4.429,0l-3.555,3.555c-1.223,1.225-1.223,3.207,0,4.43
				c0.611,0.611,1.414,0.918,2.215,0.918c0.802,0,1.603-0.307,2.214-0.918l3.555-3.555
				C51.359,179.519,51.359,177.537,50.135,176.312z"/>
		</g>
	</g>
</g>
<g>
	<g>
		<g>
			<path fill="gray" d="M184.489,179.867l-3.555-3.555c-1.224-1.223-3.207-1.223-4.431,0c-1.223,1.225-1.223,3.207,0,4.43l3.556,3.555
				c0.611,0.611,1.413,0.918,2.215,0.918c0.801,0,1.603-0.307,2.215-0.918C185.712,183.074,185.712,181.092,184.489,179.867z"/>
		</g>
	</g>
</g>
<g>
	<g>
		<g>
			<path fill="gray" d="M50.135,45.514l-3.555-3.555c-1.223-1.222-3.207-1.222-4.429,0c-1.223,1.224-1.223,3.207,0,4.43l3.555,3.555
				c0.611,0.611,1.413,0.917,2.215,0.917s1.604-0.306,2.214-0.917C51.359,48.72,51.359,46.738,50.135,45.514z"/>
		</g>
	</g>
</g>
<g>
	<g>
		<g>
			<path fill="gray" d="M153.756,20.96c-1.585-0.694-3.433,0.026-4.127,1.61l-2.021,4.604c-0.695,1.583,0.026,3.431,1.609,4.126
				c0.409,0.18,0.837,0.265,1.257,0.265c1.206,0,2.354-0.7,2.87-1.874l2.021-4.604C156.059,23.502,155.339,21.655,153.756,20.96z"/>
		</g>
	</g>
</g>
<g>
	<g>
		<g>
			<path fill="gray" d="M77.422,194.955c-1.584-0.691-3.432,0.027-4.127,1.611l-2.019,4.604c-0.695,1.584,0.025,3.432,1.61,4.127
				c0.409,0.178,0.836,0.264,1.256,0.264c1.206,0,2.355-0.699,2.871-1.875l2.02-4.604C79.727,197.498,79.006,195.652,77.422,194.955
				z"/>
		</g>
	</g>
</g>
<g>
	<g>
		<g>
			<path fill="gray" d="M203.879,149.437l-4.604-2.021c-1.583-0.693-3.431,0.025-4.127,1.609c-0.694,1.584,0.026,3.432,1.61,4.129l4.604,2.02
				c0.409,0.18,0.836,0.264,1.257,0.264c1.206,0,2.355-0.699,2.87-1.875C206.183,151.978,205.462,150.131,203.879,149.437z"/>
		</g>
	</g>
</g>
<g>
	<g>
		<g>
			<path fill="gray" d="M29.882,73.104l-4.604-2.021c-1.584-0.694-3.431,0.025-4.126,1.609s0.026,3.431,1.61,4.127l4.604,2.021
				c0.41,0.179,0.836,0.265,1.257,0.265c1.205,0,2.354-0.7,2.87-1.875C32.187,75.646,31.466,73.799,29.882,73.104z"/>
		</g>
	</g>
</g>
<g>
	<g>
		<g>
			<path fill="gray" d="M207.085,76.547c-0.629-1.611-2.444-2.407-4.057-1.78l-4.685,1.828c-1.611,0.628-2.407,2.445-1.779,4.056
				c0.483,1.238,1.667,1.995,2.92,1.995c0.377,0,0.763-0.069,1.137-0.215l4.684-1.827C206.917,79.974,207.713,78.158,207.085,76.547
				z"/>
		</g>
	</g>
</g>
<g>
	<g>
		<g>
			<path fill="gray" d="M30.075,145.605c-0.629-1.611-2.445-2.406-4.057-1.779l-4.683,1.826c-1.611,0.631-2.409,2.447-1.78,4.059
				c0.483,1.236,1.666,1.994,2.918,1.994c0.379,0,0.764-0.07,1.138-0.217l4.684-1.826C29.906,149.033,30.704,147.217,30.075,145.605
				z"/>
		</g>
	</g>
</g>
<g>
	<g>
		<g>
			<path fill="gray" d="M151.68,202.838l-1.828-4.686c-0.628-1.611-2.442-2.406-4.056-1.779c-1.612,0.629-2.408,2.445-1.78,4.057l1.828,4.684
				c0.482,1.238,1.665,1.996,2.918,1.996c0.379,0,0.765-0.07,1.139-0.217C151.512,206.263,152.308,204.447,151.68,202.838z"/>
		</g>
	</g>
</g>
<g>
	<g>
		<g>
			<path fill="gray" d="M82.622,25.827l-1.828-4.684c-0.628-1.611-2.445-2.407-4.057-1.78c-1.611,0.629-2.408,2.445-1.779,4.056l1.828,4.683
				c0.482,1.238,1.666,1.995,2.918,1.995c0.378,0,0.764-0.069,1.138-0.215C82.454,29.254,83.252,27.438,82.622,25.827z"/>
		</g>
	</g>
</g>
<g>
	<path fill="gray" d="M113.127,222.144c-29.135,0-56.525-11.346-77.126-31.947c-20.602-20.602-31.947-47.99-31.947-77.125
		c0-29.134,11.346-56.524,31.947-77.125C56.601,15.345,83.991,4,113.127,4c29.133,0,56.523,11.345,77.125,31.946
		c20.601,20.601,31.945,47.992,31.945,77.125c0,29.135-11.345,56.524-31.945,77.125C169.65,210.799,142.26,222.144,113.127,222.144z
		 M113.127,9.539c-27.656,0-53.655,10.77-73.209,30.324S9.593,85.417,9.593,113.072c0,27.655,10.77,53.653,30.324,73.208
		c19.555,19.557,45.554,30.326,73.209,30.326c27.654,0,53.653-10.77,73.207-30.326c19.555-19.555,30.324-45.553,30.324-73.208
		c0-27.654-10.77-53.654-30.324-73.208C166.78,20.308,140.781,9.539,113.127,9.539z"/>
</g>
</svg>
