<?xml version="1.0" encoding="utf-8"?>
<!DOCTYPE svg PUBLIC "-//W3C//DTD SVG 1.1//EN" "http://www.w3.org/Graphics/SVG/1.1/DTD/svg11.dtd">
<svg version="1.1" id="Layer_1" xmlns="http://www.w3.org/2000/svg" xmlns:xlink="http://www.w3.org/1999/xlink" x="0px" y="0px"
	 width="226.777px" height="226.777px" viewBox="0 0 226.777 226.777" enable-background="new 0 0 226.777 226.777"
	 xml:space="preserve">
<g>
	<g>
		<path fill="none" d="M109.594,31.837c0.583,0,1.14,0.119,1.646,0.333l16.377-12.654L76.98,28.605l29.072,5.176
			C106.802,32.615,108.105,31.837,109.594,31.837z"/>
	</g>
	<g>
		<path fill="none" d="M69.423,30.749l-1.344-0.239l-0.283,0.469c0.18,0.057,0.368,0.096,0.567,0.096
			C68.757,31.074,69.121,30.954,69.423,30.749z"/>
	</g>
	<g>
		<path fill="none" d="M109.594,40.275c-0.196,0-0.382-0.032-0.571-0.059L98.859,62.664c0.987,0.945,1.609,2.268,1.609,3.742
			c0,0.747-0.165,1.453-0.448,2.095l31.334,37.415V70.73c-1.4-0.929-2.325-2.516-2.325-4.324c0-2.866,2.323-5.19,5.189-5.19
			c2.04,0,3.787,1.188,4.635,2.899h21.653c0.597-1.204,1.638-2.134,2.917-2.585v-22.09l-50.055-1.533
			C112.68,39.305,111.257,40.275,109.594,40.275z"/>
	</g>
	<g>
		<path fill="none" d="M185.425,48.924l-0.113-0.212l-1.004-0.648C184.552,48.48,184.949,48.791,185.425,48.924z"/>
	</g>
	<g>
		<path fill="none" d="M181.712,47.111c0-0.232,0.033-0.456,0.068-0.678l-4.888-3.153l18.146,23.59l-8.366-15.617
			c-0.242,0.043-0.487,0.075-0.741,0.075C183.6,51.329,181.712,49.441,181.712,47.111z"/>
	</g>
	<g>
		<path fill="none" d="M53.493,58.976l10.284,4.177c0.951-1.171,2.386-1.937,4.014-1.937c2.04,0,3.787,1.188,4.635,2.899h18.217
			c0.848-1.711,2.595-2.899,4.635-2.899c0.152,0,0.295,0.033,0.444,0.045l10.358-22.875c-0.242-0.364-0.414-0.773-0.534-1.204
			L72.04,31.216c-0.719,1.298-2.087,2.188-3.676,2.188c-0.64,0-1.241-0.153-1.785-0.409L52.15,56.893
			C52.789,57.431,53.262,58.149,53.493,58.976z"/>
	</g>
	<g>
		<path fill="none" d="M48.698,55.965l8.657-14.339L33.952,66.547l11.376-7.33C45.686,57.557,47.018,56.267,48.698,55.965z"/>
	</g>
	<g>
		<path fill="none" d="M110.114,37.808l-0.03,0.065c0.065-0.018,0.131-0.036,0.193-0.06L110.114,37.808z"/>
	</g>
	<g>
		<path fill="none" d="M135.936,110.562v3.024c0.352-0.408,0.573-0.933,0.573-1.512C136.51,111.495,136.288,110.969,135.936,110.562
			z"/>
	</g>
	<g>
		<path fill="none" d="M67.437,64.116h0.708c-0.116-0.018-0.233-0.036-0.354-0.036S67.553,64.098,67.437,64.116z"/>
	</g>
	<g>
		<path fill="none" d="M25.238,79.028l3.873,34.859l16.645-50.86L27.503,74.79c0.02,0.163,0.05,0.324,0.05,0.492
			C27.553,76.924,26.606,78.331,25.238,79.028z"/>
	</g>
	<g>
		<path fill="none" d="M132.413,15.165l1.901-0.341c-0.207-0.08-0.433-0.128-0.669-0.128
			C133.171,14.696,132.744,14.877,132.413,15.165z"/>
	</g>
	<g>
		<path fill="none" d="M133.864,64.116h0.707c-0.115-0.018-0.232-0.036-0.353-0.036C134.097,64.08,133.981,64.098,133.864,64.116z"
			/>
	</g>
	<g>
		<path fill="none" d="M136.954,201.595l-40.297,6.717l37.921,2.709c0.552-0.968,1.467-1.691,2.568-1.984l1.028-6.173
			C137.681,202.532,137.272,202.098,136.954,201.595z"/>
	</g>
	<g>
		<path fill="none" d="M136.858,171.155c-2.486-0.384-4.395-2.514-4.395-5.109c0-0.952,0.277-1.836,0.727-2.604l-32.698-40.64
			c-0.044,0.016-0.091,0.027-0.135,0.041l-0.439,38.167c2.283,0.546,3.986,2.586,3.986,5.035c0,0.835-0.214,1.609-0.563,2.307
			l35.178,27.311c0.01-0.007,0.02-0.012,0.028-0.016L136.858,171.155z"/>
	</g>
	<g>
		<path fill="none" d="M97.575,171.101l-12.136,33.711c0.391,0.51,0.678,1.098,0.805,1.751l49.984-8.33l-35.38-27.467
			c-0.653,0.295-1.372,0.469-2.134,0.469C98.322,171.235,97.942,171.185,97.575,171.101z"/>
	</g>
	<g>
		<path fill="none" d="M165.14,171.235c-2.039,0-3.786-1.188-4.634-2.898h-18.218c-0.451,0.913-1.156,1.664-2.032,2.177
			l1.717,24.896c0.878,0.324,1.615,0.927,2.106,1.705l36.9-11.354c-0.002-0.05-0.016-0.097-0.016-0.148
			c0-0.532,0.11-1.035,0.289-1.503l-13.813-13.433C166.744,171.023,165.971,171.235,165.14,171.235z"/>
	</g>
	<g>
		<path fill="none" d="M21.622,74.494l0.396-0.255l0.686-0.73C22.223,73.679,21.833,74.035,21.622,74.494z"/>
	</g>
	<g>
		<path fill="none" d="M94.079,168.337H72.426c-0.424,0.856-1.068,1.579-1.872,2.09l11.353,32.748c0.068-0.005,0.132-0.02,0.2-0.02
			c0.092,0,0.178,0.02,0.268,0.026l12.235-33.99C94.406,168.925,94.229,168.641,94.079,168.337z"/>
	</g>
	<g>
		<path fill="none" d="M141.564,203.427l-1.024,6.149c0.037,0.024,0.074,0.053,0.112,0.08l30.518-17.282l-26.633,8.196
			C144.112,201.973,142.991,203.059,141.564,203.427z"/>
	</g>
	<g>
		<path fill="none" d="M62.602,66.406c0-0.007,0.002-0.014,0.002-0.02l-9.656-3.924c-0.757,1.124-2.042,1.863-3.499,1.863
			c-0.167,0-0.325-0.03-0.486-0.049L31.095,118.87c0.854,0.772,1.401,1.876,1.401,3.119c0,0.615-0.138,1.193-0.374,1.722
			l32.805,37.146V70.73C63.527,69.801,62.602,68.214,62.602,66.406z"/>
	</g>
	<g>
		<path fill="none" d="M186.294,45.257l1.169,0.755C187.187,45.628,186.774,45.35,186.294,45.257z"/>
	</g>
	<g>
		<path fill="none" d="M26.152,118.365L23.56,95.044l-2.29,34.672l3.477-5.431c-0.431-0.662-0.687-1.448-0.687-2.297
			C24.06,120.441,24.906,119.098,26.152,118.365z"/>
	</g>
	<g>
		<path fill="none" d="M26.504,121.539l-0.015-0.132c-0.028,0.084-0.054,0.172-0.069,0.264L26.504,121.539z"/>
	</g>
	<g>
		<path fill="none" d="M62.602,166.046c0-0.753,0.168-1.464,0.458-2.111l-31.975-36.206l8.385,45.648
			c0.953,0.203,1.772,0.738,2.367,1.468l20.771-8.725C62.608,166.095,62.602,166.07,62.602,166.046z"/>
	</g>
	<g>
		<path fill="none" d="M72.426,163.756h21.653c0.306-0.617,0.729-1.158,1.244-1.608l0.458-39.924
			c-1.362-0.936-2.257-2.501-2.257-4.28c0-1.818,0.939-3.412,2.356-4.338l0.043-3.788l2.396,2.978
			c0.132-0.011,0.259-0.041,0.394-0.041c2.866,0,5.189,2.324,5.189,5.188c0,0.521-0.1,1.014-0.242,1.488l33.379,41.487
			c0.204-0.024,0.403-0.062,0.613-0.062c2.04,0,3.787,1.188,4.635,2.898h18.218c0.504-1.018,1.325-1.839,2.344-2.345v-90.37
			c-1.019-0.504-1.84-1.326-2.344-2.344h-21.653c-0.596,1.204-1.637,2.134-2.917,2.585v35.928c1.998,0.721,3.436,2.618,3.436,4.864
			c0,2.247-1.438,4.144-3.436,4.863v1.584l-1.107-1.321c-0.214,0.026-0.425,0.063-0.646,0.063c-2.866,0-5.189-2.323-5.189-5.189
			c0-0.538,0.104-1.049,0.258-1.536L96.503,71.435c-0.395,0.096-0.8,0.161-1.225,0.161c-2.04,0-3.787-1.188-4.635-2.899H72.426
			c-0.596,1.204-1.638,2.134-2.917,2.585v89.89C70.788,161.622,71.829,162.552,72.426,163.756z"/>
	</g>
	<g>
		<path fill="none" d="M63.812,169.341l-21.078,8.853c-0.035,0.21-0.091,0.411-0.155,0.607l36.146,25.685l-11.548-33.31
			C65.823,171.012,64.64,170.339,63.812,169.341z"/>
	</g>
	<g>
		<path fill="none" d="M139.062,214.786l-1.911-0.137c0.306,0.213,0.675,0.341,1.075,0.341
			C138.529,214.99,138.808,214.912,139.062,214.786z"/>
	</g>
	<g>
		<path fill="none" d="M163.464,34.909l-27.076-15.141c-0.739,0.638-1.688,1.037-2.742,1.037c-0.584,0-1.139-0.119-1.646-0.333
			l-18.135,14.014l49.558,1.517c-0.011-0.116-0.035-0.226-0.035-0.345C163.387,35.401,163.419,35.152,163.464,34.909z"/>
	</g>
	<g>
		<path fill="none" d="M17.883,137.691l-0.51-1.097l0.08-1.205c-0.141,0.265-0.227,0.562-0.227,0.88
			C17.226,136.84,17.484,137.344,17.883,137.691z"/>
	</g>
	<g>
		<path fill="none" d="M167.452,165.898c-0.005-0.069-0.009-0.139-0.021-0.205v0.186L167.452,165.898z"/>
	</g>
	<g>
		<path fill="none" d="M170.331,66.406c0,0.21-0.039,0.41-0.062,0.614l30.788,15.19l-32.627-42.417
			c-0.267,0.052-0.542,0.083-0.823,0.083c-0.256,0-0.504-0.032-0.747-0.075v21.73C168.877,62.242,170.331,64.146,170.331,66.406z"/>
	</g>
	<g>
		<path fill="none" d="M100.989,166.528c0.033-0.155,0.052-0.316,0.052-0.482c0-0.854-0.469-1.595-1.159-1.999l-0.019,1.608
			L100.989,166.528z"/>
	</g>
	<g>
		<path fill="none" d="M165.032,168.337h-0.244c0.09,0.014,0.18,0.024,0.272,0.029L165.032,168.337z"/>
	</g>
	<g>
		<path fill="none" d="M136.648,168.135l-0.029-0.432l-1.284-1.598C135.356,167.002,135.887,167.766,136.648,168.135z"/>
	</g>
	<g>
		<path fill="none" d="M139.772,214.182c0.027-0.038,0.05-0.081,0.073-0.121l-0.06,0.033L139.772,214.182z"/>
	</g>
	<g>
		<path fill="none" d="M22.292,139.018l12.175,26.142l-7.091-38.611l-4.738,7.404c0.438,0.667,0.696,1.462,0.696,2.316
			C23.334,137.325,22.933,138.279,22.292,139.018z"/>
	</g>
	<g>
		<path fill="none" d="M49.717,61.97c0.362-0.052,0.688-0.206,0.953-0.433l-0.717-0.291L49.717,61.97z"/>
	</g>
	<g>
		<path fill="none" d="M210.381,140.201c-1.043,0-1.891,0.848-1.891,1.891c0,0.295,0.074,0.57,0.194,0.819l1.354-2.347l2.208,1.274
			C212.12,140.917,211.337,140.201,210.381,140.201z"/>
	</g>
	<g>
		<path fill="grey" d="M72.981,166.046c0,0.828-0.211,1.598-0.555,2.291h21.653c-0.344-0.693-0.555-1.463-0.555-2.291
			c0-0.824,0.211-1.597,0.555-2.29H72.426C72.77,164.449,72.981,165.221,72.981,166.046z"/>
	</g>
	<g>
		<path fill="grey" d="M53.666,60.107c0,0.872-0.265,1.684-0.719,2.355l9.656,3.924c0.004-1.231,0.454-2.346,1.174-3.233
			l-10.284-4.177C53.594,59.339,53.666,59.713,53.666,60.107z"/>
	</g>
	<g>
		<path fill="grey" d="M140.517,203.575c-0.867,0-1.672-0.265-2.343-0.711l-1.028,6.173c0.347-0.091,0.704-0.156,1.08-0.156
			c0.854,0,1.649,0.257,2.313,0.696l1.024-6.149C141.228,203.514,140.881,203.575,140.517,203.575z"/>
	</g>
	<g>
		<path fill="grey" d="M94.611,169.191l-12.235,33.99c1.25,0.08,2.344,0.697,3.064,1.631l12.136-33.711
			C96.371,170.831,95.338,170.137,94.611,169.191z"/>
	</g>
	<g>
		<path fill="grey" d="M62.609,166.12l-20.771,8.725c0.595,0.727,0.967,1.644,0.967,2.655c0,0.239-0.032,0.467-0.07,0.693
			l21.078-8.853C63.082,168.46,62.626,167.348,62.609,166.12z"/>
	</g>
	<g>
		<path fill="grey" d="M90.643,64.116H72.426c0.344,0.693,0.555,1.464,0.555,2.291s-0.211,1.597-0.555,2.291h18.217
			c-0.344-0.694-0.555-1.464-0.555-2.291S90.3,64.809,90.643,64.116z"/>
	</g>
	<g>
		<path fill="grey" d="M95.781,122.223l-0.458,39.924c0.911-0.794,2.088-1.29,3.391-1.29c0.416,0,0.815,0.062,1.203,0.153
			l0.439-38.167c-0.52,0.174-1.064,0.29-1.643,0.29C97.625,123.134,96.616,122.796,95.781,122.223z"/>
	</g>
	<g>
		<path fill="grey" d="M109.023,40.217c-1.227-0.167-2.288-0.844-2.942-1.831L95.722,61.261c1.212,0.105,2.307,0.608,3.137,1.403
			L109.023,40.217z"/>
	</g>
	<g>
		<path fill="grey" d="M137.041,160.919l-33.379-41.487c-0.471,1.565-1.646,2.812-3.169,3.371l32.698,40.64
			C133.992,162.072,135.392,161.116,137.041,160.919z"/>
	</g>
	<g>
		<path fill="grey" d="M142.844,166.046c0,0.828-0.21,1.598-0.555,2.291h18.218c-0.345-0.693-0.556-1.463-0.556-2.291
			c0-0.824,0.211-1.597,0.556-2.29h-18.218C142.634,164.449,142.844,165.221,142.844,166.046z"/>
	</g>
	<g>
		<path fill="grey" d="M136.858,171.155l1.688,24.492c0.591-0.315,1.255-0.51,1.971-0.51c0.515,0,1.001,0.105,1.456,0.272
			l-1.717-24.896c-0.769,0.447-1.649,0.722-2.603,0.722C137.382,171.235,137.119,171.195,136.858,171.155z"/>
	</g>
	<g>
		<path fill="grey" d="M131.354,70.73v35.186L100.02,68.501c-0.645,1.456-1.94,2.551-3.518,2.934l32.748,39.103
			c0.658-2.11,2.604-3.654,4.932-3.654c0.619,0,1.203,0.126,1.754,0.326V71.282c-0.54,0.191-1.112,0.314-1.718,0.314
			C133.16,71.596,132.177,71.275,131.354,70.73z"/>
	</g>
	<g>
		<path fill="grey" d="M139.408,66.406c0,0.827-0.211,1.597-0.555,2.291h21.653c-0.345-0.694-0.556-1.464-0.556-2.291
			s0.211-1.598,0.556-2.291h-21.653C139.197,64.809,139.408,65.58,139.408,66.406z"/>
	</g>
	<g>
		<path fill="grey" d="M38.586,173.281c0.304,0,0.599,0.035,0.885,0.096l-8.385-45.648l31.975,36.206
			c0.81-1.812,2.619-3.077,4.731-3.077c0.606,0,1.178,0.123,1.718,0.314v-89.89c-0.54,0.191-1.112,0.314-1.718,0.314
			c-1.059,0-2.042-0.321-2.863-0.866v90.127l-32.805-37.146c-0.659,1.47-2.129,2.497-3.844,2.497c-1.482,0-2.779-0.769-3.532-1.922
			l-3.477,5.431l2.29-34.672l2.591,23.321c0.627-0.37,1.348-0.596,2.127-0.596c1.087,0,2.069,0.423,2.817,1.101l17.867-54.593
			c-2.098-0.244-3.732-2.006-3.732-4.17c0-0.306,0.037-0.603,0.099-0.89l-11.376,7.33l23.402-24.921l-8.657,14.339
			c0.245-0.045,0.493-0.076,0.751-0.076c1.034,0,1.967,0.387,2.701,1.004l14.429-23.899c-1.384-0.65-2.35-2.022-2.416-3.638
			l-39.41,41.969c1.479,0.531,2.562,1.855,2.75,3.465l18.252-11.763l-16.645,50.86l-3.873-34.859
			c-0.575,0.292-1.215,0.473-1.904,0.473c-0.789,0-1.519-0.23-2.15-0.607l-3.529,53.431c0.457-0.167,0.945-0.274,1.461-0.274
			c1.474,0,2.767,0.757,3.521,1.902l4.738-7.404l7.091,38.611l-12.175-26.142c-0.76,0.877-1.863,1.442-3.109,1.462l16.058,34.478
			C36.011,173.944,37.216,173.281,38.586,173.281z"/>
	</g>
	<g>
		<path fill="grey" d="M72.582,29.184c0,0.741-0.208,1.426-0.542,2.031l33.507,5.967c-0.1-0.361-0.171-0.734-0.171-1.126
			c0-0.839,0.252-1.618,0.675-2.275L76.98,28.605l50.637-9.089L111.24,32.171c1.512,0.642,2.573,2.141,2.573,3.886
			c0,0.667-0.17,1.291-0.445,1.852l50.055,1.533v22.09c0.54-0.191,1.111-0.314,1.717-0.314c0.607,0,1.179,0.123,1.719,0.314v-21.73
			c-1.859-0.333-3.28-1.883-3.437-3.798l-49.558-1.517L132,20.472c-1.512-0.642-2.573-2.139-2.573-3.885
			c0-0.311,0.04-0.612,0.103-0.904L71.271,26.139C72.075,26.907,72.582,27.985,72.582,29.184z"/>
	</g>
	<g>
		<path fill="grey" d="M136.387,19.768l27.076,15.141c0.217-1.207,0.945-2.225,1.953-2.841l-27.559-15.415
			C137.838,17.903,137.267,19.008,136.387,19.768z"/>
	</g>
	<g>
		<path fill="grey" d="M168.429,39.793l32.627,42.417l-30.788-15.19c-0.144,1.205-0.678,2.285-1.5,3.09l34.708,17.124
			c-0.001-0.013-0.004-0.024-0.004-0.038c0-2.288,1.825-4.142,4.098-4.206l-18.049-33.694c-0.617,1.012-1.639,1.742-2.849,1.958
			l8.366,15.617l-18.146-23.59l4.888,3.153c0.196-1.208,0.897-2.24,1.889-2.873L171.8,35.894
			C171.69,37.833,170.288,39.425,168.429,39.793z"/>
	</g>
	<g>
		<path fill="grey" d="M180.98,185.76l-36.9,11.354c0.41,0.65,0.656,1.415,0.656,2.241c0,0.425-0.083,0.827-0.199,1.215
			l26.633-8.196l-30.518,17.282c0.957,0.675,1.604,1.737,1.744,2.96l40.982-23.206C181.999,188.753,181.039,187.377,180.98,185.76z"
			/>
	</g>
	<g>
		<path fill="grey" d="M210.381,146.309c-1.154,0-2.196-0.465-2.958-1.214l-21.05,36.488c1.179,0.349,2.144,1.186,2.646,2.291
			l21.69-37.598C210.599,146.285,210.493,146.309,210.381,146.309z"/>
	</g>
	<g>
		<path fill="grey" d="M134.578,211.021l-37.921-2.709l40.297-6.717c-0.409-0.651-0.655-1.414-0.655-2.239
			c0-1.602,0.904-2.979,2.22-3.693l-35.178-27.311c-0.532,1.064-1.406,1.921-2.492,2.414l35.38,27.467l-49.984,8.33
			c0.051,0.264,0.082,0.532,0.082,0.81c0,1.466-0.749,2.756-1.884,3.512l49.806,3.557c-0.143-0.422-0.239-0.87-0.239-1.342
			C134.008,212.339,134.224,211.636,134.578,211.021z"/>
	</g>
	<g>
		<path fill="grey" d="M81.907,203.175l-11.353-32.748c-0.801,0.506-1.745,0.809-2.763,0.809c-0.21,0-0.41-0.037-0.613-0.06
			l11.548,33.31l-36.146-25.685c-0.376,1.152-1.217,2.092-2.319,2.568l37.708,26.794c-0.049-0.257-0.079-0.52-0.079-0.79
			C77.889,205.111,79.673,203.279,81.907,203.175z"/>
	</g>
	<g>
		<path fill="grey" d="M167.44,170.677l13.813,13.433c0.429-1.119,1.312-2.002,2.431-2.43l-13.843-13.462
			C169.344,169.29,168.495,170.153,167.44,170.677z"/>
	</g>
	<g>
		<path fill="grey" d="M162.85,71.041v90.37c0.694-0.342,1.464-0.554,2.29-0.554c0.827,0,1.598,0.212,2.291,0.554v-90.37
			c-0.693,0.343-1.464,0.555-2.291,0.555C164.314,71.596,163.545,71.385,162.85,71.041z"/>
	</g>
	<g>
		<path fill="grey" d="M136.51,112.074c0,0.579-0.222,1.104-0.573,1.512v3.352c1.998-0.72,3.436-2.616,3.436-4.863
			c0-2.247-1.438-4.143-3.436-4.864v3.352C136.288,110.969,136.51,111.495,136.51,112.074z"/>
	</g>
	<g>
		<path fill="grey" d="M128.993,112.074c0,2.866,2.323,5.189,5.189,5.189c0.222,0,0.433-0.037,0.646-0.063l-5.578-6.662
			C129.097,111.025,128.993,111.536,128.993,112.074z"/>
	</g>
	<g>
		<path fill="grey" d="M129.251,110.538l5.578,6.662c0.384-0.05,0.754-0.135,1.107-0.263v-3.352
			c-0.427,0.494-1.052,0.814-1.754,0.814c-1.283,0-2.326-1.043-2.326-2.326s1.043-2.326,2.326-2.326c0.702,0,1.327,0.32,1.754,0.814
			v-3.352c-0.551-0.199-1.135-0.326-1.754-0.326C131.855,106.884,129.909,108.428,129.251,110.538z"/>
	</g>
	<g>
		<path fill="grey" d="M133.864,64.116c0.117-0.018,0.233-0.036,0.354-0.036c0.12,0,0.237,0.018,0.353,0.036h4.282
			c-0.848-1.711-2.595-2.899-4.635-2.899c-2.866,0-5.189,2.324-5.189,5.19c0,1.808,0.925,3.395,2.325,4.324v-6.614H133.864z"/>
	</g>
	<g>
		<path fill="grey" d="M135.936,71.282c1.28-0.451,2.321-1.381,2.917-2.585h-2.917V71.282z"/>
	</g>
	<g>
		<path fill="grey" d="M138.853,64.116h-4.282c1.116,0.172,1.974,1.128,1.974,2.291c0,1.283-1.044,2.327-2.326,2.327
			c-1.283,0-2.326-1.044-2.326-2.327c0-1.162,0.857-2.119,1.972-2.291h-2.51v6.614c0.822,0.545,1.806,0.866,2.864,0.866
			c0.605,0,1.178-0.123,1.718-0.314v-2.585h2.917c0.344-0.694,0.555-1.464,0.555-2.291S139.197,64.809,138.853,64.116z"/>
	</g>
	<g>
		<path fill="grey" d="M162.85,71.041v-2.344h-2.344C161.01,69.715,161.832,70.537,162.85,71.041z"/>
	</g>
	<g>
		<path fill="grey" d="M167.431,64.116v1.505l2.837,1.399c0.023-0.204,0.062-0.404,0.062-0.614c0-2.261-1.454-4.164-3.472-4.875
			v2.585H167.431z"/>
	</g>
	<g>
		<path fill="grey" d="M167.431,71.041c0.492-0.244,0.948-0.549,1.337-0.931l-1.337-0.659V71.041z"/>
	</g>
	<g>
		<path fill="grey" d="M160.507,64.116h2.917v-2.585C162.144,61.982,161.103,62.912,160.507,64.116z"/>
	</g>
	<g>
		<path fill="grey" d="M170.268,67.02l-2.837-1.399v-1.505h-0.572v-2.585c-0.54-0.191-1.111-0.314-1.719-0.314
			c-0.605,0-1.177,0.123-1.717,0.314v2.585h-2.917c-0.345,0.693-0.556,1.464-0.556,2.291s0.211,1.597,0.556,2.291h2.344v2.344
			c0.694,0.343,1.464,0.555,2.29,0.555c0.827,0,1.598-0.211,2.291-0.555v-1.589l1.337,0.659
			C169.591,69.305,170.125,68.225,170.268,67.02z M165.14,68.733c-1.282,0-2.326-1.044-2.326-2.327s1.044-2.327,2.326-2.327
			c1.284,0,2.327,1.044,2.327,2.327S166.425,68.733,165.14,68.733z"/>
	</g>
	<g>
		<path fill="grey" d="M165.14,171.235c0.831,0,1.604-0.212,2.3-0.559l-2.38-2.311c-0.093-0.005-0.183-0.016-0.272-0.029h-4.281
			C161.354,170.048,163.101,171.235,165.14,171.235z"/>
	</g>
	<g>
		<path fill="grey" d="M167.452,165.898l2.39,2.319c0.306-0.661,0.489-1.393,0.489-2.172c0-2.037-1.188-3.784-2.899-4.635v4.282
			C167.443,165.76,167.447,165.829,167.452,165.898z"/>
	</g>
	<g>
		<path fill="grey" d="M160.507,163.756h2.344v-2.345C161.832,161.917,161.01,162.738,160.507,163.756z"/>
	</g>
	<g>
		<path fill="grey" d="M162.85,161.411v2.345h-2.344c-0.345,0.693-0.556,1.466-0.556,2.29c0,0.828,0.211,1.598,0.556,2.291h4.281
			c-1.115-0.172-1.974-1.127-1.974-2.291c0-1.281,1.044-2.326,2.326-2.326c1.161,0,2.119,0.858,2.291,1.974v-4.282
			c-0.693-0.342-1.464-0.554-2.291-0.554C164.314,160.857,163.545,161.069,162.85,161.411z"/>
	</g>
	<g>
		<path fill="grey" d="M167.468,166.046c0,1.285-1.043,2.327-2.327,2.327c-0.026,0-0.053-0.007-0.08-0.007l2.38,2.311
			c1.055-0.523,1.903-1.387,2.401-2.459l-2.39-2.319C167.457,165.948,167.468,165.995,167.468,166.046z"/>
	</g>
	<g>
		<path fill="grey" d="M135.335,166.106l-2.145-2.664c-0.449,0.768-0.727,1.651-0.727,2.604c0,2.596,1.908,4.726,4.395,5.109
			l-0.21-3.02C135.887,167.766,135.356,167.002,135.335,166.106z"/>
	</g>
	<g>
		<path fill="grey" d="M140.257,170.513c0.876-0.513,1.581-1.264,2.032-2.177h-2.183L140.257,170.513z"/>
	</g>
	<g>
		<path fill="grey" d="M142.289,163.756c-0.848-1.711-2.595-2.898-4.635-2.898c-0.21,0-0.409,0.037-0.613,0.062l2.283,2.837
			H142.289z"/>
	</g>
	<g>
		<path fill="grey" d="M142.289,163.756h-2.965l-2.283-2.837c-1.648,0.197-3.049,1.153-3.851,2.523l2.145,2.664
			c-0.002-0.021-0.007-0.04-0.007-0.061c0-1.281,1.043-2.326,2.326-2.326s2.326,1.045,2.326,2.326c0,1.285-1.043,2.327-2.326,2.327
			c-0.361,0-0.7-0.09-1.006-0.237l0.21,3.02c0.261,0.04,0.523,0.08,0.796,0.08c0.953,0,1.834-0.274,2.603-0.722l-0.15-2.177h2.183
			c0.345-0.693,0.555-1.463,0.555-2.291C142.844,165.221,142.634,164.449,142.289,163.756z"/>
	</g>
	<g>
		<path fill="grey" d="M103.904,117.943c0-2.864-2.323-5.188-5.189-5.188c-0.135,0-0.262,0.029-0.394,0.041l5.341,6.636
			C103.803,118.957,103.904,118.465,103.904,117.943z"/>
	</g>
	<g>
		<path fill="grey" d="M93.525,117.943c0,1.779,0.895,3.345,2.257,4.28l0.099-8.618
			C94.464,114.531,93.525,116.125,93.525,117.943z"/>
	</g>
	<g>
		<path fill="grey" d="M100.357,122.844c0.044-0.014,0.091-0.025,0.135-0.041l-0.133-0.166L100.357,122.844z"/>
	</g>
	<g>
		<path fill="grey" d="M103.661,119.431l-5.341-6.636c-0.895,0.068-1.729,0.345-2.44,0.81l-0.099,8.618
			c0.835,0.572,1.843,0.91,2.933,0.91c0.578,0,1.123-0.116,1.643-0.29l0.002-0.207l0.133,0.166
			C102.016,122.244,103.19,120.997,103.661,119.431z M98.714,120.27c-1.283,0-2.327-1.042-2.327-2.327
			c0-1.281,1.044-2.324,2.327-2.324s2.327,1.043,2.327,2.324C101.041,119.228,99.997,120.27,98.714,120.27z"/>
	</g>
	<g>
		<path fill="grey" d="M97.575,171.101c0.367,0.084,0.747,0.134,1.139,0.134c0.763,0,1.481-0.174,2.134-0.469l-2.464-1.913
			L97.575,171.101z"/>
	</g>
	<g>
		<path fill="grey" d="M99.917,161.01l-0.035,3.036c0.689,0.404,1.159,1.145,1.159,1.999c0,0.166-0.019,0.327-0.052,0.482
			l2.352,1.824c0.349-0.697,0.563-1.472,0.563-2.307C103.904,163.596,102.2,161.556,99.917,161.01z"/>
	</g>
	<g>
		<path fill="grey" d="M94.079,163.756h1.225l0.019-1.608C94.808,162.597,94.385,163.138,94.079,163.756z"/>
	</g>
	<g>
		<path fill="grey" d="M94.918,168.337h-0.839c0.15,0.305,0.327,0.588,0.531,0.854L94.918,168.337z"/>
	</g>
	<g>
		<path fill="grey" d="M98.714,168.373c-1.283,0-2.327-1.042-2.327-2.327c0-1.281,1.044-2.326,2.327-2.326
			c0.428,0,0.824,0.125,1.168,0.327l0.035-3.036c-0.388-0.092-0.787-0.153-1.203-0.153c-1.303,0-2.48,0.496-3.391,1.29l-0.019,1.608
			h-1.225c-0.344,0.693-0.555,1.466-0.555,2.29c0,0.828,0.211,1.598,0.555,2.291h0.839l-0.308,0.854
			c0.727,0.946,1.76,1.64,2.964,1.91l0.81-2.248l2.464,1.913c1.086-0.493,1.96-1.35,2.492-2.414l-2.352-1.824
			C100.767,167.58,99.832,168.373,98.714,168.373z"/>
	</g>
	<g>
		<path fill="grey" d="M72.426,168.337h-2.595l0.724,2.09C71.358,169.916,72.002,169.193,72.426,168.337z"/>
	</g>
	<g>
		<path fill="grey" d="M72.426,163.756c-0.597-1.203-1.638-2.134-2.917-2.584v2.584H72.426z"/>
	</g>
	<g>
		<path fill="grey" d="M63.812,169.341c0.828,0.998,2.011,1.672,3.366,1.835l-0.982-2.837L63.812,169.341z"/>
	</g>
	<g>
		<path fill="grey" d="M62.609,166.12l1.738-0.729l-1.286-1.456c-0.29,0.647-0.458,1.358-0.458,2.111
			C62.602,166.07,62.608,166.095,62.609,166.12z"/>
	</g>
	<g>
		<path fill="grey" d="M72.426,168.337c0.344-0.693,0.555-1.463,0.555-2.291c0-0.824-0.211-1.597-0.555-2.29h-2.917v-2.584
			c-0.54-0.191-1.112-0.314-1.718-0.314c-2.112,0-3.921,1.265-4.731,3.077l1.286,1.456l-1.738,0.729
			c0.018,1.229,0.473,2.34,1.204,3.221l2.383-1.002l0.982,2.837c0.204,0.022,0.403,0.06,0.613,0.06c1.019,0,1.962-0.303,2.763-0.809
			l-0.724-2.09H72.426z M67.791,168.373c-1.283,0-2.327-1.042-2.327-2.327c0-1.281,1.044-2.326,2.327-2.326s2.327,1.045,2.327,2.326
			C70.118,167.331,69.074,168.373,67.791,168.373z"/>
	</g>
	<g>
		<path fill="grey" d="M67.791,61.217c-1.627,0-3.062,0.766-4.014,1.937l2.367,0.962h1.293c0.116-0.018,0.233-0.036,0.354-0.036
			s0.238,0.018,0.354,0.036h4.281C71.578,62.405,69.831,61.217,67.791,61.217z"/>
	</g>
	<g>
		<path fill="grey" d="M72.426,68.697h-2.917v2.585C70.788,70.831,71.83,69.901,72.426,68.697z"/>
	</g>
	<g>
		<path fill="grey" d="M62.604,66.386c0,0.006-0.002,0.013-0.002,0.02c0,1.808,0.925,3.395,2.326,4.324v-3.4L62.604,66.386z"/>
	</g>
	<g>
		<path fill="grey" d="M95.722,61.261c-0.149-0.012-0.292-0.045-0.444-0.045c-2.04,0-3.787,1.188-4.635,2.899h3.787
			L95.722,61.261z"/>
	</g>
	<g>
		<path fill="grey" d="M90.643,68.697c0.848,1.711,2.595,2.899,4.635,2.899c0.424,0,0.83-0.065,1.225-0.161l-2.293-2.738H90.643z
			"/>
	</g>
	<g>
		<path fill="grey" d="M100.02,68.501c0.283-0.642,0.448-1.348,0.448-2.095c0-1.474-0.622-2.797-1.609-3.742l-1.308,2.889
			L100.02,68.501z"/>
	</g>
	<g>
		<path fill="grey" d="M100.02,68.501l-2.469-2.948l1.308-2.889c-0.83-0.794-1.925-1.298-3.137-1.403l-1.292,2.854h-3.787
			c-0.344,0.693-0.555,1.464-0.555,2.291s0.211,1.597,0.555,2.291h3.566l2.293,2.738C98.08,71.052,99.375,69.957,100.02,68.501z
			 M95.278,68.733c-1.283,0-2.326-1.044-2.326-2.327s1.043-2.327,2.326-2.327s2.327,1.044,2.327,2.327S96.561,68.733,95.278,68.733z
			"/>
	</g>
	<g>
		<path fill="grey" d="M209.906,86.197l-0.436,0.336l1.657,3.095c0.488-0.688,0.781-1.523,0.781-2.432
			c0-2.33-1.889-4.219-4.218-4.219c-0.041,0-0.08,0.011-0.121,0.013l0.309,0.574L209.906,86.197z"/>
	</g>
	<g>
		<path fill="grey" d="M206.273,88.991l-0.468-0.608l-2.329-1.149c0.021,2.312,1.898,4.18,4.215,4.18
			c0.951,0,1.818-0.326,2.523-0.856l-3.642-1.796L206.273,88.991z"/>
	</g>
	<g>
		<path fill="grey" d="M203.472,87.196c0,0.014,0.003,0.025,0.004,0.038l2.329,1.149l0.468,0.608l0.3-0.23l3.642,1.796
			c0.35-0.263,0.66-0.572,0.913-0.93l-1.657-3.095l0.436-0.336l-2.027-2.633l-0.309-0.574
			C205.298,83.054,203.472,84.908,203.472,87.196z M207.691,85.305c1.042,0,1.891,0.848,1.891,1.891c0,1.042-0.849,1.89-1.891,1.89
			c-1.043,0-1.891-0.848-1.891-1.89C205.801,86.153,206.648,85.305,207.691,85.305z"/>
	</g>
	<g>
		<path fill="grey" d="M187.463,46.011l0.457,0.295l1.602,2.989c0.391-0.639,0.628-1.382,0.628-2.185
			c0-2.33-1.89-4.219-4.218-4.219c-0.835,0-1.608,0.251-2.263,0.668l2.625,1.697C186.774,45.35,187.187,45.628,187.463,46.011z"/>
	</g>
	<g>
		<path fill="grey" d="M184.307,48.064l-2.527-1.631c-0.035,0.223-0.068,0.446-0.068,0.678c0,2.33,1.889,4.218,4.22,4.218
			c0.254,0,0.499-0.032,0.741-0.075l-1.248-2.33C184.949,48.791,184.552,48.48,184.307,48.064z"/>
	</g>
	<g>
		<path fill="grey" d="M187.463,46.011c0.223,0.31,0.358,0.688,0.358,1.1c0,1.042-0.848,1.89-1.89,1.89
			c-0.178,0-0.345-0.033-0.507-0.078l1.248,2.33c1.21-0.216,2.231-0.945,2.849-1.958l-1.602-2.989L187.463,46.011z"/>
	</g>
	<g>
		<path fill="grey" d="M181.78,46.433l2.527,1.631c-0.166-0.281-0.268-0.604-0.268-0.953c0-1.044,0.848-1.892,1.892-1.892
			c0.124,0,0.244,0.014,0.362,0.037l-2.625-1.697C182.677,44.193,181.976,45.225,181.78,46.433z"/>
	</g>
	<g>
		<path fill="grey" d="M163.464,34.909c-0.045,0.243-0.076,0.492-0.076,0.749c0,0.119,0.024,0.229,0.035,0.345l2.113,0.064
			L163.464,34.909z"/>
	</g>
	<g>
		<path fill="grey" d="M169.447,34.374l0.373-0.288l0.809,1.051l1.171,0.757c0.006-0.08,0.024-0.155,0.024-0.236
			c0-2.33-1.889-4.219-4.218-4.219c-0.805,0-1.549,0.237-2.189,0.628l3.427,1.916L169.447,34.374z"/>
	</g>
	<g>
		<path fill="grey" d="M168.429,39.793l-1.57-2.042v2.049c0.243,0.043,0.491,0.075,0.747,0.075
			C167.887,39.876,168.163,39.845,168.429,39.793z"/>
	</g>
	<g>
		<path fill="grey" d="M163.464,34.909l2.072,1.158l-2.113-0.064c0.156,1.915,1.577,3.465,3.437,3.798v-2.049l1.57,2.042
			c1.858-0.368,3.261-1.96,3.37-3.899l-1.171-0.757l-0.809-1.051l-0.373,0.288l-0.604-0.391l-3.427-1.916
			C164.409,32.684,163.68,33.702,163.464,34.909z M167.606,33.766c1.042,0,1.891,0.848,1.891,1.892c0,1.042-0.849,1.89-1.891,1.89
			c-1.044,0-1.892-0.848-1.892-1.89C165.715,34.615,166.562,33.766,167.606,33.766z"/>
	</g>
	<g>
		<path fill="grey" d="M133.645,14.696c0.236,0,0.462,0.048,0.669,0.128l0.206-0.037l3.338,1.866
			c0-0.022,0.006-0.043,0.006-0.066c0-2.33-1.889-4.219-4.219-4.219c-2.019,0-3.7,1.42-4.116,3.314l2.884-0.518
			C132.744,14.877,133.171,14.696,133.645,14.696z"/>
	</g>
	<g>
		<path fill="grey" d="M136.387,19.768l-2.018-1.128L132,20.472c0.507,0.214,1.062,0.333,1.646,0.333
			C134.699,20.805,135.648,20.406,136.387,19.768z"/>
	</g>
	<g>
		<path fill="grey" d="M132,20.472l2.37-1.833l2.018,1.128c0.88-0.76,1.45-1.865,1.471-3.115l-3.338-1.866l-0.206,0.037
			c0.712,0.271,1.222,0.956,1.222,1.763c0,1.042-0.848,1.891-1.891,1.891c-1.042,0-1.891-0.848-1.891-1.891
			c0-0.57,0.259-1.075,0.658-1.422l-2.884,0.518c-0.062,0.292-0.103,0.594-0.103,0.904C129.427,18.333,130.488,19.83,132,20.472z"/>
	</g>
	<g>
		<path fill="grey" d="M106.546,37.36l-0.999-0.178c0.12,0.431,0.292,0.84,0.534,1.204L106.546,37.36z"/>
	</g>
	<g>
		<path fill="grey" d="M111.24,32.171c-0.506-0.215-1.062-0.333-1.646-0.333c-1.49,0-2.793,0.778-3.543,1.944l2.522,0.449
			L111.24,32.171z"/>
	</g>
	<g>
		<path fill="grey" d="M110.084,37.874l-1.061,2.343c0.189,0.027,0.375,0.059,0.571,0.059c1.662,0,3.085-0.97,3.774-2.367
			l-3.091-0.094C110.215,37.838,110.15,37.856,110.084,37.874z"/>
	</g>
	<g>
		<path fill="grey" d="M106.081,38.386c0.655,0.986,1.716,1.664,2.942,1.831l1.061-2.343c-0.157,0.042-0.319,0.073-0.49,0.073
			c-1.043,0-1.891-0.848-1.891-1.89c0-1.043,0.848-1.891,1.891-1.891s1.891,0.848,1.891,1.891c0,0.801-0.502,1.483-1.208,1.758
			l3.091,0.094c0.275-0.561,0.445-1.184,0.445-1.852c0-1.745-1.062-3.244-2.573-3.886l-2.666,2.06l-2.522-0.449
			c-0.423,0.657-0.675,1.436-0.675,2.275c0,0.392,0.071,0.765,0.171,1.126l0.999,0.178L106.081,38.386z"/>
	</g>
	<g>
		<path fill="grey" d="M72.04,31.216l-2.617-0.467c-0.302,0.205-0.667,0.326-1.059,0.326c-0.199,0-0.387-0.039-0.567-0.096
			l-1.218,2.015c0.544,0.256,1.145,0.409,1.785,0.409C69.953,33.403,71.321,32.514,72.04,31.216z"/>
	</g>
	<g>
		<path fill="grey" d="M66.358,26.714l0.859,0.153l4.054-0.728c-0.757-0.723-1.777-1.173-2.907-1.173
			c-2.33,0-4.218,1.891-4.218,4.219c0,0.059,0.015,0.113,0.017,0.172l1.679-1.788L66.358,26.714z"/>
	</g>
	<g>
		<path fill="grey" d="M66.579,32.994l1.218-2.015c-0.765-0.243-1.324-0.951-1.324-1.794c0-1.042,0.848-1.89,1.891-1.89
			s1.891,0.848,1.891,1.89c0,0.65-0.33,1.225-0.832,1.564l2.617,0.467c0.334-0.605,0.542-1.291,0.542-2.031
			c0-1.2-0.507-2.277-1.312-3.045l-4.054,0.728l-0.859-0.153l-0.516,0.854l-1.679,1.788C64.229,30.972,65.195,32.344,66.579,32.994z
			"/>
	</g>
	<g>
		<path fill="grey" d="M52.948,62.463l-2.277-0.925c-0.266,0.227-0.591,0.38-0.953,0.433l-0.755,2.307
			c0.161,0.019,0.319,0.049,0.486,0.049C50.906,64.326,52.19,63.587,52.948,62.463z"/>
	</g>
	<g>
		<path fill="grey" d="M53.493,58.976c-0.231-0.828-0.704-1.545-1.344-2.083l-0.745,1.235L53.493,58.976z"/>
	</g>
	<g>
		<path fill="grey" d="M47.834,56.677l0.348,0.142l0.515-0.854c-1.679,0.303-3.012,1.592-3.369,3.252l2.122-1.368L47.834,56.677z
			"/>
	</g>
	<g>
		<path fill="grey" d="M49.448,61.997c-1.043,0-1.891-0.848-1.891-1.89s0.848-1.89,1.891-1.89c1.042,0,1.891,0.848,1.891,1.89
			c0,0.575-0.263,1.084-0.669,1.431l2.277,0.925c0.454-0.672,0.719-1.483,0.719-2.355c0-0.395-0.072-0.768-0.173-1.131l-2.089-0.849
			l0.745-1.235c-0.734-0.618-1.667-1.004-2.701-1.004c-0.258,0-0.506,0.031-0.751,0.076l-0.515,0.854l-0.348-0.142l-0.384,1.172
			l-2.122,1.368c-0.062,0.287-0.099,0.584-0.099,0.89c0,2.164,1.634,3.926,3.732,4.17l0.755-2.307
			C49.629,61.983,49.54,61.997,49.448,61.997z"/>
	</g>
	<g>
		<path fill="grey" d="M21.3,74.701l0.322-0.207c0.211-0.459,0.602-0.814,1.082-0.985l2.049-2.183
			c-0.445-0.159-0.918-0.262-1.418-0.262c-2.33,0-4.218,1.89-4.218,4.218c0,1.542,0.834,2.875,2.067,3.612l0.217-3.289L21.3,74.701z
			"/>
	</g>
	<g>
		<path fill="grey" d="M25.238,79.028c1.368-0.697,2.315-2.104,2.315-3.746c0-0.167-0.03-0.329-0.05-0.492l-2.554,1.646
			L25.238,79.028z"/>
	</g>
	<g>
		<path fill="grey" d="M25.238,79.028l-0.289-2.592l2.554-1.646c-0.189-1.61-1.271-2.934-2.75-3.465l-2.049,2.183
			c0.198-0.07,0.409-0.116,0.631-0.116c1.043,0,1.891,0.848,1.891,1.89c0,1.043-0.848,1.891-1.891,1.891
			c-1.042,0-1.891-0.848-1.891-1.891c0-0.281,0.067-0.548,0.178-0.788L21.3,74.701l0.101,0.905l-0.217,3.289
			c0.631,0.376,1.362,0.607,2.15,0.607C24.023,79.501,24.663,79.32,25.238,79.028z"/>
	</g>
	<g>
		<path fill="grey" d="M26.489,121.407l-0.337-3.042c-1.246,0.733-2.091,2.076-2.091,3.624c0,0.849,0.255,1.635,0.687,2.297
			l1.673-2.615C26.435,121.579,26.461,121.491,26.489,121.407z"/>
	</g>
	<g>
		<path fill="grey" d="M31.095,118.87l-0.878,2.683l1.905,2.158c0.236-0.528,0.374-1.106,0.374-1.722
			C32.497,120.746,31.95,119.642,31.095,118.87z"/>
	</g>
	<g>
		<path fill="grey" d="M31.095,118.87c-0.748-0.678-1.729-1.101-2.817-1.101c-0.779,0-1.5,0.226-2.127,0.596l0.337,3.042
			c0.248-0.757,0.952-1.309,1.79-1.309c1.043,0,1.891,0.847,1.891,1.891c0,1.042-0.848,1.89-1.891,1.89s-1.891-0.848-1.891-1.89
			c0-0.108,0.015-0.216,0.032-0.318l-1.673,2.615c0.752,1.153,2.05,1.922,3.532,1.922c1.715,0,3.185-1.027,3.844-2.497l-1.905-2.158
			L31.095,118.87z"/>
	</g>
	<g>
		<path fill="grey" d="M17.226,136.269c0-0.318,0.086-0.615,0.227-0.88l0.202-3.064c-1.606,0.598-2.757,2.132-2.757,3.944
			c0,2.33,1.889,4.218,4.218,4.218c0.023,0,0.043-0.007,0.066-0.007l-1.3-2.789C17.484,137.344,17.226,136.84,17.226,136.269z"/>
	</g>
	<g>
		<path fill="grey" d="M22.292,139.018c0.641-0.739,1.042-1.693,1.042-2.749c0-0.854-0.258-1.649-0.696-2.316l-1.565,2.448
			L22.292,139.018z"/>
	</g>
	<g>
		<path fill="grey" d="M22.292,139.018l-1.22-2.617l1.565-2.448c-0.754-1.146-2.048-1.902-3.521-1.902
			c-0.516,0-1.004,0.107-1.461,0.274l-0.202,3.064c0.318-0.598,0.94-1.011,1.664-1.011c1.042,0,1.89,0.848,1.89,1.891
			c0,1.042-0.848,1.889-1.89,1.889c-0.474,0-0.901-0.181-1.233-0.467l1.3,2.789C20.429,140.461,21.532,139.895,22.292,139.018z"/>
	</g>
	<g>
		<path fill="grey" d="M42.099,178.461l0.48,0.34c0.064-0.196,0.121-0.397,0.155-0.607L42.099,178.461z"/>
	</g>
	<g>
		<path fill="grey" d="M37.282,180.483l-0.346-1.886l-1.695-3.64c-0.54,0.71-0.873,1.582-0.873,2.542
			c0,2.33,1.889,4.218,4.218,4.218c0.596,0,1.161-0.124,1.674-0.349l-1.89-1.343L37.282,180.483z"/>
	</g>
	<g>
		<path fill="grey" d="M39.471,173.377l0.419,2.284l1.947-0.816C41.243,174.115,40.424,173.58,39.471,173.377z"/>
	</g>
	<g>
		<path fill="grey" d="M42.579,178.801l-0.48-0.34l0.635-0.268c0.038-0.227,0.07-0.454,0.07-0.693
			c0-1.012-0.372-1.929-0.967-2.655l-1.947,0.816l-0.419-2.284c-0.286-0.061-0.581-0.096-0.885-0.096
			c-1.37,0-2.575,0.663-3.346,1.677l1.695,3.64l0.346,1.886l1.088-0.457l1.89,1.343C41.363,180.892,42.203,179.953,42.579,178.801z
			 M38.586,179.388c-1.043,0-1.891-0.847-1.891-1.889c0-1.043,0.848-1.891,1.891-1.891s1.891,0.848,1.891,1.891
			C40.477,178.542,39.629,179.388,38.586,179.388z"/>
	</g>
	<g>
		<path fill="grey" d="M81.907,203.175l0.23,0.664l0.237-0.657c-0.09-0.007-0.176-0.026-0.268-0.026
			C82.039,203.155,81.975,203.17,81.907,203.175z"/>
	</g>
	<g>
		<path fill="grey" d="M84.717,206.818l1.527-0.255c-0.127-0.653-0.414-1.241-0.805-1.751L84.717,206.818z"/>
	</g>
	<g>
		<path fill="grey" d="M80.959,210.927l-0.104-0.3l-1.133-0.08l0.327-0.906l-2.081-1.479c0.371,1.952,2.08,3.429,4.139,3.429
			c0.863,0,1.665-0.262,2.333-0.707l-2.255-0.16L80.959,210.927z"/>
	</g>
	<g>
		<path fill="grey" d="M86.325,207.373c0-0.277-0.03-0.546-0.082-0.81l-1.527,0.255l0.723-2.006
			c-0.72-0.934-1.814-1.551-3.064-1.631l-0.237,0.657l-0.23-0.664c-2.235,0.104-4.018,1.937-4.018,4.198
			c0,0.271,0.03,0.533,0.079,0.79l2.081,1.479l-0.327,0.906l1.133,0.08l0.104,0.3l1.227-0.203l2.255,0.16
			C85.576,210.129,86.325,208.839,86.325,207.373z M82.108,209.262c-1.043,0-1.891-0.847-1.891-1.89c0-1.042,0.848-1.89,1.891-1.89
			c1.042,0,1.89,0.848,1.89,1.89C83.998,208.416,83.15,209.262,82.108,209.262z"/>
	</g>
	<g>
		<path fill="grey" d="M141.564,203.427c1.427-0.368,2.548-1.454,2.973-2.856l-2.631,0.81L141.564,203.427z"/>
	</g>
	<g>
		<path fill="grey" d="M138.547,195.647c-0.009,0.004-0.019,0.009-0.028,0.016l0.03,0.022L138.547,195.647z"/>
	</g>
	<g>
		<path fill="grey" d="M141.973,195.41l0.159,2.305l1.947-0.6C143.589,196.337,142.851,195.734,141.973,195.41z"/>
	</g>
	<g>
		<path fill="grey" d="M138.175,202.864l0.253-1.516l-1.474,0.247C137.272,202.098,137.681,202.532,138.175,202.864z"/>
	</g>
	<g>
		<path fill="grey" d="M141.973,195.41c-0.455-0.167-0.941-0.272-1.456-0.272c-0.716,0-1.38,0.194-1.971,0.51l0.002,0.038
			l-0.03-0.022c-1.315,0.714-2.22,2.092-2.22,3.693c0,0.825,0.246,1.588,0.655,2.239l1.474-0.247l-0.253,1.516
			c0.671,0.446,1.476,0.711,2.343,0.711c0.363,0,0.711-0.061,1.047-0.147l0.342-2.047l2.631-0.81
			c0.116-0.388,0.199-0.79,0.199-1.215c0-0.826-0.246-1.591-0.656-2.241l-1.947,0.6L141.973,195.41z M140.517,201.247
			c-1.042,0-1.891-0.849-1.891-1.891s0.849-1.891,1.891-1.891s1.891,0.849,1.891,1.891S141.559,201.247,140.517,201.247z"/>
	</g>
	<g>
		<path fill="grey" d="M134.578,211.021l2.212,0.157l0.356-2.142C136.045,209.33,135.13,210.053,134.578,211.021z"/>
	</g>
	<g>
		<path fill="grey" d="M139.772,214.182l-0.108,0.646l-0.602-0.042c-0.254,0.126-0.533,0.204-0.836,0.204
			c-0.4,0-0.77-0.128-1.075-0.341l-2.904-0.208c0.563,1.67,2.123,2.877,3.979,2.877c2.33,0,4.219-1.888,4.219-4.219
			c0-0.166-0.031-0.322-0.049-0.482l-2.551,1.444C139.822,214.101,139.8,214.144,139.772,214.182z"/>
	</g>
	<g>
		<path fill="grey" d="M140.513,209.735l0.139-0.078c-0.038-0.027-0.075-0.056-0.112-0.08L140.513,209.735z"/>
	</g>
	<g>
		<path fill="grey" d="M140.652,209.657l-0.139,0.078l0.026-0.158c-0.664-0.439-1.459-0.696-2.313-0.696
			c-0.376,0-0.733,0.065-1.08,0.156l-0.356,2.142l-2.212-0.157c-0.354,0.615-0.57,1.317-0.57,2.078c0,0.472,0.097,0.92,0.239,1.342
			l2.904,0.208c-0.492-0.342-0.814-0.908-0.814-1.55c0-1.042,0.848-1.891,1.89-1.891s1.891,0.849,1.891,1.891
			c0,0.351-0.104,0.678-0.271,0.962l2.551-1.444C142.256,211.394,141.609,210.332,140.652,209.657z"/>
	</g>
	<g>
		<path fill="grey" d="M139.062,214.786l0.602,0.042l0.108-0.646C139.592,214.439,139.345,214.645,139.062,214.786z"/>
	</g>
	<g>
		<path fill="grey" d="M186.373,181.584c-0.38-0.111-0.772-0.189-1.188-0.189c-0.53,0-1.032,0.107-1.5,0.285l1.688,1.64
			L186.373,181.584z"/>
	</g>
	<g>
		<path fill="grey" d="M189.033,186.879l-2.592,0.799l-3.062,1.733c0.549,0.262,1.156,0.42,1.806,0.42
			c2.329,0,4.219-1.887,4.219-4.219c0-0.622-0.144-1.208-0.385-1.737l-1.105,1.914L189.033,186.879z"/>
	</g>
	<g>
		<path fill="grey" d="M180.98,185.76l1.499-0.462l-1.226-1.189c-0.179,0.468-0.289,0.971-0.289,1.503
			C180.965,185.664,180.978,185.711,180.98,185.76z"/>
	</g>
	<g>
		<path fill="grey" d="M186.373,181.584l-1.001,1.735l-1.688-1.64c-1.118,0.428-2.002,1.311-2.431,2.43l1.226,1.189l-1.499,0.462
			c0.059,1.616,1.019,2.992,2.398,3.65l3.062-1.733l2.592-0.799l-1.12-1.09l1.105-1.914
			C188.516,182.769,187.552,181.932,186.373,181.584z M185.184,187.503c-1.043,0-1.891-0.848-1.891-1.891
			c0-1.042,0.848-1.89,1.891-1.89c1.042,0,1.89,0.848,1.89,1.89C187.074,186.655,186.226,187.503,185.184,187.503z"/>
	</g>
	<g>
		<path fill="grey" d="M208.49,142.092c0-1.043,0.848-1.891,1.891-1.891c0.956,0,1.739,0.716,1.865,1.638l0.767,0.442
			l-2.304,3.996c2.173-0.171,3.891-1.97,3.891-4.186c0-2.328-1.89-4.219-4.219-4.219c-2.33,0-4.219,1.891-4.219,4.219
			c0,1.176,0.483,2.239,1.261,3.004l1.262-2.185C208.564,142.662,208.49,142.386,208.49,142.092z"/>
	</g>
	<g>
		<path fill="grey" d="M210.709,146.277l2.304-3.996l-0.767-0.442c0.012,0.082,0.025,0.166,0.025,0.253
			c0,1.042-0.849,1.89-1.891,1.89c-0.748,0-1.39-0.44-1.696-1.07l-1.262,2.185c0.762,0.749,1.804,1.214,2.958,1.214
			C210.493,146.309,210.599,146.285,210.709,146.277z"/>
	</g>
	<g>
		<g>
			<path fill="grey" d="M72.426,64.116h-4.281c1.114,0.172,1.973,1.128,1.973,2.291c0,1.283-1.044,2.327-2.327,2.327
				s-2.327-1.044-2.327-2.327c0-1.162,0.858-2.119,1.973-2.291h-1.293l-2.367-0.962c-0.72,0.887-1.169,2.002-1.174,3.233
				l2.324,0.943v3.4c0.821,0.545,1.804,0.866,2.863,0.866c0.606,0,1.178-0.123,1.718-0.314v-2.585h2.917
				c0.344-0.694,0.555-1.464,0.555-2.291S72.77,64.809,72.426,64.116z"/>
		</g>
	</g>
</g>
</svg>
