<?xml version="1.0" encoding="utf-8"?>
<!DOCTYPE svg PUBLIC "-//W3C//DTD SVG 1.1//EN" "http://www.w3.org/Graphics/SVG/1.1/DTD/svg11.dtd">
<svg version="1.1" id="Layer_1" xmlns="http://www.w3.org/2000/svg" xmlns:xlink="http://www.w3.org/1999/xlink" x="0px" y="0px"
	 width="226.777px" height="226.777px" viewBox="0 0 226.777 226.777" enable-background="new 0 0 226.777 226.777"
	 xml:space="preserve">
<path fill="gray" d="M112.388,10.356c-56.903,0-103.032,46.129-103.032,103.032S55.485,216.42,112.388,216.42S215.42,170.291,215.42,113.388
	S169.291,10.356,112.388,10.356z M89.166,158.386l-50.144-42.73l27.32-41.985l15.815,20.238l-15.521,22.132l26.739,42.346H89.166z
	 M100.24,158.386l-23.657-42.346l34.862-47.561l34.859,47.564l-21.291,42.342H100.24z M136.478,158.386h-4.209l22.53-42.346
	l-15.521-22.132l15.819-20.238l27.319,41.985L136.478,158.386z"/>
</svg>
