<?xml version="1.0" encoding="utf-8"?>
<!DOCTYPE svg PUBLIC "-//W3C//DTD SVG 1.1//EN" "http://www.w3.org/Graphics/SVG/1.1/DTD/svg11.dtd">
<svg version="1.1" id="Layer_1" xmlns="http://www.w3.org/2000/svg" xmlns:xlink="http://www.w3.org/1999/xlink" x="0px" y="0px"
	 width="226.777px" height="226.777px" viewBox="0 0 226.777 226.777" enable-background="new 0 0 226.777 226.777"
	 xml:space="preserve">
<path fill="grey" d="M112.344,4.917c7.998-0.022,15.674,3.159,21.312,8.832l76.372,76.312c11.758,11.769,11.758,30.839,0,42.609l-36.928,36.851
	v0.197v38.539c0.006,3.193-2.48,5.837-5.666,6.029h-0.106c-3.135,0-5.366-3.015-5.32-6.181l0.347-4.626l0,0v-23.076v-11.138
	c0.03-0.789-0.289-1.552-0.874-2.08l-1.915-1.764l-19.804-18.088l-21.962-21.553c-7.956,3.08-16.903-0.873-19.983-8.83
	c-3.08-7.958,0.874-16.903,8.831-19.985c7.957-3.08,16.903,0.874,19.983,8.831c0.689,1.778,1.041,3.668,1.041,5.575
	c0.012,2.316-0.503,4.604-1.506,6.692l40.8,40.032l34.154-34.154c6.947-6.943,6.948-18.206,0.004-25.151
	c-0.002-0.002-0.002-0.003-0.004-0.005l-76.19-76.311c-6.933-6.945-18.184-6.957-25.13-0.024c-0.008,0.007-0.017,0.017-0.025,0.024
	L23.463,98.772c-6.931,6.953-6.931,18.202,0,25.154l76.311,76.312c1.642,1.658,3.6,2.972,5.758,3.858
	c6.65,2.76,14.309,1.236,19.397-3.858l28.441-28.441l1.508,1.086l-0.182,15.6l0,0l-20.755,20.559
	c-11.85,11.775-30.984,11.775-42.835,0L14.765,132.67c-11.757-11.771-11.757-30.84,0-42.609l76.281-76.312
	C96.679,8.076,104.349,4.896,112.344,4.917"/>
</svg>
