<?xml version="1.0" encoding="utf-8"?>
<!DOCTYPE svg PUBLIC "-//W3C//DTD SVG 1.1//EN" "http://www.w3.org/Graphics/SVG/1.1/DTD/svg11.dtd">
<svg version="1.1" id="Layer_1" xmlns="http://www.w3.org/2000/svg" xmlns:xlink="http://www.w3.org/1999/xlink" x="0px" y="0px"
	  viewBox="0 0 841.889 595.281" enable-background="new 0 0 841.889 595.281"
	 xml:space="preserve">
<g fill="grey">
	<path d="M261.756,295.646c10.487-10.474,171.906-171.077,182.585-180.511c102.547-90.613,162.972-45.274,185.305-23.432
		c-0.223-0.222-0.433-0.446-0.654-0.667C515.938-22.144,332.539-22.246,219.36,90.806
		c-113.181,113.053-113.282,296.454-0.23,409.635c0.147,0.144,0.3,0.284,0.447,0.433
		C174.643,455.411,149.805,407.474,261.756,295.646z"/>
	<g>
		<path opacity="0.8" d="M629.416,91.482c-22.513-21.925-82.872-66.657-185.075,23.653c-1.768,1.562-7.685,7.285-16.344,15.766
			c31.141,30.28,153.345,152.163,162.238,161.065c91.771,91.875,91.468,140.621,63.539,180.249
			C741.099,358.837,733.003,195.617,629.416,91.482z"/>
		<g>
			<path d="M593.312,295.097c-19.674,20.654-156.041,157.387-165.481,166.816c-91.874,91.771-140.62,91.466-180.245,63.537
				c113.533,87.449,277.062,79.215,381.176-24.781c9.104-9.093,17.458-18.649,25.099-28.578
				C681.38,432.943,681.838,384.839,593.312,295.097z"/>
			<g opacity="0.8">
				<path d="M269.325,540.655c-7.421-4.699-14.677-9.768-21.74-15.205c39.625,27.929,88.371,28.233,180.245-63.537
					c0.007-0.005,0.018-0.017,0.022-0.021c-1.289-1.271-2.578-2.541-3.882-3.848c-8.534-8.544-116.683-117.237-161.591-163.022
					c-0.245,0.246-0.457,0.457-0.624,0.625c-111.951,111.828-87.113,159.765-42.179,205.228c-0.147-0.148-0.299-0.289-0.447-0.433
					C234.656,515.982,251.513,529.379,269.325,540.655z"/>
			</g>
		</g>
	</g>
</g>
</svg>
