<?xml version="1.0" encoding="utf-8"?>
<!DOCTYPE svg PUBLIC "-//W3C//DTD SVG 1.1//EN" "http://www.w3.org/Graphics/SVG/1.1/DTD/svg11.dtd">
<svg version="1.1" id="Layer_1" xmlns="http://www.w3.org/2000/svg" xmlns:xlink="http://www.w3.org/1999/xlink" x="0px" y="0px"
	 width="226.777px" height="226.777px" viewBox="0 0 226.777 226.777" enable-background="new 0 0 226.777 226.777"
	 xml:space="preserve">
<polygon fill="grey" points="39.541,155.966 39.531,155.958 39.531,69.463 114.439,26.211 170.678,58.684 170.678,36.128 
	114.439,3.659 19.998,58.183 19.998,167.238 39.541,178.521 "/>
<g>
	<polygon fill="grey" points="58.424,76.279 58.424,76.28 58.978,75.953 	"/>
	<polygon fill="grey" points="59.285,75.772 58.978,75.953 59.285,75.772 	"/>
	<polygon fill="grey" points="170.192,75.753 171.11,76.28 171.11,76.279 114.101,43.492 59.285,75.772 114.111,104.813 	"/>
	<path fill="grey" d="M68.6,116.06c0,10.016,8.149,18.165,18.166,18.165c10.016,0,18.166-8.149,18.166-18.165
		c0-10.017-8.15-18.167-18.166-18.167C76.749,97.893,68.6,106.044,68.6,116.06z M96.924,116.06c0,5.607-4.548,10.157-10.159,10.157
		c-5.609,0-10.157-4.55-10.157-10.157c0-5.61,4.548-10.158,10.157-10.158C92.375,105.902,96.924,110.45,96.924,116.06z"/>
	<circle fill="grey" cx="86.765" cy="116.06" r="5.079"/>
	<circle fill="grey" cx="140.94" cy="116.059" r="5.078"/>
	<path fill="grey" d="M189.502,46.995v49.067h-0.153v59.897l-18.238,10.53V80.121l-26.565,13.766
		c10.679,1.73,18.863,11.013,18.863,22.174c0,12.386-10.081,22.466-22.468,22.466c-8.198,0-15.383-4.419-19.306-10.996
		l-7.159,15.757l-8.802-15.117c-4,6.223-10.978,10.356-18.907,10.356c-12.387,0-22.466-10.08-22.466-22.466
		c0-11.472,8.646-20.958,19.763-22.298L58.424,80.18v86.686l-0.061-0.035v22.557l56.076,32.37l94.441-54.519V58.184L189.502,46.995z
		"/>
	<polygon fill="grey" points="107.511,123.352 113.888,134.114 120.172,123.257 113.674,112.4 	"/>
	<path fill="grey" d="M140.94,134.225c10.017,0,18.167-8.149,18.167-18.165c0-10.017-8.15-18.167-18.167-18.167
		c-10.015,0-18.164,8.15-18.164,18.167C122.776,126.076,130.926,134.225,140.94,134.225z M140.939,105.902
		c5.611,0,10.159,4.548,10.159,10.158c0,5.607-4.548,10.157-10.159,10.157c-5.608,0-10.156-4.55-10.156-10.157
		C130.783,110.45,135.331,105.902,140.939,105.902z"/>
</g>
</svg>
