<?xml version="1.0" encoding="utf-8"?>
<!DOCTYPE svg PUBLIC "-//W3C//DTD SVG 1.1//EN" "http://www.w3.org/Graphics/SVG/1.1/DTD/svg11.dtd">
<svg version="1.1" id="Layer_1" xmlns="http://www.w3.org/2000/svg" xmlns:xlink="http://www.w3.org/1999/xlink" x="0px" y="0px"
	 width="226.777px" height="226.777px" viewBox="0 0 226.777 226.777" enable-background="new 0 0 226.777 226.777"
	 xml:space="preserve">
<circle fill="grey" cx="164.997" cy="21.621" r="12.137"/>
<path fill="grey" d="M169.379,104.048c0.048-0.956,0.073-1.917,0.073-2.884c0-31.827-25.802-57.627-57.628-57.627
	c-29.684,0-54.121,22.443-57.279,51.286c-0.174,0.688-0.267,1.408-0.267,2.15v1.125c-0.054,1.015-0.082,2.037-0.082,3.066
	c0,1.028,0.028,2.05,0.082,3.066v103.286c0,4.822,3.909,8.732,8.731,8.732s8.732-3.91,8.732-8.732v-64.952
	c10.372,10.043,24.504,16.229,40.083,16.229c15.71,0,29.951-6.29,40.346-16.486l-0.096,9.676c0,4.822,3.91,8.731,8.732,8.731
	s8.732-3.909,8.732-8.731v-46.277C169.539,105.138,169.483,104.585,169.379,104.048z M111.823,142.202
	c-22.628,0-41.037-18.41-41.037-41.038c0-22.628,18.409-41.037,41.037-41.037c22.628,0,41.037,18.409,41.037,41.037
	C152.86,123.792,134.452,142.202,111.823,142.202z"/>
</svg>
