<?xml version="1.0" encoding="utf-8"?>
<!DOCTYPE svg PUBLIC "-//W3C//DTD SVG 1.1//EN" "http://www.w3.org/Graphics/SVG/1.1/DTD/svg11.dtd">
<svg version="1.1" id="Layer_1" xmlns="http://www.w3.org/2000/svg" xmlns:xlink="http://www.w3.org/1999/xlink" x="0px" y="0px"
	 width="226.777px" height="226.777px" viewBox="0 0 226.777 226.777" enable-background="new 0 0 226.777 226.777"
	 xml:space="preserve">
<g>
	<g>
		<circle fill="grey" cx="112.543" cy="114.369" r="36.008"/>
		<path fill="grey" d="M39.49,135.871h4.664c14.895,0,27.588-11.527,28.106-26.424c0.519-15.542-11.916-28.495-27.459-28.495H6.072
			C4.907,81.081,4,81.988,4,83.154v62.82c0,1.165,0.907,2.071,2.072,2.071h29.144c1.166,0,2.073-0.906,2.073-2.071l0.129-8.031
			C37.418,136.777,38.324,135.871,39.49,135.871z"/>
		<path fill="grey" d="M180.025,81.081l-38.599,63.986c-0.647,1.425,0.259,2.979,1.813,2.979l31.604,0.13l45.463-0.13
			c1.555,0,2.591-1.684,1.813-2.979l-38.469-63.986C182.875,79.527,180.802,79.527,180.025,81.081z"/>
	</g>
</g>
</svg>
