<?xml version="1.0" encoding="utf-8"?>
<!DOCTYPE svg PUBLIC "-//W3C//DTD SVG 1.1//EN" "http://www.w3.org/Graphics/SVG/1.1/DTD/svg11.dtd">
<svg version="1.1" id="Layer_1" xmlns="http://www.w3.org/2000/svg" xmlns:xlink="http://www.w3.org/1999/xlink" x="0px" y="0px"
	 width="226.777px" height="226.777px" viewBox="0 0 226.777 226.777" enable-background="new 0 0 226.777 226.777"
	 xml:space="preserve">
<path fill="gray" d="M112.021,3.543C52.387,3.543,4.043,51.887,4.043,111.521c0,59.636,48.344,107.979,107.978,107.979
	C171.657,219.5,220,171.157,220,111.521C220,51.887,171.657,3.543,112.021,3.543z M214.509,107.107l-8.742,0.085l-0.036-3.66
	l8.743-0.084L214.509,107.107z M212.262,88.229l-8.663,1.202l-0.503-3.625l8.662-1.202L212.262,88.229z M204.802,65.241l1.515,3.332
	l-7.96,3.618l-1.515-3.331L204.802,65.241z M193.894,48.594l2.416,2.75l-6.569,5.771l-2.415-2.75L193.894,48.594z M181.086,34.928
	l2.771,2.389l-5.707,6.623l-2.772-2.389L181.086,34.928z M165.82,22.57l3.071,1.992l-4.761,7.335l-3.069-1.992L165.82,22.57z
	 M148.458,13.999l3.538,0.931l-2.225,8.456l-3.539-0.932L148.458,13.999z M129.354,9.303l3.647,0.305l-0.729,8.714l-3.646-0.305
	L129.354,9.303z M109.582,7h3.659v8.744h-3.659V7z M93.35,9.303l0.728,8.714l-3.647,0.305l-0.728-8.714L93.35,9.303z M74.246,13.999
	l2.225,8.455l-3.54,0.932l-2.225-8.456L74.246,13.999z M56.883,22.57l4.759,7.335l-3.07,1.992l-4.76-7.335L56.883,22.57z
	 M41.618,34.928l5.709,6.623l-2.772,2.389l-5.708-6.623L41.618,34.928z M28.809,48.594l6.568,5.772l-2.416,2.75l-6.568-5.771
	L28.809,48.594z M17.902,65.241l7.959,3.619l-1.514,3.331l-7.96-3.618L17.902,65.241z M10.946,84.604l8.661,1.202l-0.503,3.625
	l-8.661-1.202L10.946,84.604z M8.23,103.448l8.743,0.084l-0.035,3.66l-8.743-0.085L8.23,103.448z M9.035,123.988l8.699-0.883
	l0.369,3.641l-8.699,0.883L9.035,123.988z M12.998,142.581l8.515-1.988l0.833,3.563l-8.515,1.989L12.998,142.581z M22.528,164.792
	l-1.812-3.18l7.596-4.333l1.812,3.181L22.528,164.792z M34.91,180.371l-2.656-2.515l6.014-6.35l2.657,2.518L34.91,180.371z
	 M48.915,192.81l-2.979-2.125l5.079-7.118l2.979,2.127L48.915,192.81z M65.245,203.72l-3.24-1.7l4.07-7.739l3.239,1.702
	L65.245,203.72z M83.319,210.67l-3.609-0.604l1.443-8.623l3.61,0.604L83.319,210.67z M99.112,213.631l-0.071-8.743l3.66-0.031
	l0.071,8.745L99.112,213.631z M21.125,111.521c0-50.121,40.775-90.896,90.896-90.896s90.897,40.775,90.897,90.896
	s-40.776,90.897-90.897,90.897S21.125,161.642,21.125,111.521z M119.145,214.41L119.145,214.41l-0.118,0.01l-0.799-8.706
	l3.645-0.334l0,0l0.119-0.011l0.799,8.707L119.145,214.41z M138.626,210.31l-1.521-8.611l3.603-0.637l1.521,8.611L138.626,210.31z
	 M157.22,203.888l-2.989-8.218l3.439-1.251l2.987,8.218L157.22,203.888z M173.727,193.766l-5.41-6.87l2.874-2.263l5.412,6.87
	L173.727,193.766z M187.799,180.064l-6.29-6.073l2.543-2.632l6.289,6.074L187.799,180.064z M199.305,165.285l-7.069-5.147
	l2.154-2.958l7.07,5.147L199.305,165.285z M208.645,147.711l-8.258-2.876l1.204-3.457l8.258,2.878L208.645,147.711z
	 M213.803,127.794l-8.734-0.406l0.168-3.654l8.736,0.404L213.803,127.794z"/>
<path fill="gray" d="M146.728,157.972l-2.724-2.756l-5.289-5.352c6.138-5.827,10.021-11.715,9.399-25.272c-0.05-1.056,0.062-14.558,0.062-15.629
	c0-1.065-0.036-9.086-0.035-10.136c0.035-25.03-6.081-36.381-22.951-40.401c-1.909-0.455-11.124-0.691-13.119-0.691h-0.902
	c-1.995,0-12.43,0.236-14.338,0.691c-16.871,4.02-22.986,15.372-22.951,40.401c0.001,1.05-0.035,9.071-0.035,10.136
	c0,1.071,0.11,14.573,0.062,15.629c-1.15,25.09,13.122,32.798,28.572,32.235h17.064c4.527,0.165,8.952-0.697,12.918-2.624
	l6.21,6.284l2.726,2.756l0.003-0.006c1.56,1.486,3.943,1.554,5.388,0.126c1.443-1.428,1.404-3.812-0.062-5.388L146.728,157.972z
	 M120.633,148.864c-0.266,0-0.531-0.005-0.799-0.015l-0.146-0.006h-17.356l-0.146,0.006c-0.266,0.01-0.534,0.015-0.799,0.015
	c-3.67,0-8.938-0.935-13.191-5.386c-4.577-4.791-6.762-8.803-6.316-18.521c0.031-0.676,0.034-0.699-0.036-12.884
	c-0.01-1.652-0.016-2.845-0.016-3.11c0-0.473,0.007-3.522,0.015-6.855c0.009-4.183,0.021-2.707,0.02-3.293
	c-0.016-11.089,1.236-20.725,3.938-25.081c1.601-2.583,4.37-5.493,12.749-7.512c1.652-0.249,10.093-0.506,12.62-0.506h0.902
	c2.527,0,9.749,0.257,11.4,0.506c8.379,2.019,11.148,4.929,12.749,7.512c2.702,4.356,3.954,13.991,3.938,25.081
	c-0.001,0.586,0.01-0.89,0.021,3.293c0.008,3.333,0.015,6.382,0.015,6.855c0,0.266-0.007,1.458-0.017,3.11
	c-0.07,12.185-0.067,12.208-0.036,12.884c0.445,9.718-1.738,13.726-6.315,18.521c-0.237,0.246-0.479,0.482-0.722,0.708l-4.895-4.954
	l-2.725-2.756l-0.004,0.004c-1.558-1.483-3.943-1.551-5.388-0.123c-1.442,1.426-1.403,3.812,0.062,5.386l-0.004,0.005l2.724,2.757
	l3.498,3.539C124.293,148.671,122.298,148.864,120.633,148.864z"/>
</svg>
