<?xml version="1.0" encoding="utf-8"?>
<!DOCTYPE svg PUBLIC "-//W3C//DTD SVG 1.1//EN" "http://www.w3.org/Graphics/SVG/1.1/DTD/svg11.dtd">
<svg version="1.1" id="Layer_1" xmlns="http://www.w3.org/2000/svg" xmlns:xlink="http://www.w3.org/1999/xlink" x="0px" y="0px"
	 width="841.889px" height="595.281px" viewBox="0 0 841.889 595.281" enable-background="new 0 0 841.889 595.281"
	 xml:space="preserve">
<g>
	<path fill="gray" d="M487.28,582.773H300.876L150.083,473.207L92.481,295.933l57.603-177.269L300.876,9.093H487.28L638.08,118.664l0.426,1.324
		l57.174,175.945l-57.6,177.274L487.28,582.773z M303.657,574.219h180.849l146.29-106.292l55.894-171.995l-55.894-171.981
		L484.506,17.647H303.657L157.359,123.951l-55.881,171.981l55.881,171.995L303.657,574.219z"/>
</g>
<g>
	<polygon fill="gray" points="157.995,470.775 149.448,470.357 158.003,295.732 149.448,121.517 157.995,121.099 166.549,295.732 	"/>
</g>
<g>
	<rect fill="gray" x="96.979" y="291.656" width="594.205" height="8.555"/>
</g>
<g>
	<polygon fill="gray" points="233.845,436.274 161.67,297.913 169.256,293.953 237.426,424.638 298.391,294.133 306.143,297.754 
		241.514,436.108 	"/>
</g>
<g>
	<polygon fill="gray" points="305.742,580.985 298.366,580.242 235.496,439.968 159.77,474.459 156.228,466.675 235.867,430.402 241.54,432.549 
		303.127,569.95 389.003,450.092 301.999,298.054 309.426,293.807 397.791,448.228 397.552,452.84 	"/>
</g>
<g>
	<polygon fill="gray" points="393.639,454.603 237.2,438.548 238.077,430.044 394.517,446.099 	"/>
</g>
<g>
	<polygon fill="gray" points="748.275,581.646 629.409,472.529 620.771,296.151 629.325,121.099 637.864,121.517 629.309,296.151 
		637.78,468.603 754.055,575.346 	"/>
</g>
<g>
	<polygon fill="gray" points="553.474,436.274 545.805,436.108 481.173,297.754 488.925,294.133 549.891,424.638 618.065,293.953 
		625.65,297.913 	"/>
</g>
<g>
	<polygon fill="gray" points="481.574,580.985 389.768,452.84 389.53,448.228 477.898,293.807 485.317,298.054 398.318,450.092 484.19,569.95 
		545.78,432.549 551.453,430.402 631.088,466.675 627.547,474.459 551.829,439.968 488.95,580.242 	"/>
</g>
<g>
	<polygon fill="gray" points="393.681,454.603 392.804,446.099 549.248,430.044 550.116,438.548 	"/>
</g>
<g>
	<polygon fill="gray" points="157.995,467.501 149.448,467.083 158.003,292.453 149.448,126.813 157.995,126.37 166.549,292.441 	"/>
</g>
<g>
	<polygon fill="gray" points="629.325,467.501 620.771,292.872 629.325,117.828 637.864,118.246 629.309,292.872 637.864,467.083 	"/>
</g>
<g>
	<g>
		<polygon fill="gray" points="169.673,298.088 162.087,294.129 234.263,155.763 241.933,155.934 306.56,294.301 298.808,297.921 
			237.843,167.395 		"/>
	</g>
	<g>
		<polygon fill="gray" points="309.844,298.23 302.417,293.983 389.421,141.95 303.545,22.087 241.957,159.492 236.285,161.635 156.645,125.371 
			160.188,117.586 235.913,152.066 298.784,11.795 306.16,11.056 397.97,139.201 398.209,143.816 		"/>
	</g>
	<g>
		<polygon fill="gray" points="238.495,161.998 237.617,153.486 394.057,137.434 394.933,145.947 		"/>
	</g>
	<g>
		<polygon fill="gray" points="618.483,298.088 550.308,167.395 489.343,297.921 481.591,294.301 546.223,155.934 553.892,155.763 
			626.067,294.129 		"/>
	</g>
	<g>
		<polygon fill="gray" points="478.316,298.23 389.947,143.816 390.184,139.201 481.991,11.056 489.367,11.795 552.245,152.066 627.964,117.586 
			631.505,125.371 551.869,161.635 546.198,159.492 484.607,22.087 398.735,141.95 485.735,293.983 		"/>
	</g>
	<g>
		<polygon fill="gray" points="549.665,161.998 393.222,145.947 394.099,137.434 550.534,153.486 		"/>
	</g>
</g>
</svg>
