<?xml version="1.0" encoding="utf-8"?>
<!DOCTYPE svg PUBLIC "-//W3C//DTD SVG 1.1//EN" "http://www.w3.org/Graphics/SVG/1.1/DTD/svg11.dtd">
<svg version="1.1" id="Layer_1" xmlns="http://www.w3.org/2000/svg" xmlns:xlink="http://www.w3.org/1999/xlink" x="0px" y="0px"
	 width="226.777px" height="226.777px" viewBox="0 0 226.777 226.777" enable-background="new 0 0 226.777 226.777"
	 xml:space="preserve">
<path fill="gray" d="M212.671,68.707c-2.714-1.278-5.943-0.116-7.22,2.596c-0.062,0.128-2.457,5.102-7.438,12.176
	c-12.054-35.523-45.699-61.167-85.245-61.167c-49.633,0-90.014,40.381-90.014,90.015c0,5.723,0.56,11.316,1.586,16.746
	c-8.802,11.157-12.998,20.02-13.34,20.759c-1.257,2.717-0.075,5.935,2.64,7.194c0.739,0.344,1.515,0.506,2.279,0.506
	c2.045-0.001,4.004-1.163,4.925-3.137c0.059-0.128,2.355-4.956,7.133-11.88c12.438,34.827,45.744,59.825,84.79,59.825
	c49.634,0,90.015-40.381,90.015-90.014c0-5.225-0.473-10.338-1.33-15.32c9.105-11.29,13.462-20.334,13.814-21.081
	C216.543,73.216,215.382,69.983,212.671,68.707z M191.933,112.326c0,43.651-35.513,79.164-79.165,79.164
	c-36.862,0-67.918-25.326-76.687-59.492c8.598-10.062,21-21.463,37.668-29.56c23.292-11.315,49.854-13.791,64.113-14.238
	l-19.506,19.504l7.673,7.672l32.561-32.561L121.26,44.98l-7.724,7.621l24.378,24.706c-15.13,0.407-43.405,2.984-68.905,15.372
	c-14.713,7.147-26.312,16.499-35.16,25.567c-0.146-1.959-0.245-3.927-0.245-5.92c0-43.652,35.513-79.165,79.164-79.165
	c37.335,0,68.692,25.985,76.995,60.814c-8.64,9.891-21.012,21.004-37.573,28.908c-23.367,11.151-49.943,13.445-64.208,13.794
	l19.639-19.367l-7.618-7.725l-32.787,32.333l37.071,38.093l7.776-7.566l-24.203-24.872c15.134-0.303,43.425-2.689,69.005-14.896
	c14.539-6.939,26.069-16.038,34.928-24.915C191.88,109.273,191.933,110.793,191.933,112.326z"/>
</svg>
