<?xml version="1.0" encoding="utf-8"?>
<!DOCTYPE svg PUBLIC "-//W3C//DTD SVG 1.1//EN" "http://www.w3.org/Graphics/SVG/1.1/DTD/svg11.dtd">
<svg version="1.1" id="Layer_1" xmlns="http://www.w3.org/2000/svg" xmlns:xlink="http://www.w3.org/1999/xlink" x="0px" y="0px"
	 width="226.777px" height="226.777px" viewBox="0 0 226.777 226.777" enable-background="new 0 0 226.777 226.777"
	 xml:space="preserve">
<g transform="translate(-346)">
	<path fill="grey" d="M396.456,3.107h89.872c1.079-0.32,1.639,0.66,2.344,1.211c8.518,7.882,16.01,16.835,22.67,26.328
		c9.297,13.341,16.809,27.97,21.848,43.441c5.346,16.343,7.875,33.631,7.193,50.819c-15.27-0.004-30.54-0.004-45.809,0
		c0.258-2.282,0.278-4.582,0.247-6.874c-0.48-16.205-5.505-32.086-13.427-46.159c-8.479-15.08-20.314-28.088-33.76-38.89
		c-14.645-11.77-31.137-21.059-48.315-28.578C398.369,3.969,397.375,3.617,396.456,3.107z"/>
	<path fill="grey" d="M429.711,83.789c15.372,27.64,30.72,55.292,46.041,82.961c3.688,6.669,7.419,13.315,11.076,20.001
		c-19.064,12.142-38.066,24.381-57.127,36.529C429.714,176.783,429.717,130.287,429.711,83.789"/>
</g>
</svg>
