<?xml version="1.0" encoding="utf-8"?>
<!DOCTYPE svg PUBLIC "-//W3C//DTD SVG 1.1//EN" "http://www.w3.org/Graphics/SVG/1.1/DTD/svg11.dtd">
<svg version="1.1" id="Layer_1" xmlns="http://www.w3.org/2000/svg" xmlns:xlink="http://www.w3.org/1999/xlink" x="0px" y="0px"
	 width="226.777px" height="226.777px" viewBox="0 0 226.777 226.777" enable-background="new 0 0 226.777 226.777"
	 xml:space="preserve">
<path id="circle2" fill="gray" d="M113.169,10.672c2.944-0.071,5.676,1.516,7.077,4.106l79.02,141.729
	c2.145,3.654,0.846,8.396-2.658,10.662l-78.99,47.213c-2.547,1.449-5.669,1.449-8.215,0l-79.111-47.303
	c-3.685-2.175-4.864-6.918-2.809-10.572l78.989-141.729C107.805,12.306,110.362,10.739,113.169,10.672z M117.043,25.652v55.73
	c0,10.904-15.737,18.336-17.58,19.091l-3.353,1.631c-2.428,1.583-4.641,3.471-6.585,5.618c-0.06,0.118-0.131,0.229-0.212,0.333
	c-0.423,0.544-0.755,0.966-1.178,1.51c-0.065-0.002-0.119,0.05-0.121,0.115c0,0.002,0,0.004,0,0.006
	c-0.422,0.521-0.815,1.066-1.178,1.632c-0.06,0.117-0.131,0.229-0.211,0.332c-0.333,0.543-0.544,0.966-0.877,1.51
	c-0.06,0.117-0.13,0.229-0.211,0.332c-0.423,0.544-0.635,1.088-0.967,1.723c-0.091,0.211-0.091,0.302-0.211,0.423
	c-0.212,0.423-0.424,0.966-0.635,1.51c-0.091,0.091-0.091,0.302-0.212,0.423l-0.634,1.934c0,0.121-0.121,0.211-0.121,0.332
	c-0.091,0.544-0.302,1.087-0.423,1.631c0,0.212-0.121,0.333-0.121,0.544c-0.12,0.755-0.211,1.42-0.332,2.054v0.212
	c-0.091,0.664-0.212,1.208-0.212,1.843v0.544c-0.1,0.71-0.141,1.427-0.12,2.144v0.544c0.091,3.021,0.514,5.921,1.39,8.73
	c-3.142-1.511-6.042-2.719-8.851-3.354c-0.294-1.929-0.436-3.878-0.423-5.83v-1.631c0.1-0.384,0.141-0.781,0.121-1.179
	c0-0.422,0.12-0.754,0.12-1.178c0-0.331,0.121-0.543,0.121-0.876c0.091-0.422,0.091-0.875,0.212-1.299
	c0.09-0.332,0.09-0.634,0.211-0.966c0.091-0.332,0.091-0.756,0.212-1.088c0.09-0.211,0.09-0.544,0.211-0.755
	c0.091-0.423,0.302-0.967,0.423-1.511c0.091-0.211,0.091-0.423,0.212-0.635c0.18-0.377,0.322-0.771,0.423-1.178
	c0.057-0.186,0.128-0.367,0.211-0.544l0.635-1.631c0.057-0.186,0.128-0.367,0.211-0.543c0.212-0.544,0.423-0.967,0.635-1.511
	c0.068-0.05,0.112-0.127,0.121-0.212c0.211-0.423,0.422-0.966,0.755-1.51c0.091-0.212,0.091-0.303,0.211-0.423l0.967-1.631
	c0-0.091,0.121-0.091,0.121-0.212c0.332-0.544,0.634-0.967,0.967-1.51c0-0.091,0.121-0.091,0.121-0.212
	c0.422-0.544,0.755-1.088,1.178-1.632l0.121-0.12c0.772-1.083,1.643-2.094,2.597-3.021l0.121-0.121
	c0.884-1.019,1.854-1.958,2.9-2.81c1.66-1.395,3.428-2.657,5.286-3.775l0.211-0.121c0.967-0.544,1.843-1.087,2.81-1.511l0.635-0.331
	c9.816-4.44,12.716-9.606,12.716-11.539V25.743L38.447,153.335c6.464-3.776,17.157-9.485,26.521-12.506
	c4.53-1.42,10.451-0.121,17.459,3.866c2.988,1.736,5.801,3.76,8.397,6.042l2.809,2.598c1.812,1.51,3.776,2.688,5.921,3.775
	c0.241,0.091,0.544,0.303,0.876,0.423c0.091,0.091,0.302,0.091,0.423,0.212c0.305,0.178,0.629,0.32,0.967,0.423
	c0.091,0.091,0.302,0.091,0.423,0.211c2.839,1.076,5.821,1.728,8.851,1.934c-2.175,2.023-4.229,4.41-5.619,7.099
	c-1.842-0.453-3.654-0.997-5.497-1.632c-0.212,0-0.302-0.12-0.423-0.12c-0.187-0.058-0.368-0.128-0.544-0.212
	c-1.299-0.544-2.477-1.087-3.655-1.722c-0.05-0.068-0.127-0.112-0.211-0.121l-1.299-0.634c-1.934-0.967-3.655-2.266-5.286-3.564
	l-0.212-0.211c-0.762-0.558-1.479-1.174-2.145-1.844l-0.332-0.332c-5.165-4.198-14.318-9.998-18.638-8.608
	c-10.995,3.443-24.376,11.418-28.998,14.228l71.136,42.349v-29.089c0-10.874,15.828-18.094,17.669-18.849l0.635-0.332
	c3.564-1.722,6.676-4.198,9.273-7.099c0.092,0,0.092-0.09,0.213-0.211c0.445-0.414,0.842-0.881,1.178-1.39
	c0.119-0.091,0.211-0.302,0.332-0.423c0.391-0.482,0.754-0.987,1.088-1.511c0.09,0,0.09-0.09,0.211-0.211
	c0.332-0.635,0.754-1.299,1.088-1.934c0.816-1.479,1.504-3.024,2.053-4.621c1.299,2.598,2.93,5.376,5.074,7.975
	c-0.543,0.846-1.086,1.812-1.631,2.688c0,0.091-0.119,0.09-0.119,0.211l-1.301,1.933c-0.121,0.091-0.211,0.303-0.332,0.424
	c-0.422,0.543-0.754,1.087-1.178,1.51c-0.09,0.212-0.303,0.332-0.422,0.544c-0.447,0.622-0.953,1.199-1.512,1.722l-0.211,0.211
	c-0.543,0.424-0.967,0.967-1.51,1.39c-0.211,0.091-0.332,0.303-0.545,0.423c-0.09,0.212-0.301,0.303-0.422,0.424
	c-1.598,1.421-3.326,2.686-5.166,3.775l-0.332,0.211c-0.875,0.514-1.721,0.967-2.598,1.39l-0.211,0.121
	c-4.199,1.812-13.352,7.22-13.352,11.841v29.089l70.984-42.471c-5.377-2.567-19.061-9.273-29.42-14.649
	c-9.031-4.652-12.93-18.426-13.352-20.058l-0.967-3.775c-0.316-2.365-0.936-4.68-1.842-6.887c-0.213-0.303-0.334-0.756-0.545-1.179
	c-0.09-0.332-0.301-0.634-0.422-0.966c-0.213-0.333-0.332-0.635-0.545-0.968c-0.211-0.332-0.332-0.634-0.543-0.966
	c-0.211-0.241-0.332-0.544-0.543-0.876l-0.635-0.967c-0.121-0.332-0.332-0.544-0.545-0.876l-0.633-0.967
	c-0.213-0.211-0.424-0.514-0.635-0.755c-0.273-0.272-0.527-0.565-0.756-0.876l-0.633-0.634l-0.877-0.877l-0.635-0.634
	c-0.332-0.332-0.635-0.544-0.967-0.876c-0.211-0.212-0.422-0.332-0.635-0.544c-0.332-0.328-0.695-0.621-1.086-0.876
	c-0.158-0.168-0.342-0.312-0.545-0.423c-0.422-0.332-0.754-0.664-1.178-0.876c-0.051-0.068-0.127-0.111-0.211-0.121
	c-1.584-0.99-3.238-1.859-4.953-2.598c-2.9-1.178-6.133-2.054-9.486-2.266c2.145-2.023,4.109-4.41,5.498-7.099
	c1.832,0.352,3.631,0.856,5.377,1.511c0.635,0.212,1.299,0.544,1.934,0.755c0.09,0,0.09,0.121,0.211,0.121
	c0.756,0.332,1.51,0.635,2.145,0.967c0.092,0,0.092,0.121,0.211,0.121c0.666,0.332,1.42,0.664,2.055,1.087
	c0.09,0,0.09,0.121,0.211,0.121c0.756,0.423,1.42,0.876,2.055,1.299l0.121,0.12c0.672,0.424,1.318,0.888,1.934,1.39l0.119,0.121
	l1.934,1.632c5.111,4.473,8.992,10.183,11.268,16.583c0.635,2.023,1.178,4.077,1.178,6.132l0.967,3.866
	c0.967,3.353,4.289,12.506,9.363,15.104c8.73,4.53,20.027,10.148,26.4,13.261L117.043,25.652z"/>
</svg>
