<?xml version="1.0" encoding="utf-8"?>
<!DOCTYPE svg PUBLIC "-//W3C//DTD SVG 1.1//EN" "http://www.w3.org/Graphics/SVG/1.1/DTD/svg11.dtd">
<svg version="1.1" id="Layer_1" xmlns="http://www.w3.org/2000/svg" xmlns:xlink="http://www.w3.org/1999/xlink" x="0px" y="0px"
	 width="226.777px" height="226.777px" viewBox="0 0 226.777 226.777" enable-background="new 0 0 226.777 226.777"
	 xml:space="preserve">
<path fill="grey" d="M46.409,4.059h69.669c7.043,1.123,14.268,0.119,21.257,1.613
	c15.565,2.854,29.663,12.652,37.846,26.186c9.676,15.674,10.942,36.116,3.583,52.958c-6.666,15.507-20.606,27.644-36.903,32.042
	c-10.345,2.986-21.205,1.874-31.824,2.077c18.195,30.141,36.352,60.308,54.466,90.504c-4.743,3.312-10.55,5.317-14.468,9.652h-0.609
	c-23.571-39.411-47.376-78.69-71.023-118.052c16.797-0.085,33.594,0.131,50.378-0.108c19.38-0.525,36.317-17.656,36.727-37.032
	c1.266-16.737-9.592-33.426-25.472-38.935c-6.583-2.568-13.75-2.45-20.703-2.376c-24.312,0-48.62-0.004-72.923-0.011"/>
</svg>
