<?xml version="1.0" encoding="utf-8"?>
<!DOCTYPE svg PUBLIC "-//W3C//DTD SVG 1.1//EN" "http://www.w3.org/Graphics/SVG/1.1/DTD/svg11.dtd">
<svg version="1.1" id="Layer_1" xmlns="http://www.w3.org/2000/svg" xmlns:xlink="http://www.w3.org/1999/xlink" x="0px" y="0px"
	 width="226.777px" height="226.777px" viewBox="0 0 226.777 226.777" enable-background="new 0 0 226.777 226.777"
	 xml:space="preserve">
<g>
	<path fill="gray" d="M169.113,89.254c-10.47,6.174-15.724,17.8-14.306,29.137l-0.007-0.012c0,0-2.047,7.158-6.598,9.531
		c-3.841,2.001-9.442-0.073-9.442-0.073l0.011,0.018c-0.616-0.448-1.246-0.864-1.889-1.26c-0.339-0.208-0.687-0.398-1.031-0.592
		c-0.392-0.222-0.786-0.436-1.188-0.638c-0.357-0.182-0.719-0.358-1.086-0.523c-0.445-0.203-0.901-0.387-1.356-0.566
		c-0.356-0.143-0.709-0.289-1.073-0.416c-0.683-0.24-1.377-0.452-2.076-0.642c-0.342-0.092-0.684-0.167-1.028-0.248
		c-0.491-0.115-0.984-0.216-1.481-0.308c-0.344-0.062-0.687-0.122-1.034-0.17c-0.603-0.09-1.208-0.151-1.816-0.199
		c-0.229-0.02-0.453-0.053-0.682-0.064c-0.811-0.049-1.623-0.053-2.437-0.033c-0.29,0.007-0.578,0.028-0.868,0.045
		c-0.591,0.031-1.178,0.081-1.768,0.149c-0.289,0.032-0.576,0.063-0.865,0.104c-0.759,0.11-1.515,0.248-2.264,0.421
		c-0.092,0.019-0.187,0.031-0.278,0.053c-0.835,0.199-1.668,0.445-2.493,0.722c-0.247,0.081-0.492,0.175-0.739,0.263
		c-0.615,0.224-1.227,0.469-1.833,0.735c-0.243,0.108-0.487,0.211-0.727,0.327c-0.816,0.384-1.623,0.795-2.414,1.262
		c-0.791,0.465-1.541,0.975-2.271,1.5c-0.217,0.154-0.426,0.318-0.636,0.478c-0.528,0.404-1.039,0.82-1.532,1.251
		c-0.198,0.172-0.397,0.341-0.587,0.518c-0.642,0.591-1.259,1.196-1.839,1.834c-0.065,0.07-0.122,0.148-0.186,0.219
		c-0.51,0.574-0.994,1.169-1.455,1.776c-0.177,0.232-0.345,0.47-0.516,0.706c-0.341,0.483-0.67,0.974-0.98,1.473
		c-0.158,0.246-0.316,0.49-0.462,0.742c-0.411,0.702-0.8,1.415-1.151,2.146c-0.101,0.207-0.182,0.425-0.279,0.638
		c-0.246,0.55-0.483,1.108-0.699,1.674c-0.124,0.329-0.239,0.66-0.353,0.993c-0.16,0.476-0.309,0.953-0.445,1.438
		c-0.098,0.343-0.199,0.681-0.282,1.026c-0.171,0.696-0.319,1.396-0.437,2.103c-0.068,0.39-0.112,0.783-0.163,1.175
		c-0.062,0.483-0.12,0.964-0.158,1.446c-0.032,0.405-0.052,0.809-0.068,1.212c-0.018,0.446-0.021,0.891-0.018,1.335
		c0.003,0.399,0,0.799,0.019,1.2c0.037,0.75,0.097,1.499,0.19,2.246c0,0.004,0,0.009,0,0.011l-0.006-0.015
		c0,0-2.046,7.161-6.6,9.533c-3.837,1.999-9.441-0.073-9.441-0.073l0.01,0.019c-9.238-6.73-21.956-7.755-32.425-1.579
		c-14.059,8.292-18.734,26.413-10.441,40.471c8.292,14.059,26.412,18.733,40.471,10.442c9.899-5.84,15.118-16.551,14.463-27.282
		l0.025,0.045c0,0,0.398-5.639,5.017-9.024c4.376-3.204,10.851-2.325,10.851-2.325l-0.008-0.013c0,0,0.003,0.002,0.006,0.005
		c0.61,0.445,1.237,0.858,1.875,1.252c0.343,0.213,0.693,0.402,1.042,0.599c0.387,0.217,0.778,0.43,1.174,0.629
		c0.363,0.183,0.725,0.359,1.095,0.526c0.44,0.202,0.889,0.383,1.341,0.562c0.366,0.145,0.732,0.296,1.107,0.427
		c0.676,0.237,1.36,0.447,2.053,0.636c0.342,0.093,0.69,0.166,1.034,0.247c0.49,0.115,0.979,0.217,1.475,0.308
		c0.344,0.061,0.689,0.12,1.039,0.172c0.599,0.085,1.201,0.148,1.804,0.196c0.231,0.021,0.463,0.054,0.694,0.064
		c0.808,0.049,1.619,0.053,2.433,0.034c0.293-0.008,0.581-0.028,0.873-0.046c0.588-0.031,1.176-0.081,1.763-0.147
		c0.289-0.033,0.58-0.067,0.867-0.107c0.756-0.11,1.509-0.247,2.258-0.416c0.095-0.021,0.19-0.035,0.283-0.058
		c0.837-0.196,1.669-0.442,2.494-0.719c0.247-0.083,0.491-0.176,0.737-0.264c0.616-0.226,1.228-0.47,1.835-0.737
		c0.244-0.106,0.485-0.21,0.727-0.325c0.814-0.385,1.621-0.796,2.412-1.263c0.782-0.461,1.524-0.963,2.251-1.483
		c0.201-0.147,0.401-0.297,0.6-0.449c0.566-0.431,1.117-0.878,1.646-1.341c0.145-0.128,0.297-0.248,0.437-0.379
		c0.622-0.568,1.214-1.16,1.777-1.772c0.184-0.197,0.354-0.403,0.531-0.607c0.39-0.445,0.767-0.902,1.123-1.369
		c0.19-0.245,0.381-0.488,0.563-0.741c0.449-0.621,0.879-1.256,1.274-1.907c0.177-0.293,0.333-0.595,0.503-0.893
		c0.229-0.409,0.452-0.818,0.66-1.234c0.191-0.383,0.374-0.764,0.548-1.149c0.153-0.339,0.291-0.683,0.429-1.027
		c0.324-0.8,0.611-1.613,0.865-2.437c0.068-0.227,0.145-0.45,0.209-0.677c0.145-0.519,0.269-1.041,0.386-1.564
		c0.046-0.214,0.091-0.428,0.133-0.639c0.353-1.762,0.543-3.553,0.572-5.356c0.001-0.138,0.004-0.276,0.004-0.414
		c0.003-0.613-0.01-1.228-0.049-1.842l0.026,0.046c0,0,0.399-5.641,5.015-9.024c4.378-3.204,10.852-2.324,10.852-2.324l-0.008-0.015
		c9.237,6.729,21.952,7.752,32.424,1.578c14.057-8.294,18.732-26.414,10.44-40.473C201.293,85.635,183.172,80.961,169.113,89.254z"
		/>
	<path fill="gray" d="M72.778,139.495c9.898-5.837,15.117-16.548,14.461-27.282l0.026,0.047c0,0,0.399-5.64,5.019-9.025
		c4.375-3.204,10.849-2.325,10.849-2.325l-0.009-0.015c9.239,6.727,21.954,7.753,32.423,1.577
		c14.06-8.292,18.733-26.412,10.44-40.471c-8.294-14.059-26.412-18.734-40.469-10.442c-10.471,6.177-15.726,17.801-14.306,29.139
		l-0.01-0.014c0,0-2.043,7.161-6.598,9.533c-3.839,1.999-9.441-0.073-9.441-0.073l0.009,0.018
		c-9.238-6.729-21.955-7.754-32.425-1.579c-14.058,8.292-18.734,26.413-10.441,40.472S58.719,147.788,72.778,139.495z"/>
	<circle fill="gray" cx="58.462" cy="39.518" r="29.69"/>
</g>
</svg>
