<svg version="1.1" id="Layer_1" xmlns="http://www.w3.org/2000/svg" xmlns:xlink="http://www.w3.org/1999/xlink" x="0px" y="0px"
	 width="226.777px" height="226.777px" viewBox="0 0 226.777 226.777" enable-background="new 0 0 226.777 226.777"
	 xml:space="preserve">
<g>
	<path fill="grey" d="M157.288,108.509c7.137-7.136,10.754-15.835,10.754-25.856c0-9.885-3.609-18.546-10.731-25.745
		c-7.146-7.211-14.935-10.868-23.152-10.868H61.755v18.643h72.403c3.118,0,6.469,1.79,9.956,5.318
		c3.604,3.65,5.283,7.67,5.283,12.652c0,5.088-1.669,9.128-5.254,12.713c-3.487,3.487-6.848,5.255-9.985,5.255H62.376v77.636h18.643
		v-58.992h32.868l35.177,58.992h20.53l-35.178-58.993C142.532,119.188,150.224,115.571,157.288,108.509z"/>
	<path fill="grey" d="M113.085,222.471c-60.815,0-110.292-49.484-110.292-110.308c0-60.802,49.477-110.269,110.292-110.269
		s110.292,49.467,110.292,110.269C223.377,172.987,173.9,222.471,113.085,222.471z M21.633,89.665
		c-1.806,7.345-2.723,14.915-2.723,22.499c0,51.936,42.248,94.189,94.175,94.189s94.173-42.253,94.173-94.189
		c0-51.917-42.245-94.156-94.173-94.156c-18.195,0-35.846,5.181-51.043,14.983c-15.167,9.781-27.16,23.688-34.684,40.218
		l-1.146,2.519h103.872c2.721,0,9.051,0.613,9.051,6.29c0,5.68-6.33,6.292-9.051,6.292H21.967L21.633,89.665z"/>
</g>
</svg>
