<?xml version="1.0" encoding="utf-8"?>
<!DOCTYPE svg PUBLIC "-//W3C//DTD SVG 1.1//EN" "http://www.w3.org/Graphics/SVG/1.1/DTD/svg11.dtd">
<svg version="1.1" id="Layer_1" xmlns="http://www.w3.org/2000/svg" xmlns:xlink="http://www.w3.org/1999/xlink" x="0px" y="0px"
	viewBox="0 0 279 279" enable-background="new 0 0 279 279" xml:space="preserve">
<title>Combined Shape</title>
<desc>Created with Sketch.</desc>
<g fill="grey">
	<path fill-rule="evenodd" clip-rule="evenodd" d="M274.275,138.589c-0.572,74.955-61.226,135.063-135.714,134.499
		C64.001,272.522,4.12,211.502,4.726,136.708C5.324,62.647,66.148,2.633,140.104,3.132C214.621,3.635,274.84,64.431,274.275,138.589
		z M14.471,138.157c0.136,68.964,55.84,124.647,124.835,124.791c69.078,0.142,125.433-55.921,125.189-124.961
		c-0.253-71.902-59.724-126.153-128.19-124.975C70.121,14.151,14.337,70.5,14.471,138.157z"/>
	<path fill-rule="evenodd" clip-rule="evenodd" d="M172.355,79.555c-1.91,6.104-3.691,11.797-4.998,15.969
		c-9.281-1.525-17.892-3.354-26.596-4.214c-5.168-0.511-10.527,0.842-12.535,6.675c-2.059,5.977-2.305,12.345,2.639,16.952
		c5.065,4.72,11.03,8.469,16.586,12.664c5.111,3.859,10.731,7.221,15.192,11.728c12.094,12.217,14.244,27.041,9.273,43.017
		c-2.948,9.471-9.944,15.455-18.909,19.095c-13.724,5.569-37.099,2.831-50.213-6.009c1.971-5.741,4.006-11.671,5.746-16.737
		c8.367,2.205,16.012,4.866,23.881,6.109c7.501,1.185,15.354,0.035,19.199-7.632c3.872-7.724,2.65-15.874-3.417-22.075
		c-4.683-4.786-10.555-8.437-16.029-12.412c-3.657-2.656-7.739-4.742-11.292-7.518c-14.268-11.15-18.929-29.774-11.697-46.377
		c3.477-7.979,9.76-13.148,18.013-15.114C142.572,70.015,157.489,71.675,172.355,79.555z"/>
	<path fill-rule="evenodd" clip-rule="evenodd" d="M73.357,135.883c-0.045,8.587-6.923,15.538-15.414,15.576
		c-8.568,0.04-15.906-7.441-15.702-16.003c0.2-8.395,7.465-15.389,15.85-15.263C66.667,120.322,73.403,127.246,73.357,135.883z"/>
	<path fill-rule="evenodd" clip-rule="evenodd" d="M221.527,120.619c8.552-0.009,14.917,6.311,15.03,14.923
		c0.114,8.86-6.939,16.045-15.636,15.92c-8.52-0.123-15.341-7.1-15.336-15.688C205.59,126.797,212.079,120.628,221.527,120.619z"/>
</g>
</svg>
