<?xml version="1.0" encoding="utf-8"?>
<!DOCTYPE svg PUBLIC "-//W3C//DTD SVG 1.1//EN" "http://www.w3.org/Graphics/SVG/1.1/DTD/svg11.dtd">
<svg version="1.1" id="Layer_1" xmlns="http://www.w3.org/2000/svg" xmlns:xlink="http://www.w3.org/1999/xlink" x="0px" y="0px"
	 width="226.777px" height="226.777px" viewBox="0 0 226.777 226.777" enable-background="new 0 0 226.777 226.777"
	 xml:space="preserve">
<g>
	<path fill="grey" d="M10.643,113.388c0,53.898,41.708,98.173,94.644,102.344V199.53c-43.954-4.01-78.603-41.065-78.603-86.142
		c0-39.301,26.308-72.667,62.401-83.094v13.475c-11.39,7.7-18.929,20.854-18.929,35.612c0,21.015,15.079,38.499,34.97,42.35v-16.684
		c-10.908-3.368-18.929-13.635-18.929-25.666c0-12.031,8.021-22.297,18.929-25.666v-4.171l0,0V27.246v-9.304v-6.898
		C52.351,15.216,10.643,59.49,10.643,113.388z"/>
	<path fill="grey" d="M121.328,11.045v16.202c43.954,4.01,78.604,41.066,78.604,86.142c0,39.302-26.309,72.667-62.4,83.094
		v-13.475c11.389-7.699,18.928-20.854,18.928-35.611c0-21.015-15.078-38.499-34.97-42.35v16.522
		c10.908,3.369,18.929,13.636,18.929,25.667c0,12.03-8.021,22.297-18.929,25.666v16.522l0,0v9.785v8.502v7.699
		c52.776-4.17,94.644-48.444,94.644-102.344C216.133,59.169,174.265,15.216,121.328,11.045z"/>
</g>
</svg>
