<?xml version="1.0" encoding="utf-8"?>
<!DOCTYPE svg PUBLIC "-//W3C//DTD SVG 1.1//EN" "http://www.w3.org/Graphics/SVG/1.1/DTD/svg11.dtd">
<svg version="1.1" id="Layer_1" xmlns="http://www.w3.org/2000/svg" xmlns:xlink="http://www.w3.org/1999/xlink" x="0px" y="0px"
	 width="226.777px" height="226.777px" viewBox="0 0 226.777 226.777" enable-background="new 0 0 226.777 226.777"
	 xml:space="preserve">
<g>
	<g transform="translate(-567.000000, -173.000000)">
		<g transform="translate(464.000000, 173.000000)">
			<g transform="translate(0.697266, 0.301652)">
				<g transform="translate(103.000000, 0.000000)">
					<g transform="translate(118.741812, 0.000000)">
						<path id="Fill-1" fill="grey" d="M-12.987,4.755l-84.018,48.511c-0.52,0.301-0.52,1.054,0,1.355l47.048,27.162
							c0.242,0.14,0.541,0.14,0.782,0l36.973-21.343c0.24-0.14,0.391-0.401,0.391-0.68V5.435
							C-11.811,4.833-12.466,4.454-12.987,4.755"/>
						<path id="Fill-4" fill="grey" d="M-101.8,161.296l47.046-27.162c0.24-0.139,0.39-0.396,0.39-0.677V90.765
							c0-0.276-0.15-0.538-0.39-0.677l-47.046-27.16c-0.52-0.303-1.174,0.076-1.174,0.677v97.016
							C-102.974,161.224-102.32,161.597-101.8,161.296"/>
						<path id="Fill-6" fill="grey" d="M-2.22,5.435v54.328c0,0.276,0.151,0.538,0.391,0.677l36.971,21.343
							c0.241,0.14,0.54,0.14,0.776,0L82.969,54.62c0.523-0.301,0.523-1.054,0-1.355L-1.048,4.755
							C-1.566,4.454-2.22,4.833-2.22,5.435"/>
						<path id="Fill-9" fill="grey" d="M-97.004,170.959l84.02,48.508c0.521,0.301,1.173-0.071,1.173-0.675v-54.324
							c0-0.281-0.15-0.54-0.391-0.68l-36.973-21.343c-0.244-0.14-0.54-0.14-0.785,0l-47.044,27.159
							C-97.524,169.905-97.524,170.658-97.004,170.959"/>
						<path id="Fill-11" fill="grey" d="M-2.22,164.465v54.325c0,0.602,0.653,0.978,1.172,0.677l84.017-48.51
							c0.523-0.301,0.523-1.054,0-1.354l-47.051-27.16c-0.236-0.14-0.535-0.14-0.776,0l-36.971,21.346
							C-2.068,163.928-2.22,164.183-2.22,164.465"/>
						<path id="Fill-13" fill="grey" d="M-6.951,106.537L24.883,88.16c0.47-0.273,0.47-0.953,0-1.227l-31.55-18.21
							c-0.217-0.125-0.488-0.125-0.708,0l-31.594,18.244c-0.474,0.273-0.479,0.951-0.007,1.224l31.316,18.341
							C-7.442,106.662-7.168,106.662-6.951,106.537"/>
						<path id="Fill-15" fill="grey" d="M30.735,133.499V97.078c0-0.541-0.585-0.883-1.061-0.611l-31.542,18.208
							c-0.218,0.129-0.353,0.363-0.353,0.614v36.424c0,0.543,0.59,0.883,1.06,0.611l31.543-18.212
							C30.601,133.986,30.735,133.755,30.735,133.499"/>
						<path id="Fill-17" fill="grey" d="M-11.811,151.713v-36.422c0-0.253-0.134-0.484-0.354-0.61l-31.546-18.213
							c-0.471-0.276-1.059,0.064-1.059,0.611v36.421c0,0.254,0.133,0.49,0.351,0.618l31.547,18.205
							C-12.402,152.598-11.811,152.256-11.811,151.713"/>
						<path id="Fill-19" fill="grey" d="M39.748,90.768v42.691c0,0.272,0.151,0.535,0.391,0.674l47.051,27.165
							c0.523,0.301,1.17-0.074,1.17-0.683V63.603c0-0.602-0.646-0.978-1.17-0.677L40.139,90.088
							C39.9,90.23,39.748,90.487,39.748,90.768"/>
					</g>
				</g>
			</g>
		</g>
	</g>
</g>
</svg>
