<?xml version="1.0" encoding="utf-8"?>
<!DOCTYPE svg PUBLIC "-//W3C//DTD SVG 1.1//EN" "http://www.w3.org/Graphics/SVG/1.1/DTD/svg11.dtd">
<svg version="1.1" id="Layer_1" xmlns="http://www.w3.org/2000/svg" xmlns:xlink="http://www.w3.org/1999/xlink" x="0px" y="0px"
	 width="226.777px" height="226.777px" viewBox="0 0 226.777 226.777" enable-background="new 0 0 226.777 226.777"
	 xml:space="preserve">
<path id="circle2" fill="gray" d="M113.578,3.49C52.778,3.49,3.49,52.778,3.49,113.578c0,60.799,49.288,110.088,110.088,110.088
	c60.801,0,110.088-49.289,110.088-110.088C223.666,52.778,174.379,3.49,113.578,3.49z M139.175,57.283
	c17.475,0,29.446,8.556,29.446,26.271c0,17.714-14.37,26.271-35.338,26.271c-15.476-0.001-22.802-2.986-38.28-2.986
	c-3.838-0.021-7.671,0.308-11.449,0.985C86.663,79.061,110.635,57.281,139.175,57.283z M93.872,117.331
	c15.477,0,22.802,2.985,38.28,2.986c3.84,0.021,7.672-0.308,11.45-0.984c-3.109,28.763-27.078,50.54-55.621,50.54
	c-17.475,0-29.447-8.555-29.447-26.27C58.534,125.886,72.906,117.331,93.872,117.331z"/>
</svg>
