<?xml version="1.0" encoding="utf-8"?>
<!-- Generator: Adobe Illustrator 16.0.0, SVG Export Plug-In . SVG Version: 6.00 Build 0)  -->
<!DOCTYPE svg PUBLIC "-//W3C//DTD SVG 1.1//EN" "http://www.w3.org/Graphics/SVG/1.1/DTD/svg11.dtd">
<svg version="1.1" id="Layer_1" xmlns="http://www.w3.org/2000/svg" xmlns:xlink="http://www.w3.org/1999/xlink" x="0px" y="0px"
	 width="841.889px" height="595.281px" viewBox="0 0 841.889 595.281" enable-background="new 0 0 841.889 595.281"
	 xml:space="preserve">
<g>
	<path fill="gray" d="M406.161,27.14c8.89,6.306,17.434,13.186,26.736,18.802c21.736,13.12,21.868,12.86,40.795-3.331
		c2.369-2.026,4.957-3.796,7.217-5.51c11.027,10.452,22.456,19.953,32.206,30.94c8.062,9.084,15.275,11.179,25.443,4.03
		c4.646-3.269,10.412-4.954,16.962-7.951c7.633,14.707,15.467,28.343,21.858,42.623c4.301,9.609,9.546,12.944,19.912,9.645
		c6.264-1.992,13.266-1.666,20.968-2.493c2.539,16.352,5.332,31.794,7.192,47.346c1.027,8.629,3.24,13.045,13.423,14.373
		c26.82,3.492,26.503,4.223,21.396,30.557c-2.216,11.438-3.334,23.087-4.917,34.405c33.43,13.614,33.449,13.625,18.547,45.553
		c-4.173,8.944-8.512,17.814-12.603,26.358c7.149,5.975,13.475,11.603,20.161,16.755c6.881,5.305,5.765,9.724,0.139,15.397
		c-12.038,12.142-23.543,24.815-34.664,36.636c0.365,2.299,0.198,3.437,0.688,3.994c21.932,25.11,21.768,25.927-7.128,42.56
		c-9.334,5.373-18.491,11.052-27.021,16.16c-0.225,2.274-0.615,3.249-0.351,3.99c11.455,32.097,11.468,32.102-21.767,39.041
		c-2.21,0.461-4.5,0.526-6.709,0.972c-22.243,4.457-22.93,4.451-23.506,27.355c-0.325,12.839-4.444,16.958-17.09,13.784
		c-7.803-1.96-16.102-2.278-24.204-2.652c-21.372-0.978-21.891-0.972-27.812,19.97c-2.934,10.37-7.008,13.255-17.309,8.769
		c-14.391-6.27-29.333-11.271-44.069-16.823c-7.971,9.379-15.457,18.18-23.77,27.959c-12.054-9.691-23.62-18.229-34.268-27.789
		c-8.51-7.642-15.799-11.159-25.182-1.304c-4.251,4.465-10.275,7.237-17.484,12.126c-7.642-11.306-15.972-21.842-22.302-33.467
		c-7.418-13.623-16.594-19.12-31.034-11.297c-12.507,6.776-18.033,1.788-20.229-10.842c-0.917-5.276-3.456-10.25-4.953-15.451
		c-7.251-25.184-7.271-24.785-32.676-28.314c-4.003-0.559-9.836-6.417-10.318-10.372c-1.408-11.584-0.775-23.452-0.501-35.197
		c0.238-10.171-1.993-17.334-14.109-18.692c-6.949-0.778-13.59-4.289-21.668-7.008c4.267-14.035,8.073-27.795,12.668-41.284
		c3.812-11.196,4.438-19.553-8.282-26.646c-17.619-9.818-17.07-10.921-5.812-27.993c5.47-8.295,10.771-16.75,16.867-24.573
		c5.454-7,5.215-12.407-1.203-18.664c-5.417-5.282-9.762-11.663-15.684-18.902c16.595-13.819,32.404-26.98,47.94-39.918
		c-4.804-10.847-9.414-21.264-14.556-32.875c20.451-8.267,39.527-15.979,59.158-23.913c-0.775-2.585-1.185-4.207-1.742-5.773
		c-8.833-24.763-5.338-30.115,20.33-31.302c5.406-0.251,10.813-1.308,16.194-1.147c16.064,0.482,25.073-5.25,24.918-23.092
		c-0.104-11.884,7.901-14.81,18.838-11.882c11.31,3.03,22.688,6.241,34.248,7.656c4.274,0.521,11.023-2.63,13.357-6.237
		c4.926-7.611,7.684-16.622,11.33-25.06C402.545,27.14,404.354,27.14,406.161,27.14z M604.349,217.299
		c-2.776-16.392-5.403-31.438-7.843-46.509c-1.321-8.153-4.224-13.32-13.312-7.814c-8.618,5.219-12.245,1.632-15.864-6.77
		c-5.805-13.469-13.247-26.23-20.593-40.441c-7.017,4.906-12.421,8.685-18.65,13.043c-13.157-13.784-25.985-27.228-40.668-42.614
		c-2.541,4.152-4.077,5.95-4.844,8.033c-4.651,12.655-11.965,10.457-20.925,4.523c-8.637-5.717-17.915-10.461-26.88-15.69
		c-7.336-4.284-12.416-4.753-13.904,5.929c-1.1,7.893-5.597,11.312-14.5,8.603c-10.759-3.276-22.094-4.614-32.971-7.562
		c-10.177-2.76-15.352-0.31-12.919,10.817c2.067,9.455-1.693,11.815-10.585,11.91c-12.586,0.139-25.143,2.006-37.736,2.515
		c-8.41,0.339-11.072,4.552-7.475,11.26c6.544,12.206-0.306,15.607-10.142,18.987c-13.321,4.582-26.291,10.179-39.718,15.462
		c12.451,20.529,12.497,20.586-5.192,35.239c-8.57,7.101-17.354,13.943-27.144,21.784c6.659,5.982,11.836,10.633,17.688,15.89
		c-10.377,16.285-20.409,32.029-30.382,47.683c2.355,2.088,3.199,3.253,4.341,3.784c16.682,7.772,16.42,7.664,10.453,25.815
		c-3.876,11.789-6.825,23.884-10.25,36.061c3.943,1.382,6.113,2.913,8.117,2.72c13.403-1.292,15.822,6.01,15.09,17.361
		c-0.698,10.794-0.708,21.74,0.398,32.473c0.31,2.997,6.905,8.409,8.469,7.736c14.608-6.308,16.875,3.434,19.85,13.643
		c3.679,12.623,8.055,25.047,12.183,37.716c21.728-9.062,21.675-9.025,34.51,9.904c6.155,9.079,12.555,17.997,20.298,29.064
		c5.765-7.432,9.873-12.731,14.52-18.722c16.012,12.671,30.655,24.256,46.19,36.549c4.075-7.682,7.142-13.456,10.617-20.002
		c15.322,5.626,30.146,10.801,44.744,16.549c7.296,2.876,12.245,1.619,11.721-6.638c-0.782-12.339,5.818-12.569,15.214-12.072
		c14.241,0.753,28.558,0.197,44.245,0.197c-0.942-7.218-1.791-13.702-2.758-21.11c18.646-4.711,37.02-9.35,56.616-14.301
		c-4.289-8.663-7.405-14.956-10.841-21.896c11.646-6.543,22.801-12.409,33.546-18.947c17.708-10.771,17.586-10.946,3.449-26.473
		c-0.537-0.591-0.58-1.629-1.335-3.929c7.814-8.264,15.994-17.199,24.486-25.826c15.496-15.733,15.567-15.645-4.056-26.399
		c-0.684-0.373-0.978-1.451-1.838-2.812c7.536-16.704,15.237-33.77,22.938-50.833c-21.473-9.268-21.488-9.271-18.166-31.779
		c0.923-6.252,1.775-12.525,2.998-18.72c2.856-14.452,1.558-15.995-12.938-14.455C610.408,216.465,608.227,216.793,604.349,217.299z
		"/>
	<path fill="gray" d="M328.734,345.564c8.29,4.646,15.339,9.649,23.146,12.743c14.108,5.596,28.388,5.662,41.29-3.68
		c12.61-9.134,13.197-25.771,0.093-34.09c-10.115-6.42-21.949-10.196-33.167-14.792c-5.813-2.381-12.06-3.694-17.92-5.98
		c-47.068-18.366-40.142-65.791-18.903-88.533c26.371-28.237,86.396-30.322,117.177-2.856c-7.437,8.1-14.476,16.686-22.654,23.995
		c-1.947,1.738-8.163,0.123-11.659-1.542c-15.124-7.19-30.046-9.651-45.171-0.366c-15.642,9.599-15.778,27.903,0.614,36.549
		c10.66,5.618,22.427,9.449,34.053,12.873c32.435,9.551,47.287,26.15,47.323,54.131c0.037,29.254-16.834,52.327-47.287,59.528
		c-28.617,6.766-57.28,5.961-83.548-10.698c-7.973-5.055-9.928-9.562-2.527-16.729C316.333,359.591,322.425,352.394,328.734,345.564
		z"/>
	<path fill="gray" d="M535.805,192.082c-5.172,19.958-9.645,37.728-14.386,55.424c-8.038,29.979-16.4,59.867-24.316,89.875
		c-4.045,15.331-18.053,21.948-31.574,13.517c-2.691-1.68-4.205-7.755-3.765-11.509c1.666-14.274,4.337-28.437,6.674-42.632
		c4.891-29.714,10.394-59.342,14.513-89.162c2.889-20.871,3.186-21.774,23.223-18.702
		C514.99,190.247,523.925,190.835,535.805,192.082z"/>
	<path fill="gray" d="M441.615,416.219c3.257-16.797,6.313-32.566,9.855-50.827c13.989,3.359,27.318,6.303,40.437,10.006
		c1.812,0.512,3.961,5.042,3.564,7.294c-2.242,12.808-4.746,25.616-8.288,38.105c-0.789,2.775-6.612,6.552-9.249,5.963
		C465.829,424.056,454.035,419.969,441.615,416.219z"/>
</g>
</svg>
