<?xml version="1.0" encoding="utf-8"?>
<!DOCTYPE svg PUBLIC "-//W3C//DTD SVG 1.1//EN" "http://www.w3.org/Graphics/SVG/1.1/DTD/svg11.dtd">
<svg version="1.1" id="Layer_1" xmlns="http://www.w3.org/2000/svg" xmlns:xlink="http://www.w3.org/1999/xlink" x="0px" y="0px"
	 width="226.777px" height="226.777px" viewBox="0 0 226.777 226.777" enable-background="new 0 0 226.777 226.777"
	 xml:space="preserve">
<g>
	<path fill="grey" d="M210.524,66.834c-0.176,6.838-3.145,11.935-8.872,15.37c-1.057,0.632-1.424,1.275-1.422,2.481
		c0.036,18.655,0.034,37.311,0.006,55.962c-0.002,1.118,0.284,1.796,1.311,2.39c6.629,3.828,9.982,10.894,8.792,18.319
		c-1.142,7.115-6.83,12.963-14.198,14.362c-4.271,0.814-8.411,0.166-12.155-2.13c-1.141-0.699-1.945-0.578-3.014,0.04
		c-16.038,9.29-32.092,18.556-48.164,27.787c-1.1,0.629-1.512,1.328-1.511,2.606c0.019,8.979-6.91,16.789-15.564,17.658
		c-9.216,0.93-17.365-4.859-19.355-13.807c-0.306-1.374-0.408-2.811-0.44-4.22c-0.023-0.953-0.289-1.538-1.136-2.029
		c-16.295-9.372-32.576-18.769-48.851-28.179c-0.881-0.512-1.574-0.516-2.462,0.02c-10.633,6.401-24.188,0.264-26.443-11.692
		c-1.424-7.555,1.653-14.62,8.413-18.596c1.069-0.63,1.552-1.267,1.549-2.572c-0.049-18.655-0.042-37.312-0.012-55.963
		c0.001-1.121-0.29-1.784-1.315-2.38c-6.79-3.942-9.982-10.792-8.678-18.484c1.293-7.64,7.203-13.245,14.892-14.339
		c4.121-0.587,8.096,0.164,11.663,2.442c0.828,0.528,1.443,0.512,2.287,0.026c16.227-9.39,32.466-18.752,48.719-28.096
		c0.982-0.564,1.365-1.214,1.368-2.372c0.028-10.275,8.145-18.138,18.433-17.932c8.018,0.161,15.519,6.779,16.658,14.692
		c0.104,0.728,0.268,1.175,0.268,2.177c0,2.194,0.807,3.125,2.517,4.1c15.768,9.022,31.494,18.117,47.21,27.228
		c1.079,0.625,1.864,0.653,2.988,0.015c10.675-6.089,23.617-0.254,26.216,11.793C210.463,64.63,210.439,65.809,210.524,66.834z
		 M71.36,130.832c-0.162,0.135-0.27,0.255-0.404,0.33c-8.846,5.109-17.687,10.234-26.564,15.287
		c-0.491,0.275-1.446,0.219-1.943-0.082c-2.347-1.419-4.844-2.36-7.579-2.432c-9.098-0.232-14.632,7.199-14.942,13.656
		c-0.36,7.56,5.362,15.307,14.615,15.237c8.115-0.06,14.29-6.565,14.21-14.685c-0.014-1.452,0.413-2.271,1.686-2.992
		c9.427-5.371,18.818-10.804,28.2-16.25c0.906-0.529,1.636-0.614,2.622-0.151c5.85,2.75,11.9,3.216,18.138,1.452
		c0.62-0.174,1.442,0.002,2.063,0.267c1.834,0.781,3.585,1.772,5.431,2.516c1.053,0.426,1.408,1.002,1.406,2.119
		c-0.031,14.704-0.03,29.406-0.002,44.109c0.001,1.037-0.327,1.627-1.272,2.079c-4.956,2.388-8.694,8.554-7.674,15.144
		c1.184,7.657,9.051,13.44,16.642,11.956c6.688-1.309,11.081-5.874,12.022-12.897c0.637-4.763-1.656-11.055-7.781-14.203
		c-0.83-0.424-1.289-0.888-1.286-1.909c0.03-14.283,0.032-28.565,0-42.846c-0.001-1.268,0.582-1.528,1.692-1.725
		c2.936-0.518,5.877-1.084,8.745-1.888c1.297-0.363,2.323-0.417,3.58,0.125c6.286,2.706,12.411,2.242,18.266-1.292
		c0.837-0.5,1.436-0.524,2.275-0.035c7.736,4.504,15.485,8.99,23.27,13.41c1.258,0.712,1.746,1.502,1.707,2.98
		c-0.225,8.543,7.227,15.523,15.915,14.6c8.53-0.906,14.573-9.118,12.594-17.42c-2.371-9.95-13.147-14.437-21.853-9.06
		c-0.917,0.564-1.581,0.719-2.558,0.148c-7.366-4.305-14.751-8.578-22.164-12.8c-1.096-0.622-1.242-1.2-0.894-2.374
		c2.237-7.534,0.718-14.236-4.678-20.007c-1.054-1.128-6.001-9.028-6.69-10.484c-0.546-1.152-0.313-1.767,0.783-2.397
		c11.241-6.438,22.466-12.906,33.671-19.406c0.903-0.522,1.515-0.531,2.4,0.063c3.157,2.122,6.697,2.791,10.412,2.142
		c7.229-1.267,12.471-7.81,11.827-15.533c-0.7-8.38-8.921-14.643-17.129-12.827c-7.204,1.596-11.729,7.227-11.646,14.626
		c0.012,1.262-0.339,1.982-1.462,2.624c-11.383,6.512-22.738,13.068-34.07,19.665c-1.023,0.593-1.583,0.471-2.402-0.321
		c-5.341-5.145-11.767-8.035-19.099-8.95c-2.472-0.312-2.474-0.298-2.474-2.851c-0.001-13.386,0.032-26.772-0.041-40.156
		c-0.009-1.868,0.427-2.951,2.177-3.957c6.276-3.605,8.663-11.368,5.791-17.988C123.997,8.773,116.6,5.206,109.661,7.32
		c-6.315,1.923-9.834,6.384-10.454,12.876c-0.476,5.01,1.893,10.576,7.612,13.699c0.878,0.479,1.49,0.901,1.486,2.106
		c-0.048,14.757-0.044,29.511-0.008,44.269c0.003,1.169-0.529,1.566-1.484,2.049c-2.855,1.438-5.917,2.697-8.341,4.702
		c-2.796,2.308-5.409,3.641-9.303,3.641c-0.38-0.012-0.624,0.026-1.019,0.018c-0.964-0.021-2.048-0.062-2.837-0.512
		c-11.482-6.549-22.902-13.204-34.399-19.731c-1.642-0.931-2.435-1.929-2.161-3.821c0.109-0.754-0.123-1.562-0.246-2.339
		c-1.123-7.07-8.037-12.983-16.384-11.611c-8.188,1.347-13.386,8.757-12.036,16.687C21.812,79.482,33.37,84.61,42.092,79.07
		c0.984-0.625,1.664-0.675,2.672-0.087c8.643,5.04,17.32,10.021,25.987,15.022c1.486,0.856,2.966,1.722,4.441,2.579
		C65.236,107.129,64.117,118.462,71.36,130.832z"/>
	<path fill="grey" d="M95.302,96.742c2.278,0.202,3.413-0.565,5.078-2.111c7.187-6.68,15.666-8.748,24.975-5.655
		c9.153,3.04,14.826,9.543,16.707,19.085c0.368,1.868,1.103,2.99,2.772,3.942c4.771,2.718,7.52,8.599,6.575,13.497
		c-1.223,6.342-5.381,10.739-11.261,11.67c-3.131,0.499-6.241,0.143-8.998-1.556c-1.233-0.76-2.212-0.678-3.487-0.144
		c-8.188,3.442-16.116,2.859-23.651-1.881c-1.158-0.73-2.125-0.786-3.378-0.376c-10.618,3.468-21.662-2.556-24.36-13.146
		C73.186,107.927,82.872,96.188,95.302,96.742z"/>
	<path fill="grey" d="M188.844,158.414c0-2.374,1.706-4.101,4.046-4.096c2.251,0.01,4.167,1.868,4.189,4.068
		c0.025,2.118-2.022,4.163-4.157,4.167C190.636,162.553,188.845,160.735,188.844,158.414z"/>
	<path fill="grey" d="M109.503,21.177c0.008-2.3,1.801-4.075,4.12-4.078c2.32,0,4.102,1.769,4.109,4.08
		c0.008,2.215-1.926,4.17-4.103,4.145C111.418,25.302,109.495,23.366,109.503,21.177z"/>
	<path fill="grey" d="M38.389,158.432c-0.009,2.315-1.817,4.139-4.089,4.121c-2.146-0.021-4.13-2.022-4.14-4.186
		c-0.012-2.158,1.952-4.05,4.205-4.05C36.7,154.32,38.398,156.056,38.389,158.432z"/>
	<path fill="grey" d="M113.667,200.092c2.317,0.017,4.077,1.778,4.065,4.071c-0.014,2.285-1.801,4.003-4.147,3.991
		c-2.329-0.015-4.107-1.791-4.083-4.073C109.53,201.809,111.344,200.075,113.667,200.092z"/>
	<path fill="grey" d="M34.412,70.941c-2.347,0.021-4.182-1.688-4.251-3.958c-0.069-2.21,1.787-4.066,4.102-4.099
		c2.415-0.035,4.094,1.574,4.128,3.956C38.426,69.233,36.788,70.921,34.412,70.941z"/>
	<path fill="grey" d="M192.837,70.947c-2.373-0.018-4.017-1.707-3.993-4.1c0.023-2.375,1.706-3.991,4.122-3.96
		c2.316,0.03,4.159,1.871,4.106,4.092C197.015,69.232,195.169,70.964,192.837,70.947z"/>
</g>
</svg>
