<?xml version="1.0" encoding="UTF-8" standalone="no"?>
<svg width="155px" height="155px" viewBox="0 0 155 155" version="1.1" xmlns="http://www.w3.org/2000/svg" xmlns:xlink="http://www.w3.org/1999/xlink">
    <!-- Generator: Sketch 3.6.1 (26313) - http://www.bohemiancoding.com/sketch -->
    <title>Combined Shape</title>
    <desc>Created with Sketch.</desc>
    <defs></defs>
    <g id="Page-1" stroke="none" stroke-width="1" fill="none" fill-rule="evenodd">
        <g id="Group-2" fill="#000000">
            <g id="Group-3">
                <path fill="grey" d="M77.5,155 C120.302068,155 155,120.302068 155,77.5 C155,34.6979319 120.302068,0 77.5,0 C34.6979319,0 0,34.6979319 0,77.5 C0,120.302068 34.6979319,155 77.5,155 Z M68,57 L68,68.2193091 C46.8748894,69.2095532 31,73.4361564 31,78.5 C31,83.5638436 46.8748894,87.7904468 68,88.7806909 L68,126 L87,126 L87,88.7806909 C108.125111,87.7904468 124,83.5638436 124,78.5 C124,73.4361564 108.125111,69.2095532 87,68.2193091 L87,57 L114,57 L114,39 L42,39 L42,57 L68,57 Z M87,70.3021845 C103.777127,71.1544985 119.5,74.1473005 119.5,78 C119.5,82.5788102 94.2633362,85.8200812 77.5,85.8200817 C60.7366638,85.8200822 35.5,82.9372478 35.5,78 C35.5,73.8457042 51.2228731,71.0588438 68,70.2794311 L68,82 L87,82 L87,70.3021845 Z" id="Combined-Shape"></path>
            </g>
        </g>
    </g>
</svg>