<?xml version="1.0" encoding="utf-8"?>
<!-- Generator: Adobe Illustrator 16.0.0, SVG Export Plug-In . SVG Version: 6.00 Build 0)  -->
<!DOCTYPE svg PUBLIC "-//W3C//DTD SVG 1.1//EN" "http://www.w3.org/Graphics/SVG/1.1/DTD/svg11.dtd">
<svg version="1.1" id="Layer_1" xmlns="http://www.w3.org/2000/svg" xmlns:xlink="http://www.w3.org/1999/xlink" x="0px" y="0px"
	 width="841.889px" height="595.281px" viewBox="0 0 841.889 595.281" enable-background="new 0 0 841.889 595.281"
	 xml:space="preserve">
<g transform="translate(0.000000,117.000000) scale(0.100000,-0.100000)">
	<path fill="gray" d="M1130.515-491.887c-22.021-68.247-99.087-420.562-99.087-460.21c0-39.624,19.814-41.831,328.086-41.831h328.096
		l57.251,242.212c30.82,134.326,57.251,253.232,57.251,264.238C1802.112-452.249,1141.531-458.86,1130.515-491.887z"/>
	<path fill="gray" d="M1923.215-491.887c-4.404-15.405-134.316-572.505-286.255-1239.687c-151.929-664.995-284.048-1233.1-290.659-1259.526
		l-11.011-50.645h341.309c308.266,0,343.501,4.404,354.512,39.629c4.404,19.834,112.305,480.029,237.822,1023.906l224.59,984.282
		h380.947c209.18,0,380.928-2.202,380.928-6.597c0-4.414-103.501-455.811-231.201-1006.299
		c-127.71-550.488-231.206-1008.486-231.206-1017.304c0-11.006,140.918-15.43,312.676-13.213l312.676,6.611l290.659,1255.107
		c160.747,691.416,292.861,1268.33,292.861,1283.735C4004.064-452.249,1936.433-452.249,1923.215-491.887z"/>
	<path fill="gray" d="M4805.588-1713.967C4603-2585.935,4521.516-2975.681,4536.936-3002.116c17.617-35.225,68.262-39.629,574.717-39.629
		c306.064,0,645.156,11.016,753.066,24.229c464.6,55.029,777.285,233.398,907.207,519.668
		c50.625,112.285,57.236,116.68,138.721,116.68c83.662,0,85.869,2.207,118.906,118.926c19.795,66.055,35.225,125.498,35.225,132.109
		s-50.635,13.223-114.502,17.627c-107.891,6.602-116.699,11.006-127.725,72.646c-33.018,151.943-151.934,279.668-303.857,328.096
		c-70.459,24.224-59.463,41.831,57.236,88.076c57.275,24.224,149.746,90.283,204.775,147.544
		c85.889,88.071,116.738,105.688,195.986,112.3c90.283,6.592,94.688,11.006,123.301,105.684
		c48.447,162.939,44.043,176.152-68.242,176.152c-94.688,0-99.092,2.207-99.092,66.064c0,151.928-127.715,336.894-290.654,420.576
		c-180.576,92.476-332.5,112.3-953.447,123.311l-594.531,11.006L4805.588-1713.967z M6133.352-1013.742
		c173.945-107.886,81.475-361.123-156.357-431.582c-121.094-35.239-475.605-46.245-475.605-13.218
		c0,24.224,55.049,273.042,90.273,405.156l22.021,81.479h224.6C6021.037-971.906,6076.096-980.715,6133.352-1013.742z
		 M5950.598-1964.978c127.695-35.244,189.365-107.9,189.365-222.422c0-127.695-61.67-220.186-184.98-281.836
		c-116.699-55.039-380.928-94.688-579.111-83.672l-132.119,6.602l63.877,275.254c33.018,151.934,66.055,288.438,72.646,303.857
		C5393.479-1934.157,5827.277-1929.753,5950.598-1964.978z"/>
	<path fill="gray" d="M4008.469-989.519l-114.497-499.844l268.633-634.16c198.179-469.014,275.249-625.361,286.265-594.531
		c8.799,22.031,66.055,251.025,125.518,510.859l107.871,473.408l-262.021,605.542c-145.342,334.702-270.859,614.341-279.653,623.154
		C4131.774-496.282,4072.321-714.275,4008.469-989.519z"/>
</g>
</svg>
