<?xml version="1.0" encoding="utf-8"?>
<!DOCTYPE svg PUBLIC "-//W3C//DTD SVG 1.1//EN" "http://www.w3.org/Graphics/SVG/1.1/DTD/svg11.dtd">
<svg version="1.1" id="Layer_1" xmlns="http://www.w3.org/2000/svg" xmlns:xlink="http://www.w3.org/1999/xlink" x="0px" y="0px"
	 width="226.777px" height="226.777px" viewBox="0 0 226.777 226.777" enable-background="new 0 0 226.777 226.777"
	 xml:space="preserve">
<path fill="gray" d="M172.183,41.525L21.263,7.388L21.24,7.892l1.051,2.839l-0.035,0.153l0.1,0.023l75.422,203.877l0.097,0.261
	l1.342,3.453l1.417-1.541L206.887,63.612L172.183,41.525z M201.542,65.032l-89.187,43.15l58.661-62.575L201.542,65.032z
	 M169.08,45.067l-59.133,63.267l1.165-0.09L26.202,12.36L169.08,45.067z M98.673,212.602L25.157,13.885l84.426,95.338l-0.083,0.775
	l0.36,0.697l-0.403-0.281L98.673,212.602z M100.616,211.26l10.738-100.739l88.74-42.827L100.616,211.26z"/>
</svg>
