<?xml version="1.0" encoding="utf-8"?>
<!-- Generator: Adobe Illustrator 16.0.0, SVG Export Plug-In . SVG Version: 6.00 Build 0)  -->
<!DOCTYPE svg PUBLIC "-//W3C//DTD SVG 1.1//EN" "http://www.w3.org/Graphics/SVG/1.1/DTD/svg11.dtd">
<svg version="1.1" id="Layer_1" xmlns="http://www.w3.org/2000/svg" xmlns:xlink="http://www.w3.org/1999/xlink" x="0px" y="0px"
	 width="183.696px" height="123.913px" viewBox="0 0 183.696 123.913" enable-background="new 0 0 183.696 123.913"
	 xml:space="preserve">
<g>
	<g>
		<defs>
			<rect id="SVGID_1_" x="-546.933" y="-364.067" width="1280" height="850"/>
		</defs>
		<clipPath id="SVGID_2_">
			<use xlink:href="#SVGID_1_"  overflow="visible"/>
		</clipPath>
	</g>
</g>
<g>
	<g>
		<defs>
			<rect id="SVGID_3_" x="-546.933" y="-364.067" width="1280" height="850"/>
		</defs>
		<clipPath id="SVGID_4_">
			<use xlink:href="#SVGID_3_"  overflow="visible"/>
		</clipPath>
	</g>
</g>
<path d="M152.825,9.003H33.856c-4.866,0-7.344,2.478-7.344,7.344V91.99c0,4.865,2.478,7.344,7.344,7.344H152.09
	c4.869,0,8.078-1.744,8.078-6.609V16.348C160.168,11.481,157.694,9.003,152.825,9.003z M153.045,93.092H34.224V16.567h118.822
	V93.092z"/>
<path d="M175.397,105.639c0,4.867-3.213,7.344-8.078,7.344H19.432c-4.866,0-8.078-2.477-8.078-7.344H175.397z"/>
</svg>
