<?xml version="1.0" encoding="utf-8"?>
<!-- Generator: Adobe Illustrator 16.0.0, SVG Export Plug-In . SVG Version: 6.00 Build 0)  -->
<!DOCTYPE svg PUBLIC "-//W3C//DTD SVG 1.1//EN" "http://www.w3.org/Graphics/SVG/1.1/DTD/svg11.dtd">
<svg version="1.1" id="Layer_1" xmlns="http://www.w3.org/2000/svg" xmlns:xlink="http://www.w3.org/1999/xlink" x="0px" y="0px"
	 width="106.521px" height="52.174px" viewBox="0 0 106.521 52.174" enable-background="new 0 0 106.521 52.174"
	 xml:space="preserve">
<g>
	<path d="M28.076,41.241H9.615V16.155h18.461V41.241z M10.615,40.241h16.461V17.155H10.615V40.241z"/>
</g>
<rect x="13.127" y="34.339" width="14.449" height="3.525"/>
<rect x="15.836" y="29.339" width="11.74" height="3.525"/>
<rect x="15.836" y="24.339" width="11.74" height="3.525"/>
<rect x="13.127" y="19.339" width="14.449" height="3.525"/>
<path d="M27.576,11.839v32.516h68.039V11.839H27.576z M76.648,28.397c0-2.827,2.291-5.118,5.119-5.118
	c2.825,0,5.116,2.291,5.116,5.118c0,2.828-2.291,5.119-5.116,5.119C78.939,33.517,76.648,31.226,76.648,28.397z M45.17,28.651
	c0-5.201,4.218-9.417,9.418-9.417c5.201,0,9.416,4.215,9.416,9.417s-4.215,9.416-9.416,9.416
	C49.387,38.067,45.17,33.853,45.17,28.651z"/>
<g>
	<polygon points="53,33.188 49.066,29.257 50.48,27.843 52.996,30.356 58.406,24.92 59.824,26.332 	"/>
</g>
</svg>
