<svg version="1.1" id="Layer_1" xmlns="http://www.w3.org/2000/svg" xmlns:xlink="http://www.w3.org/1999/xlink" x="0px" y="0px"
	 width="226.777px" height="226.777px" viewBox="0 0 226.777 226.777" enable-background="new 0 0 226.777 226.777"
	 xml:space="preserve">
<path fill="grey" d="M160.63,133.502c-3.285-6.374-8.443-12.027-15.335-16.805c-6.815-4.718-16.392-9.092-28.46-12.999
	c-11.736-3.8-20.246-8.049-25.293-12.63c-4.951-4.492-7.358-10.386-7.358-18.02c0-8.172,2.349-14.603,6.983-19.116
	c4.646-4.522,11.521-6.815,20.435-6.815c8.571,0,15.177,3.019,20.197,9.229c5.026,6.222,7.574,14.788,7.574,25.458v1.481h24.666
	v-1.481c0-16.316-3.819-29.389-11.35-38.854c-7.326-9.2-17.591-14.887-30.524-16.915V0h-20.537v25.896
	C88.8,27.668,78.518,32.705,71.052,40.879C63.321,49.341,59.4,60.305,59.4,73.468c0,12.934,4.004,23.766,11.901,32.192
	c7.811,8.334,20.352,15.167,37.238,20.296c11.765,3.904,20.204,8.293,25.088,13.044c4.818,4.685,7.161,10.291,7.161,17.141
	c0,8.147-2.721,14.383-8.315,19.063c-5.597,4.679-13.451,7.052-23.349,7.052c-10.076,0-17.935-2.813-23.357-8.361
	c-5.434-5.557-8.188-13.664-8.188-24.096v-1.48H52.795v1.48c0,15.812,4.318,28.536,12.833,37.816
	c8.257,9,19.689,14.345,33.994,15.898v22.572h20.418V203.5c14.043-1.673,25.185-6.584,33.129-14.609
	c8.229-8.314,12.4-19.411,12.4-32.984C165.57,147.41,163.908,139.873,160.63,133.502z"/>
</svg>
