<?xml version="1.0" encoding="utf-8"?>
<!DOCTYPE svg PUBLIC "-//W3C//DTD SVG 1.1//EN" "http://www.w3.org/Graphics/SVG/1.1/DTD/svg11.dtd">
<svg version="1.1" id="Layer_1" xmlns="http://www.w3.org/2000/svg" xmlns:xlink="http://www.w3.org/1999/xlink" x="0px" y="0px"
	 width="226.777px" height="226.777px" viewBox="0 0 226.777 226.777" enable-background="new 0 0 226.777 226.777"
	 xml:space="preserve">
<path fill="grey" d="M140.63,133.502c-3.284-6.374-8.442-12.026-15.335-16.805c-6.814-4.718-16.392-9.092-28.46-12.999
	c-11.735-3.8-20.246-8.049-25.293-12.63c-4.951-4.492-7.357-10.386-7.357-18.021c0-8.172,2.349-14.603,6.982-19.115
	c4.646-4.522,11.521-6.815,20.436-6.815c8.57,0,15.177,3.02,20.196,9.229c5.026,6.222,7.574,14.788,7.574,25.458v1.48h24.666v-1.48
	c0-16.316-3.818-29.39-11.35-38.854c-7.326-9.2-17.591-14.887-30.524-16.915V0H81.628v25.896
	C68.8,27.668,58.518,32.705,51.052,40.879C43.321,49.341,39.4,60.305,39.4,73.469c0,12.934,4.004,23.766,11.9,32.191
	c7.812,8.334,20.353,15.167,37.238,20.296c11.766,3.904,20.204,8.293,25.088,13.044c4.818,4.686,7.161,10.291,7.161,17.142
	c0,8.146-2.721,14.383-8.314,19.062c-5.598,4.679-13.451,7.052-23.35,7.052c-10.076,0-17.935-2.812-23.356-8.36
	c-5.435-5.558-8.188-13.664-8.188-24.097v-1.479H32.795v1.479c0,15.812,4.318,28.536,12.833,37.816
	c8.257,9,19.689,14.345,33.994,15.898v22.571h20.418V203.5c14.043-1.673,25.186-6.584,33.129-14.608
	c8.229-8.314,12.4-19.411,12.4-32.984C145.57,147.41,143.908,139.873,140.63,133.502z"/>
<g>
	<path fill="grey" d="M193.654,35.585l12.393-22.787h15.659l-19.245,32.772l19.745,33.317h-15.841l-12.711-23.149l-12.709,23.149
		h-15.842l19.745-33.317l-19.245-32.772h15.66L193.654,35.585z"/>
</g>
</svg>
