<?xml version="1.0" encoding="utf-8"?>
<!DOCTYPE svg PUBLIC "-//W3C//DTD SVG 1.1//EN" "http://www.w3.org/Graphics/SVG/1.1/DTD/svg11.dtd">
<svg version="1.1" id="Layer_1" xmlns="http://www.w3.org/2000/svg" xmlns:xlink="http://www.w3.org/1999/xlink" x="0px" y="0px"
	 width="226.777px" height="226.777px" viewBox="0 0 226.777 226.777" enable-background="new 0 0 226.777 226.777"
	 xml:space="preserve">
<g>
	<path opacity="0.6" fill="grey" enable-background="new    " d="M48.876,219.062C15.217,204.315-6.807,124.877,40.269,57.2
		C87.35-10.471,152.141-8.873,186.597,24.302c34.46,33.176,44.182,91.353,3.181,144.08
		C148.777,221.103,82.54,233.804,48.876,219.062z M58.742,215.78c31.989,11.88,66.692,2.006,117.296-59.539
		c50.616-61.559,33.664-103.566,8.791-125.805C159.97,8.197,97.424,12.609,50.354,80.284
		C3.266,147.955,26.753,203.895,58.742,215.78z"/>
	<path opacity="0.2" fill="grey" enable-background="new    " d="M113.521,216.379c-15.229,5.903-29.083,6.335-41.965,3.535
		c-8.041-0.798-15.011-2.578-20.346-5.258C23.207,200.6-5.111,139.265,41.971,71.587c47.076-67.67,109.523-75.93,143.982-42.754
		c34.448,33.176,40.356,90.623,3.365,139.984c-19.286,25.735-48.384,40.92-75.788,47.562H113.521z M113.521,216.379
		c19.602-7.599,41.486-24.25,66.565-54.75c50.616-61.546,27.146-110.947,7.931-128.663C156.757,4.135,92.942,18.275,47.96,83.469
		C2.995,148.653,27.861,204.575,59.861,216.457c3.813,1.415,7.707,2.594,11.695,3.461C83.73,221.119,98.369,220.053,113.521,216.379
		z"/>
	<path opacity="0.8" fill="grey" enable-background="new    " d="M87.307,214.22C28.423,197.453,1.532,134.564,11.154,93.395
		c9.621-41.162,77.609-82.202,130.621-56.24c53.004,25.956,82.19,77.748,67.73,119.107
		C195.043,197.628,146.191,230.997,87.307,214.22L87.307,214.22z M93.363,197.453c50.992,15.053,97.129-7.418,111.754-44.245
		c14.62-36.828-21.225-81.548-69.136-96.762c-47.9-15.221-111.094,3.836-120.823,36.949C5.438,126.503,42.375,182.41,93.363,197.453
		z"/>
	<path opacity="0.2" fill="grey" enable-background="new    " d="M12.802,114.384c5.334,33.63,39.44,77.609,81.4,89.997
		c49.7,14.662,92.319-10.98,109.588-44.104c-14.465,41.355-75.401,64.268-118.643,47.376
		C46.449,192.544,12.594,152.192,12.802,114.384z M39.494,66.42c28.918-22.44,75.718-34.315,108.454-18.598
		c34.646,16.644,56.257,47.036,59.66,78.354c-6.741-28.351-34.614-57.693-69.586-69.227C105.699,46.291,65.588,51.792,39.494,66.42z
		"/>
	<g>
		<path fill="grey" d="M105.458,152.029h15.053V92.124h17.619V78.456H87.842v13.668h17.616V152.029z"/>
		<path fill="grey" d="M101.4,168.736h23.336c9.086,0,13.395-4.315,13.395-13.444V96.046h-13.227v58.645c0,1.441-0.48,1.92-1.915,1.92h-19.842
			c-1.429,0-1.91-0.479-1.91-1.92V96.046H88.005v59.246C88.005,164.421,92.309,168.736,101.4,168.736z"/>
	</g>
</g>
</svg>
