<?xml version="1.0" encoding="utf-8"?>
<!DOCTYPE svg PUBLIC "-//W3C//DTD SVG 1.1//EN" "http://www.w3.org/Graphics/SVG/1.1/DTD/svg11.dtd">
<svg version="1.1" id="Layer_1" xmlns="http://www.w3.org/2000/svg" xmlns:xlink="http://www.w3.org/1999/xlink" x="0px" y="0px"
	 width="226.777px" height="226.777px" viewBox="0 0 226.777 226.777" enable-background="new 0 0 226.777 226.777"
	 xml:space="preserve">
<g id="g9742" transform="matrix(4.1251 0 0 4.1251 -882.488 -1920.454)">
	<path id="path9698" opacity="0.9" fill="grey" enable-background="new    " d="M238.041,514.6l-1.896-3.791l-19.724-39.852
		c0,0-0.444-1.331,0.444-1.533c2.904-0.081,5.566-0.081,8.228-0.121c0,0,0.323,0,0.565,0.605s15.852,31.785,15.852,31.785
		s3.469,3.227,6.211-0.04c2.178-4.275,10.407-20.773,16.014-32.067c0,0,1.049-0.605,1.936-0.242
		c0.887,0.363,0.484,1.089,0.484,1.089l-21.781,43.765C244.414,514.196,241.793,518.069,238.041,514.6L238.041,514.6z"/>
	<path id="path9728" opacity="0.8" fill="grey" enable-background="new    " d="M216.784,471.521l13.956,16.941l6.091,23.597
		L216.784,471.521z"/>
	<path id="path9730" opacity="0.5" fill="grey" enable-background="new    " d="M226.546,471.642l4.155,16.82l10.084,11.698
		L226.546,471.642L226.546,471.642z"/>
	<path id="path9732" fill="grey" d="M236.711,511.817l-6.01-23.355l10.084,11.657l1.331,5.526L236.711,511.817z"/>
</g>
</svg>
