<?xml version="1.0" encoding="utf-8"?>
<!DOCTYPE svg PUBLIC "-//W3C//DTD SVG 1.1//EN" "http://www.w3.org/Graphics/SVG/1.1/DTD/svg11.dtd">
<svg version="1.1" id="Layer_1" xmlns="http://www.w3.org/2000/svg" xmlns:xlink="http://www.w3.org/1999/xlink" x="0px" y="0px"
	 width="226.777px" height="226.777px" viewBox="0 0 226.777 226.777" enable-background="new 0 0 226.777 226.777"
	 xml:space="preserve">
<g transform="translate(0.000000,200.000000) scale(0.100000,-0.100000)">
	<path fill="grey" d="M377.546,1060.5c26.089-70.571,88.994-247.031,141.162-392.812l95.137-263.916l174.932,3.066l174.917,4.609l87.471,237.832
		c49.097,130.43,95.132,234.766,102.798,231.694c6.133-3.057,50.645-110.474,98.203-237.837l84.395-231.689l125.82-4.609
		c69.062-3.066,125.83,0,125.83,6.133c0,6.143-49.111,144.248-108.936,303.828c-58.33,161.118-119.697,328.364-135.039,369.795
		l-29.15,76.724h-164.189H985.178l-81.323-222.5c-46.035-122.749-90.532-239.36-99.736-260.845
		c-15.342-35.293-23.022-19.941-92.065,168.779c-41.426,113.555-85.933,236.304-99.741,273.135l-24.551,64.443H458.874H329.983
		L377.546,1060.5z"/>
	<path fill="grey" d="M1694.089,1129.553c-9.209-24.551-35.293-95.142-59.854-159.575l-42.959-118.14l62.91-168.799
		c35.283-93.604,65.977-167.256,69.062-164.18c3.057,3.066,59.834,150.361,124.287,328.369l119.678,323.76h-128.896
		C1712.497,1170.989,1709.441,1169.455,1694.089,1129.553z"/>
</g>
<path fill="grey" d="M113.555,1.111c-61.175,0-110.944,49.77-110.944,110.944S52.381,223,113.555,223S224.5,173.23,224.5,112.055
	S174.73,1.111,113.555,1.111z M113.555,214.397c-56.431,0-102.341-45.91-102.341-102.342c0-56.431,45.91-102.341,102.341-102.341
	c56.431,0,102.341,45.91,102.341,102.341C215.896,168.487,169.986,214.397,113.555,214.397z"/>
</svg>
