<?xml version="1.0" encoding="utf-8"?>
<!DOCTYPE svg PUBLIC "-//W3C//DTD SVG 1.1//EN" "http://www.w3.org/Graphics/SVG/1.1/DTD/svg11.dtd">
<svg version="1.1" id="Layer_1" xmlns="http://www.w3.org/2000/svg" xmlns:xlink="http://www.w3.org/1999/xlink" x="0px" y="0px"
	 width="226.777px" height="226.777px" viewBox="0 0 226.777 226.777" enable-background="new 0 0 226.777 226.777"
	 xml:space="preserve">
<g>
	<path fill="grey" d="M197.576,46.329l-38.188,116.816h-26.667l-13.345-43.646l-11.322,43.646h-28l-13.333-51.314l-21.767,81.816
		c18.523,15.51,42.386,24.852,68.434,24.852c58.91,0,106.667-47.756,106.667-106.667C220.055,87.138,211.662,64.407,197.576,46.329z
		"/>
	<path fill="grey" d="M54.054,78.833h24.667l14.667,54.666l13.333-54.666h24l14.667,52.666L179.375,28.02l0,0
		c-18.156-14.314-41.073-22.856-65.986-22.856C54.478,5.164,6.721,52.92,6.721,111.832c0,22.78,7.146,43.889,19.312,61.217
		L54.054,78.833z"/>
</g>
</svg>
