<?xml version="1.0" encoding="utf-8"?>
<!DOCTYPE svg PUBLIC "-//W3C//DTD SVG 1.1//EN" "http://www.w3.org/Graphics/SVG/1.1/DTD/svg11.dtd">
<svg version="1.1" id="Layer_1" xmlns="http://www.w3.org/2000/svg" xmlns:xlink="http://www.w3.org/1999/xlink" x="0px" y="0px"
	 width="226.777px" height="226.777px" viewBox="0 0 226.777 226.777" enable-background="new 0 0 226.777 226.777"
	 xml:space="preserve">
<g transform="translate(-112.64-3.69)">
	<g>
		<path opacity="0.9" fill="grey" enable-background="new    " d="M220.419,174.579c-0.504,0.647-1.113,1.447-1.838,2.448
			c-0.155,0.213-0.327,0.403-0.493,0.607c-11.39,15.41-27.376,23.039-36.036,17.046c-8.664-5.999-6.742-23.374,4.182-39.113
			c0.142-0.215,0.26-0.438,0.42-0.652c1.057-1.476,1.981-2.473,2.836-3.099l-6.966-5.125c-2.63,1.829-4.99,4.148-6.937,6.936
			c-0.218,0.311-0.398,0.637-0.601,0.953c-15.495,22.878-18.102,48.214-5.66,57.035c12.44,8.828,35.256-2.18,51.428-24.574
			c0.229-0.299,0.474-0.574,0.688-0.886c1.75-2.502,3.038-5.192,3.88-7.969L220.419,174.579z"/>
		<path opacity="0.2" fill="grey" enable-background="new    " d="M214.302,168.135c-9.842-6.91-10.715-8.064-10.829-8.145
			c-7.332-5.08-9.772-11.257-13.985-8.176l30.93,22.762C224.211,169.697,221.839,173.589,214.302,168.135z"/>
		<path opacity="0.4" fill="grey" enable-background="new    " d="M186.651,154.915c-0.16,0.214-0.279,0.438-0.421,0.652
			c-10.923,15.739-12.844,33.114-4.181,39.113c8.66,5.993,24.646-1.636,36.036-17.046c0.166-0.204,0.337-0.396,0.493-0.607
			c0.725-1.002,1.334-1.801,1.838-2.448l-30.93-22.762C188.635,152.442,187.708,153.439,186.651,154.915z"/>
		<path opacity="0.5" fill="grey" enable-background="new    " d="M186.651,154.915c-0.16,0.214-0.279,0.438-0.421,0.652
			c-10.923,15.739-12.844,33.114-4.181,39.113c8.66,5.993,24.646-1.636,36.036-17.046c0.166-0.204,0.337-0.396,0.493-0.607
			c0.725-1.002,1.334-1.801,1.838-2.448l-30.93-22.762C188.635,152.442,187.708,153.439,186.651,154.915z"/>
	</g>
	<path opacity="0.7" fill="grey" enable-background="new    " d="M310.073,8.135l-0.042,0.051l0.027-0.063
		c-3.22-2.38-62.383,1.581-84.52,39.757c-22.14,38.175-41.375,75.288-45.315,82.45s-1.752,11.083,5.271,16.273
		c3.2,2.357,12.211,9.016,21.089,15.572c8.877,6.558,17.89,13.216,21.09,15.575c7.024,5.193,11.273,6.041,16.377-0.268
		c5.105-6.307,31.955-37.796,58.779-72.512C329.656,70.256,313.293,10.515,310.073,8.135z M283.911,86.14
		c-7.88,11.209-23.367,13.896-34.577,5.993c-11.204-7.901-13.888-23.386-6.003-34.6c7.887-11.215,23.368-13.896,34.577-5.994
		C289.119,59.442,291.792,74.929,283.911,86.14z"/>
	<path fill="grey" d="M263.572,100.176c-15.653-0.045-28.308-12.772-28.263-28.428c0.021-5.81,1.821-11.476,5.164-16.229
		c8.994-12.783,26.646-15.854,39.429-6.863c0.012,0.008,0.021,0.014,0.03,0.021c12.772,9.003,15.844,26.714,6.849,39.478
		c-4.309,6.156-10.901,10.333-18.311,11.595C266.855,100.032,265.216,100.174,263.572,100.176 M263.661,50.5
		c-1.237,0-2.471,0.106-3.688,0.318c-5.571,0.953-10.533,4.096-13.772,8.729c-6.765,9.615-4.454,22.95,5.153,29.727
		c9.617,6.781,22.91,4.481,29.69-5.134c0.004-0.006,0.007-0.01,0.011-0.016c6.772-9.611,4.461-22.944-5.154-29.724
		C272.322,51.864,268.044,50.501,263.661,50.5"/>
	<path fill="grey" d="M322.021,33.789c-0.887-6.395-2.225-12.801-3.767-18.037c-2.299-7.813-3.753-8.995-4.477-9.512
		l-0.066-0.047c-0.705-0.5-2.176-1.542-10.451-1.078c-5.399,0.303-11.827,1.187-18.098,2.49c-15.86,3.296-27.507,8.454-34.48,12.2
		c-13.188,7.093-23.192,16.162-29.734,26.971c-8.531,14.091-16.682,28.099-23.747,40.47c-18.277-2.646-43.621,2.24-68.917,34.67
		c-1.308,1.681-1.951,4.212,1.598,3.106c8.117-2.526,24.484-5.389,44.388,3.105c-0.152,0.271-0.296,0.521-0.419,0.737
		c-1.62,2.829-3.569,7.132-1.76,11.824c1.156,3,3.626,5.676,8.247,8.946l7.676,5.433l14.22,10.061l0.532,0.375
		c9.038,6.403,18.104,12.818,21.358,15.119c4.629,3.275,7.972,4.708,11.178,4.796h0.291c1.899-0.006,3.769-0.509,5.414-1.461
		c1.636-0.931,3.211-2.303,4.814-4.199c0.246-0.292,0.55-0.646,0.894-1.046c15.097,15.813,17.973,32.233,18.332,40.697
		c0.153,3.654,2.31,2.219,3.44,0.452c22.4-35.007,17.758-60.504,8.732-76.503c9.156-10.781,19.446-23.101,29.69-35.802
		C325.732,84.236,324.455,51.329,322.021,33.789z M246.677,168.122c-2.932,3.36-5.049,5.799-6.185,7.14
		c-3.444,4.071-5.48,4.525-12.34-0.328c-3.255-2.31-12.317-8.723-21.356-15.118l-0.534-0.379l-14.219-10.061l-7.678-5.431
		c-3.326-2.354-5.158-4.186-5.77-5.764c-0.377-0.993-0.581-2.556,1.303-5.841c0.875-1.526,2.44-4.343,4.605-8.247
		c7.887-14.211,24.296-43.784,42.415-73.703c11.228-18.561,32.042-28.107,47.524-32.843c14.282-4.374,26.947-5.568,32.741-5.568
		v-0.004c0.789-0.007,1.582,0.029,2.371,0.104c1.673,3.462,5.861,17.461,6.703,35.064c0.771,16.25-1.166,39.164-14.788,56.048
		C279.534,130.397,257.343,155.878,246.677,168.122z"/>
</g>
</svg>
