<?xml version="1.0" encoding="utf-8"?>
<svg version="1.1" id="Layer_1" xmlns="http://www.w3.org/2000/svg" xmlns:xlink="http://www.w3.org/1999/xlink" x="0px" y="0px"
	 width="279px" height="279px" viewBox="0 0 279 279" enable-background="new 0 0 279 279" xml:space="preserve">
<path fill="grey" d="M138.5,2.5C63.665,2.5,3,63.165,3,138s60.665,135.5,135.5,135.5c74.833,0,135.5-60.665,135.5-135.5
	S213.334,2.5,138.5,2.5z M139.262,264.022c-45.458,0-85.259-24.219-107.211-60.45h52.472V137.48l54.314,54.313l54.697-54.698v66.475
	v0.001h52.938C224.52,239.804,184.719,264.022,139.262,264.022z M220.711,178.093V73.02l-81.414,81.411L57.806,72.94v105.152v0.001
	H20.309C16.218,165.722,14,152.503,14,138.762C14,69.582,70.081,13.5,139.262,13.5s125.261,56.082,125.261,125.262
	c0,13.741-2.221,26.96-6.309,39.331H220.711z"/>
</svg>
