<?xml version="1.0" encoding="utf-8"?>
<svg version="1.1" id="Layer_1" xmlns="http://www.w3.org/2000/svg" xmlns:xlink="http://www.w3.org/1999/xlink" x="0px" y="0px"
	 width="279px" height="279px" viewBox="0 0 279 279" enable-background="new 0 0 279 279" xml:space="preserve">
<g id="XMR_2_">
	<path fill="grey" d="M50.677,181.438V66.802l88.842,88.842l88.757-88.755v114.551h40.887c4.457-13.486,6.878-27.897,6.878-42.879
		C276.04,63.14,214.901,2,139.48,2C64.059,2,2.919,63.14,2.919,138.561c0,14.981,2.418,29.393,6.878,42.879L50.677,181.438
		L50.677,181.438z"/>
	<path fill="grey" d="M198.647,209.217v-72.472l-59.632,59.632l-59.213-59.213v72.054H22.598c23.933,39.499,67.323,65.902,116.882,65.902
		c49.558,0,92.948-26.403,116.88-65.902L198.647,209.217L198.647,209.217z"/>
</g>
</svg>
