<?xml version="1.0" encoding="utf-8"?>
<!DOCTYPE svg PUBLIC "-//W3C//DTD SVG 1.1//EN" "http://www.w3.org/Graphics/SVG/1.1/DTD/svg11.dtd">
<svg version="1.1" id="Layer_1" xmlns="http://www.w3.org/2000/svg" xmlns:xlink="http://www.w3.org/1999/xlink" x="0px" y="0px"
	 width="226.777px" height="226.777px" viewBox="0 0 226.777 226.777" enable-background="new 0 0 226.777 226.777"
	 xml:space="preserve">
<path fill="grey" d="M113.383,6.759C55.005,6.759,7.512,54.252,7.512,112.63c0,58.377,47.493,105.87,105.871,105.87
	c58.377,0,105.87-47.493,105.87-105.87C219.253,54.252,171.76,6.759,113.383,6.759z M215.253,112.63
	c0,27.153-10.68,51.857-28.058,70.138l-8.514-8.457c15.223-16.106,24.571-37.821,24.571-61.681c0-24.307-9.704-46.388-25.437-62.581
	l8.531-8.43C204.222,59.982,215.253,85.04,215.253,112.63z M27.563,114.63h10c1.05,40.245,33.575,72.77,73.82,73.819v10
	C65.624,197.394,28.617,160.388,27.563,114.63z M111.383,26.81v10c-40.245,1.05-72.77,33.575-73.82,73.82h-10
	C28.617,64.871,65.624,27.865,111.383,26.81z M199.202,110.63h-10c-1.05-40.245-33.574-72.77-73.819-73.82v-10
	C161.141,27.865,198.147,64.871,199.202,110.63z M113.383,184.5c-39.629,0-71.871-32.241-71.871-71.87
	c0-39.629,32.241-71.871,71.871-71.871c39.629,0,71.87,32.241,71.87,71.871C185.253,152.259,153.011,184.5,113.383,184.5z
	 M115.383,188.449c40.245-1.05,72.77-33.574,73.819-73.819h10c-1.055,45.759-38.061,82.765-83.819,83.819V188.449z M183.506,38.804
	l-8.539,8.437c-16.097-15.169-37.772-24.481-61.584-24.481c-24.046,0-45.915,9.494-62.06,24.928l-8.874-8.099
	c18.356-17.831,43.382-28.83,70.933-28.83C140.528,10.759,165.227,21.433,183.506,38.804z M39.629,42.429l8.862,8.088
	c-15.464,16.15-24.979,38.04-24.979,62.112c0,23.86,9.35,45.576,24.574,61.684l-8.516,8.454
	c-17.378-18.279-28.059-42.984-28.059-70.138C11.512,85.446,22.216,60.715,39.629,42.429z M42.386,185.608l8.512-8.451
	c16.185,15.678,38.226,25.343,62.484,25.343c24.26,0,46.302-9.666,62.486-25.345l8.511,8.453
	c-18.362,17.867-43.414,28.892-70.997,28.892C85.8,214.5,60.747,203.475,42.386,185.608z"/>
</svg>
