<svg version="1.1" id="Layer_1" xmlns="http://www.w3.org/2000/svg" xmlns:xlink="http://www.w3.org/1999/xlink" x="0px" y="0px"
	 width="279px" height="279px" viewBox="0 0 279 279" enable-background="new 0 0 279 279" xml:space="preserve">
<path fill="grey" d="M139.556,3C64.138,3,3,64.138,3,139.556c0,75.418,61.138,136.556,136.556,136.556c75.418,0,136.556-61.138,136.556-136.556
	C276.111,64.138,214.974,3,139.556,3z M139.556,246.906c-59.193,0-107.35-48.157-107.35-107.351
	c0-59.193,48.157-107.35,107.35-107.35c59.193,0,107.351,48.157,107.351,107.35C246.906,198.749,198.749,246.906,139.556,246.906z"
	/>
<polygon fill="grey" points="123.769,57.465 123.769,72.462 88.249,72.462 88.249,104.036 147.45,104.036 85.88,176.655 85.88,208.229
	123.769,208.229 123.769,234.951 156.133,234.951 156.133,207.438 194.809,208.229 194.809,176.655 130.873,176.655
	194.809,104.036 194.809,73.251 156.922,73.251 156.922,45.624 123.769,45.624 "/>
</svg>
