<?xml version="1.0" encoding="utf-8"?>
<!-- Generator: Adobe Illustrator 16.0.0, SVG Export Plug-In . SVG Version: 6.00 Build 0)  -->
<!DOCTYPE svg PUBLIC "-//W3C//DTD SVG 1.1//EN" "http://www.w3.org/Graphics/SVG/1.1/DTD/svg11.dtd">
<svg version="1.1" id="Layer_1" xmlns="http://www.w3.org/2000/svg" xmlns:xlink="http://www.w3.org/1999/xlink" x="0px" y="0px"
	 width="226.777px" height="226.777px" viewBox="0 0 226.777 226.777" enable-background="new 0 0 226.777 226.777"
	 xml:space="preserve">
<g>
	<path fill="gray" d="M108.921,6.507h6.321c3.967,0.261,7.939,0.496,11.88,1.055c13.484,1.899,26.635,6.382,38.361,13.32
		c-2.699,2.145-5.592,4.031-8.359,6.083c-18.706,13.389-37.365,26.848-56.095,40.205c-1.518-1.258-2.833-2.734-4.271-4.074
		c-4.276-4.094-8.43-8.308-12.741-12.353c-1.571,0.567-3.006,1.439-4.473,2.227c-9.786,5.46-18.112,13.417-24.175,22.823
		C47.475,65.831,39.91,55.61,32.442,45.331c-0.234-0.342-0.444-0.699-0.656-1.055c2.819-3.37,5.854-6.556,9.083-9.537
		C57.035,19.694,78.029,9.874,99.991,7.3C102.956,6.898,105.949,6.823,108.921,6.507z"/>
	<path fill="gray" d="M160.179,45.957c6.619-4.992,13.249-9.974,20.026-14.745c13.914,11.573,24.71,26.84,31.088,43.765
		c8.08,21.25,8.901,45.143,2.403,66.919c-2.273,7.672-5.424,15.058-9.39,22.007c-0.619-0.526-1.056-1.224-1.538-1.86
		c-12.773-16.874-25.545-33.747-38.316-50.619c-2.48-3.315-5.034-6.573-7.475-9.917c5.591-6.006,11.423-11.802,17.034-17.796
		c-3.91-8.444-9.509-15.997-16.453-22.193c-2.728-2.484-5.735-4.624-8.772-6.701C152.49,51.749,156.367,48.893,160.179,45.957"/>
	<path fill="gray" d="M14.433,73.353c1.899-4.698,4.016-9.337,6.647-13.675c3.718,4.682,7.27,9.502,10.918,14.243
		c11.572,15.155,23.136,30.312,34.697,45.471c0.756,0.998,1.571,1.953,2.222,3.027c-5.838,6.094-11.828,12.045-17.642,18.162
		c1.403,3.312,3.301,6.394,5.283,9.39c3.009,4.425,6.527,8.48,10.484,12.082c2.848,2.662,6.029,4.925,9.228,7.145
		c-2.788,2.341-5.727,4.492-8.601,6.722c-5.12,3.919-10.283,7.783-15.487,11.591c-2.463,1.744-4.824,3.634-7.363,5.266
		c-16.38-13.692-28.438-32.47-34.038-53.067c-2.276-8.161-3.384-16.607-3.753-25.064v-5.274c0.122-1.829,0.236-3.658,0.364-5.486
		C8.196,93.411,10.57,83.119,14.433,73.353z"/>
	<path fill="gray" d="M162.764,157.35c2.61-2.825,4.842-5.96,7.019-9.119c2.356,2.897,4.603,5.887,6.887,8.843
		c5.658,7.438,11.259,14.916,16.675,22.526c-1.545,2.157-3.457,4.025-5.274,5.955c-15.157,15.604-35.237,26.375-56.668,30.233
		c-5.064,0.971-10.218,1.382-15.362,1.719h-7.643c-2.266-0.287-4.551-0.334-6.818-0.596c-14.74-1.55-29.188-6.199-41.95-13.752
		c4.37-3.332,8.802-6.58,13.192-9.886c16.76-12.502,33.514-25.013,50.262-37.532c2.842,2.62,5.524,5.408,8.321,8.081
		c3.271,3.13,6.414,6.407,9.754,9.47C149.355,169.544,156.706,164.01,162.764,157.35"/>
</g>
</svg>
