<?xml version="1.0" standalone="no"?>
<!DOCTYPE svg PUBLIC "-//W3C//DTD SVG 1.1//EN" "http://www.w3.org/Graphics/SVG/1.1/DTD/svg11.dtd">
<svg xmlns="http://www.w3.org/2000/svg">
<metadata>Generated by Fontastic.me</metadata>
<defs>
<font id="untitled-font-4" horiz-adv-x="512">
<font-face font-family="untitled-font-4" units-per-em="512" ascent="480" descent="-32"/>
<missing-glyph horiz-adv-x="512" />

<glyph glyph-name="distribute-up-passive" unicode="&#89;" d="M153 198c-7-6-16-5-22 1-6 7-5 16 2 22l108 93c5 4 14 4 20 0l108-93c6-6 7-15 1-22-5-6-15-7-22-1l-97 83z"/>
<glyph glyph-name="arrow-down-active" unicode="&#97;" d="M459 376c14 12 34 10 45-3 12-14 10-34-3-45l-224-192c-12-11-30-11-42 0l-224 192c-13 11-15 31-3 45 11 13 31 15 45 3l203-174z"/>
<glyph glyph-name="arrow-down-passive" unicode="&#98;" d="M459 376c14 12 34 10 45-3 12-14 10-34-3-45l-224-192c-12-11-30-11-42 0l-224 192c-13 11-15 31-3 45 11 13 31 15 45 3l203-174z"/>
<glyph glyph-name="back-arrow" unicode="&#99;" d="M73 290l418 0c11 0 21-9 21-21 0-12-10-22-21-22l-418 0 134-134c8-8 8-22 0-30-8-8-22-8-30 0l-171 171c-8 8-8 22 0 30l171 171c8 8 22 8 30 0 8-9 8-22 0-31z"/>
<glyph glyph-name="cancel" unicode="&#100;" d="M250 261l152 152c7 7 19 7 26 0 7-8 7-19 0-26l-152-152 152-152c7-7 7-19 0-26-7-7-19-7-26 0l-152 152-151-152c-7-7-19-7-26 0-7 7-7 19 0 26l152 152-152 152c-7 7-7 18 0 26 7 7 19 7 26 0z"/>
<glyph glyph-name="clear" unicode="&#101;" d="M455 427l0-356c0-39-32-71-71-71l-256 0c-39 0-71 32-71 71l0 356-14 0c-8 0-15 6-15 14 0 8 7 14 15 14l128 0 0 14c0 24 19 43 42 43l86 0c23 0 42-19 42-43l0-14 128 0c8 0 15-6 15-14 0-8-7-14-15-14z m-370 0l0-356c0-23 19-43 43-43l256 0c24 0 43 20 43 43l0 356z m228 28l0 14c0 8-6 15-14 15l-86 0c-8 0-14-7-14-15l0-14z m0-128c0 8 6 14 14 14 8 0 14-6 14-14l0-199c0-8-6-14-14-14-8 0-14 6-14 14z m-142 0c0 8 6 14 14 14 8 0 14-6 14-14l0-199c0-8-6-14-14-14-8 0-14 6-14 14z"/>
<glyph glyph-name="delete1" unicode="&#102;" d="M450 429l0-347c0-38-31-69-69-69l-250 0c-38 0-69 31-69 69l0 347-14 0c-8 0-14 6-14 14 0 7 6 14 14 14l125 0 0 13c0 23 18 42 41 42l84 0c23 0 41-19 41-42l0-13 125 0c8 0 14-7 14-14 0-8-6-14-14-14z m-360 0l0-347c0-23 18-41 41-41l250 0c23 0 41 18 41 41l0 347z m221 28l0 13c0 8-6 14-13 14l-84 0c-7 0-13-6-13-14l0-13z m0-125c0 7 7 14 14 14 8 0 14-7 14-14l0-194c0-8-6-14-14-14-7 0-14 6-14 14z m-138 0c0 7 6 14 14 14 7 0 14-7 14-14l0-194c0-8-7-14-14-14-8 0-14 6-14 14z"/>
<glyph glyph-name="disconnected" unicode="&#103;" d="M256 290l202 203c10 9 25 9 35 0 9-10 9-25 0-35l-203-202 203-202c9-10 9-25 0-35-10-9-25-9-35 0l-202 203-202-203c-10-9-25-9-35 0-9 10-9 25 0 35l203 202-203 202c-9 10-9 25 0 35 10 9 25 9 35 0z"/>
<glyph glyph-name="distribute-active" unicode="&#104;" d="M193 87c-7-43-43-75-87-75-49 0-88 39-88 87 0 44 33 81 75 87l0 152c-42 6-75 42-75 86 0 49 39 88 88 88 48 0 87-39 87-88 0-44-32-80-75-86l0-152c39-6 69-36 75-74l113 0c48 0 88 39 88 87l0 14c-43 6-75 42-75 86 0 49 39 88 87 88 49 0 88-39 88-88 0-44-33-80-75-86l0-14c0-62-51-112-113-112z m-150 12c0-34 28-62 63-62 34 0 62 28 62 62 0 35-28 63-62 63-35 0-63-28-63-63z m0 325c0-34 28-62 63-62 34 0 62 28 62 62 0 35-28 63-62 63-35 0-63-28-63-63z m363-187c35 0 63 28 63 62 0 35-28 63-63 63-34 0-62-28-62-63 0-34 28-62 62-62z"/>
<glyph glyph-name="distribute-passive" unicode="&#105;" d="M193 87c-7-43-43-75-87-75-49 0-88 39-88 87 0 44 33 81 75 87l0 152c-42 6-75 42-75 86 0 49 39 88 88 88 48 0 87-39 87-88 0-44-32-80-75-86l0-152c39-6 69-36 75-74l113 0c48 0 88 39 88 87l0 14c-43 6-75 42-75 86 0 49 39 88 87 88 49 0 88-39 88-88 0-44-33-80-75-86l0-14c0-62-51-112-113-112z m-150 12c0-34 28-62 63-62 34 0 62 28 62 62 0 35-28 63-62 63-35 0-63-28-63-63z m0 325c0-34 28-62 63-62 34 0 62 28 62 62 0 35-28 63-62 63-35 0-63-28-63-63z m363-187c35 0 63 28 63 62 0 35-28 63-63 63-34 0-62-28-62-63 0-34 28-62 62-62z"/>
<glyph glyph-name="exchange-active" unicode="&#106;" d="M388 90c52 41 83 104 83 173 0 117-91 214-208 221-7 1-13 7-13 15 1 8 7 13 15 13 131-8 234-117 234-249 0-77-35-147-92-194l78 0c8 0 14-7 14-14 0-8-6-14-14-14l-111 0c-7 0-13 6-13 14l0 111c0 7 6 14 13 14 8 0 14-7 14-14z m-277 346c-52-42-83-105-83-173 0-118 92-215 209-222 8 0 13-7 13-14-1-8-7-14-15-13-131 7-235 116-235 249 0 76 35 147 93 194l-79 0c-8 0-14 6-14 14 0 7 6 14 14 14l111 0c7 0 14-7 14-14l0-111c0-8-7-14-14-14-8 0-14 6-14 14z"/>
<glyph glyph-name="exchange-passive" unicode="&#107;" d="M388 90c52 41 83 104 83 173 0 117-91 214-208 221-7 1-13 7-13 15 1 8 7 13 15 13 131-8 234-117 234-249 0-77-35-147-92-194l78 0c8 0 14-7 14-14 0-8-6-14-14-14l-111 0c-7 0-13 6-13 14l0 111c0 7 6 14 13 14 8 0 14-7 14-14z m-277 346c-52-42-83-105-83-173 0-118 92-215 209-222 8 0 13-7 13-14-1-8-7-14-15-13-131 7-235 116-235 249 0 76 35 147 93 194l-79 0c-8 0-14 6-14 14 0 7 6 14 14 14l111 0c7 0 14-7 14-14l0-111c0-8-7-14-14-14-8 0-14 6-14 14z"/>
<glyph glyph-name="expand-arrow" unicode="&#108;" d="M424 100l0 120c0 8-6 14-13 14l-11 0c-8 0-14-6-14-14l0-68-250 250 69 0c7 0 13 6 13 14l1 10c0 8-7 14-14 14l-120 0c-4 0-7-1-10-4-3-3-4-6-4-10l0-120c0-7 6-14 14-14l10 0c8 0 13 6 13 14l0 69 252-251-70 0c-4 0-7-1-10-4-2-3-4-6-4-10l0-10c0-4 2-7 4-10 3-2 7-4 10-4l120 0c4 0 8 2 10 4 3 3 4 7 4 10z"/>
<glyph glyph-name="eye-closed" unicode="&#109;" d="M91 165c6-5 6-13 1-18-4-6-12-6-18-1-32 28-57 65-73 105-1 3-1 7 0 10 53 135 202 206 340 161 7-2 11-10 8-16-2-7-9-11-16-9-123 41-257-21-306-141 14-35 36-66 64-91z m181 192c7-1 12-7 11-14-2-7-8-12-15-11-4 0-8 1-12 1-42 0-77-35-77-77 0-4 1-8 1-12 1-7-4-13-11-14-7-1-13 3-14 10-1 5-1 11-1 16 0 57 45 102 102 102 5 0 11 0 16-1z m-30-202c-7 0-12 7-11 14 1 7 8 12 15 11 3-1 6-1 10-1 42 0 77 35 77 77 0 3 0 6-1 9-1 7 4 14 11 14 7 1 14-4 15-11 0-4 0-8 0-12 0-57-45-102-102-102-5 0-9 0-14 1z m-195-126c-5-5-13-5-18 0-5 5-5 13 0 18l436 436c5 5 13 5 18 0 5-5 5-13 0-18z m374 318c-6 5-6 13-1 18 4 6 12 6 18 1 32-28 57-65 73-105 1-3 1-7 0-10-53-135-202-206-340-161-7 2-11 10-8 16 2 7 9 11 16 9 123-41 257 21 306 141-14 35-36 66-64 91z"/>
<glyph glyph-name="eye-open" unicode="&#110;" d="M1 261c55 141 213 210 354 156 72-28 128-85 156-156 1-3 1-7 0-10-55-141-213-210-354-156-72 28-128 85-156 156-1 3-1 7 0 10z m165-142c126-49 268 12 319 137-25 63-76 112-139 137-126 49-268-12-319-137 25-63 76-112 139-137z m90 35c-57 0-102 45-102 102 0 57 45 102 102 102 57 0 102-45 102-102 0-57-45-102-102-102z m0 25c42 0 77 35 77 77 0 42-35 77-77 77-42 0-77-35-77-77 0-42 35-77 77-77z"/>
<glyph glyph-name="fill-or-kill-active" unicode="&#111;" d="M256 10c-136 0-246 110-246 246 0 136 110 246 246 246 136 0 246-110 246-246 0-136-110-246-246-246z m0 24c122 0 222 100 222 222 0 122-100 222-222 222-122 0-222-100-222-222 0-122 100-222 222-222z m93 170c6-3 7-11 3-17-4-5-11-7-17-3l-86 62c-2 2-4 4-5 7l-37 135c-2 7 2 13 9 15 6 2 13-2 15-8l36-132z"/>
<glyph glyph-name="fill-or-kill-passive" unicode="&#112;" d="M256 10c-136 0-246 110-246 246 0 136 110 246 246 246 136 0 246-110 246-246 0-136-110-246-246-246z m0 24c122 0 222 100 222 222 0 122-100 222-222 222-122 0-222-100-222-222 0-122 100-222 222-222z m93 170c6-3 7-11 3-17-4-5-11-7-17-3l-86 62c-2 2-4 4-5 7l-37 135c-2 7 2 13 9 15 6 2 13-2 15-8l36-132z"/>
<glyph glyph-name="filter-active" unicode="&#113;" d="M341 236l0-165c0-6-3-11-9-13l-142-57c-9-4-19 3-19 13l0 222-167 166c-2 3-4 7-4 10l0 86c0 8 6 14 14 14l484 0c8 0 14-6 14-14l0-86c0-3-1-7-4-10z m-28-8l-114 0 0-193 114 46z m-285 256l0-66 163-162 130 0 163 162 0 66z"/>
<glyph glyph-name="filter-passive" unicode="&#114;" d="M341 236l0-165c0-6-3-11-9-13l-142-57c-9-4-19 3-19 13l0 222-167 166c-2 3-4 7-4 10l0 86c0 8 6 14 14 14l484 0c8 0 14-6 14-14l0-86c0-3-1-7-4-10z m-28-8l-114 0 0-193 114 46z m-285 256l0-66 163-162 130 0 163 162 0 66z"/>
<glyph glyph-name="iceberg-active" unicode="&#115;" d="M448 26c21 0 38 17 38 38l0 205c0 21-17 38-38 38l-205 0c-21 0-38-17-38-38l0-205c0-21 17-38 38-38z m-371 18l29 29c5 5 13 5 18 0 5-5 5-13 0-18l-51-51c-5-5-13-5-18 0l-51 51c-5 5-5 13 0 18 5 5 13 5 18 0l29-29 0 327c0 7 6 13 13 13 7 0 13-6 13-13z m391 417l-29 29c-5 5-5 13 0 18 5 5 13 5 18 0l51-51c5-5 5-13 0-18l-51-51c-5-5-13-5-18 0-5 5-5 13 0 18l29 29-327 0c-7 0-13 6-13 13 0 7 6 13 13 13z m-20-461l-205 0c-35 0-64 29-64 64l0 205c0 35 29 64 64 64l205 0c35 0 64-29 64-64l0-205c0-35-29-64-64-64z"/>
<glyph glyph-name="iceberg-passive" unicode="&#116;" d="M448 26c21 0 38 17 38 38l0 205c0 21-17 38-38 38l-205 0c-21 0-38-17-38-38l0-205c0-21 17-38 38-38z m-371 18l29 29c5 5 13 5 18 0 5-5 5-13 0-18l-51-51c-5-5-13-5-18 0l-51 51c-5 5-5 13 0 18 5 5 13 5 18 0l29-29 0 327c0 7 6 13 13 13 7 0 13-6 13-13z m391 417l-29 29c-5 5-5 13 0 18 5 5 13 5 18 0l51-51c5-5 5-13 0-18l-51-51c-5-5-13-5-18 0-5 5-5 13 0 18l29 29-327 0c-7 0-13 6-13 13 0 7 6 13 13 13z m-20-461l-205 0c-35 0-64 29-64 64l0 205c0 35 29 64 64 64l205 0c35 0 64-29 64-64l0-205c0-35-29-64-64-64z"/>
<glyph glyph-name="distribute-up-active" unicode="&#117;" d="M154 196c-6-6-16-5-22 2-6 6-5 16 2 22l112 96c6 5 14 5 20 0l112-96c7-6 8-16 2-22-6-7-16-8-22-2l-102 87z"/>
<glyph glyph-name="immediate-or-cancel-active" unicode="&#118;" d="M102 84c41-36 95-58 154-58 127 0 230 103 230 230 0 59-22 113-58 154z m-18 18l326 326c-41 36-95 58-154 58-127 0-230-103-230-230 0-59 22-113 58-154z m172-102c-141 0-256 115-256 256 0 141 115 256 256 256 141 0 256-115 256-256 0-141-115-256-256-256z"/>
<glyph glyph-name="immediate-or-cancel-passive" unicode="&#119;" d="M102 84c41-36 95-58 154-58 127 0 230 103 230 230 0 59-22 113-58 154z m-18 18l326 326c-41 36-95 58-154 58-127 0-230-103-230-230 0-59 22-113 58-154z m172-102c-141 0-256 115-256 256 0 141 115 256 256 256 141 0 256-115 256-256 0-141-115-256-256-256z"/>
<glyph glyph-name="limit-active" unicode="&#120;" d="M374 0l-236 0c-12 0-18 14-10 22l118 135c5 6 15 6 20 0l118-135c8-8 2-22-10-22z m-29 27l-89 101-89-101z m39 463l-118-135c-5-6-15-6-20 0l-118 135c-8 8-2 22 10 22l236 0c12 0 18-14 10-22z m-128-106l89 101-178 0z m144-141l-288 0c-8 0-14 6-14 13 0 7 6 13 14 13l288 0c8 0 14-6 14-13 0-7-6-13-14-13z"/>
<glyph glyph-name="limit-passive" unicode="&#121;" d="M374 0l-236 0c-12 0-18 14-10 22l118 135c5 6 15 6 20 0l118-135c8-8 2-22-10-22z m-29 27l-89 101-89-101z m39 463l-118-135c-5-6-15-6-20 0l-118 135c-8 8-2 22 10 22l236 0c12 0 18-14 10-22z m-128-106l89 101-178 0z m144-141l-288 0c-8 0-14 6-14 13 0 7 6 13 14 13l288 0c8 0 14-6 14-13 0-7-6-13-14-13z"/>
<glyph glyph-name="ma-crossover-active" unicode="&#122;" d="M34 85c-8 0-14 7-14 15 0 7 6 14 14 14l142 0c24 0 43 19 43 42l0 200c0 39 32 71 71 71l171 0c7 0 14-6 14-14 0-8-7-14-14-14l-171 0c-24 0-43-20-43-43l0-200c0-39-32-71-71-71z m427 29c7 0 14-7 14-14 0-8-7-15-14-15l-171 0c-8 0-14 7-14 15 0 7 6 14 14 14z m-285 313c8 0 14-6 14-14 0-8-6-14-14-14l-142 0c-8 0-14 6-14 14 0 8 6 14 14 14z m189 61c-5 5-5 14 0 20 6 5 15 5 20 0l86-86c5-5 5-14 0-20l-86-85c-5-6-14-6-20 0-5 6-5 15 0 20l75 75z m0-313c-5 5-5 14 0 20 6 5 15 5 20 0l86-85c5-6 5-15 0-21l-86-85c-5-5-14-5-20 0-5 6-5 15 0 20l75 76z"/>
<glyph glyph-name="ma-crossover-passive" unicode="&#65;" d="M34 85c-8 0-14 7-14 15 0 7 6 14 14 14l142 0c24 0 43 19 43 42l0 200c0 39 32 71 71 71l171 0c7 0 14-6 14-14 0-8-7-14-14-14l-171 0c-24 0-43-20-43-43l0-200c0-39-32-71-71-71z m427 29c7 0 14-7 14-14 0-8-7-15-14-15l-171 0c-8 0-14 7-14 15 0 7 6 14 14 14z m-285 313c8 0 14-6 14-14 0-8-6-14-14-14l-142 0c-8 0-14 6-14 14 0 8 6 14 14 14z m189 61c-5 5-5 14 0 20 6 5 15 5 20 0l86-86c5-5 5-14 0-20l-86-85c-5-6-14-6-20 0-5 6-5 15 0 20l75 75z m0-313c-5 5-5 14 0 20 6 5 15 5 20 0l86-85c5-6 5-15 0-21l-86-85c-5-5-14-5-20 0-5 6-5 15 0 20l75 76z"/>
<glyph glyph-name="market-active" unicode="&#66;" d="M102 57l0 141c0 21 18 38 39 38l77 0c21 0 38-17 38-38l0-141 166 0c22 0 39 17 39 39l0 204 25 0 0-204c0-36-28-64-64-64l-332 0c-36 0-64 28-64 64l0 204 25 0 0-204c0-22 17-39 39-39z m26 0l102 0 0 141c0 7-5 13-12 13l-77 0c-7 0-13-6-13-13z m205 141l0-51c0-7 6-13 13-13l25 0c7 0 13 6 13 13l0 51c0 7-6 13-13 13l-25 0c-7 0-13-6-13-13z m-26 0c0 21 17 38 39 38l25 0c21 0 39-17 39-38l0-51c0-22-18-39-39-39l-25 0c-22 0-39 17-39 39z m-205 90l-64 0c-21 0-38 17-38 38l0 21c0 4 1 9 3 14l49 123c2 5 7 8 12 8l384 0c5 0 10-3 12-8l49-123c2-5 3-10 3-14l0-21c0-21-17-38-38-38l-64 0c-10 0-19 3-26 9-7-6-16-9-26-9l-76 0c-10 0-19 3-26 9-7-6-16-9-26-9l-76 0c-10 0-19 3-26 9-7-6-16-9-26-9z m-29 179l-46-116c-1-1-1-3-1-4l0-21c0-7 5-13 12-13l64 0c7 0 13 6 13 13l0 26c0 7 6 12 13 12 7 0 13-5 13-12l0-26c0-7 6-13 13-13l76 0c7 0 13 6 13 13l0 26c0 7 6 12 13 12 7 0 13-5 13-12l0-26c0-7 6-13 13-13l76 0c7 0 13 6 13 13l0 26c0 7 6 12 13 12 7 0 13-5 13-12l0-26c0-7 6-13 13-13l64 0c7 0 12 6 12 13l0 21c0 1 0 3-1 4l-46 116z"/>
<glyph glyph-name="market-passive" unicode="&#67;" d="M102 57l0 141c0 21 18 38 39 38l77 0c21 0 38-17 38-38l0-141 166 0c22 0 39 17 39 39l0 204 25 0 0-204c0-36-28-64-64-64l-332 0c-36 0-64 28-64 64l0 204 25 0 0-204c0-22 17-39 39-39z m26 0l102 0 0 141c0 7-5 13-12 13l-77 0c-7 0-13-6-13-13z m205 141l0-51c0-7 6-13 13-13l25 0c7 0 13 6 13 13l0 51c0 7-6 13-13 13l-25 0c-7 0-13-6-13-13z m-26 0c0 21 17 38 39 38l25 0c21 0 39-17 39-38l0-51c0-22-18-39-39-39l-25 0c-22 0-39 17-39 39z m-205 90l-64 0c-21 0-38 17-38 38l0 21c0 4 1 9 3 14l49 123c2 5 7 8 12 8l384 0c5 0 10-3 12-8l49-123c2-5 3-10 3-14l0-21c0-21-17-38-38-38l-64 0c-10 0-19 3-26 9-7-6-16-9-26-9l-76 0c-10 0-19 3-26 9-7-6-16-9-26-9l-76 0c-10 0-19 3-26 9-7-6-16-9-26-9z m-29 179l-46-116c-1-1-1-3-1-4l0-21c0-7 5-13 12-13l64 0c7 0 13 6 13 13l0 26c0 7 6 12 13 12 7 0 13-5 13-12l0-26c0-7 6-13 13-13l76 0c7 0 13 6 13 13l0 26c0 7 6 12 13 12 7 0 13-5 13-12l0-26c0-7 6-13 13-13l76 0c7 0 13 6 13 13l0 26c0 7 6 12 13 12 7 0 13-5 13-12l0-26c0-7 6-13 13-13l64 0c7 0 12 6 12 13l0 21c0 1 0 3-1 4l-46 116z"/>
<glyph glyph-name="move" unicode="&#68;" d="M440 80l0 64c0 6 5 12 12 12 6 0 11-6 11-12l0-92c0-6-5-11-11-11l-92 0c-7 0-12 5-12 11 0 7 5 12 12 12l64 0-118 118c-5 4-5 12 0 16 4 5 12 5 16 0z m-367 335l0-64c0-6-5-12-12-12-6 0-11 6-11 12l0 92c0 6 5 11 11 11l92 0c6 0 12-5 12-11 0-6-6-12-12-12l-64 0 118-118c5-4 5-12 0-16-4-5-12-5-16 0z m16-351l64 0c6 0 12-5 12-12 0-6-6-11-12-11l-92 0c-6 0-11 5-11 11l0 92c0 6 5 12 11 12 7 0 12-6 12-12l0-64 118 118c4 5 12 5 16 0 5-4 5-12 0-16z m335 367l-64 0c-7 0-12 6-12 12 0 6 5 11 12 11l92 0c6 0 11-5 11-11l0-93c0-6-5-11-11-11-7 0-12 5-12 11l0 65-118-118c-4-5-12-5-16 0-5 4-5 12 0 16z"/>
<glyph glyph-name="notifications" unicode="&#69;" d="M334 62c-11-33-42-56-78-56-36 0-67 23-78 56l-45 0c-38 0-69 31-69 69 0 10 2 19 6 28l20 44 0 81c0 72 46 134 111 157l0 9c0 31 24 56 55 56 31 0 55-25 55-56l0-9c65-23 111-85 111-157l0-81 20-44c16-35 0-76-35-91-9-4-19-6-28-6z m-30 0l-96 0c10-17 28-28 48-28 20 0 38 11 48 28z m-20 386l0 2c0 15-13 28-28 28-15 0-28-13-28-28l0-2c9 1 19 2 28 2 9 0 19-1 28-2z m-28-26c-77 0-139-62-139-138l0-83-1-6-21-47c-2-5-3-11-3-17 0-23 18-41 41-41l246 0c5 0 11 1 17 3 21 10 30 34 21 55l-21 47-1 6 0 83c0 76-62 138-139 138z"/>
<glyph glyph-name="open" unicode="&#70;" d="M486 298l0 25c0 21-17 39-38 39l-141 0c-28 0-51 23-51 51 0 14-11 25-26 25l-166 0c-21 0-38-17-38-38l0-282c0-21 17-38 38-38l26 0c21 0 38 17 38 38l0 128c0 36 29 64 64 64l256 0c14 0 28-4 38-12z m0-52c0 22-17 39-38 39l-256 0c-21 0-38-17-38-39l0-128c0-14-5-27-13-38l307 0c21 0 38 17 38 38z m-422 218l166 0c29 0 52-23 52-51 0-14 11-26 25-26l141 0c35 0 64-28 64-64l0-205c0-35-29-64-64-64l-384 0c-35 0-64 29-64 64l0 282c0 35 29 64 64 64z"/>
<glyph glyph-name="password" unicode="&#71;" d="M397 57c-7-33-35-57-70-57l-256 0c-39 0-71 32-71 71l0 199c0 35 24 63 57 70l0 30c0 78 64 142 142 142 79 0 142-64 142-142l0-30c33-7 57-35 57-70l0-42 43 0c39 0 71-32 71-72l0-28c0-39-32-71-71-71z m-30 0l-125 0c-39 0-71 32-71 71l0 28c0 40 32 72 71 72l128 0 0 42c0 23-18 41-40 43-1 0-2-1-3-1-1 0-2 1-4 1l-252 0c-23 0-43-19-43-43l0-199c0-23 20-43 43-43l256 0c19 0 34 12 40 29z m-282 284l228 0 0 29c0 63-51 114-114 114-63 0-114-51-114-114z m399-213l0 28c0 24-20 43-43 43l-199 0c-24 0-43-19-43-43l0-28c0-24 19-43 43-43l199 0c23 0 43 19 43 43z m-242 43l28 0c8 0 14-7 14-15l0-28c0-8-6-14-14-14l-28 0c-8 0-14 6-14 14l0 28c0 8 6 15 14 15z m85 0l29 0c7 0 14-7 14-15l0-28c0-8-7-14-14-14l-29 0c-8 0-14 6-14 14l0 28c0 8 6 15 14 15z m85 0l29 0c8 0 14-7 14-15l0-28c0-8-6-14-14-14l-29 0c-7 0-14 6-14 14l0 28c0 8 7 15 14 15z"/>
<glyph glyph-name="ping-pong-active" unicode="&#72;" d="M150 237c-4-6-12-8-18-5-7 3-9 11-6 17 29 55 72 84 130 84 58 0 101-29 130-84 3-6 1-14-6-17-6-3-14-1-18 5-24 47-59 70-106 70-47 0-82-23-106-70z m1 19l66 0c7 0 13-6 13-13 0-7-6-13-13-13l-79 0c-7 0-13 6-13 13l0 77c0 7 6 13 13 13 7 0 13-6 13-13z m-66 230c8 0 13-5 13-12 0-7-5-13-13-13-21 0-39-17-39-39 0-7-6-12-13-12-7 0-13 5-13 12 0 36 29 64 65 64z m53-25c-7 0-13 6-13 13 0 7 6 12 13 12l52 0c8 0 13-5 13-12 0-7-5-13-13-13z m-118-115c0 7 6 12 13 12 7 0 13-5 13-12l0-52c0-7-6-12-13-12-7 0-13 5-13 12z m0-128c0 7 6 12 13 12 7 0 13-5 13-12l0-52c0-7-6-12-13-12-7 0-13 5-13 12z m0-128c0 7 6 12 13 12 7 0 13-5 13-12 0-22 18-39 39-39 8 0 13-6 13-13 0-7-5-12-13-12-36 0-65 28-65 64z m118-64c-7 0-13 5-13 12 0 7 6 13 13 13l52 0c8 0 13-6 13-13 0-7-5-12-13-12z m118 473c0 7 6 13 13 13 7 0 13-6 13-13l0-102c0-7-6-13-13-13-7 0-13 6-13 13z m0-307c0 7 6 13 13 13 7 0 13-6 13-13l0-179c0-7-6-13-13-13-7 0-13 6-13 13z m92 269c-7 0-13 6-13 13 0 7 6 12 13 12l79 0c36 0 65-28 65-64l0-332c0-36-29-64-65-64l-79 0c-7 0-13 5-13 12 0 7 6 13 13 13l79 0c21 0 39 17 39 39l0 332c0 22-18 39-39 39z"/>
<glyph glyph-name="ping-pong-passive" unicode="&#73;" d="M150 237c-4-6-12-8-18-5-7 3-9 11-6 17 29 55 72 84 130 84 58 0 101-29 130-84 3-6 1-14-6-17-6-3-14-1-18 5-24 47-59 70-106 70-47 0-82-23-106-70z m1 19l66 0c7 0 13-6 13-13 0-7-6-13-13-13l-79 0c-7 0-13 6-13 13l0 77c0 7 6 13 13 13 7 0 13-6 13-13z m-66 230c8 0 13-5 13-12 0-7-5-13-13-13-21 0-39-17-39-39 0-7-6-12-13-12-7 0-13 5-13 12 0 36 29 64 65 64z m53-25c-7 0-13 6-13 13 0 7 6 12 13 12l52 0c8 0 13-5 13-12 0-7-5-13-13-13z m-118-115c0 7 6 12 13 12 7 0 13-5 13-12l0-52c0-7-6-12-13-12-7 0-13 5-13 12z m0-128c0 7 6 12 13 12 7 0 13-5 13-12l0-52c0-7-6-12-13-12-7 0-13 5-13 12z m0-128c0 7 6 12 13 12 7 0 13-5 13-12 0-22 18-39 39-39 8 0 13-6 13-13 0-7-5-12-13-12-36 0-65 28-65 64z m118-64c-7 0-13 5-13 12 0 7 6 13 13 13l52 0c8 0 13-6 13-13 0-7-5-12-13-12z m118 473c0 7 6 13 13 13 7 0 13-6 13-13l0-102c0-7-6-13-13-13-7 0-13 6-13 13z m0-307c0 7 6 13 13 13 7 0 13-6 13-13l0-179c0-7-6-13-13-13-7 0-13 6-13 13z m92 269c-7 0-13 6-13 13 0 7 6 12 13 12l79 0c36 0 65-28 65-64l0-332c0-36-29-64-65-64l-79 0c-7 0-13 5-13 12 0 7 6 13 13 13l79 0c21 0 39 17 39 39l0 332c0 22-18 39-39 39z"/>
<glyph glyph-name="run" unicode="&#74;" d="M87 465l0-418c0-10 8-18 18-18 4 0 8 1 11 3l299 206c10 7 13 20 6 30-1 3-3 5-6 6l-299 206c-9 6-20 4-26-5-2-3-3-6-3-10z m-28 0c0 9 3 19 8 26 14 22 43 27 65 13l299-206c5-4 10-8 13-14 16-23 10-54-13-70l-299-206c-8-5-17-8-27-8-25 0-46 21-46 47z"/>
<glyph glyph-name="save" unicode="&#75;" d="M125 45l0 198c0 7 5 13 13 13l232 0c7 0 13-6 13-13l0-198 38 0c22 0 39 17 39 39l0 312-70 71-59 0 0-92c0-7-6-13-13-13l-206 0c-7 0-13 6-13 13l0 92-13 0c-21 0-39-17-39-39l0-344c0-22 18-39 39-39z m25 0l207 0 0 185-207 0z m104 422l-129 0 0-79 129 0z m26 0l0-79 25 0 0 79z m-259-39c0 36 29 66 65 66l310 0c3 0 6-2 9-4l77-79c3-3 4-6 4-10l0-317c0-36-29-66-65-66l-335 0c-36 0-65 30-65 66z"/>
<glyph glyph-name="settings-icon" unicode="&#76;" d="M367 386l31 6c14 3 28-3 34-15l17-29c7-12 5-27-4-37l-21-24c2-10 3-21 3-31 0-10-1-21-3-31l21-24c9-10 11-25 4-37l-17-29c-6-12-20-18-34-15l-31 6c-16-13-34-24-54-31l-10-30c-4-14-17-22-30-22l-34 0c-13 0-26 8-30 22l-10 30c-20 7-38 18-54 31l-31-6c-14-3-28 3-34 15l-17 29c-7 12-5 27 4 37l21 24c-2 10-3 21-3 31 0 10 1 21 3 31l-21 24c-9 10-11 25-4 37l17 29c6 12 20 18 34 15l31-6c16 13 34 24 54 31l10 30c4 14 17 22 30 22l34 0c13 0 26-8 30-22l10-30c20-7 38-18 54-31z m-66 12c-3 1-5 4-6 7l-12 36c-2 4-6 7-10 7l-34 0c-4 0-8-3-10-7l-12-36c-1-3-3-6-6-7-21-6-40-17-55-31-3-3-6-4-10-3l-37 8c-4 0-9-2-11-6l-17-28c-2-4-1-9 2-13l25-28c2-2 3-6 2-9-2-11-3-21-3-32 0-11 1-21 3-32 1-3 0-7-2-9l-25-28c-3-4-4-9-2-13l17-28c2-4 7-6 11-6l37 8c4 1 7 0 10-3 15-14 34-25 55-31 3-1 5-4 6-7l12-36c2-4 6-7 10-7l34 0c4 0 8 3 10 7l12 36c1 3 3 6 6 7 21 6 40 17 55 31 3 3 6 4 10 3l37-8c4 0 9 2 11 6l17 28c2 4 1 9-2 13l-25 28c-2 2-3 6-2 9 2 11 3 21 3 32 0 11-1 21-3 32-1 3 0 7 2 9l25 28c3 4 4 9 2 13l-17 28c-2 4-7 6-11 6l-37-8c-4-1-7 0-10 3-15 14-34 25-55 31z m-45-227c-47 0-85 38-85 85 0 47 38 85 85 85 47 0 85-38 85-85 0-47-38-85-85-85z m0 21c35 0 64 29 64 64 0 35-29 64-64 64-35 0-64-29-64-64 0-35 29-64 64-64z"/>
<glyph glyph-name="stop-active" unicode="&#77;" d="M121 484c-24 0-45-20-45-43l0-370c0-23 21-43 45-43l30 0c25 0 45 20 45 43l0 370c0 23-20 43-45 43z m0 28l30 0c42 0 75-32 75-71l0-370c0-39-33-71-75-71l-30 0c-41 0-74 32-74 71l0 370c0 39 33 71 74 71z m240 0l30 0c41 0 74-32 74-71l0-370c0-39-33-71-74-71l-30 0c-42 0-75 32-75 71l0 370c0 39 33 71 75 71z m0-28c-25 0-45-20-45-43l0-370c0-23 20-43 45-43l30 0c24 0 45 20 45 43l0 370c0 23-21 43-45 43z"/>
<glyph glyph-name="stop-limit-active" unicode="&#78;" d="M115 456c0 19 16 34 35 34l24 0c19 0 35-15 35-34l0-290c0-19-16-34-35-34l-24 0c-19 0-35 15-35 34z m59 56l-24 0c-32 0-59-25-59-56l0-290c0-31 27-56 59-56l24 0c32 0 58 25 58 56l0 290c0 31-26 56-58 56z m188 0l-24 0c-32 0-58-25-58-56l0-290c0-31 26-56 58-56l24 0c32 0 59 25 59 56l0 290c0 31-27 56-59 56z m-59-56c0 19 16 34 35 34l24 0c19 0 35-15 35-34l0-290c0-19-16-34-35-34l-24 0c-19 0-35 15-35 34z m-193-456l292 0c10 0 19 8 19 18 0 10-9 19-19 19l-292 0c-10 0-19-9-19-19 0-10 9-18 19-18z"/>
<glyph glyph-name="stop-limit-passive" unicode="&#79;" d="M115 456c0 19 16 34 35 34l24 0c19 0 35-15 35-34l0-290c0-19-16-34-35-34l-24 0c-19 0-35 15-35 34z m59 56l-24 0c-32 0-59-25-59-56l0-290c0-31 27-56 59-56l24 0c32 0 58 25 58 56l0 290c0 31-26 56-58 56z m188 0l-24 0c-32 0-58-25-58-56l0-290c0-31 26-56 58-56l24 0c32 0 59 25 59 56l0 290c0 31-27 56-59 56z m-59-56c0 19 16 34 35 34l24 0c19 0 35-15 35-34l0-290c0-19-16-34-35-34l-24 0c-19 0-35 15-35 34z m-193-456l292 0c10 0 19 8 19 18 0 10-9 19-19 19l-292 0c-10 0-19-9-19-19 0-10 9-18 19-18z"/>
<glyph glyph-name="stop-passive" unicode="&#80;" d="M121 484c-24 0-45-20-45-43l0-370c0-23 21-43 45-43l30 0c25 0 45 20 45 43l0 370c0 23-20 43-45 43z m0 28l30 0c42 0 75-32 75-71l0-370c0-39-33-71-75-71l-30 0c-41 0-74 32-74 71l0 370c0 39 33 71 74 71z m240 0l30 0c41 0 74-32 74-71l0-370c0-39-33-71-74-71l-30 0c-42 0-75 32-75 71l0 370c0 39 33 71 75 71z m0-28c-25 0-45-20-45-43l0-370c0-23 20-43 45-43l30 0c24 0 45 20 45 43l0 370c0 23-21 43-45 43z"/>
<glyph glyph-name="strategy-editor-active" unicode="&#81;" d="M427 370l71 0c8 0 14-7 14-14 0-8-6-15-14-15l-71 0 0-71c0-8-7-14-15-14-7 0-14 6-14 14l0 71-71 0c-8 0-14 7-14 15 0 7 6 14 14 14l71 0 0 71c0 8 7 14 14 14 8 0 15-6 15-14z m-185 0c8 0 14-7 14-14 0-8-6-15-14-15l-228 0c-8 0-14 7-14 15 0 7 6 14 14 14z m85-142c8 0 14-7 14-15 0-8-6-14-14-14l-313 0c-8 0-14 6-14 14 0 8 6 15 14 15z m171-143c8 0 14-6 14-14 0-8-6-14-14-14l-484 0c-8 0-14 6-14 14 0 8 6 14 14 14z"/>
<glyph glyph-name="strategy-editor-passive" unicode="&#82;" d="M427 370l71 0c8 0 14-7 14-14 0-8-6-15-14-15l-71 0 0-71c0-8-7-14-15-14-7 0-14 6-14 14l0 71-71 0c-8 0-14 7-14 15 0 7 6 14 14 14l71 0 0 71c0 8 7 14 14 14 8 0 15-6 15-14z m-185 0c8 0 14-7 14-14 0-8-6-15-14-15l-228 0c-8 0-14 7-14 15 0 7 6 14 14 14z m85-142c8 0 14-7 14-15 0-8-6-14-14-14l-313 0c-8 0-14 6-14 14 0 8 6 15 14 15z m171-143c8 0 14-6 14-14 0-8-6-14-14-14l-484 0c-8 0-14 6-14 14 0 8 6 14 14 14z"/>
<glyph glyph-name="tick" unicode="&#83;" d="M171 129l302 302c9 9 23 9 32 0 9-9 9-23 0-32l-318-318c-9-9-24-9-32 0l-137 136c-9 9-9 23 0 32 9 9 23 9 32 0z"/>
<glyph glyph-name="trailing-stop-active" unicode="&#84;" d="M463 405l-79 0c-8 0-14 6-14 14 0 8 6 14 14 14l114 0c8 0 14-6 14-14l0-114c0-8-6-14-14-14-8 0-14 6-14 14l0 80-147-147c-5-5-14-5-20 0l-75 76-104-104c-5-6-15-6-20 0-6 5-6 14 0 20l114 114c5 5 14 5 20 0l75-76z m35-285c8 0 14-6 14-14 0-8-6-14-14-14l-427 0c-39 0-71 32-71 71l0 256c0 8 6 14 14 14 8 0 14-6 14-14l0-256c0-24 20-43 43-43z"/>
<glyph glyph-name="trailing-stop-passive" unicode="&#85;" d="M463 405l-79 0c-8 0-14 6-14 14 0 8 6 14 14 14l114 0c8 0 14-6 14-14l0-114c0-8-6-14-14-14-8 0-14 6-14 14l0 80-147-147c-5-5-14-5-20 0l-75 76-104-104c-5-6-15-6-20 0-6 5-6 14 0 20l114 114c5 5 14 5 20 0l75-76z m35-285c8 0 14-6 14-14 0-8-6-14-14-14l-427 0c-39 0-71 32-71 71l0 256c0 8 6 14 14 14 8 0 14-6 14-14l0-256c0-24 20-43 43-43z"/>
<glyph glyph-name="distribute-down-active" unicode="&#86;" d="M358 316c6 6 16 5 22-2 6-6 5-16-2-22l-112-96c-6-5-14-5-20 0l-112 96c-7 6-8 16-2 22 6 7 16 8 22 2l102-87z"/>
<glyph glyph-name="distribute-down-passive" unicode="&#87;" d="M349 311c6 5 15 4 21-2 5-6 4-15-2-21l-103-88c-5-4-13-4-19 0l-102 88c-6 6-7 15-2 21 6 6 15 7 21 2l93-80z"/>
<glyph glyph-name="api" unicode="&#90;" d="M493 202l-18 10c3 15 5 30 5 44 0 15-2 29-4 44l17 10c6 3 9 8 11 14 2 7 1 13-2 18l-48 84c-3 5-9 9-15 11-6 1-12 0-18-3l-17-10c-22 20-49 35-76 44l0 20c0 13-11 24-24 24l-96 0c-13 0-24-11-24-24l0-20c-27-9-53-24-76-44l-17 10c-6 3-12 4-18 3-6-2-12-6-15-11l-48-84c-3-5-4-11-2-18 2-6 5-11 11-14l18-10c-3-15-5-30-5-44 0-15 2-29 4-44l-17-10c-11-7-15-21-9-32l48-84c7-11 21-15 33-8l17 10c22-20 49-35 76-44l0-20c0-13 11-24 24-24l96 0c13 0 24 11 24 24l0 20c27 9 53 24 76 44l17-10c12-7 26-3 33 8l48 84c6 11 2 25-9 32z m-4-25l-48-83c-3-4-8-6-12-3l-22 13c-3 1-7 1-9-1-23-22-51-38-80-47-3-1-5-3-5-7l0-25c0-5-4-9-9-9l-96 0c-5 0-9 4-9 9l0 25c0 4-2 6-5 7-29 10-57 26-80 47-1 1-3 2-5 2-1 0-2-1-4-1l-22-13c-4-3-9-1-12 3l-48 83c-2 4-1 9 3 12l23 13c3 1 4 5 3 8-3 15-5 31-5 46 0 15 2 31 5 46 1 3 0 7-3 8l-23 13c-2 1-3 3-4 5 0 3 0 5 1 7l48 83c1 2 3 4 6 4 2 1 4 0 6-1l22-13c3-1 7-1 9 1 23 22 51 38 80 47 3 1 5 3 5 7l0 25c0 5 4 9 9 9l96 0c5 0 9-4 9-9l0-25c0-4 2-6 5-7 29-10 57-26 80-47 2-2 6-2 9-1l22 13c2 1 4 2 6 1 3 0 5-2 6-4l48-83c1-2 1-4 1-7-1-2-2-4-4-5l-23-13c-3-1-4-5-3-8 3-15 5-31 5-46 0-15-2-31-5-46-1-3 0-7 3-8l23-13c4-3 5-8 3-12z m-233 231c-84 0-152-68-152-152 0-84 68-152 152-152 84 0 152 68 152 152 0 84-68 152-152 152z m0-289c-75 0-137 62-137 137 0 75 62 137 137 137 75 0 137-62 137-137 0-75-62-137-137-137z m28 177l-28 0c-4 0-8-4-8-8l0-64c0-4 4-8 8-8 4 0 8 4 8 8l0 16 20 0c15 0 28 13 28 28 0 15-13 28-28 28z m0-41l-20 0 0 26 20 0c7 0 13-6 13-13 0-7-6-13-13-13z m-69 36c-1 3-4 5-7 5l-8 0c-3 0-6-2-7-5l-24-64c-2-4 0-9 4-10 4-2 8 0 10 4l4 11 34 0 4-11c1-3 4-5 7-5 1 0 2 1 3 1 3 1 5 6 4 10z m-22-44l11 30 11-30z m135 49c-4 0-7-4-7-8l0-64c0-4 3-8 7-8 4 0 8 4 8 8l0 64c0 4-4 8-8 8z"/>
<glyph glyph-name="twap-active" unicode="&#48;" d="M154 358l0 13c0 7 5 13 12 13 7 0 13-6 13-13l0-13 116 0c35 0 64-28 64-64l0-115 12 0c7 0 13-6 13-13 0-7-6-12-13-12l-12 0 0-14c0-7-6-12-13-12-7 0-13 5-13 12l0 14-115 0c-36 0-64 28-64 64l0 115-13 0c-7 0-13 6-13 13 0 7 6 12 13 12z m179-179l0 115c0 22-17 39-38 39l-116 0 0-115c0-22 17-39 39-39z m-154 269c0-7-6-13-13-13-7 0-12 6-12 13 0 35 28 64 64 64 7 0 12-6 12-13 0-7-5-13-12-13-22 0-39-17-39-38z m269 38c-7 0-13 6-13 13 0 7 6 13 13 13 35 0 64-29 64-64 0-7-6-13-13-13-7 0-13 6-13 13 0 21-17 38-38 38z m38-268c0 7 6 12 13 12 7 0 13-5 13-12 0-36-29-64-64-64-7 0-13 5-13 12 0 7 6 13 13 13 21 0 38 17 38 39z m-153-154c0 7 6 13 13 13 7 0 12-6 12-13 0-35-28-64-64-64-7 0-12 6-12 13 0 7 5 13 12 13 22 0 39 17 39 38z m-269-38c7 0 13-6 13-13 0-7-6-13-13-13-35 0-64 29-64 64 0 7 6 13 13 13 7 0 13-6 13-13 0-21 17-38 38-38z m0 332c7 0 13-5 13-12 0-7-6-13-13-13-21 0-38-17-38-39 0-7-6-12-13-12-7 0-13 5-13 12 0 36 29 64 64 64z m-64-140c0 7 6 12 13 12 7 0 13-5 13-12l0-77c0-7-6-13-13-13-7 0-13 6-13 13z m486 153c0 7 6 13 13 13 7 0 13-6 13-13l0-77c0-7-6-12-13-12-7 0-13 5-13 12z m-192 115c-7 0-12 6-12 13 0 7 5 13 12 13l77 0c7 0 13-6 13-13 0-7-6-13-13-13z m-153-486c-7 0-13 6-13 13 0 7 6 13 13 13l77 0c7 0 12-6 12-13 0-7-5-13-12-13z"/>
<glyph glyph-name="twap-passive" unicode="&#49;" d="M154 358l0 13c0 7 5 13 12 13 7 0 13-6 13-13l0-13 116 0c35 0 64-28 64-64l0-115 12 0c7 0 13-6 13-13 0-7-6-12-13-12l-12 0 0-14c0-7-6-12-13-12-7 0-13 5-13 12l0 14-115 0c-36 0-64 28-64 64l0 115-13 0c-7 0-13 6-13 13 0 7 6 12 13 12z m179-179l0 115c0 22-17 39-38 39l-116 0 0-115c0-22 17-39 39-39z m-154 269c0-7-6-13-13-13-7 0-12 6-12 13 0 35 28 64 64 64 7 0 12-6 12-13 0-7-5-13-12-13-22 0-39-17-39-38z m269 38c-7 0-13 6-13 13 0 7 6 13 13 13 35 0 64-29 64-64 0-7-6-13-13-13-7 0-13 6-13 13 0 21-17 38-38 38z m38-268c0 7 6 12 13 12 7 0 13-5 13-12 0-36-29-64-64-64-7 0-13 5-13 12 0 7 6 13 13 13 21 0 38 17 38 39z m-153-154c0 7 6 13 13 13 7 0 12-6 12-13 0-35-28-64-64-64-7 0-12 6-12 13 0 7 5 13 12 13 22 0 39 17 39 38z m-269-38c7 0 13-6 13-13 0-7-6-13-13-13-35 0-64 29-64 64 0 7 6 13 13 13 7 0 13-6 13-13 0-21 17-38 38-38z m0 332c7 0 13-5 13-12 0-7-6-13-13-13-21 0-38-17-38-39 0-7-6-12-13-12-7 0-13 5-13 12 0 36 29 64 64 64z m-64-140c0 7 6 12 13 12 7 0 13-5 13-12l0-77c0-7-6-13-13-13-7 0-13 6-13 13z m486 153c0 7 6 13 13 13 7 0 13-6 13-13l0-77c0-7-6-12-13-12-7 0-13 5-13 12z m-192 115c-7 0-12 6-12 13 0 7 5 13 12 13l77 0c7 0 13-6 13-13 0-7-6-13-13-13z m-153-486c-7 0-13 6-13 13 0 7 6 13 13 13l77 0c7 0 12-6 12-13 0-7-5-13-12-13z"/>
<glyph glyph-name="plus" unicode="&#50;" d="M276 276l216 0c11 0 20-9 20-20 0-11-9-20-20-20l-216 0 0-216c0-11-9-20-20-20-11 0-20 9-20 20l0 216-216 0c-11 0-20 9-20 20 0 11 9 20 20 20l216 0 0 216c0 11 9 20 20 20 11 0 20-9 20-20z"/>
</font>
</defs>
</svg>
