<svg width="22" height="24" viewBox="0 0 22 24" fill="none" xmlns="http://www.w3.org/2000/svg">
<path d="M20.333 4V20.6667C20.333 22.5076 18.8406 24 16.9997 24H4.99967C3.15872 24 1.66634 22.5076 1.66634 20.6667V4H0.999674C0.631485 4 0.333008 3.70152 0.333008 3.33333C0.333008 2.96514 0.631485 2.66667 0.999674 2.66667H6.99967V2C6.99967 0.895431 7.8951 0 8.99967 0H12.9997C14.1042 0 14.9997 0.895431 14.9997 2V2.66667H20.9997C21.3679 2.66667 21.6663 2.96514 21.6663 3.33333C21.6663 3.70152 21.3679 4 20.9997 4H20.333ZM2.99967 4V20.6667C2.99967 21.7712 3.8951 22.6667 4.99967 22.6667H16.9997C18.1042 22.6667 18.9997 21.7712 18.9997 20.6667V4H2.99967ZM13.6663 2.66667V2C13.6663 1.63181 13.3679 1.33333 12.9997 1.33333H8.99967C8.63148 1.33333 8.33301 1.63181 8.33301 2V2.66667H13.6663ZM13.6663 8.66667C13.6663 8.29848 13.9648 8 14.333 8C14.7012 8 14.9997 8.29848 14.9997 8.66667V18C14.9997 18.3682 14.7012 18.6667 14.333 18.6667C13.9648 18.6667 13.6663 18.3682 13.6663 18V8.66667ZM6.99967 8.66667C6.99967 8.29848 7.29815 8 7.66634 8C8.03453 8 8.33301 8.29848 8.33301 8.66667V18C8.33301 18.3682 8.03453 18.6667 7.66634 18.6667C7.29815 18.6667 6.99967 18.3682 6.99967 18V8.66667Z" fill="#82BAF6"/>
</svg>
