<svg width="14" height="14" viewBox="0 0 14 14" fill="none" xmlns="http://www.w3.org/2000/svg">
<path d="M7.00016 6.05687L12.5288 0.52827C12.7891 0.26792 13.2112 0.26792 13.4716 0.52827C13.7319 0.788619 13.7319 1.21073 13.4716 1.47108L7.94297 6.99967L13.4716 12.5283C13.7319 12.7886 13.7319 13.2107 13.4716 13.4711C13.2112 13.7314 12.7891 13.7314 12.5288 13.4711L7.00016 7.94248L1.47157 13.4711C1.21122 13.7314 0.789108 13.7314 0.528758 13.4711C0.268409 13.2107 0.268409 12.7886 0.528758 12.5283L6.05735 6.99967L0.528758 1.47108C0.268409 1.21073 0.268409 0.788619 0.528758 0.52827C0.789108 0.26792 1.21122 0.26792 1.47157 0.52827L7.00016 6.05687Z" fill="#F05359"/>
</svg>
