<svg width="24" height="24" viewBox="0 0 24 24" fill="none" xmlns="http://www.w3.org/2000/svg">
<path d="M18.6 21.3333C18.2911 22.8548 16.946 24 15.3333 24H3.33333C1.49238 24 0 22.5076 0 20.6667V11.3333C0 9.72069 1.14517 8.37553 2.66667 8.06668V6.66667C2.66667 2.98477 5.65143 0 9.33333 0C13.0152 0 16 2.98477 16 6.66667V8.06668C17.5215 8.37553 18.6667 9.72069 18.6667 11.3333V13.3333H20.6667C22.5076 13.3333 24 14.8257 24 16.6667V18C24 19.841 22.5076 21.3333 20.6667 21.3333H18.6ZM17.2195 21.3333H11.3333C9.49238 21.3333 8 19.841 8 18V16.6667C8 14.8257 9.49238 13.3333 11.3333 13.3333H17.3333V11.3333C17.3333 10.2806 16.5201 9.41792 15.4875 9.33919C15.438 9.35091 15.3864 9.35711 15.3333 9.35711C15.272 9.35711 15.2126 9.34883 15.1562 9.33333H3.33333C2.22876 9.33333 1.33333 10.2288 1.33333 11.3333V20.6667C1.33333 21.7712 2.22876 22.6667 3.33333 22.6667H15.3333C16.2041 22.6667 16.945 22.1101 17.2195 21.3333ZM4 8H14.6667V6.66667C14.6667 3.72115 12.2789 1.33333 9.33333 1.33333C6.38781 1.33333 4 3.72115 4 6.66667V8ZM22.6667 18V16.6667C22.6667 15.5621 21.7712 14.6667 20.6667 14.6667H11.3333C10.2288 14.6667 9.33333 15.5621 9.33333 16.6667V18C9.33333 19.1046 10.2288 20 11.3333 20H20.6667C21.7712 20 22.6667 19.1046 22.6667 18ZM11.3333 16H12.6667C13.0349 16 13.3333 16.2985 13.3333 16.6667V18C13.3333 18.3682 13.0349 18.6667 12.6667 18.6667H11.3333C10.9651 18.6667 10.6667 18.3682 10.6667 18V16.6667C10.6667 16.2985 10.9651 16 11.3333 16ZM15.3333 16H16.6667C17.0349 16 17.3333 16.2985 17.3333 16.6667V18C17.3333 18.3682 17.0349 18.6667 16.6667 18.6667H15.3333C14.9651 18.6667 14.6667 18.3682 14.6667 18V16.6667C14.6667 16.2985 14.9651 16 15.3333 16ZM19.3333 16H20.6667C21.0349 16 21.3333 16.2985 21.3333 16.6667V18C21.3333 18.3682 21.0349 18.6667 20.6667 18.6667H19.3333C18.9651 18.6667 18.6667 18.3682 18.6667 18V16.6667C18.6667 16.2985 18.9651 16 19.3333 16Z" fill="#F05359"/>
</svg>
